<svg xmlns="http://www.w3.org/2000/svg" viewBox="0 0 640 580.99"><defs><style>.cls-1{fill:#4119ab;}.cls-2{fill:#6b676f;}.cls-3{fill:#55515a;}.cls-4{fill:#fff;}.cls-5{fill:#dfdee0;}.cls-6{fill:#9c9b9b;}.cls-7{fill:#b2b1b3;}.cls-22,.cls-8{fill:#2d8bea;}.cls-9{fill:#f454a8;}.cls-10{fill:#203966;}.cls-11{fill:#182e52;}.cls-12{fill:#f3988c;}.cls-13{fill:#c47971;}.cls-14{fill:#21de80;}.cls-15{fill:#1fb366;}.cls-16{fill:#f3e1c4;}.cls-17{fill:#c2b49d;}.cls-18{fill:none;}.cls-19{fill:#544b4d;}.cls-20{fill:#2b2631;}.cls-21{fill:#943a68;}.cls-22,.cls-23{fill-rule:evenodd;}.cls-23,.cls-24{fill:#256fbb;}.cls-25{fill:#231e26;}.cls-26{fill:#752e51;}.cls-27{fill:#ead8e1;}</style></defs><title>Fichier 2ExportationDeFichier</title><g id="Calque_2" data-name="Calque 2"><g id="Illu"><circle class="cls-1" cx="266.64" cy="256.87" r="241.67"/><path class="cls-1" d="M302.3,529.82c.25,3.83.28,9.23,1.33,12.83,1.69,5.79,7.47,10,9.94,15.49,1.85,4.15,1.74,10.77,7.18,16.35,2.51,2.58,5.11-7.33,5.31-8.2,1.12-4.86,1.11-10.19,1.61-15.19.61-6.12.55-18,2.62-36.5l-31.71,1.91C299.67,520.68,302,525.9,302.3,529.82Z"/><path class="cls-2" d="M200.63,133.78V8.88a7.19,7.19,0,0,0-7.17-7.17H8.88A7.19,7.19,0,0,0,1.71,8.88v124.9A7.19,7.19,0,0,0,8.88,141H193.46A7.19,7.19,0,0,0,200.63,133.78Z"/><path class="cls-3" d="M200.66,9.95v123.8a7.23,7.23,0,0,1-7.21,7.21H10c-2.55,0-4.14-.41-5.55-1.58a.13.13,0,0,1,0-.21L198,3.48a.13.13,0,0,1,.17,0C200.23,5.65,200.66,6.82,200.66,9.95Z"/><path class="cls-4" d="M193.46,1.71a7.19,7.19,0,0,1,7.17,7.17v124.9a7.19,7.19,0,0,1-7.17,7.17H8.88a7.19,7.19,0,0,1-7.17-7.17V8.88A7.19,7.19,0,0,1,8.88,1.71H193.46m0-1.71H8.88A8.89,8.89,0,0,0,0,8.88v124.9a8.89,8.89,0,0,0,8.88,8.88H193.46a8.89,8.89,0,0,0,8.88-8.88V8.88A8.89,8.89,0,0,0,193.46,0Z"/><rect class="cls-5" x="7.45" y="9.11" width="187.44" height="124.45"/><circle class="cls-4" cx="101.17" cy="5.48" r="2.39"/><polygon class="cls-6" points="90.67 123.11 90.67 17.86 164.86 17.86 166.34 19.34 166.34 124.59 92.15 124.59 90.67 123.11"/><rect class="cls-4" x="90.67" y="17.86" width="74.2" height="105.25"/><polygon class="cls-7" points="151.9 110.15 164.12 110.15 151.9 122.37 151.9 110.15"/><polygon class="cls-4" points="164.12 122.37 151.9 122.37 164.12 110.15 164.12 122.37"/><rect class="cls-5" x="98.11" y="28.3" width="59.3" height="2.32"/><rect class="cls-5" x="98.1" y="34.55" width="41.94" height="2.32"/><path class="cls-5" d="M108.5,88V70.39c5.24,3.33,12.06,13.08,15.73,17.87Z"/><path class="cls-5" d="M124.23,88.26l26.61,0C147,92.49,142.79,95,137.7,95S126.84,92.44,124.23,88.26Z"/><path class="cls-8" d="M108.52,103.69a.51.51,0,0,1-.51-.51V58.73a.51.51,0,0,1,1,0v44.44A.51.51,0,0,1,108.52,103.69Z"/><path class="cls-8" d="M157.43,88.74H98.1a.51.51,0,0,1,0-1h59.32a.51.51,0,1,1,0,1Z"/><path class="cls-9" d="M137.7,95.74c-8.3,0-12.8-4.46-20.34-15.13C111,71.54,106.09,68.48,98.1,68.48a.77.77,0,0,1,0-1.53c8.48,0,13.84,3.34,20.51,12.77,8,11.37,12.14,14.48,19.09,14.48s13.91-5.85,19-16.05a.77.77,0,1,1,1.37.69C152.7,89.58,145.27,95.74,137.7,95.74Z"/><path class="cls-9" d="M128.1,65.39a2.51,2.51,0,0,1-2.28-1.47,3.18,3.18,0,0,1,.15-2.71,4.67,4.67,0,0,1,2.86-2.49.42.42,0,0,1,.52.31.41.41,0,0,1-.29.52,3.09,3.09,0,0,0-2.26,2.84,1.4,1.4,0,0,0,1,1.63,1.73,1.73,0,0,0,1.94-1,13.15,13.15,0,0,0,.46-5c0-.83-.1-1.56-.16-2.24a11,11,0,0,1-1.43,1h0a.19.19,0,0,1-.26-.06.19.19,0,0,1,0-.26A19,19,0,0,0,130,55.13l-.11-1c-.09-.78-.17-1.51-.23-2.33,0-.19,0-.42-.05-.66a13.13,13.13,0,0,1,.07-4.4A1.51,1.51,0,0,1,131,45.62a1.34,1.34,0,0,1,1.12.42c1,1,1.15,3.4,1,4.48a7.92,7.92,0,0,1-2.36,4.68l.11,1.16c.06.62.12,1.25.18,1.91a11.3,11.3,0,0,1-.5,5.36,2.73,2.73,0,0,1-2.45,1.77ZM131,46.9c-.42,0-.66.28-.73.83a33.92,33.92,0,0,0,.14,3.73c.09,1.05.17,2,.26,2.93a6.52,6.52,0,0,0,1.47-6.5c-.21-.47-.65-1-1.1-1Z"/><path class="cls-9" d="M136.73,62.29a.43.43,0,0,1-.37-.21c-2.13-3.28-2.72-8.24.27-11.34h0l.1-.1.23.18-.08.13c-2.61,3.27-1.49,7.79.25,10.67a.42.42,0,0,1-.14.59A.49.49,0,0,1,136.73,62.29Z"/><path class="cls-9" d="M142.24,58.43a.39.39,0,0,1-.23-.08c-.53-.39-1-.84-1.51-1.27L140,56.6l-.56-.48a13.59,13.59,0,0,1-1.6-1.51h0a.29.29,0,0,1,0-.38.27.27,0,0,1,.35-.06,12.71,12.71,0,0,1,1.63,1.22l.49.41.65.51c.55.43,1.12.88,1.63,1.37a.43.43,0,0,1,0,.59A.41.41,0,0,1,142.24,58.43Z"/><path class="cls-9" d="M138,58.65l-.08,0a.41.41,0,0,1-.15-.05.23.23,0,0,1-.09-.17.2.2,0,0,1,0-.16l.13-.16c1.22-1.45,2.48-2.94,3.64-4.48a.39.39,0,0,1,.38-.17.4.4,0,0,1,.31.25.39.39,0,0,1-.07.4,49.84,49.84,0,0,1-4,4.5Z"/><path class="cls-9" d="M144.9,61.55a.45.45,0,0,1-.22-.06.44.44,0,0,1-.19-.6c1.91-3.85,1.38-7.55-1.52-10.44a.22.22,0,0,1,0-.29.21.21,0,0,1,.28,0c3.91,2.58,4.1,7.83,2,11.22A.42.42,0,0,1,144.9,61.55Z"/><path class="cls-9" d="M153.19,57.09a2.46,2.46,0,0,1-1.69-.72A2.33,2.33,0,0,1,154,52.61h0a.24.24,0,0,1,.14.15.44.44,0,0,1,.48.3c.32.89.66,2.8-.31,3.62A1.73,1.73,0,0,1,153.19,57.09Zm.26-4.06a1.75,1.75,0,0,0-1.64.85,1.6,1.6,0,0,0,.26,1.92,1.54,1.54,0,0,0,1.32.36.71.71,0,0,0,.53-.5,4.57,4.57,0,0,0-.1-2.15l0-.2a.48.48,0,0,1,0-.26Z"/><path class="cls-9" d="M155.9,56.72a.36.36,0,0,1-.29-.15,13.69,13.69,0,0,1-2.54-7.6.27.27,0,0,1,.17-.27.27.27,0,0,1,.24,0,.24.24,0,0,1,.12.17,31.26,31.26,0,0,0,2.6,7.35.35.35,0,0,1-.31.5Z"/><path class="cls-9" d="M160.65,55.8a.42.42,0,0,1-.28-.11c-.32-.28-.66-.56-1-.84a16.21,16.21,0,0,1-2.48-2.34.2.2,0,0,1,0-.26.19.19,0,0,1,.25,0,9.2,9.2,0,0,1,1.42,1l.42.33,1.34,1.05.63.5a.36.36,0,0,1,.14.35.46.46,0,0,1-.3.34Z"/><path class="cls-9" d="M157.58,56.06h-.08a.27.27,0,0,1-.18-.28,17.77,17.77,0,0,1,2-4.54.4.4,0,0,1,.36-.21.47.47,0,0,1,.4.24.39.39,0,0,1,0,.41c-.53.84-1,1.73-1.43,2.58-.29.57-.59,1.16-.91,1.73A.18.18,0,0,1,157.58,56.06Z"/><path class="cls-9" d="M115.41,67a1.92,1.92,0,0,1-.46-.06,1.22,1.22,0,0,1-.94-1.44.53.53,0,0,1,.5-.43.62.62,0,0,1,.63.41l0,.13c.07.24.11.33.26.34a1.46,1.46,0,0,0,1.19-.45c1.53-1.57,1.07-6.68.88-8.87,0-.28,0-.51-.06-.69-.09-1.31-.22-2.64-.35-3.92s-.28-2.89-.37-4.33c0-.14,0-.3,0-.46-.11-1.27-.25-3,.82-3.91a2.13,2.13,0,0,1,2.59-.11h0a.57.57,0,0,1,.27.57.66.66,0,0,1-.44.51.54.54,0,0,1-.56-.16l-.15-.18a1.3,1.3,0,0,0-.24-.26.67.67,0,0,0-.66,0c-1.15.58-.84,3.61-.73,4.61l0,.26c.09,1,.2,2.05.31,3l.1,1a64.33,64.33,0,0,1,.47,6.82v.48c0,2.42,0,6.92-3.07,7.12Z"/><rect class="cls-10" x="17.41" y="73.22" width="51.37" height="51.37"/><rect class="cls-10" x="17.41" y="73.22" width="51.37" height="51.37"/><path class="cls-11" d="M22.12,124.59c1.12-5.4,3.76-6.95,6.61-7.72s3.53-3,1.7-4.4c-4.12-3-6.3-9.07-6.3-17.73s5-13.15,9.93-13.41a10.89,10.89,0,0,1,9.85,4.42c1.67,2.42,1.49,21.49-1.36,23s-6.94,4.08-7.1,6.73,3.54,3.05,5.34,4.26,3.83,4.84,3.83,4.84Z"/><path class="cls-12" d="M28.74,101.83a3.23,3.23,0,0,0,.64,1.95,11.68,11.68,0,0,1,1.51,1.73,3,3,0,0,1-.21,3.12,7.26,7.26,0,0,0,5.62-1c.32-.22-.4-2.23-.42-2.57-.06-1.35.07-3.77-.76-4.89-.35-.48-2.14-.56-4.45-.69A2.68,2.68,0,0,0,28.74,101.83Z"/><path class="cls-13" d="M35.12,100.13c-.27-.36-1.37-.5-2.91-.6a1.18,1.18,0,0,0-.11,1c-.64,1.53-.48,5.75.83,8.19a6.65,6.65,0,0,0,3.36-1.17c.32-.22-.4-2.23-.42-2.57C35.82,103.68,35.95,101.26,35.12,100.13Z"/><path class="cls-14" d="M53.55,121.19a6.21,6.21,0,0,0-.77-2.69c-1-1.46-2.78-.94-4.23-.74l-5.77.8c-2.29.31-4.62.39-6.92.69q-2.46.32-4.91.75c-1.25.22-3,.28-4.07,1a1.72,1.72,0,0,0-.5.67l-1.53,2.9H54.13C53.92,123.46,53.7,122.33,53.55,121.19Z"/><path class="cls-15" d="M33.39,121.08a4.43,4.43,0,0,0,.17,3.51h.31a4,4,0,0,1-.27-3.46C33.65,121,33.44,121,33.39,121.08Z"/><path class="cls-16" d="M42.36,118.66a18.91,18.91,0,0,0-2.14.07,14.61,14.61,0,0,0-2.92.21,2.93,2.93,0,0,0-2,1.24,3.27,3.27,0,0,0-.24,2.52,4,4,0,0,0,1.08,1.89h7.57a3.68,3.68,0,0,0,.68-1.32C44.91,121.44,44.74,118.88,42.36,118.66Z"/><path class="cls-17" d="M42.36,118.66a18.93,18.93,0,0,0-2.14.07,14.61,14.61,0,0,0-2.92.21,2.93,2.93,0,0,0-2,1.24,2.6,2.6,0,0,0-.28.69c3.08-.42,6.17-.65,9.25-1A2.25,2.25,0,0,0,42.36,118.66Z"/><path class="cls-16" d="M38.56,110.55c0,.3,0,.6-.06.89-.2,1.15-.28,2.31-.49,3.45-.29,1.59-.71,3.14-1.11,4.7-.09.36-.38,1-.28,1.31.21.7,1.19.82,1.77.93a5.38,5.38,0,0,0,2.9,0c1.19-.47.85-1.61.83-2.65a15.74,15.74,0,0,1,.39-3.07c.26-1.42.71-2.71,1-4.11.13-.54.15-.37-.27-.56a8,8,0,0,0-.9-.33c-.51-.16-1-.2-1.55-.36S39,108.92,38.66,110A2.1,2.1,0,0,0,38.56,110.55Z"/><path class="cls-17" d="M40.75,117.46c0,.11-.09.22-.12.34a.13.13,0,0,0,.09.15.13.13,0,0,0,.15-.09c0-.11.08-.22.12-.34a.12.12,0,0,0-.08-.15.12.12,0,0,0-.15.08Z"/><path class="cls-17" d="M41.34,116.44a3.39,3.39,0,0,0,.33-1.11c0-.23-.34-.23-.36,0a3.89,3.89,0,0,1-.23,1c-.06.15.19.26.27.11Z"/><path class="cls-17" d="M43.28,111.47a8,8,0,0,0-.9-.33c-.51-.16-1-.2-1.55-.36S39,108.92,38.66,110a2.1,2.1,0,0,0-.11.57c0,.3,0,.6-.06.89-.11.65-.19,1.31-.27,2a15.42,15.42,0,0,0,4.57,1.5c.24-1,.53-1.88.76-2.86C43.68,111.49,43.7,111.66,43.28,111.47Z"/><path class="cls-16" d="M44,112.47h0a9.88,9.88,0,0,1-10.06-10V92A10.26,10.26,0,0,1,44,81.59h0c2.53,0,7.22,2.19,8.39,8.29a56.78,56.78,0,0,1,1.87,12.41A10.25,10.25,0,0,1,44,112.47Z"/><path class="cls-12" d="M42.74,78.43a21.11,21.11,0,0,1,8.43,1.89,30.11,30.11,0,0,0,8,2c.64.07,3.34.34,4,.39,1.75.3,1.2,3.11-1,2.29a3.77,3.77,0,0,0-3.12-.19A.93.93,0,0,0,59,86.12c.29.34.6.79.44,1.21s-.83.84-1.08,1.06c-1.45,1.28-.73,2.55,1.15,3.54,0,.73-1,2.17-2,2.17-.83,0-3.61-1.11-4.42-1.11l-.58-2.42a38.55,38.55,0,0,1-6.4-3.87c-2.85-2.15-5.13-.35-5.4,1.92-3.45-.91-5.29,1.59-4.41,5.77.27,1.28,1.3,2.73.31,3.6-1.19,1-3,.89-4.54.6a7.58,7.58,0,0,1-4.32-2.13A6.57,6.57,0,0,1,30.16,86.2c1.43-.62,2.82-.75,4.13-1.59C35.11,80.74,38.15,78.43,42.74,78.43Z"/><path class="cls-12" d="M33.53,76.76a12,12,0,0,0-.63,3.92,5.43,5.43,0,0,0,.55,2.17,4,4,0,0,0,2.48,2.23c1.74.68-.76,2.35-1.94,2a3.61,3.61,0,0,1-2.11-2.37A9.51,9.51,0,0,1,33.53,76.76Z"/><circle class="cls-16" cx="31.94" cy="98.1" r="2.99"/><path class="cls-16" d="M36.83,83a7.4,7.4,0,0,1,3.52-2.49,6.38,6.38,0,0,1,4.8.52c.36.19.67-.36.32-.54a6.7,6.7,0,0,0-8.87,2.32c-.08.14.12.31.24.18Z"/><path class="cls-16" d="M28.38,90.79a4.71,4.71,0,0,1,4.84-2.93.28.28,0,1,0,.08-.56A4.92,4.92,0,0,0,28,90.69c-.06.23.26.3.34.09Z"/><path class="cls-16" d="M32.67,85.16a4.16,4.16,0,0,1-1.47-2.42,5.92,5.92,0,0,1,.55-3.37.23.23,0,1,0-.41-.17,6.35,6.35,0,0,0-.53,3.66,3.59,3.59,0,0,0,1.69,2.53c.14.07.3-.11.17-.22Z"/><path class="cls-16" d="M55,82.52a34,34,0,0,0,9.51,1.17.23.23,0,0,0,0-.47,41.53,41.53,0,0,1-9.43-1,.16.16,0,0,0-.08.31Z"/><path class="cls-16" d="M56.63,86.21a8,8,0,0,0,3,.51.29.29,0,0,0,0-.58,12.65,12.65,0,0,1-2.88-.37.23.23,0,0,0-.12.44Z"/><path class="cls-16" d="M55.78,89.85a8,8,0,0,0,2.65,1.38.3.3,0,0,0,.16-.57,8.14,8.14,0,0,1-2.48-1.23c-.24-.18-.57.23-.33.42Z"/><path class="cls-13" d="M59,93.06c-1.07-.47-2.2-.74-3.26-1.23a22.47,22.47,0,0,1-4.89-2.66c-1.55-1.25-3.56-3.4-5.36-4.3a3.14,3.14,0,0,0-3.18.17c-1,.67-1.93,2.22-1.45,2.83h0c.63-1.87,2.7-3.07,5.22-1.17a38.56,38.56,0,0,0,6.4,3.87L53.09,93c.81,0,3.59,1.11,4.42,1.11A2.11,2.11,0,0,0,59,93.06Z"/><path class="cls-18" d="M42.74,78.43a21.11,21.11,0,0,1,8.43,1.89,30.11,30.11,0,0,0,8,2c.64.07,3.34.34,4,.39,1.75.3,1.2,3.11-1,2.29a3.77,3.77,0,0,0-3.12-.19A.93.93,0,0,0,59,86.12c.29.34.6.79.44,1.21s-.83.84-1.08,1.06c-1.45,1.28-.73,2.55,1.15,3.54,0,.73-1,2.17-2,2.17-.83,0-3.61-1.11-4.42-1.11l-.58-2.42a38.55,38.55,0,0,1-6.4-3.87c-2.85-2.15-5.13-.35-5.4,1.92-3.45-.91-5.29,1.59-4.41,5.77.27,1.28,1.3,2.73.31,3.6-1.19,1-3,.89-4.54.6a7.58,7.58,0,0,1-4.32-2.13A6.57,6.57,0,0,1,30.16,86.2c1.43-.62,2.82-.75,4.13-1.59C35.11,80.74,38.15,78.43,42.74,78.43Z"/><path class="cls-19" d="M40.06,91.44c.82,0,1.62-.26,2.45-.26A14.06,14.06,0,0,1,45,91.4a.56.56,0,1,0,.15-1.11,10,10,0,0,0-2.64.08,7,7,0,0,0-2.53.71.19.19,0,0,0,.1.36Z"/><path class="cls-12" d="M48.66,91.87a6,6,0,0,0-2.24,3,6.86,6.86,0,0,0-.36,3.42c.05.49.12,1.21.11,1.51,0,1.07,0,1.81,0,2.66,0,.32-.64.38-1,.41s-.7-.39-1-.22-.06.47.15.65a3,3,0,0,0,1.54.3c.25,0,.85-.15,1-.41a2.31,2.31,0,0,0,.12-.87,35,35,0,0,0-.57-4.12A6.63,6.63,0,0,1,46.6,95a6.92,6.92,0,0,1,.84-1.65A12,12,0,0,1,48.72,92,.06.06,0,0,0,48.66,91.87Z"/><circle class="cls-12" cx="43.17" cy="98.53" r="0.41"/><circle class="cls-12" cx="43.51" cy="99.89" r="0.41"/><circle class="cls-12" cx="41.66" cy="99.44" r="0.45"/><circle class="cls-12" cx="48.27" cy="98.78" r="0.41"/><circle class="cls-12" cx="48.94" cy="100.12" r="0.37"/><circle class="cls-12" cx="50.37" cy="99.58" r="0.45"/><path class="cls-19" d="M48.6,92a17.92,17.92,0,0,1,2.48.87c.36.16.84-.3.47-.61a7.36,7.36,0,0,0-2.63-1.42A.6.6,0,0,0,48.6,92Z"/><path class="cls-19" d="M44.17,94.37a7,7,0,0,0-3.29.16c-.17.05-.11.27.08.24a10.42,10.42,0,0,1,1.11-.14c-.06.1-.1.22-.14.31a2.57,2.57,0,0,0-.29,1.15.35.35,0,0,0,.15.25,4.59,4.59,0,0,0-.78.1c-.18.06-.11.28.08.25a7.64,7.64,0,0,1,2.06-.06c.26,0,.26-.34,0-.35h-.45a14.77,14.77,0,0,0,.15-1.66,7.19,7.19,0,0,1,1.21.14C44.34,94.81,44.47,94.42,44.17,94.37Z"/><path class="cls-19" d="M50.36,95.17a15.1,15.1,0,0,0-2.61-.43.14.14,0,0,0,0,.28l.67.19a3.07,3.07,0,0,0-.48,1.16.35.35,0,0,0,.09.33,4.67,4.67,0,0,0-.53,0,.13.13,0,1,0,0,.25,10.44,10.44,0,0,1,1.93.16c.21,0,.3-.23.09-.28a3.16,3.16,0,0,0-.57-.07v0A5.18,5.18,0,0,0,49,96a1.89,1.89,0,0,0,.06-.6l1.15.24C50.55,95.69,50.69,95.25,50.36,95.17Z"/><path class="cls-19" d="M30.75,98.49a1,1,0,0,1,.47-1.26c.39-.18,1.6-.1,1.64.51l.23-.17a1.12,1.12,0,0,0-1.33.5.74.74,0,0,0,.42,1c.23.09.34-.29.1-.38-.39-.15-.15-.59,0-.71a1,1,0,0,1,.67,0,.18.18,0,0,0,.23-.17c0-.84-1.36-1.14-2-.89a1.27,1.27,0,0,0-.66,1.72c0,.11.24,0,.2-.08Z"/><path class="cls-19" d="M40.13,105.33a3.83,3.83,0,0,0,2.73,2.12,5,5,0,0,0,3.78-.24c.39-.23,0-.8-.35-.6a4.67,4.67,0,0,1-3.25.2,4.24,4.24,0,0,1-2.58-1.66.19.19,0,0,0-.33.19Z"/><rect class="cls-8" x="17.41" y="17.86" width="51.37" height="51.37"/><path class="cls-10" d="M49.83,61.19a10.12,10.12,0,0,0-6.55-.44c-1.32.3-7,1.7-8.18,2.14a6.56,6.56,0,0,0-2.8,1.35c-.92.86-1.92,3-3,5H62.1A14.48,14.48,0,0,0,62,67.71a3.34,3.34,0,0,0-1.73-3C57.9,63.16,52.3,62.39,49.83,61.19Z"/><path class="cls-16" d="M43.33,54.64c-.41-.2.06,5.36-.19,6.53a2.59,2.59,0,0,0-1.78,2.49c0,1.57,1.78,3,4.08,3,3,0,5.1-1.89,5.1-3.61a1.21,1.21,0,0,0-.65-1.22,3.64,3.64,0,0,1-1.42-1.64c-.94-2.09-.29-5.54,0-8.47C46.9,50.88,44.48,53.56,43.33,54.64Z"/><path class="cls-17" d="M44,57.71a11.57,11.57,0,0,0,4-1.4c.07-1.42.31-3,.47-4.63-1.57-.79-4,1.89-5.14,3-.23-.11-.19,1.49-.15,3.16Z"/><path class="cls-16" d="M53.08,38.87c0,6.29-5.1,17.31-11.4,17.31S31.57,47.46,31.57,38.89c0-6.29,3.82-11.42,10.12-11.42A11.4,11.4,0,0,1,53.08,38.87Z"/><ellipse class="cls-19" cx="42.31" cy="40.88" rx="0.7" ry="0.88"/><ellipse class="cls-19" cx="34.62" cy="40.88" rx="0.7" ry="0.88"/><path class="cls-20" d="M62,29.54a6.95,6.95,0,0,0-10.89-5.73,12.25,12.25,0,0,0-7.25-2A18.54,18.54,0,0,0,33.47,24.7c-4.22,2.47-7.69,7.86-6,9.27l.12.08a11.51,11.51,0,0,0-.65,6.64h0a11.18,11.18,0,0,1,1.36-6.16,6.43,6.43,0,0,0,3.69.79,12.54,12.54,0,0,1,1.63-3.66C34.76,30,35.52,29.91,38.4,30c.7-.5,2.1-2,2.86-2.08a16.08,16.08,0,0,0-.76,2.23c4.62.51,6.86,1.34,8.36,2.56l0,.07a43.33,43.33,0,0,1-1.27,8.51c1.21.23,2.06-1.35,2.22-2.9.95.48,3.23,1.73,3.14,3.33-.07,1.27-.77,1.59-2.69,2.74a7.56,7.56,0,0,0,1.93-.25c-.06.22-.15.47-.23.72a4.42,4.42,0,0,1-1.74.88,1.5,1.5,0,0,0,1.44,0,24.44,24.44,0,0,1-1.6,3.52,4.76,4.76,0,0,0,.82,1.5c.14.18.25.08.17-.13a4,4,0,0,1-.22-1.71.19.19,0,0,1,.16-.16,8.31,8.31,0,0,0,1.43,1.5c.24.18.31.09.14-.16a4,4,0,0,1-.77-1.92c1.61.18,5.22.33,7.37-2.36a8.09,8.09,0,0,1-2.63-4.77s.74,2.77,3,2.21c-2-1.68-2.76-4.16-3.31-6.9A6.94,6.94,0,0,0,62,29.54Z"/><circle class="cls-16" cx="52.42" cy="39.82" r="3.13"/><path class="cls-19" d="M51.67,39.54c.22-.07.42-.17.64,0a.51.51,0,0,1,.18.57.28.28,0,0,0,.53.15,1,1,0,0,0-.42-1.15.9.9,0,0,0-1.15.17.2.2,0,0,0,.23.29Z"/><path class="cls-12" d="M36.72,46a.07.07,0,0,0,0-.13.07.07,0,0,0,0,.13Z"/><path class="cls-4" d="M27,36.49a13.38,13.38,0,0,1,5.37-8.4c.32-.22-.05-.73-.36-.48a13.21,13.21,0,0,0-5.17,8.86.08.08,0,0,0,.16,0Z"/><path class="cls-12" d="M37.86,46.33c-.29.14-.78.63-.79.05a18.46,18.46,0,0,1,.71-4,24,24,0,0,0,.63-3.83c-.06-1.33-.26-1.85-1.36-2.44-.22-.12-1,.2-.43.37a1.7,1.7,0,0,1,1.26,2c0,1.14-1,5.15-1.7,8.07a.66.66,0,0,0,.22.62c.15.12,1-.29,1.48,0,.81.42,1.16-.11,1.13-.39S38.66,45.93,37.86,46.33Z"/><path class="cls-4" d="M35.69,49.19a15.52,15.52,0,0,0,9.65-.33c-1.18,2.2-3.08,4.56-5,4.56C38.9,53.42,36.78,51.19,35.69,49.19Z"/><path class="cls-12" d="M35.6,49.14a11.23,11.23,0,0,0,4.75.86,15.4,15.4,0,0,0,4.89-.79.2.2,0,1,0-.11-.38,16.15,16.15,0,0,1-4.8.78,16.49,16.49,0,0,1-4.61-.6c-.09,0-.19.06-.11.13Z"/><path class="cls-19" d="M42.92,36.19a4.7,4.7,0,0,1,2.21,1.18c.35.39.71,0,.44-.47-.74-1.3-3.12-2-4.86-1.45a.79.79,0,0,0-.23,1A4.68,4.68,0,0,1,42.92,36.19Z"/><path class="cls-19" d="M37.13,35.63a2.24,2.24,0,0,0-2-.42c-.79.1-2.19.37-2.7,1.1-.27.38,0,.78.28.41.69-.93,2.87-.78,3.9-.29.19.09.4-.14.43-.37Z"/><path class="cls-4" d="M44.24,23.39A6.46,6.46,0,0,1,51.33,27c.13.27.52,0,.4-.23a6.45,6.45,0,0,0-7.55-3.6.1.1,0,0,0,.05.19Z"/><path class="cls-4" d="M53.11,24.43a6.46,6.46,0,0,1,7.1,3.64c.13.27.52,0,.4-.23a6.45,6.45,0,0,0-7.55-3.6.1.1,0,0,0,.05.19Z"/><path class="cls-9" d="M51.6,23.77l.48.34.14-.09s-1.79-3.64-3.11-6.17h-.88C49.28,19.72,51.6,23.77,51.6,23.77Z"/><path class="cls-4" d="M34.51,26.22a2.59,2.59,0,0,0-1,.51c-.22.17.06.53.26.34a3.23,3.23,0,0,1,.86-.56c.15-.07.1-.33-.07-.29Z"/><path class="cls-12" d="M225.05,162.39c32.72,0,56.34-11.29,51.27-22.6-10.25-22.89-29.37-38.28-51.27-38.28-13.75,0-26.4,6.07-36.45,16.25-7.25,7.35-9.77,14.37-10.91,26C176.62,154.67,192.34,162.39,225.05,162.39Z"/><path class="cls-21" d="M226.51,103.67c1.25,7.85,2.88,16.12,7.64,22.46a16.34,16.34,0,0,0,4,5.26,2.8,2.8,0,0,0,.58.37,15,15,0,0,0,7.38,4.79c3.54,1.17,8.6,2,12.24,1a8.78,8.78,0,0,0,4.28-3.27,13.58,13.58,0,0,0,5.09-5.56c1.77-3.36-2.24-6.06-5-3.86a24.18,24.18,0,0,0-4.22,4.57,4.69,4.69,0,0,1-1.19.29,3.19,3.19,0,0,0-2.76,2.18,14.91,14.91,0,0,1-5.14-.59c-2.6-.64-5.06-1.56-6.64-3.57a2.58,2.58,0,0,0-.54-1.26c-.24-.32-.46-.64-.68-1-.71-1.82-1.17-3.78-1.72-5.66a4.55,4.55,0,0,0-.62-1.82,2.61,2.61,0,0,0-2.23-1.41l-.14-.1,0-.06c-.28-2.33-.59-4.65-.94-7a3,3,0,0,0,.09-1.2c-.25-1.87-.53-3.73-.79-5.59a46.41,46.41,0,0,0-10.17-1.13h-.14c.06.08.11.17.18.25A16.16,16.16,0,0,1,226.51,103.67Z"/><path class="cls-21" d="M221.83,125.79c2.79,7.71,5.37,16.08,9.7,23.09,1.37,2.22,4.94.07,3.47-2a77.52,77.52,0,0,1-12.11-26.17c-1.06-4.24-2-8.52-3-12.78a43.58,43.58,0,0,0-1.53-5.89c-1.11.16-2.2.35-3.29.59,1.07,3.21,1.55,6.6,2.35,9.89A129.23,129.23,0,0,0,221.83,125.79Z"/><path class="cls-21" d="M209.89,123a1.21,1.21,0,0,0,2.36-.32c-.37-5.56-.4-13-3.09-18.32-1.21.44-2.41.91-3.59,1.44.34,2.23,1.13,4.47,1.66,6.6C208.12,115.88,209.11,119.4,209.89,123Z"/><path class="cls-21" d="M202.38,124c-.54-5.11-.87-10.48-1.87-15.6q-1.64,1-3.21,2.06A86.55,86.55,0,0,1,200.37,124C200.52,125.26,202.51,125.29,202.38,124Z"/><path class="cls-21" d="M186.19,130.61a51.54,51.54,0,0,0-4.21-3.9c-.41.8-.78,1.6-1.12,2.44q1.93,1.45,3.76,3A1.11,1.11,0,0,0,186.19,130.61Z"/><path class="cls-21" d="M193.07,122.83a64.47,64.47,0,0,0-2.8-6.7c-.54.5-1.07,1-1.59,1.54a51.48,51.48,0,0,1,2.48,5.68C191.59,124.54,193.49,124,193.07,122.83Z"/><path class="cls-22" d="M571.07,427c-5.5-5.4-17.8-18.35-41.79-18.35.83-16.89-.16-71.07-1-92.06-.18-4.62-.77-10.92-4.67-14a15.36,15.36,0,0,0-1.35-.9l-3.1-1.92c-2.33-1.44-15-7.34-10.47-9.92,23.34-13.21,30.85-37.73,30.48-63l-1.4-94.14a455.8,455.8,0,0,0-5-63.36c-20.08,9.87-38.75,22.39-59,32a40.78,40.78,0,0,0-20.17,21.7c-52.11-1.53-104.22,2-156.36,2-8.82,0-13.57,3.3-15.66,10.76-12.34-14.05-18,4.57-28.19,4.57-23.52,0-24.43-14.07-47.89-12.44-3.8.26-10,2.16-15.14,5.26-1.56-1.49-4.34-2.85-9.46-4.12-7.88-1.95-19.05-2.7-30.22-4.37-12.92-3.84-27.82-6.26-40.49-7.9-2.46-.32-1,30.48-.77,34.56,2.78,44,14.85,86.34,21.41,129.7,1.05,6.94,1.85,13.92,2.52,20.91,1.54,15.87,4.73,36.46,24.17,36.34a6.06,6.06,0,0,0-.62.89c-1.26,2-4,6.46-4.18,6.81a41.8,41.8,0,0,0-5,12.76c-1.26,6,.26,14.45.91,20.56a200.85,200.85,0,0,1,1.14,20.17c0,3.68,1.41,5.42,2.43,7.54.3.62,1.1,2.44,1.34,3.09-7.76-1.09-16.45,3.86-20.15,10.77A261.61,261.61,0,0,0,119,452,31.29,31.29,0,0,0,117,459.3a33.72,33.72,0,0,0-.15,3.89,19.4,19.4,0,0,0,.45,5.11c.63,2.32,5.85,6.46,3.79,9.11-1.61,2.07-6-.69-8-1.1-5.13-1-11.53-1.14-15.71,2.46A20.8,20.8,0,0,0,94.55,482c-5.37,7-10.06,13.43-14,21.42-1.45,3-6.95,22.69-8.78,25.75,18.49-.19,36.33-3.43,54.77-3.91,34.76-.9,69-2.52,103.75-4.61l163.61-9.84,48.9-2.94L548,501.52c30.56-1.84,61.41-5.17,92-7C617,470.59,595.82,451.35,571.07,427Z"/><path class="cls-23" d="M507.43,295.78c2.87,3.69,6.2,7.1,8.55,11.14,4.51,7.76,5.06,16.81,5.49,25.57.63,12.65,1.26,25.37-.14,38-1.16,10.4-2.76,23.55-8.64,30a62.91,62.91,0,0,1-8.56,6.86,158.21,158.21,0,0,1-21,12.25c2.64,1.32,5.79.77,8.68.14a239,239,0,0,0,37.51-11.44c.8-17.35-.19-70.8-1-91.62-.18-4.62-.77-10.92-4.67-14a15.36,15.36,0,0,0-1.35-.9l-3.1-1.92c-2.33-1.44-15-7.34-10.47-9.92,19.36-11,27.83-29.7,29.94-50.18-4.19,7.11-8.18,15.55-10.45,17.68-7.55,7.09-17.31,11.27-27,15a500,500,0,0,1-126.14,30.74c-2.89.31-6.3,1-7.44,3.64-1.28,3,1.57,6.41,4.75,7.13s6.45-.34,9.63-1.08,6.79-1.08,9.44.82l-2.66,2.15c3.85,5.33,11.26,7,17.77,6s12.48-4,18.58-6.49c17.42-7,36.33-9.22,54.8-12.64A183.12,183.12,0,0,0,507.43,295.78Z"/><path class="cls-23" d="M571.07,427c-3.37-3.31-9.31-9.46-18.93-13.72,0,0,8.18,9.32,11.85,13.25a366.54,366.54,0,0,1,29.74,36.12c4.4,6.16,9.1,13.5,13.79,20.54-8.9.18-28.93.16-37.8.59-16.07.78-32.62-4.27-49-5.28-35.14-2.17-70.29,1.87-105.14,5.92-38,4.41-58.59,8.94-96.43,12.58-3.8-12.35-8.07-19.47-14.25-29.45-8.13-13.14-13.9-21.42-15.7-32.79-2.19-13.84-4.14-29,3.14-41a20.65,20.65,0,0,1,9.58-8.7c3.67-1.47,7.73-1.5,11.68-1.5l51.75,0c4.42,0,8.84,0,13.25-.34A178.56,178.56,0,0,0,399.47,380l32.61-6.39c20.75-4.07,41.85-8.25,60.51-18.21,4.36-2.33,9.21-6.69,7.39-11.28-1.35-3.4-5.59-4.47-9.23-4.76-20.56-1.63-40.38,6.72-60,13A313.17,313.17,0,0,1,328,367.13c-13.46-.32-27-1.51-40.29.79A78,78,0,0,0,256,381.08c-2.42,1.71-4.81,3.65-6.11,6.31a17.63,17.63,0,0,0-1.44,6.84c-1.78,31.66,30,51.78,33.21,83.33.49,4.81,11.86,18.95,13.77,23.27-2.14.13-27,0-29.12.11-10.22.53-12.35,3-22.68,4.83-4.78.82-12.37,3.64-17.15,4.47-6.92-3-20.11-7.8-25.47-13.15-10.55-10.54-25-23-57.26-24.85-4.91-.29-8.41-4.4-11.48-8.44a14.42,14.42,0,0,1-2.61-4.62,16.09,16.09,0,0,1-.39-4.64c.06-4.43.09-8.46,2.1-12.4s2.06-9.06,3-13.3c.83-3.69,1.81-7.63,4.66-10.11,2.3-2,5.46-2.7,8.49-3,5.9-.62,10.84,1.34,16.6,1.81a38.86,38.86,0,0,0,16.17-2c2.31-.83,4.63-1.89,7-2.82a17.69,17.69,0,0,0-2.92-5.41c-1.89-.79-3.8-1.56-5.57-2.41l-.82-.41c-2.21,0-4.41-.16-6.6-.37-1.76-.17-4-.07-5.53-1-1.2-.74-1.94-2.23-2.88-3.25-1.6-1.73-3-3-3.71-5.3a71.39,71.39,0,0,1-1.51-7.41c-1-5.54-1.58-11.29-3.06-16.73a32,32,0,0,1-.43-14.61c.62-3.23.63-6.83,3.18-9.29,1.93-1.87,6-2.47,8.39-2.47h11c4.45,0,9.69,4,15.28,4.76,21.06,2.85,43.52.26,64.49,3.9,2.41-1.66,5.55.46,8.79,1.21,4.17,1,4,.18,8.2-.67a52.75,52.75,0,0,0,11,.42c5.49,1.9,11.34,2,17.08,1.7,4.8-.22,8.94,1.74,13.67,1.84,3.31.07,6.61-1.2,9.85-1.74l32-5.3a65.06,65.06,0,0,0,1.73-14q7.82-1.12,16-2.42A22.36,22.36,0,0,0,393.16,313c-12.8,3.65-24.28,6.4-34.95,8.51-.47-4.32-1.09-8.64-1.72-12.92l-4-27.52a33.25,33.25,0,0,0-1.52-6.9,62.83,62.83,0,0,0-3.16-6.28c-4.24-8.33-7.1-15.76-12.93-23.36-9.8-12.77-16.06-26-9-41.83,3-6.69,7.1-12.89,9.28-19.88a54.86,54.86,0,0,0,2.19-14.15c.42-10.13.46-41-13.28-42.71a130.56,130.56,0,0,0-15.79-.78l-7.49,0h-3.44c-.62,0-1.22,0-1.81.06l-.54,0c-.4,0-.8.07-1.18.12l-.57.08c-.37.06-.74.12-1.09.2l-.47.1c-.49.12-1,.24-1.41.39h0a85,85,0,0,0-.7,12.94c.05,11.52,1.66,32,9.33,41.08l8.72,10.37c2,2.32,4,4.78,4.56,7.75s-.82,6.58-3.76,7.34c-8.92,2.32-16.09,2.36-20.8,11.93-3,6.16-3.58,13.21-4.08,20.06-.69,9.55,2.86,19.09,2.17,28.64-.41,5.62-.9,9.76.17,15.3,1.12,5.81-.33,12.75,2.34,18,4.95,9.79,9.45,19,12,28.9-12.87.8-26.07,1.35-40.89,2.33-2.09.14-6.4,3-3.79,7.4,3.24,5.5,16.66,3.86,21.76,4.53,3,.39,6.52,1.25,7.39,4.11l-1.8,2.62-1.81,0c-16.06.18-32.27-1.44-42.45-5.42-5.2-2-18.73-6-22.32-4.57-10.73,4.35-22.64-5.55-25.94-16.65-6.2-20.87,4.47-42.55-10.72-61C174,255,167,249.62,160.84,243.35c-15.46-15.73-24.71-36.15-31.22-56.95-6.29-20.06-8.41-43.95-19.52-62.07-.07-.12-.19-.23-.28-.35l-.78-2.25c-.61,8.75.23,26.73.43,29.79,2.78,44,14.85,86.34,21.41,129.7,1.05,6.94,1.85,13.92,2.52,20.91,1.54,15.87,4.73,36.46,24.17,36.34a6.06,6.06,0,0,0-.62.89c-1.26,2-4,6.46-4.18,6.81a41.8,41.8,0,0,0-5,12.76c-1.26,6,.26,14.45.91,20.56a200.85,200.85,0,0,1,1.14,20.17c0,3.68,1.41,5.42,2.43,7.54.3.62,1.1,2.44,1.34,3.09-7.76-1.09-16.45,3.86-20.15,10.77A261.61,261.61,0,0,0,119,452,31.29,31.29,0,0,0,117,459.3a33.72,33.72,0,0,0-.15,3.89,19.4,19.4,0,0,0,.45,5.11c.63,2.32,5.85,6.46,3.79,9.11-1.61,2.07-6-.69-8-1.1-5.13-1-11.53-1.14-15.71,2.46A20.8,20.8,0,0,0,94.55,482c-5.37,7-10.06,13.43-14,21.42-1.45,3-6.95,22.69-8.78,25.75,18.49-.19,36.33-3.43,54.77-3.91,34.76-.9,69-2.52,103.75-4.61l163.61-9.84,48.9-2.94L548,501.52c30.56-1.84,61.41-5.17,92-7C617,470.59,595.82,451.35,571.07,427ZM174.74,511.41c-4.11.23-8.24.18-12.36.13-14.22-.17-26.69,1.16-40.53,2.75-3,.35-19.81,1-32.36,2.23q1.57-4.92,2.75-9.95c1.22-5.24,2.16-10.67,4.84-15.34s7.6-8.51,13-8.13c2.47.18,4.79,1.21,7.21,1.7,4.24.86,6.76-1.21,10.4-2.2,6.81-1.85,13.29-2.59,21.55.25s18.65,5.89,23.47,7.82a35.68,35.68,0,0,1,19,17.79C186.6,511.65,181.77,511,174.74,511.41Z"/><path class="cls-24" d="M507.06,306.79c2.21.18,1.5,2.84-.37,3.7-13.46,6.23-22.51,8.79-37.13,11.24-8,1.34-15.6,4.19-18.07,8.32a108.7,108.7,0,0,0,26.73-4.81c5.74-1.8,12.69-3.85,17.18.15l-30,5.58c-3.5.65-7.92,2.4-7.68,6,.12,1.74,1.43,3.18,1.74,4.89.72,3.9-3.65,6.64-7.33,8.1-30.47,12.09-50.54-8-33.51-16.15,14.91-7.15,27.33-16.54,44.18-18.51C481.57,313.08,489.83,314.78,507.06,306.79Z"/><path class="cls-21" d="M275.14,353.93l-40.72-34.1a1,1,0,0,0-1-.19l-35.35,12a1,1,0,0,0-.37.22l-3.82,3.52-5.55-.36a1,1,0,0,0-.4.05L145.25,349.5a1,1,0,0,0-.38,1.72l44.81,42.44a1,1,0,0,0,1.17.17l37.76-19.3a6.37,6.37,0,0,0,5.75.27,7.86,7.86,0,0,0,4.34-5l36.15-14.15a1,1,0,0,0,.29-1.74Z"/><path class="cls-4" d="M233.68,370.51c5.87-12.62,21.22-15.89,38.12-16.43l-42.19-35.51c-19.07-1.34-30.72,4.92-36.17,15.88Z"/><path class="cls-4" d="M233.68,370.51c-12-6.63-24.41.6-42.46,19.56l-44.89-42.92c18.2-18.68,34-24.53,47.12-12.7Z"/><path class="cls-12" d="M304.09,157a10.42,10.42,0,0,0,2.05,6.27c1.21,1.52,4,3.7,4.87,5.59,2,4.25,1.12,6.94-.67,10.08,6.72,1.12,12.54.45,18.14-3.36,1-.7-1.29-7.21-1.34-8.29-.2-4.34.22-12.15-2.45-15.79-1.13-1.53-6.91-1.79-14.34-2.24C309.14,149.23,304.78,151.47,304.09,157Z"/><path class="cls-13" d="M324.68,151.47c-.86-1.17-4.43-1.6-9.37-1.93a3.82,3.82,0,0,0-.34,3.36c-2.05,4.95-1.54,18.55,2.69,26.42a21.45,21.45,0,0,0,10.83-3.78c1-.7-1.29-7.21-1.34-8.29C326.94,162.91,327.35,155.11,324.68,151.47Z"/><path class="cls-5" d="M275.6,478.75A64.71,64.71,0,0,1,285,499.3a90.3,90.3,0,0,1,2.33,16l1.44,17a89.69,89.69,0,0,1,.44,14.33c-.27,3.51-.95,7-.84,10.51s1.11,7.19,3.67,9.6c4.87,4.58,13.74,3.32,17.73,8.69.61.82,1.06,1.75,1.66,2.57a6.91,6.91,0,0,0,6.72,2.83,5.2,5.2,0,0,0,4.1-5.63,13.52,13.52,0,0,0-1-2.68c-3.73-9.12,3.48-20.26-.9-29.09-1.4-2.83-3.83-5-5.92-7.35-3.49-3.93-6.25-8.82-6.36-14.08-.15-7,4.34-13.9,2.54-20.67-1.48-5.6-6.74-9.17-10.91-13.19-4.4-4.24-9.25-11.31-12.93-18Z"/><path class="cls-9" d="M312.07,549.34,309,539.58c-1.06-.15-2.12-.26-3.19-.31a36.09,36.09,0,0,0-16.44,2.64c0,1.59,0,3.19-.13,4.78s-.31,3-.48,4.55a74.23,74.23,0,0,1,17.36-2.31A46.94,46.94,0,0,1,312.07,549.34Z"/><path class="cls-9" d="M305.49,528.58l-3.13-9.88c-.78-.07-1.55-.12-2.31-.16a25.86,25.86,0,0,0-12.26,2.22l.85,10.1c3.49-.74,7-1.58,10.52-2A55.88,55.88,0,0,1,305.49,528.58Z"/><path class="cls-9" d="M294.84,496.81a44,44,0,0,0-9.34,4.51,78.77,78.77,0,0,1,1.43,9.57,49.18,49.18,0,0,1,11.68-3.84C297.44,503.56,296.2,500.15,294.84,496.81Z"/><path class="cls-9" d="M286.83,480.58a22.93,22.93,0,0,0-7.37,4.52,63.68,63.68,0,0,1,3.17,6.9,32.91,32.91,0,0,1,8.21-4.1C289.61,485.42,288.28,483,286.83,480.58Z"/><path class="cls-9" d="M309.77,575.47c.61.82,1.06,1.75,1.66,2.57a7.44,7.44,0,0,0,1.75,1.67,7.49,7.49,0,0,0,4.8-5c1-3.45-.13-7.11-1.21-10.52l-.71-2.23a45.29,45.29,0,0,0-10.73-1.32,41,41,0,0,0-15.88,2.17,10.72,10.72,0,0,0,2.59,4C296.92,571.36,305.79,570.1,309.77,575.47Z"/><path class="cls-7" d="M306.36,531.32l2.61,8.25a28.79,28.79,0,0,1,11.45,4l-.05-.11c-1.4-2.83-3.83-5-5.92-7.35a27.9,27.9,0,0,1-4.83-7.38c-1.37-.1-2.75-.16-4.12-.16Z"/><path class="cls-7" d="M298.62,507.05q.88,2.6,1.72,5.27l2,6.39a28.81,28.81,0,0,1,5.82,1h0c.45-4.3,2.2-8.56,2.71-12.77A34.22,34.22,0,0,0,298.62,507.05Z"/><path class="cls-7" d="M315.29,549.89c-1.07-.23-2.15-.4-3.23-.55l4,12.62a17.34,17.34,0,0,1,4.21,1.79c.33-3.9,1.29-7.9,1.51-11.76-1-.35-1.95-.72-2.93-1.07C317.66,550.65,316.49,550.24,315.29,549.89Z"/><path class="cls-7" d="M294.84,496.81c.65-.22,1.3-.42,2-.6a24.53,24.53,0,0,1,10.47-.81c-2.23-2.59-5.08-4.82-7.56-7.21-.7-.68-1.42-1.43-2.14-2.24-2.29.56-4.55,1.18-6.74,1.95C292.3,490.82,293.62,493.78,294.84,496.81Z"/><path class="cls-7" d="M286.83,480.58a22.52,22.52,0,0,1,5.56-1.32,104.34,104.34,0,0,1-5.61-9.09l-4,3.11a14.75,14.75,0,0,0,1.73,3.53C285.29,478.06,286.07,479.31,286.83,480.58Z"/><path class="cls-21" d="M312.07,549.34c1.08.15,2.16.32,3.23.55s2.37.77,3.56,1c1,.35,1.95.72,2.93,1.07a16.7,16.7,0,0,0-1.36-8.41,28.79,28.79,0,0,0-11.45-4Z"/><path class="cls-21" d="M302.37,518.7l3.13,9.88c1.38,0,2.75.07,4.12.16a17.91,17.91,0,0,1-1.53-6.7,18.19,18.19,0,0,1,.11-2.3h0A28.81,28.81,0,0,0,302.37,518.7Z"/><path class="cls-21" d="M296.8,496.21c-.66.18-1.31.38-2,.6,1.36,3.35,2.6,6.76,3.78,10.24A34.22,34.22,0,0,1,310.9,507a14.68,14.68,0,0,0-.28-5.6,15.15,15.15,0,0,0-3.35-6A24.53,24.53,0,0,0,296.8,496.21Z"/><path class="cls-21" d="M290.84,487.89c2.19-.77,4.45-1.38,6.74-1.95a70.81,70.81,0,0,1-5.19-6.68,22.52,22.52,0,0,0-5.56,1.32C288.28,483,289.61,485.42,290.84,487.89Z"/><path class="cls-21" d="M316.77,564.19c1.08,3.42,2.17,7.07,1.21,10.52a7.49,7.49,0,0,1-4.8,5,6.48,6.48,0,0,0,5,1.16,5.2,5.2,0,0,0,4.1-5.63,13.51,13.51,0,0,0-1-2.68,18.72,18.72,0,0,1-1-8.81,17.34,17.34,0,0,0-4.21-1.79Z"/><path class="cls-5" d="M306.54,375.62c-2.92-.64-8.06-2.71-8-4.27.1-2.08,2.18-3.43,4-4.36a101,101,0,0,1,63.1-8.88,21.23,21.23,0,0,1,8.08,2.8c5.4,3.63,5,10.8-1.16,13.32-5.48,2.23-13.89,2.21-19.72,2.56C337,377.74,321.15,378.81,306.54,375.62Z"/><path class="cls-9" d="M365.42,370a22.55,22.55,0,0,1,1.58-6.44c-1.94-.37-3.89-.65-5.85-.84a25.9,25.9,0,0,0-1.54,6.3c-.3,2.34-.83,5.12-.18,7.47,1.84-.11,3.73-.25,5.58-.47C365.62,374,365.33,372.1,365.42,370Z"/><path class="cls-9" d="M353.88,362.41c-1.76,0-3.52.12-5.28.29l-.66.07a22.83,22.83,0,0,0,0,14.32l4.53-.27a1.21,1.21,0,0,0,0-.33A26.31,26.31,0,0,1,353.88,362.41Z"/><path class="cls-9" d="M339.73,371.89a29.6,29.6,0,0,1,1.3-8.06,71.68,71.68,0,0,0-7,1.78,26,26,0,0,0,.59,12.07q2.71-.07,5.44-.19c0-.09,0-.17,0-.27C340.09,375.47,339.7,373.68,339.73,371.89Z"/><path class="cls-9" d="M326.4,368.51a53.77,53.77,0,0,0-6.12,3.27,16.45,16.45,0,0,0-.16,5.68q2.91.19,5.85.26c-.05-.21-.11-.41-.16-.62C325.32,374.33,325.87,371.37,326.4,368.51Z"/><path class="cls-7" d="M373.78,360.92a21.23,21.23,0,0,0-8.08-2.8,99,99,0,0,0-17.05-1.64c-11.13,1-22.23,3.51-33.17,6-2.26.51-4.56,1-6.77,1.78q-2.66,1.11-5.26,2.37a17.6,17.6,0,0,0-2,1.4,13.37,13.37,0,0,0-2.88,3.34v0c0,.66.88,1.42,2.16,2.11.55-.74,13.76-7.9,13.22-6.71a19.32,19.32,0,0,0-1.6,5.9c-.14,1.31,0,2.66-.06,4,.69.1,1.38.21,2.08.3a9.58,9.58,0,0,1,2.38-2.7c1.14-.87,2.32-1.68,3.55-2.45a25.37,25.37,0,0,1,1.06-3.83,19.42,19.42,0,0,1,1.13-3.19c0-.07,3.92-1.65,3.56-.4,0,0,1,0,.93.56-.12,1.17-.34,2.37-.56,3.6a64,64,0,0,1,7.61-2.9,17.82,17.82,0,0,1,1.69-4.34c.44-.79,6.66-1.07,6.18.14q-.47,1.19-.84,2.42c2.32-.47,4.63-.82,6.91-1.06.22-.67.46-1.33.74-2,.35-.82,5.84,0,5.6.56-.14.35-.27.7-.4,1.06a65.5,65.5,0,0,1,7.27.28c.24-.6.5-1.18.79-1.76.47-.92,5.94-.1,5.53,1.18-.15.48-.32,1-.48,1.42l1.17.22a12.8,12.8,0,0,0,4.9.44,4.54,4.54,0,0,0,2.66-1.52A9.28,9.28,0,0,0,373.78,360.92Z"/><path class="cls-21" d="M312.33,372.65a19.32,19.32,0,0,1,1.6-5.9c.53-1.19-12.67,6-13.22,6.71a24.64,24.64,0,0,0,5.83,2.15c1.89.41,3.81.73,5.74,1C312.34,375.31,312.2,374,312.33,372.65Z"/><path class="cls-21" d="M361.94,360.92c-.3.58-.56,1.17-.79,1.76,2,.19,3.91.47,5.85.84.16-.47.33-.95.48-1.42C367.89,360.82,362.42,360,361.94,360.92Z"/><path class="cls-21" d="M348.68,360.79c-.28.65-.52,1.31-.74,2l.66-.07c1.75-.17,3.52-.26,5.28-.29.13-.35.47-1.19.61-1.54C354.74,360.28,349,360,348.68,360.79Z"/><path class="cls-21" d="M335.7,361.28a17.82,17.82,0,0,0-1.69,4.34,71.68,71.68,0,0,1,7-1.78q.37-1.22.84-2.42C342.36,360.21,336.14,360.49,335.7,361.28Z"/><path class="cls-21" d="M326,364.36c.35-1.25-3.53.33-3.56.4a19.42,19.42,0,0,0-1.13,3.19,25.37,25.37,0,0,0-1.06,3.83,53.77,53.77,0,0,1,6.12-3.27c.22-1.23.44-2.44.56-3.6C327,364.38,326,364.37,326,364.36Z"/><path class="cls-20" d="M244.6,364.28c-3.78,1.5-8,3.49-9.22,7.36-.91,2.8-.38,8,.1,10.93,6.25,37.49,13.92,53.44,34.15,91.08-.85.49-1.19,1.16-.63,2.06.94,1.41,1.46,2.49,3,5a1.9,1.9,0,0,0,2.6.84,99.54,99.54,0,0,0,15.93-10.87,1.49,1.49,0,0,0,.36-1.85c-1.17-2.19-2-4.09-2.69-5.06a1.86,1.86,0,0,0-2.15.1c-12.68-25.25-20.51-48.77-22.93-68.83,7.14-5.8,20.67-12.31,29.36-16.81a166.57,166.57,0,0,1,29.57-12.07c18.25-5.35,37.9-6.87,56.35-2.26,3.54-5.89,1.42-14-3.44-18.81s-9.67-1.5-16.48-2.43c-18.72-2.55-37,.13-54.72,3.85A363.08,363.08,0,0,0,244.6,364.28Z"/><path class="cls-25" d="M378.43,363.93a13.49,13.49,0,0,0,1.46-9.65c-5.65-4.44-17.73-6.58-23.19-5-16.14,4.75-35.94,8.85-45.53,12.66-21,8.35-30.75,10.94-50.08,19.59.22,13.44,0,46.35,22.39,84.19l2.41-1.43c-4.74,3.06-11.22,7.4-16.25,9.34-.85.49-1.19,1.16-.63,2.06.94,1.41,1.46,2.49,3,5a1.9,1.9,0,0,0,2.6.84,99.53,99.53,0,0,0,15.93-10.87,1.49,1.49,0,0,0,.36-1.85c-1.17-2.19-2-4.09-2.69-5.06a1.86,1.86,0,0,0-2.15.1c-12.68-25.25-20.51-48.77-22.93-68.83,7.14-5.8,20.67-12.31,29.36-16.81a166.57,166.57,0,0,1,29.57-12.07C340.34,360.84,360,359.32,378.43,363.93Z"/><path class="cls-7" d="M274.29,472.12c1-.38,1.91-.89,2.85-1.36s.07-1.69-.71-1.21-1.74,1-2.54,1.62c-.42.32-.2,1.19.4,1Z"/><path class="cls-7" d="M280.33,468.85a33.52,33.52,0,0,0,8.23-4.48c.67-.49,0-1.61-.66-1.13-2.57,1.73-5.22,3.26-7.93,4.76-.45.25-.15,1,.36.85Z"/><path class="cls-17" d="M396.16,326c1.57,3.66-7.69,5.46-12.86,6-9.33-16.39-18.4-33.71-19.64-52.53a39.84,39.84,0,0,1,2-16.77c1.63-4.3,11.45-16.56,15.12-16.4s2.18.86,2.24,3.81C383.82,289.29,390.5,312.81,396.16,326Z"/><path class="cls-14" d="M273.42,261.19c1.76-2.77,2.77-4.28,3.88-6,1.42-2.23,2.86-4.46,4.22-6.73,5.32-8.94,10.18-18.32,15-27.44a5.55,5.55,0,0,1,1.63-2.15c3.49-2.35,9.11-2.54,13.14-3.25q7.89-1.39,15.84-2.42c7.42-1,14.94-1.22,22.33-2.22,6.21-.83,12.41-1.72,18.61-2.59,4.68-.66,10.49-2.32,13.63,2.38,1.68,2.52,2.07,5.66,2.47,8.67a224.07,224.07,0,0,0,6.75,32.3c-.25-.85-6.28,1-7,1.13-4.39,1.09-8.58,3.61-12.68,5.53,0,4.73.11,7.84.11,11.84q0,6.53.65,13c.37,4,1.78,7.66,2.95,11.48L379,308c.69,2.27,5.79,19,5.77,22.19a20.7,20.7,0,0,1-4.61,12.14c-5.84,7.65-16,12.16-25.4,10.07-4.33-1-8.25-3.2-12.37-4.85-8.71-3.49-18.43-5-27.62-3.08-.13-6.35.24-12-.12-18.36s-1.37-12.88-2.36-19.28l-2.57-16.56c-.61-3.95-1.25-7.84-1.81-11.8-.11-.74,0-2.5-.44-3.1a10.8,10.8,0,0,0-1.94-.76c-3.1-1-6-2.74-9-3.88-4.41-1.66-9-3.48-13.72-3.63a10.84,10.84,0,0,1-5.43-1.63A11.11,11.11,0,0,1,273.42,261.19Z"/><path class="cls-16" d="M331.72,212.15c-2.67.6-5.06,1.75-6.4,4a10.54,10.54,0,0,0-.78,8.12,12.78,12.78,0,0,0,3.62,6.28,19.14,19.14,0,0,0,9.33,4.6,22.68,22.68,0,0,0,6.33.11,10.61,10.61,0,0,0,3.25-.81c3.82-1.72,6.44-4.28,7.56-8.32,1.64-5.91,1.09-14.15-6.6-14.88a61.07,61.07,0,0,0-6.9.23A47.12,47.12,0,0,0,331.72,212.15Z"/><path class="cls-17" d="M348,211.24a61.07,61.07,0,0,0-6.9.23,47.13,47.13,0,0,0-9.41.69c-2.67.6-5.06,1.75-6.4,4a8.4,8.4,0,0,0-.91,2.22c9.94-1.36,19.89-2.08,29.83-3.1A7.27,7.27,0,0,0,348,211.24Z"/><path class="cls-16" d="M335.76,185.07c-.07,1,0,1.94-.2,2.86-.64,3.7-.92,7.45-1.59,11.14-.93,5.12-2.31,10.13-3.58,15.16-.29,1.15-1.21,3.17-.89,4.23.69,2.25,3.85,2.64,5.72,3,3,.58,6.46,1.26,9.36.12,3.84-1.51,2.75-5.2,2.68-8.53a50.76,50.76,0,0,1,1.26-9.91c.85-4.57,2.3-8.75,3.34-13.26.41-1.75.48-1.2-.87-1.81a25.72,25.72,0,0,0-2.9-1.05c-1.64-.5-3.36-.65-5-1.15-2-.62-5.77-6-7-2.62A6.77,6.77,0,0,0,335.76,185.07Z"/><path class="cls-15" d="M277.36,265.44a10.84,10.84,0,0,0,5.43,1.63c4.76.15,9.3,2,13.72,3.63,3,1.15,5.9,2.93,9,3.88.71.22,1.21.59,1.94.76a17.71,17.71,0,0,0,6.34.34c-12.08-13.94-23.39-15.53-40.36-14.49A11.11,11.11,0,0,0,277.36,265.44Z"/><path class="cls-17" d="M351,188.07a25.72,25.72,0,0,0-2.9-1.05c-1.64-.5-3.36-.65-5-1.15-2-.62-5.77-6-7-2.62a6.77,6.77,0,0,0-.34,1.83c-.07,1,0,1.94-.2,2.86-.36,2.1-.61,4.22-.88,6.33a49.73,49.73,0,0,0,14.75,4.85c.78-3.08,1.71-6.08,2.44-9.23C352.28,188.13,352.36,188.68,351,188.07Z"/><path class="cls-24" d="M480.42,125.26c-3.88-.37-7.77-.66-11.65-1-1.11-.72-1.21-2.53-1-3.95a61,61,0,0,1,5.44-18.49A40.81,40.81,0,0,0,453.74,123l-.09.24c4.09,1.54,8.77,1.87,13.1,2.09,4.56.23,9.12.31,13.68.5C480.79,125.84,480.77,125.29,480.42,125.26Z"/><path class="cls-16" d="M353.33,190.83h0c-18.27,0-32.62-13.53-32.62-31.8V125.39c0-18.27,14.35-33.61,32.62-33.61h0c8.16,0,23.28,7,27.06,26.69,0,0,6,21.84,6,39.79S371.61,190.83,353.33,190.83Z"/><path class="cls-12" d="M349.26,81.5c10.34,0,18.57,2.56,27.18,6.11a97.11,97.11,0,0,0,25.9,6.3c2.05.24,10.79,1.11,12.85,1.25,5.66,1,3.86,10-3.1,7.4-3.48-1.69-7.89-1.9-10.07-.62a3,3,0,0,0-.36,4.36c.95,1.11,1.94,2.55,1.4,3.91-.39,1-2.69,2.72-3.49,3.43-4.66,4.14-2.35,8.23,3.69,11.42,0,2.35-3.19,7-6.38,7-2.68,0-11.65-3.57-14.25-3.57l-1.89-7.8a124.36,124.36,0,0,1-20.63-12.49c-9.18-6.94-16.54-1.11-17.42,6.2-11.12-2.93-17.07,5.12-14.22,18.6.88,4.14,4.18,8.81,1,11.6-3.85,3.36-9.64,2.89-14.66,1.92s-10.31-2.82-13.94-6.86c-8.22-9.16-6.66-26.81,7.79-33.09,4.62-2,9.09-2.42,13.32-5.14C324.65,88.95,334.44,81.5,349.26,81.5Z"/><path class="cls-12" d="M319.54,76.09c-1.2,4.12-2.24,8.36-2,12.65a17.5,17.5,0,0,0,1.78,7c2,4,3.93,5.6,8,7.19,5.63,2.19-2.46,7.58-6.25,6.33-3.3-1.08-5.81-4.4-6.8-7.64C311.67,93.23,314.51,83,319.54,76.09Z"/><path class="cls-19" d="M353.89,132.9a22.65,22.65,0,0,0-10.62.53c-.56.18-.34.87.25.77a31.09,31.09,0,0,1,3.43-.43c-.67.69-1.32,3.78-.78,5.52a14.81,14.81,0,0,0-2.52.32c-.59.2-.36.9.26.81a24.65,24.65,0,0,1,6.65-.2c.83.09.83-1.1,0-1.12a14.24,14.24,0,0,0-1.47,0l.2-.06a12.05,12.05,0,0,0,.51-5.29,20.7,20.7,0,0,1,3.7.4C354.43,134.33,354.82,133.06,353.89,132.9Z"/><path class="cls-19" d="M373.83,135.49a48.72,48.72,0,0,0-8.42-1.38.45.45,0,0,0-.14.9c.7.22,1.28.37,2,.56a8.85,8.85,0,0,0-1.13,4.83,15.06,15.06,0,0,0-1.7,0,.41.41,0,1,0,0,.81,33.68,33.68,0,0,1,6.23.53c.68.12,1-.75.29-.9a11.12,11.12,0,0,0-1.69-.3,8.06,8.06,0,0,0,.6-4.36l3.49.75C374.45,137.16,374.91,135.74,373.83,135.49Z"/><circle class="cls-16" cx="314.43" cy="144.92" r="9.65"/><path class="cls-19" d="M310.58,146.19a3.26,3.26,0,0,1,1.53-4.07c1.27-.59,5.15-.31,5.29,1.65l.74-.56c-1.57-.3-3.62-.09-4.29,1.62a2.4,2.4,0,0,0,1.35,3.18c.75.3,1.1-.93.34-1.22-1.26-.48-.5-1.91.15-2.3a3.11,3.11,0,0,1,2.15-.15.59.59,0,0,0,.74-.56c-.13-2.71-4.38-3.66-6.48-2.86a4.11,4.11,0,0,0-2.14,5.55c.16.36.77.1.64-.27Z"/><path class="cls-19" d="M340.83,168.26c1.63,3.8,5,5.78,8.82,6.82,4,1.08,8.47,1.36,12.2-.79,1.26-.73.15-2.59-1.13-1.94-3.3,1.67-7,1.48-10.49.64a13.67,13.67,0,0,1-8.33-5.36.62.62,0,0,0-1.07.63Z"/><path class="cls-16" d="M330.19,96.09c3.07-3.65,6.72-6.66,11.36-8A20.59,20.59,0,0,1,357,89.75c1.15.61,2.17-1.15,1-1.74-9.93-5.11-22.84-2.43-28.61,7.49-.27.46.4,1,.76.59Z"/><path class="cls-16" d="M302.95,121.34c2.54-6.08,8.93-10.36,15.62-9.44a.91.91,0,1,0,.24-1.8c-7.27-.89-15,3.75-17,10.94-.2.73.83,1,1.1.3Z"/><path class="cls-16" d="M316.78,103.18A13.41,13.41,0,0,1,312,95.37c-.67-3.7.28-7.5,1.76-10.88a.73.73,0,1,0-1.33-.56,20.5,20.5,0,0,0-1.7,11.79c.62,3.2,2.44,6.65,5.45,8.17.44.22,1-.35.55-.72Z"/><path class="cls-16" d="M388.73,94.68a109.55,109.55,0,0,0,30.68,3.76.75.75,0,0,0,0-1.5A134,134,0,0,1,389,93.68a.51.51,0,0,0-.27,1Z"/><path class="cls-16" d="M394.06,106.57a25.63,25.63,0,0,0,9.68,1.64.93.93,0,0,0,0-1.87,40.8,40.8,0,0,1-9.29-1.19.74.74,0,0,0-.39,1.42Z"/><path class="cls-16" d="M391.33,118.34a25.77,25.77,0,0,0,8.54,4.45,1,1,0,0,0,.51-1.84,26.25,26.25,0,0,1-8-4c-.79-.57-1.82.75-1,1.36Z"/><path class="cls-15" d="M366.81,342.6c-8.15-.51-12.65,2.83-19.79-2.12a41.79,41.79,0,0,0-10.75-5.18c-3.07-1-3.92.79-6.39.7-5.5-.2-5.33-13.24-6.06-17.3-1.36-7.6-1.81-15-2.52-22.69-1-11.38-3.92-22-4.78-33.55-1.15,5.77-2.35,10.21-2.75,13.24a17.71,17.71,0,0,1-6.34-.34h0c.42.6.33,2.36.44,3.1.56,4,1.2,7.85,1.81,11.8l2.57,16.56c1,6.4,2,12.81,2.36,19.28s0,12,.12,18.36c9.19-1.92,18.91-.41,27.62,3.08,4.12,1.65,8,3.88,12.37,4.85a24.65,24.65,0,0,0,18.83-3.93A7.08,7.08,0,0,0,366.81,342.6Z"/><path class="cls-15" d="M302.14,273.26c.48.22,1,.42,1.44.62C303.1,273.68,302.62,273.48,302.14,273.26Z"/><path class="cls-15" d="M305.51,274.59h0c-.52-.16-1-.35-1.54-.55.51.2,1,.39,1.54.55Z"/><path class="cls-16" d="M284.87,261c-.35,1.26-.81,2.79-1.26,4.06a104.94,104.94,0,0,0-3.22,11.65q-1.57,6.93-3.09,13.86c-.66,3-3.13,8.85-2.16,11.89a5.4,5.4,0,0,0,1.52,2.08l3.55,3.49c4.32,4.25,9,4.1,14.58,2.36,10.2-3.2,20.11-7.16,30.34-10.26,6.55-2,12.74-4.65,19.36-6.52,5.5-1.56,11-3.42,16.55-4.87,3.49-.92,14.07-3.91,17.66-2.43,1.17.48,2.27,2.76,3.61,3.58,3.81,2.31,6.21,1.42,8.38,1.45,2.5,0,6.72-.9,7.42.19,1,1.62,1.71,2.66-2.57,6.19-2.24,1.85-1.71,3.56.19,2.76,4.28-1.81,5.14-3.52,6.57-6.09.29,1.62.28,3.6-1.33,6.95-1.24,2.57.38,4.38,1.24,3.33a18.85,18.85,0,0,0,4.72-13.24c1.64,2.46,1.72,5.66,2.16,7.78s.65,3.93,2.82,4.29c1.34.22.21-8.31-.1-9.83-.72-3.57-.37-3.89-2.12-7.15-3-5.65-3.44-5-7.19-6.91-5-2.59-16.63-7.28-22.28-6.49-6.16.85-9.34,1.08-15.41,2.43-5,1.11-9.76,2.63-14.73,3.72-7.35,1.62-14.82,2.47-22.13,4.32-5.93,1.49-11.84,2.55-17.84,3.9-3.17.72-6.86.73-9.87,1.94.87-2.18,1.05-4.81,1.75-7.08,1.55-5,3.18-9.15,3.69-14.35.05-.52-5.51-3.61-10.09-5.18a54.92,54.92,0,0,0-6.61-1.45A29,29,0,0,0,284.87,261Z"/><path class="cls-17" d="M300.24,289.48,286,293.68s1.4-2.75,5.87-5a23.63,23.63,0,0,1,9.27-2.75s-.28,1.07-.44,1.77C300.5,288.71,300.24,289.48,300.24,289.48Z"/><path class="cls-13" d="M401.86,128.65c-3.46-1.52-7.14-2.36-10.56-3.94-5.48-2.52-11.07-4.76-15.79-8.56-5-4-11.47-11-17.3-13.87a10.13,10.13,0,0,0-10.27.54c-3.24,2.16-6.22,7.16-4.68,9.13,2-6,8.74-9.89,16.86-3.75a124.36,124.36,0,0,0,20.63,12.49l1.89,7.8c2.6,0,11.57,3.57,14.25,3.57C398.76,132.05,400.63,130.45,401.86,128.65Z"/><path class="cls-26" d="M381.77,362.52c24-6.8,41.2-9.54,65.16-16.35,4.23-1.2,9.16-6.45,11.64-10.08,2.91-4.25,1.72-13.37-1-16.26s-3.47-2.57-7.46-2.82a48.46,48.46,0,0,0-11.9,1.21l-49.37,9.2c-4.15.77-17.07,2.21-18.83,3-1.37.62-7.64,11.36-4.55,19.54C367.95,356.64,374.16,362.07,381.77,362.52Z"/><path class="cls-20" d="M379.76,360.5c29.64-5.75,42.53-10.68,53.42-15,19-7.55,32.42-10.8,42.16-9.87,3.92.37,4.07,5.37,5,8.77.7,2.51-.42,4.6-2.52,6s-12.43,7.3-26.27,11.8c-26.26,8.53-50.27,13.79-73.11,13.65-.29,2.51-.73,2.91-3.64,2.91-3.2,0-4.22-.31-4.22-2.91,0-4.16.6-11.67,1.77-14.94.49-1.37,1.12-2.19,2.83-2.19C378,358.76,379.57,358.51,379.76,360.5Z"/><path class="cls-25" d="M378.45,375.89c22.84.15,46.85-5.11,73.11-13.65,13.84-4.5,24.17-10.36,26.27-11.8s3.22-3.53,2.52-6c-.09-.32-.17-.65-.25-1-3,1.73-7,4.14-12.35,7.24-4.25,2.46-9.18,4.93-21,9C427.94,366,384.4,371,379,371.12c0,.77-.1,1.47-.16,2.09a13.8,13.8,0,0,1-5,1.37,30.57,30.57,0,0,1-3.14-.33c0,.59,0,1.14,0,1.64,0,2.6,1,2.91,4.22,2.91C377.72,378.8,378.16,378.4,378.45,375.89Z"/><path class="cls-7" d="M377.68,361.9a24.74,24.74,0,0,0-.43,7.29c.07.81,1.34.83,1.28,0a45.71,45.71,0,0,1,.1-7.16c0-.54-.84-.66-.95-.13Z"/><path class="cls-20" d="M450.07,317a33.53,33.53,0,0,0-6.7.33h0l-1.23.18-.14,0-1.18.2-.17,0-1.17.21-.14,0-1.19.22-17.91,3.34-31.46,5.86c-4.15.77-17.07,2.21-18.83,3l-.13.08-.05,0-.1.09-.07.07-.1.11-.09.1-.1.12-.11.13-.09.12-.13.17,0,0c-.2.27-.41.59-.63.95l0,0-.21.36,0,0-.22.4v0a27.53,27.53,0,0,0-1.21,2.5c8.77-.58,17.53-.24,26.38-.77,7-.42,13.56-1.73,20.48-2.9,10-1.69,20-3.1,29.92-5.26a18.76,18.76,0,0,1,7.45-.69c2.53.41,5.9,1.48,6.06,4.85a9.6,9.6,0,0,1-1.9,7c1.43-.38,2.31-.59,2.62-.72a8.65,8.65,0,0,0,1.9-3.25c1.58-4.64.37-11.76-2-14.26C454.77,316.94,454.06,317.27,450.07,317Z"/><path class="cls-5" d="M362.3,332c34.35-3.61,64.78-9.35,99.13-13,1.43-1.4,1.94-4.74.29-5.87s-7.63,2.09-9.63,2.13c-12.53.25-17.65,1.09-31.13,3.36-12.65,2.13-24.92,4.16-37.17,6.49-6.46,1.23-15,2.13-21.5,3.36C361.26,328.68,361.67,331.27,362.3,332Z"/><path class="cls-7" d="M461.72,313.14c-1.66-1.13-7.63,2.09-9.63,2.13-12.53.25-17.65,1.09-31.13,3.36L412.79,320a6,6,0,0,0,.95,5.22c15.57-2.25,31.18-4.47,47.7-6.21C462.86,317.61,463.37,314.27,461.72,313.14Z"/><path class="cls-5" d="M466.31,312.15c3.5-24.48,7.39-47.69,11.21-71.36.22-1.37-.24-2.4-1.45-2.38-14.93.25-30.61.58-46,.93a3,3,0,0,0-2.67,2.83L417.26,317a3.18,3.18,0,0,0,3.44,3.81c14-1.92,28.17-4,43-5.65A3.24,3.24,0,0,0,466.31,312.15Z"/><path class="cls-7" d="M452.61,272.35a3.53,3.53,0,0,0-2.54-1.37c-2.49-.18-4.82,2.4-5.31,5.83a6.86,6.86,0,0,0,1.15,5.21,3.53,3.53,0,0,0,2.54,1.37h.23a4,4,0,0,0,2.41-.88l.51.7a1,1,0,0,0,1.65-1.21l-.75-1a8.45,8.45,0,0,0,1.27-3.43A6.86,6.86,0,0,0,452.61,272.35Zm-2,6.1a1,1,0,0,0-1.65,1.21l.88,1.21a2,2,0,0,1-1.28.5,1.52,1.52,0,0,1-1.09-.62,4.89,4.89,0,0,1-.72-3.64c.35-2.45,1.88-4.09,3.07-4.09h.08a1.52,1.52,0,0,1,1.08.62,4.9,4.9,0,0,1,.72,3.64,6.52,6.52,0,0,1-.58,1.9Z"/><path class="cls-4" d="M69.51,145.09a2.06,2.06,0,0,1-1.44-.59,2.09,2.09,0,0,1-.6-1.45,2.63,2.63,0,0,1,0-.4,2.39,2.39,0,0,1,.12-.38,1.93,1.93,0,0,1,.18-.36,1.82,1.82,0,0,1,.26-.31,2,2,0,0,1,1.84-.56,2.43,2.43,0,0,1,.39.11,2.37,2.37,0,0,1,.35.19,1.51,1.51,0,0,1,.32.26,2.06,2.06,0,0,1,.59,1.44,2,2,0,0,1-2,2Z"/><path class="cls-4" d="M67.46,255.61a2,2,0,0,1,2-2h0a2,2,0,0,1,2,2h0a2,2,0,0,1-2,2h0A2,2,0,0,1,67.46,255.61Zm0-10.23a2,2,0,0,1,2-2h0a2,2,0,0,1,2,2h0a2,2,0,0,1-2,2h0A2,2,0,0,1,67.46,245.38Zm0-10.23a2,2,0,0,1,2-2h0a2,2,0,0,1,2,2h0a2,2,0,0,1-2,2h0A2,2,0,0,1,67.46,235.15Zm0-10.23a2,2,0,0,1,2-2h0a2,2,0,0,1,2,2h0a2,2,0,0,1-2,2h0A2,2,0,0,1,67.46,224.92Zm0-10.23a2,2,0,0,1,2-2h0a2,2,0,0,1,2,2h0a2,2,0,0,1-2,2h0A2,2,0,0,1,67.46,214.68Zm0-10.24a2,2,0,0,1,2-2h0a2,2,0,0,1,2,2h0a2,2,0,0,1-2,2.05h0A2.05,2.05,0,0,1,67.46,204.44Zm0-10.22a2.05,2.05,0,0,1,2-2.05h0a2,2,0,0,1,2,2.05h0a2,2,0,0,1-2,2h0A2,2,0,0,1,67.46,194.22Zm0-10.24a2,2,0,0,1,2-2h0a2,2,0,0,1,2,2h0a2,2,0,0,1-2,2h0A2,2,0,0,1,67.46,184Zm0-10.23a2,2,0,0,1,2-2h0a2,2,0,0,1,2,2h0a2,2,0,0,1-2,2h0A2,2,0,0,1,67.46,173.75Zm0-10.23a2,2,0,0,1,2-2h0a2,2,0,0,1,2,2h0a2,2,0,0,1-2,2h0A2,2,0,0,1,67.46,163.51Zm0-10.23a2,2,0,0,1,2-2h0a2,2,0,0,1,2,2h0a2,2,0,0,1-2,2h0A2,2,0,0,1,67.46,153.28Z"/><path class="cls-4" d="M69.51,267.89a2.06,2.06,0,0,1-1.44-.59,2,2,0,0,1-.6-1.45,2.63,2.63,0,0,1,0-.4,2.39,2.39,0,0,1,.12-.38,2.28,2.28,0,0,1,.18-.36,1.8,1.8,0,0,1,.26-.31,2,2,0,0,1,1.84-.56,2.46,2.46,0,0,1,.39.12,2.23,2.23,0,0,1,.35.18,1.76,1.76,0,0,1,.32.26,2.43,2.43,0,0,1,.26.31,2.28,2.28,0,0,1,.18.36,1.63,1.63,0,0,1,.11.38,1.74,1.74,0,0,1,0,.4A2,2,0,0,1,71,267.3,2.08,2.08,0,0,1,69.51,267.89Z"/><path class="cls-4" d="M411.69,265.84a2,2,0,0,1,2-2h0a2,2,0,0,1,2,2h0a2,2,0,0,1-2,2h0A2,2,0,0,1,411.69,265.84Zm-10.13,0a2,2,0,0,1,2-2h0a2,2,0,0,1,2,2h0a2,2,0,0,1-2,2h0A2,2,0,0,1,401.56,265.84Zm-10.12,0a2,2,0,0,1,2-2h0a2,2,0,0,1,2,2h0a2,2,0,0,1-2,2h0A2,2,0,0,1,391.44,265.84Zm-10.12,0a2,2,0,0,1,2-2h0a2,2,0,0,1,2,2h0a2,2,0,0,1-2,2h0A2,2,0,0,1,381.32,265.84Zm-10.13,0a2,2,0,0,1,2-2h0a2,2,0,0,1,2,2h0a2,2,0,0,1-2,2h0A2,2,0,0,1,371.19,265.84Zm-10.12,0a2,2,0,0,1,2-2h0a2,2,0,0,1,2,2h0a2,2,0,0,1-2,2h0A2,2,0,0,1,361.07,265.84Zm-10.13,0a2,2,0,0,1,2-2h0a2,2,0,0,1,2,2h0a2,2,0,0,1-2,2h0A2,2,0,0,1,350.94,265.84Zm-10.12,0a2,2,0,0,1,2-2h0a2,2,0,0,1,2,2h0a2,2,0,0,1-2,2h0A2,2,0,0,1,340.82,265.84Zm-10.13,0a2,2,0,0,1,2-2h0a2,2,0,0,1,2,2h0a2,2,0,0,1-2,2h0A2,2,0,0,1,330.69,265.84Zm-10.12,0a2,2,0,0,1,2-2h0a2,2,0,0,1,2,2h0a2,2,0,0,1-2,2h0A2,2,0,0,1,320.57,265.84Zm-10.12,0a2,2,0,0,1,2-2h0a2,2,0,0,1,2,2h0a2,2,0,0,1-2,2h0A2,2,0,0,1,310.45,265.84Zm-10.13,0a2,2,0,0,1,2-2h0a2,2,0,0,1,2,2h0a2,2,0,0,1-2,2h0A2,2,0,0,1,300.32,265.84Zm-10.12,0a2,2,0,0,1,2-2h0a2,2,0,0,1,2,2h0a2,2,0,0,1-2,2h0A2,2,0,0,1,290.2,265.84Zm-10.13,0a2,2,0,0,1,2-2h0a2,2,0,0,1,2,2h0a2,2,0,0,1-2,2h0A2,2,0,0,1,280.07,265.84Zm-10.12,0a2,2,0,0,1,2-2h0a2,2,0,0,1,2,2h0a2,2,0,0,1-2,2h0A2,2,0,0,1,270,265.84Zm-10.12,0a2,2,0,0,1,2-2h0a2,2,0,0,1,2,2h0a2,2,0,0,1-2,2h0A2,2,0,0,1,259.83,265.84Zm-10.13,0a2,2,0,0,1,2-2h0a2,2,0,0,1,2,2h0a2,2,0,0,1-2,2h0A2,2,0,0,1,249.7,265.84Zm-10.12,0a2,2,0,0,1,2-2h0a2,2,0,0,1,2,2h0a2,2,0,0,1-2,2h0A2,2,0,0,1,239.58,265.84Zm-10.13,0a2,2,0,0,1,2-2h0a2,2,0,0,1,2,2h0a2,2,0,0,1-2,2h0A2,2,0,0,1,229.45,265.84Zm-10.12,0a2,2,0,0,1,2-2h0a2,2,0,0,1,2,2h0a2,2,0,0,1-2,2h0A2,2,0,0,1,219.33,265.84Zm-10.13,0a2,2,0,0,1,2-2h0a2,2,0,0,1,2,2h0a2,2,0,0,1-2,2h0A2,2,0,0,1,209.2,265.84Zm-10.12,0a2,2,0,0,1,2-2h0a2,2,0,0,1,2,2h0a2,2,0,0,1-2,2h0A2,2,0,0,1,199.08,265.84Zm-10.13,0a2,2,0,0,1,2-2h0a2,2,0,0,1,2,2h0a2,2,0,0,1-2,2h0A2,2,0,0,1,189,265.84Zm-10.12,0a2,2,0,0,1,2-2h0a2,2,0,0,1,2,2h0a2,2,0,0,1-2,2h0A2,2,0,0,1,178.83,265.84Zm-10.12,0a2,2,0,0,1,2-2h0a2,2,0,0,1,2,2h0a2,2,0,0,1-2,2h0A2,2,0,0,1,168.71,265.84Zm-10.13,0a2,2,0,0,1,2-2h0a2,2,0,0,1,2,2h0a2,2,0,0,1-2,2h0A2,2,0,0,1,158.58,265.84Zm-10.12,0a2,2,0,0,1,2-2h0a2,2,0,0,1,2,2h0a2,2,0,0,1-2,2h0A2,2,0,0,1,148.46,265.84Zm-10.13,0a2,2,0,0,1,2-2h0a2,2,0,0,1,2,2h0a2,2,0,0,1-2,2h0A2,2,0,0,1,138.33,265.84Zm-10.12,0a2,2,0,0,1,2-2h0a2,2,0,0,1,2,2h0a2,2,0,0,1-2,2h0A2,2,0,0,1,128.21,265.84Zm-10.13,0a2,2,0,0,1,2-2h0a2,2,0,0,1,2,2h0a2,2,0,0,1-2,2h0A2,2,0,0,1,118.08,265.84Zm-10.12,0a2,2,0,0,1,2-2h0a2,2,0,0,1,2,2h0a2,2,0,0,1-2,2h0A2,2,0,0,1,108,265.84Zm-10.12,0a2,2,0,0,1,2-2h0a2,2,0,0,1,2,2h0a2,2,0,0,1-2,2h0A2,2,0,0,1,97.84,265.84Zm-10.13,0a2,2,0,0,1,2-2h0a2,2,0,0,1,2,2h0a2,2,0,0,1-2,2h0A2,2,0,0,1,87.71,265.84Zm-10.12,0a2,2,0,0,1,2-2h0a2,2,0,0,1,2,2h0a2,2,0,0,1-2,2h0A2,2,0,0,1,77.59,265.84Z"/><path class="cls-4" d="M423.85,267.89a2,2,0,0,1-.78-.15,2.07,2.07,0,0,1-.66-.45,1.92,1.92,0,0,1-.45-.65,2,2,0,0,1-.15-.79,2.56,2.56,0,0,1,0-.4,2.29,2.29,0,0,1,.12-.38,2.37,2.37,0,0,1,.18-.36,1.8,1.8,0,0,1,.26-.31,2.1,2.1,0,0,1,2.89,0,1.74,1.74,0,0,1,.24.31,1.71,1.71,0,0,1,.19.36,1.65,1.65,0,0,1,.11.38,1.8,1.8,0,0,1,0,.4,2,2,0,0,1-.59,1.44,2.55,2.55,0,0,1-.32.27,2.26,2.26,0,0,1-.35.18,1.75,1.75,0,0,1-.38.11A1.83,1.83,0,0,1,423.85,267.89Z"/><path class="cls-12" d="M274.84,121.41c0-.14,0-.28,0-.42s0-.28,0-.42V98.23a.9.9,0,0,0-1.46-.71l-8.74,6.84a23.06,23.06,0,0,0-22.44,0l-8.82-7a.9.9,0,0,0-1.46.71l.1,22.53c0,.12,0,.24,0,.36s0,.28,0,.41v.08h0c.29,10.56,9.75,19,21.4,19s21.11-8.48,21.4-19h0Z"/><path class="cls-16" d="M248.21,127.26a6.5,6.5,0,0,1,5.27,2.42,6.5,6.5,0,0,1,5.27-2.42c3.36,0,6.09,2.17,6.09,4.84s-2.73,4.84-6.09,4.84a7.4,7.4,0,0,1-2.51-.44,4.66,4.66,0,0,1-5.51,0,7.4,7.4,0,0,1-2.51.44c-3.36,0-6.09-2.17-6.09-4.84S244.84,127.26,248.21,127.26Z"/><ellipse class="cls-5" cx="243.28" cy="119.19" rx="5.36" ry="4.45"/><path class="cls-20" d="M252.84,132l-3-3.4a.64.64,0,0,1,.48-1.06h6.2a.64.64,0,0,1,.46,1.08l-3.25,3.4A.64.64,0,0,1,252.84,132Z"/><ellipse class="cls-20" cx="243.28" cy="119.38" rx="1.09" ry="4.26"/><path class="cls-21" d="M237.92,119.19h10.73c0-2.46-2.4-4.45-5.36-4.45S237.92,116.73,237.92,119.19Z"/><path class="cls-21" d="M252.31,108.86a1.08,1.08,0,0,0,2.06,0,21.17,21.17,0,0,0,1.24-7.29c-.72-.07-1.44-.11-2.18-.11s-1.32,0-2,.09A20.84,20.84,0,0,0,252.31,108.86Z"/><path class="cls-21" d="M238,109.1c-.74-2.07-2.34-4.28-3.25-6.53,1.73,1.06,3.43,2.2,5.28,3.14,2.22,1.13,5.15,2.91,7.6,1.86a.81.81,0,0,0,.31-.25,1,1,0,0,0,.2-1.41c-.78-1.07-1.65-2.08-2.52-3.08a22.59,22.59,0,0,0-3.38,1.54l-8.82-7a.9.9,0,0,0-1.46.71l0,7.85c.66,1.63,1.56,3.22,2.27,4.73C235.21,112.77,238.73,111.26,238,109.1Z"/><path class="cls-21" d="M273.39,97.52l-8.74,6.84a22.59,22.59,0,0,0-3.11-1.44c-.71,1.08-1.45,2.14-2.2,3.2a1,1,0,0,0-.12.27,1.09,1.09,0,0,0,.63,1.57c2.9.61,5.66-1.63,8.11-2.94,1.24-.66,2.6-1.45,3.94-2.32l-.49,1.08c-.75,1.63-1.51,3.28-2.11,5-.84,2.38,2.8,3.79,4,1.68a33.37,33.37,0,0,0,1.55-3.35V98.23A.9.9,0,0,0,273.39,97.52Z"/><ellipse class="cls-5" cx="263.6" cy="119.19" rx="5.36" ry="4.45"/><ellipse class="cls-20" cx="263.6" cy="119.38" rx="1.09" ry="4.26"/><path class="cls-21" d="M258.23,119.19H269c0-2.46-2.4-4.45-5.36-4.45S258.23,116.73,258.23,119.19Z"/><polygon class="cls-21" points="521.25 514.84 575.41 542.68 476.92 553.72 416.31 522.53 521.25 514.84"/><path class="cls-21" d="M476.92,556.78a3.07,3.07,0,0,1-1.4-.34L414.9,525.26a3.06,3.06,0,0,1,1.18-5.78L521,511.78a3.08,3.08,0,0,1,1.62.33L576.81,540a3.06,3.06,0,0,1-1.06,5.77l-98.49,11Zm-49.52-32,50.1,25.78L565,540.77,520.62,518Z"/><path class="cls-16" d="M416.31,487.57c4.83,9.1,4.34,27.27,0,33.94l60.61,31.19,98.49-11V509l-98.6,8.77Z"/><path class="cls-21" d="M576.83,506.27l-54.16-28.36a3,3,0,0,0-1.62-.34l-104.94,7a3.06,3.06,0,0,0-1.16,5.8l60.5,30.18a3.06,3.06,0,0,0,1.37.32h.27l98.6-8.77a3.06,3.06,0,0,0,1.15-5.77Z"/><polygon class="cls-17" points="441.84 471.21 441.88 489.25 485.18 504.65 485.06 485.39 441.84 471.21"/><polygon class="cls-15" points="485.18 504.65 545.91 495.75 545.87 474.62 485.06 485.39 485.18 504.65"/><polygon class="cls-21" points="575.41 508.98 575.41 542.68 476.92 553.72 476.81 517.75 575.41 508.98"/><path class="cls-21" d="M476.92,556.78a3.06,3.06,0,0,1-3.06-3.05l-.11-36a3.06,3.06,0,0,1,2.79-3.06l98.6-8.77a3.06,3.06,0,0,1,3.33,3.05v33.7a3.06,3.06,0,0,1-2.72,3l-98.49,11Zm3-36.24L480,550.3l92.38-10.36V512.33Z"/><polygon class="cls-26" points="575.41 508.98 575.41 542.68 476.92 553.72 476.81 517.75 575.41 508.98"/><path class="cls-21" d="M476.92,556.78a3.06,3.06,0,0,1-3.06-3.05l-.11-36a3.06,3.06,0,0,1,2.79-3.06l98.6-8.77a3.06,3.06,0,0,1,3.33,3.05v33.7a3.06,3.06,0,0,1-2.72,3l-98.49,11Zm3-36.24L480,550.3l92.38-10.36V512.33Z"/><path class="cls-27" d="M517.85,540.09h0a.51.51,0,0,1-.51-.51L517.4,526a.51.51,0,0,1,.51-.51h0a.51.51,0,0,1,.51.51l-.06,13.61A.51.51,0,0,1,517.85,540.09Z"/><path class="cls-27" d="M513.36,540.71h0a.51.51,0,0,1-.51-.51l.06-13.61a.51.51,0,0,1,.51-.51h0a.51.51,0,0,1,.51.51l-.06,13.61A.51.51,0,0,1,513.36,540.71Z"/><path class="cls-5" d="M528.75,523.63h0c2.35,0,6.23,1.85,9.66,4.62,4.15,3.34,6.17,6.68,6.29,8.37a1.16,1.16,0,0,1-.22.9,1.86,1.86,0,0,1-1.3.38c-2.35,0-6.23-1.85-9.66-4.62-4.15-3.34-6.17-6.68-6.29-8.37a1.16,1.16,0,0,1,.22-.9,1.86,1.86,0,0,1,1.3-.38m0-1a2.71,2.71,0,0,0-2,.71c-1.71,1.83,1.06,6.65,6.17,10.76,3.78,3,7.78,4.84,10.3,4.84a2.71,2.71,0,0,0,2-.71c1.71-1.83-1.06-6.65-6.17-10.76-3.78-3-7.78-4.84-10.3-4.84Z"/><path class="cls-5" d="M544.3,521.47h0a.66.66,0,0,1,.36.08.55.55,0,0,1,.11.35c.12,1.66-2.12,5.95-6.49,10.64-4.56,4.89-8.89,7.53-10.65,7.53a.66.66,0,0,1-.36-.08.55.55,0,0,1-.11-.35c-.12-1.66,2.12-5.95,6.49-10.64,4.56-4.89,8.89-7.53,10.65-7.53m0-1c-2.34,0-7,3.15-11.4,7.85-5.16,5.53-8,11.12-6.28,12.48a1.56,1.56,0,0,0,1,.3c2.34,0,7-3.15,11.4-7.85,5.16-5.53,8-11.12,6.28-12.48a1.56,1.56,0,0,0-1-.3Z"/><path class="cls-5" d="M536,531.87a1,1,0,0,1-1.17-.94,1.36,1.36,0,0,1,1.18-1.26,1,1,0,0,1,1.17.94A1.36,1.36,0,0,1,536,531.87Z"/><path class="cls-5" d="M204.39,334l-.86-.89c5.22-6.9,10.83-9.18,23.17-9.59l1.18,1.14C215.38,325,209.46,327.28,204.39,334Z"/><path class="cls-5" d="M207.29,336.88l-.87-.92c4.09-5.41,8.48-7.84,15.72-8.93l1.09,1.08C215.78,329.1,211.36,331.49,207.29,336.88Z"/><path class="cls-5" d="M190.87,377.1c-9.63-8.52-33.45-30.64-33.51-30.71,13.57-12.79,25.79-18,35.72-9l27.57,25.36C210.48,359.61,196.67,369.61,190.87,377.1Z"/><path class="cls-5" d="M219,345.53c2.27-1.24,6.52-1.86,13.53,0a39.87,39.87,0,0,0-6.35,6.1Z"/><path class="cls-5" d="M243.45,340.41c.41,2.43-.87,6.43-10.15,5.07A29.39,29.39,0,0,1,243.45,340.41Z"/><path class="cls-8" d="M232.17,357.83a.51.51,0,0,1-.34-.13l-17.17-15a.51.51,0,0,1,.67-.77l17.17,15a.51.51,0,0,1-.34.9Z"/><path class="cls-8" d="M222.88,356.82a.51.51,0,0,1-.45-.76c6-10.66,18.1-16.33,24.43-16.81a.51.51,0,0,1,.08,1c-6.11.46-17.84,6-23.61,16.29A.51.51,0,0,1,222.88,356.82Z"/><path class="cls-9" d="M215,350.16a.77.77,0,0,1-.65-1.18c2.94-4.62,7.49-6.3,13.89-5.13s10.32,1.77,12.52.5,2.51-3.11,1.5-8.27a.77.77,0,1,1,1.5-.3c1,5.13.94,8.07-2.24,9.9-2.72,1.56-6.93.9-13.56-.32-5.8-1.06-9.72.35-12.32,4.44A.77.77,0,0,1,215,350.16Z"/><polygon class="cls-10" points="515.34 460.88 562.24 472.96 488.22 495.75 435.84 481.97 515.34 460.88"/><path class="cls-10" d="M488.22,497.28a1.52,1.52,0,0,1-.39-.05l-52.38-13.78a1.53,1.53,0,0,1,0-3l79.5-21.1a1.52,1.52,0,0,1,.77,0l46.89,12.08a1.53,1.53,0,0,1,.07,2.95l-74,22.79A1.54,1.54,0,0,1,488.22,497.28ZM441.83,482l46.36,12.19,68.42-21.07-41.26-10.63Z"/><polygon class="cls-16" points="435.92 467.23 435.84 480.92 488.23 494.7 562.24 471.9 562.33 457.55 488.31 479.95 435.92 467.23"/><line class="cls-10" x1="435.84" y1="481.97" x2="435.92" y2="467.23"/><path class="cls-10" d="M435.84,483.5h0a1.53,1.53,0,0,1-1.52-1.54l.09-14.74a1.53,1.53,0,0,1,1.53-1.52h0a1.53,1.53,0,0,1,1.52,1.54L437.37,482A1.53,1.53,0,0,1,435.84,483.5Z"/><path class="cls-17" d="M488.32,480c-2.79,4.22-3,11.34-.09,14.74l-50.89-13.37.09-13.68Z"/><path class="cls-10" d="M562.72,456.07,515.83,443.6a1.53,1.53,0,0,0-.8,0l-79.51,22.16a1.53,1.53,0,0,0,0,3L488,481.44a1.54,1.54,0,0,0,.8,0l74-22.41a1.53,1.53,0,0,0,0-2.95Z"/><polygon class="cls-17" points="425.28 505.5 425.28 507.92 466.45 524.02 425.28 505.5"/><polygon class="cls-17" points="438.11 521.52 444.22 528.51 454.41 528.86 438.11 521.52"/><polygon class="cls-17" points="530.93 473.6 540.12 474.88 548.04 468.47 530.93 473.6"/><path class="cls-19" d="M340.6,123.46c2.64,0,5.23-.82,7.9-.84a45.35,45.35,0,0,1,8,.69,1.81,1.81,0,1,0,.48-3.57,32.31,32.31,0,0,0-8.52.25c-2.64.42-5.88.86-8.17,2.31a.63.63,0,0,0,.31,1.16Z"/><path class="cls-12" d="M368.42,124.8c-3.43,2-5.88,6.13-7.23,9.78S360,143.64,360,145.64s.39,8.7.46,12.65a2,2,0,0,1-1.8,2c-.23,0-.75,0-1.29,0a4.66,4.66,0,0,1-2.17-.63,1,1,0,0,0-1,0c-.79.5-.18,1.53.48,2.09,1.12,1,4,1,5,1h0a3.46,3.46,0,0,0,3.46-3.46v-.66c0-4.28-1-8.95-1.55-12.83-.49-3.54-.65-7.81.54-11.21a18.54,18.54,0,0,1,2.35-4.89,38.68,38.68,0,0,1,4.15-4.61A.18.18,0,0,0,368.42,124.8Z"/><circle class="cls-12" cx="350.72" cy="146.32" r="1.32"/><circle class="cls-12" cx="351.79" cy="150.69" r="1.32"/><circle class="cls-12" cx="345.85" cy="149.24" r="1.46"/><circle class="cls-12" cx="367.17" cy="147.11" r="1.32"/><circle class="cls-12" cx="369.34" cy="151.45" r="1.19"/><circle class="cls-12" cx="373.95" cy="149.68" r="1.46"/><path class="cls-19" d="M368.14,125.25a57.81,57.81,0,0,1,8,2.82c1.18.51,2.7-1,1.51-2a23.74,23.74,0,0,0-8.48-4.59c-2.39-.72-3.43,3.08-1,3.73Z"/><path class="cls-15" d="M333.52,240.6l-.13,0c-8.92-2.45-14.91-9.67-14.91-18a16.92,16.92,0,0,1,.39-3.63.5.5,0,0,1,1,.21,15.92,15.92,0,0,0-.37,3.41c0,7.84,5.7,14.67,14.18,17a.5.5,0,0,1-.13,1Z"/><path class="cls-15" d="M346.2,240.5a.5.5,0,0,1-.14-1,21.15,21.15,0,0,0,5.8-2.7.5.5,0,1,1,.55.83,22.12,22.12,0,0,1-6.07,2.83Z"/><path class="cls-15" d="M355,235.42a.5.5,0,0,1-.35-.86,18.06,18.06,0,0,0,2.81-3.51.5.5,0,0,1,.85.52,19.08,19.08,0,0,1-3,3.7A.5.5,0,0,1,355,235.42Z"/><path class="cls-17" d="M343.24,209.31h-.11a.5.5,0,0,1-.37-.6l.36-1.51a.5.5,0,1,1,1,.23l-.36,1.51A.5.5,0,0,1,343.24,209.31Z"/><path class="cls-17" d="M344.37,204.51h-.11a.5.5,0,0,1-.37-.6l.85-3.59a.5.5,0,1,1,1,.23l-.85,3.59A.5.5,0,0,1,344.37,204.51Z"/><path class="cls-18" d="M172.67,490.68c-4.82-1.93-15.21-5-23.47-7.82s-14.74-2.1-21.55-.25c-3.64,1-6.15,3.06-10.4,2.2-2.42-.49-4.74-1.53-7.21-1.7-5.37-.38-10.29,3.46-13,8.13s-3.62,10.1-4.84,15.34q-1.17,5-2.75,9.95c12.56-1.2,29.35-1.88,32.36-2.23,13.84-1.59,26.31-2.92,40.53-2.75,4.12,0,8.24.1,12.36-.13,7-.4,11.86.24,17-2.94A35.68,35.68,0,0,0,172.67,490.68Z"/></g></g></svg>