<svg xmlns="http://www.w3.org/2000/svg" viewBox="0 0 640 651.67"><defs><style>.cls-1{fill:#dfdee0;}.cls-2{fill:#1fb366;}.cls-3{fill:#2d8bea;}.cls-4{fill:#f3e1c4;}.cls-5{fill:#f3988c;}.cls-6{fill:#943a68;}.cls-7{fill:#2b2631;}.cls-8{fill:#21de80;}.cls-9{fill:#203966;}.cls-10{fill:#182e52;}.cls-11{fill:#c47971;}.cls-12{fill:#fff;}.cls-13{fill:#ead8e1;}.cls-14{fill:#6b676f;}.cls-15{fill:#55515a;}.cls-16{fill:#9c9b9b;}.cls-17{fill:#b2b1b3;}.cls-18{fill:#f454a8;}.cls-19{fill:#c2b49d;}.cls-20{fill:none;}.cls-21{fill:#544b4d;}.cls-22{fill:#752e51;}</style></defs><title>Fichier 1ExportationDeFichier</title><g id="Calque_2" data-name="Calque 2"><g id="Illu"><path class="cls-1" d="M396.07,577.17c2.9.33,4.93,4.35,4.42,8.78s-3.39,7.88-6.29,7.55-4.93-4.35-4.42-8.78,3.39-7.88,6.29-7.55m.36-3.17c-4.71-.54-9.1,4.1-9.82,10.36s2.52,11.77,7.23,12.3,9.1-4.1,9.82-10.36-2.52-11.77-7.23-12.3Z" transform="translate(21.76)"/><path class="cls-2" d="M397,595.69c-3.83-.44-6.44-5.17-5.82-10.54s4.23-9.39,8.05-9,6.44,5.17,5.82,10.54S400.86,596.13,397,595.69Z" transform="translate(21.76)"/><circle class="cls-3" cx="327.47" cy="198.39" r="198.39"/><circle class="cls-2" cx="303.77" cy="546.31" r="8.58"/><path class="cls-1" d="M282,539.43a6.88,6.88,0,1,1-6.88,6.88,6.89,6.89,0,0,1,6.88-6.88m0-3.27a10.15,10.15,0,1,0,10.15,10.15A10.15,10.15,0,0,0,282,536.16Z" transform="translate(21.76)"/><path class="cls-4" d="M248,567.79c-5.21,6.23-8.65,10.94-13.78,17.7-1.74,2.29,24.86,7.07,30.82,1.69,8-7.24,10-9.06,13-11.33,3.76-2.84,7.46-6,7.32-10.18a40.78,40.78,0,0,0-1.06-7.14,103.76,103.76,0,0,1-1.44-12.21c0-5.1,0-9.86.24-12.08.82-6.37-11.79-7.28-17.37-5-3.48,1.45-2,6-2.67,10.1-1,5.85-2.15,9.39-4.45,13.61C255.88,558,252.71,562.17,248,567.79Z" transform="translate(21.76)"/><polygon class="cls-5" points="473.04 651.67 454.93 648.35 454.93 434.29 473.04 434.29 473.04 651.67"/><polygon class="cls-5" points="100.49 582.37 82.38 579.04 82.38 364.98 100.49 364.98 100.49 582.37"/><polygon class="cls-6" points="107.08 573.87 100.49 582.37 100.36 364.98 107.08 356.49 107.08 573.87"/><polygon class="cls-5" points="175.43 517.33 157.33 514.01 157.33 299.94 175.43 299.94 175.43 517.33"/><polygon class="cls-6" points="182.03 508.83 175.43 517.33 175.43 299.94 182.03 291.45 182.03 508.83"/><polygon class="cls-5" points="506.41 561.54 488.3 558.22 488.3 344.16 506.41 344.16 506.41 561.54"/><polygon class="cls-6" points="510.5 553.05 506.41 561.54 506.41 344.16 510.5 335.67 510.5 553.05"/><path class="cls-2" d="M404.94,514.8a1.36,1.36,0,0,1-1.36-1.36V494.51a1.36,1.36,0,0,1,2.72,0v18.93A1.36,1.36,0,0,1,404.94,514.8Z" transform="translate(21.76)"/><path class="cls-2" d="M391.41,578.91a1.25,1.25,0,0,1-1.36-1.08v-15a1.4,1.4,0,0,1,2.72,0v15A1.25,1.25,0,0,1,391.41,578.91Z" transform="translate(21.76)"/><path class="cls-7" d="M71.41,168.25c-7.54,14.61-7.89,33.91-21,45-7.47,6.34-17.65,7.06-27,7.29-6.27.16-13.57-.39-18.93,3.53-4.58,3.35-5.57,9.14-3.26,14.19,2.81,6.14,8.9,9.21,15.31,10.2,8.6,1.33,18.62-.86,26.45,3.76,6.85,4,10.15,12.26,10.32,19.93.27,12.54-3.23,26.26,0,38.57.67,2.58,4.69,1.48,4-1.1-5.1-18.91,9.3-52.75-15.92-62-8-2.92-16.52-1.27-24.71-2.68-4.57-.78-9.31-2.55-11.93-6.63C1.15,232.8,3.34,226.71,9.5,224.5c7.26-2.6,15.58-1,23.12-1.77,6.88-.75,13.62-2.64,19.07-7.07C65.66,204.28,66,184.25,73.59,169,73.89,168.4,71.79,167.52,71.41,168.25Z" transform="translate(21.76)"/><rect class="cls-8" x="373.76" y="432.27" width="15.76" height="95.27"/><path class="cls-2" d="M402.47,490.28,382,505.34l-14.21,10.44V432.27h-7.88v88.79a12.58,12.58,0,0,0-1.56,1.44c-.72,0-1.54.06-2,0l-13.06-.69-37.52-2-25.24-1.33c-6.31-.33-6.29,9.47,0,9.8l59.72,3.14,14.36.76c1,.05,2.05.2,3.15.29l30.24,34c4.2,4.72,11.12-2.23,6.93-6.93l-27.12-30.49v-1.21l.6-.46,14.09-10.35,25-18.35C412.45,495.05,407.56,486.54,402.47,490.28Z" transform="translate(21.76)"/><path class="cls-1" d="M402.41,215.15c16.42,0,35,13.51,35,37.82,0,25.7-30.8,74.38-30.8,74.38L386,324.76Z" transform="translate(21.76)"/><ellipse class="cls-8" cx="362.26" cy="403.2" rx="79.39" ry="35.72"/><path class="cls-4" d="M331.62,485.89c4.35,9.33,7.65,23.35,12,35.64,2.35,6.71,5.38,14.32,8.3,17s13.91-1.19,14.86-4.52c1.21-4.22.39-11.88,1.32-20.89,1-9.73,3-17.91,1.34-21.8-1.57-3.66-6-7.21-9.73-9.39a31,31,0,0,1-9.43-7.56c-2.86-3.64-7.52-16.36-9.27-20.93-2.59-6.78-18.72,11.22-16.52,16.12C326.87,475,329.87,482.12,331.62,485.89Z" transform="translate(21.76)"/><path class="cls-7" d="M260.82,534.56a44.17,44.17,0,0,0,23.41.92c4.79-49.33,6.71-59.57,11-89.14,2.84-19.67,5.13-29,3.43-48.85-.22-2.6-.59-5.33-2.09-7.41a12.26,12.26,0,0,0-4.94-3.63c-5.32-2.5-11.33-3.89-17-2.51-22.19,5.38-16.59,49.86-16.06,67.25C259.43,480.66,260.41,505.07,260.82,534.56Z" transform="translate(21.76)"/><path class="cls-7" d="M325.65,477.35c7.82,1.56,20.42-5.85,21-13.67-8.41-29.82-10.11-46.82-18.4-74.31-2.19-7.26-48.9-3.58-44.59,5.31,4.52,9.32,7.61,14.42,12.5,23.55C305.49,435.58,311.6,446.85,325.65,477.35Z" transform="translate(21.76)"/><path class="cls-8" d="M388.19,210.9c7.85-2.51,18.29-2.06,25.23-.28,13.16,3.39,31.66,13.74,31.66,42.2S429.23,295,416.45,317.66a166.07,166.07,0,0,0-7.63,15.28l-7.35-1.67a201.23,201.23,0,0,1,10.38-21c16.09-28.46,20.46-41.36,20.46-60.4,0-16.5-10.09-27.24-20.88-30.79a31.73,31.73,0,0,0-20,.1C387.72,220.46,388.19,210.9,388.19,210.9Z" transform="translate(21.76)"/><polygon class="cls-5" points="82.38 346.14 82.38 384.13 473.04 445.37 473.04 407.95 82.38 346.14"/><polygon class="cls-6" points="508.24 335.85 473.04 407.95 473.04 434.29 473.04 445.37 473.04 651.67 477.13 643.18 477.13 435.69 508.24 362.14 508.24 335.85"/><path class="cls-9" d="M356.44,181c-4.08.94-21.53,5.24-25.27,6.61s-5.84,1.53-8.67,4.17c-3.56,3.32-7.48,12.6-11.61,19.95-7.9,14-17.91,31.8-27.59,44.59-1.41-1-3.17-1.58-4.72-.58a30.24,30.24,0,0,0-6.37,5.11c-1,1.13-1.06,3.53-.29,5.62,2.76,7.49,8.41,12.73,12.43,14.67,2.85,1.37,5.48,1.59,6.88,1.16,4.27-1.33,16.17-13.36,17.9-15,8.83-8.14,12.4-16.46,16.43-20,.36,4.6,2.54,7.57,4.28,14.48,2.4,9.57,3.18,36,3.83,43.89.91,11,3.68,24.5,8.8,34.33,8.75,16.82,51.91,12,54.63,2.74,5.76-19.68.68-51.28,8.73-79.62s9.83-51,8.38-60.68c-.56-3.75-.54-6.21-5.34-9.34-7.25-4.73-24.56-7.11-32.19-10.82C370.55,179.38,363,179.47,356.44,181Z" transform="translate(21.76)"/><path class="cls-10" d="M373.27,246.86c-1.68,5.72-1.3,8.55-4.62,11-2.82,2.1-32.6.06-41.44-3.89,4.7,11.47,5.51,35.48,5.84,43.06.51,11.52,1.47,12.24,2.48,25.54,11.84,10.26,52,50.39,59.16,47.32-4.69-4.46,5.49-43.53,5.51-47.57,0-11.3,1.32-35.62,2.53-45.15,1.07-8.37,4.45-16,5.58-24.24.49-3.53,5-23.68,5.47-27-4.85,6.11-5.27,12.65-9.91,19.4-3.66-1.53-20-15.79-24.45-11.09C375.71,238.18,374.74,241.88,373.27,246.86Z" transform="translate(21.76)"/><path class="cls-4" d="M356.59,162.11c-1.28-.61.2,16.57-.6,20.19-4.09,2-5.5,4.39-5.5,7.7,0,4.84,5.52,9.12,12.61,9.12,9.39,0,15.76-5.86,15.76-11.15a3.74,3.74,0,0,0-2-3.77,11.25,11.25,0,0,1-4.38-5.07c-2.9-6.45-.89-17.12,0-26.19C367.61,150.48,360.13,158.77,356.59,162.11Z" transform="translate(21.76)"/><path class="cls-10" d="M290.17,274.43c-.11,2-.51,9,.85,8.47,2.89-1.21,15.81-13.26,19.35-16.68,5.85-5.64,10.5-13.7,15.19-18.86-.36-6.23,1.64-12.74,3.15-20.26-3.82,4.12-7.34,7.3-10.34,12C312.8,247.92,290.28,272.43,290.17,274.43Z" transform="translate(21.76)"/><path class="cls-9" d="M387.52,221.75c-2.39,4.66-4.05,13.76-5.27,20.24-2.77,14.8-.88,18.13-8.61,35.39a9,9,0,0,0-5.18,3.87,30.16,30.16,0,0,0-2.69,7.59c-.67,3.28,1.17,9.42,11.18,13.68,8.64,3.68,14.86,3.21,19.28.91,2.64-1.38,5.27-5.34,6.26-8.37.75-2.29,2.28-7.31-.16-10,2.19-6.71,3.87-13.07,5.86-20.92,3.67-14.44,6.88-33.72,6.66-49.93-.1-7.57-.77-8.73-4.2-14.78-1.45-2.56-13.9,7.65-16.48,10.42C391.89,212.27,389.07,218.72,387.52,221.75Z" transform="translate(21.76)"/><polygon class="cls-6" points="48.1 348.73 48.1 338.53 524.2 332.68 524.12 342.88 494.19 416.29 48.1 348.73"/><polygon class="cls-5" points="48.42 338.53 145.41 286.24 524.2 332.68 494.39 406.09 48.42 338.53"/><path class="cls-11" d="M186.16,293.9l-21,9.87s-9,7-17.79,14.2c-2.6,2.11-1.69,4.13,2,4.56,7.73.92,27,3.41,27,3.41,5.84,12.61,10.4,27.11,21,28.26,12.37,1.34,16.51-.26,21.66-4,4.63-3.35,18.19-16,18.19-16l49.1,6.9a9.91,9.91,0,0,0,8.09-3l25.78-27.76Z" transform="translate(21.76)"/><path class="cls-1" d="M404,371.88s34.19,4.63,49.93,7c13.16,2,27.92,4.15,35.8,14.88,4.35-8.73,12.32-27.41,13.81-30.82-3.58-9.3-9.15-13.48-19.6-15l-61.36-9.19Z" transform="translate(21.76)"/><path class="cls-12" d="M414.38,371.26s31.94,4.58,49.93,7c13.19,1.77,27.92,4.15,35.8,14.88,3.29-9.1,10.38-28.17,12.41-34.08-6.92-8.27-15.19-12.16-28-13.9L433,338.08Z" transform="translate(21.76)"/><rect class="cls-1" x="84.9" y="35.05" width="14.15" height="73.81"/><rect class="cls-6" x="103.72" y="19.24" width="29.71" height="89.61"/><rect class="cls-7" x="103.72" y="19.24" width="29.71" height="89.61"/><path class="cls-6" d="M111.68,111.92H82a3.06,3.06,0,0,1-3.06-3.06V19.24A3.06,3.06,0,0,1,82,16.18h29.71a3.06,3.06,0,0,1,3.06,3.06v89.61A3.06,3.06,0,0,1,111.68,111.92ZM85,105.8h23.59V22.3H85Z" transform="translate(21.76)"/><rect class="cls-6" x="200.7" y="35.57" width="23.67" height="73.28"/><rect class="cls-9" x="157.92" y="58.17" width="16.24" height="50.69"/><rect class="cls-8" x="174.16" y="28.72" width="12.61" height="80.14"/><rect class="cls-5" x="226.28" y="40.5" width="11.07" height="68.36"/><rect class="cls-4" x="188.81" y="43.11" width="9.93" height="65.75"/><rect class="cls-4" x="238.84" y="28.95" width="9.93" height="80.51"/><path class="cls-4" d="M227.52,109.46h-1c0-34,5.53-56.95,17.92-74.49l.83.59C233,52.92,227.52,75.71,227.52,109.46Z" transform="translate(21.76)"/><path class="cls-4" d="M227.52,109.46h-1c0-29.09,8.66-51.26,26.49-67.77l.69.75C236.07,58.74,227.52,80.67,227.52,109.46Z" transform="translate(21.76)"/><path class="cls-4" d="M111.68,108.86c0-32.59,6.41-70.54,9.15-80.14l8.52,1.77s-7.6,33.34-7.6,78.37Z" transform="translate(21.76)"/><path class="cls-5" d="M121.75,108.86c0-30.33,7.38-65.65,10.55-74.57l9.81,1.65s-8.75,31-8.75,72.93Z" transform="translate(21.76)"/><path class="cls-8" d="M77.64,110.39a1.53,1.53,0,0,1-1.53-1.53V35a1.53,1.53,0,0,1,3.06,0v73.81A1.53,1.53,0,0,1,77.64,110.39Z" transform="translate(21.76)"/><path class="cls-8" d="M63.14,110.39a1.53,1.53,0,0,1-1.53-1.53V35a1.53,1.53,0,1,1,3.06,0v73.81A1.53,1.53,0,0,1,63.14,110.39Z" transform="translate(21.76)"/><rect class="cls-7" x="73.26" y="108.86" width="191.7" height="10.7"/><path class="cls-13" d="M103.33,76.39h-14a.51.51,0,1,1,0-1h14a.51.51,0,1,1,0,1Z" transform="translate(21.76)"/><path class="cls-13" d="M103.33,80.74h-14a.51.51,0,1,1,0-1h14a.51.51,0,1,1,0,1Z" transform="translate(21.76)"/><path class="cls-14" d="M594.77,149.66V24.76a7.19,7.19,0,0,0-7.17-7.17H403a7.19,7.19,0,0,0-7.17,7.17v124.9a7.19,7.19,0,0,0,7.17,7.17H587.6A7.19,7.19,0,0,0,594.77,149.66Z" transform="translate(21.76)"/><path class="cls-15" d="M594.79,25.82v123.8a7.23,7.23,0,0,1-7.21,7.21H404.11c-2.55,0-4.14-.41-5.55-1.58a.13.13,0,0,1,0-.21L592.14,19.35a.13.13,0,0,1,.17,0C594.36,21.53,594.79,22.7,594.79,25.82Z" transform="translate(21.76)"/><path class="cls-12" d="M587.6,17.58a7.19,7.19,0,0,1,7.17,7.17v124.9a7.19,7.19,0,0,1-7.17,7.17H403a7.19,7.19,0,0,1-7.17-7.17V24.76A7.19,7.19,0,0,1,403,17.58H587.6m0-1.71H403a8.89,8.89,0,0,0-8.88,8.88v124.9a8.89,8.89,0,0,0,8.88,8.88H587.6a8.89,8.89,0,0,0,8.88-8.88V24.76a8.89,8.89,0,0,0-8.88-8.88Z" transform="translate(21.76)"/><rect class="cls-1" x="423.35" y="24.98" width="187.44" height="124.45"/><circle class="cls-12" cx="517.07" cy="21.36" r="2.39"/><polygon class="cls-16" points="506.56 138.98 506.56 33.73 580.76 33.73 582.24 35.21 582.24 140.46 508.05 140.46 506.56 138.98"/><rect class="cls-12" x="506.57" y="33.73" width="74.2" height="105.25"/><polygon class="cls-17" points="567.8 126.03 580.02 126.03 567.8 138.24 567.8 126.03"/><polygon class="cls-12" points="580.02 138.24 567.8 138.24 580.02 126.03 580.02 138.24"/><rect class="cls-1" x="514.01" y="44.18" width="59.3" height="2.32"/><rect class="cls-1" x="514" y="50.43" width="41.94" height="2.32"/><path class="cls-1" d="M502.64,103.85V86.26c5.24,3.33,12.06,13.08,15.73,17.87Z" transform="translate(21.76)"/><path class="cls-1" d="M518.37,104.13l26.61,0c-3.85,4.26-8,6.75-13.14,6.75S521,108.32,518.37,104.13Z" transform="translate(21.76)"/><path class="cls-3" d="M502.66,119.56a.51.51,0,0,1-.51-.51V74.61a.51.51,0,0,1,1,0v44.44A.51.51,0,0,1,502.66,119.56Z" transform="translate(21.76)"/><path class="cls-3" d="M551.56,104.62H492.24a.51.51,0,0,1,0-1h59.32a.51.51,0,1,1,0,1Z" transform="translate(21.76)"/><path class="cls-18" d="M531.84,111.62c-8.3,0-12.8-4.46-20.34-15.13-6.41-9.07-11.27-12.13-19.26-12.13a.77.77,0,0,1,0-1.53c8.48,0,13.84,3.34,20.51,12.77,8,11.37,12.14,14.48,19.09,14.48s13.91-5.85,19-16.05a.77.77,0,1,1,1.37.69C546.84,105.46,539.41,111.62,531.84,111.62Z" transform="translate(21.76)"/><path class="cls-18" d="M522.24,81.27A2.51,2.51,0,0,1,520,79.8a3.18,3.18,0,0,1,.15-2.71A4.67,4.67,0,0,1,523,74.6a.42.42,0,0,1,.52.31.41.41,0,0,1-.29.52,3.09,3.09,0,0,0-2.26,2.84,1.4,1.4,0,0,0,1,1.63,1.73,1.73,0,0,0,1.94-1,13.15,13.15,0,0,0,.46-5c0-.83-.1-1.56-.16-2.24a11,11,0,0,1-1.43,1h0a.19.19,0,0,1-.26-.06.19.19,0,0,1,0-.26A19,19,0,0,0,524.15,71L524,70c-.09-.78-.17-1.51-.23-2.33,0-.19,0-.42-.05-.66a13.13,13.13,0,0,1,.07-4.4,1.51,1.51,0,0,1,1.29-1.12,1.34,1.34,0,0,1,1.12.42c1,1,1.15,3.4,1,4.48a7.92,7.92,0,0,1-2.36,4.68l.11,1.16c.06.62.12,1.25.18,1.91a11.3,11.3,0,0,1-.5,5.36,2.73,2.73,0,0,1-2.45,1.77Zm2.93-18.5c-.42,0-.66.28-.73.83a33.92,33.92,0,0,0,.14,3.73c.09,1.05.17,2,.26,2.93a6.52,6.52,0,0,0,1.47-6.5c-.21-.47-.65-1-1.1-1Z" transform="translate(21.76)"/><path class="cls-18" d="M530.87,78.17a.43.43,0,0,1-.37-.21c-2.13-3.28-2.72-8.24.27-11.34h0l.1-.1.23.18-.08.13c-2.61,3.27-1.49,7.79.25,10.67a.42.42,0,0,1-.14.59A.49.49,0,0,1,530.87,78.17Z" transform="translate(21.76)"/><path class="cls-18" d="M536.38,74.3a.39.39,0,0,1-.23-.08c-.53-.39-1-.84-1.51-1.27l-.53-.48-.56-.48a13.59,13.59,0,0,1-1.6-1.51h0a.29.29,0,0,1,0-.38.27.27,0,0,1,.35-.06,12.71,12.71,0,0,1,1.63,1.22l.49.41.65.51c.55.43,1.12.88,1.63,1.37a.43.43,0,0,1,0,.59A.41.41,0,0,1,536.38,74.3Z" transform="translate(21.76)"/><path class="cls-18" d="M532.16,74.53l-.08,0a.41.41,0,0,1-.15-.05.23.23,0,0,1-.09-.17.2.2,0,0,1,0-.16L532,74c1.22-1.45,2.48-2.94,3.64-4.48a.39.39,0,0,1,.38-.17.4.4,0,0,1,.31.25.39.39,0,0,1-.07.4,49.84,49.84,0,0,1-4,4.5Z" transform="translate(21.76)"/><path class="cls-18" d="M539,77.42a.45.45,0,0,1-.22-.06.44.44,0,0,1-.19-.6c1.91-3.85,1.38-7.55-1.52-10.44a.22.22,0,0,1,0-.29.21.21,0,0,1,.28,0c3.91,2.58,4.1,7.83,2,11.22A.42.42,0,0,1,539,77.42Z" transform="translate(21.76)"/><path class="cls-18" d="M547.33,73a2.46,2.46,0,0,1-1.69-.72,2.33,2.33,0,0,1,2.52-3.76h0a.24.24,0,0,1,.14.15.44.44,0,0,1,.48.3c.32.89.66,2.8-.31,3.62A1.73,1.73,0,0,1,547.33,73Zm.26-4.06a1.75,1.75,0,0,0-1.64.85,1.6,1.6,0,0,0,.26,1.92,1.54,1.54,0,0,0,1.32.36.71.71,0,0,0,.53-.5,4.57,4.57,0,0,0-.1-2.15l0-.2a.48.48,0,0,1,0-.26Z" transform="translate(21.76)"/><path class="cls-18" d="M550,72.6a.36.36,0,0,1-.29-.15,13.69,13.69,0,0,1-2.54-7.6.27.27,0,0,1,.17-.27.27.27,0,0,1,.24,0,.24.24,0,0,1,.12.17,31.26,31.26,0,0,0,2.6,7.35.35.35,0,0,1-.31.5Z" transform="translate(21.76)"/><path class="cls-18" d="M554.79,71.67a.42.42,0,0,1-.28-.11c-.32-.28-.66-.56-1-.84A16.21,16.21,0,0,1,551,68.38a.2.2,0,0,1,0-.26.19.19,0,0,1,.25,0,9.2,9.2,0,0,1,1.42,1l.42.33,1.34,1.05.63.5a.36.36,0,0,1,.14.35.46.46,0,0,1-.3.34Z" transform="translate(21.76)"/><path class="cls-18" d="M551.72,71.93h-.08a.27.27,0,0,1-.18-.28,17.77,17.77,0,0,1,2-4.54.4.4,0,0,1,.36-.21.47.47,0,0,1,.4.24.39.39,0,0,1,0,.41c-.53.84-1,1.73-1.43,2.58-.29.57-.59,1.16-.91,1.73A.18.18,0,0,1,551.72,71.93Z" transform="translate(21.76)"/><path class="cls-18" d="M509.55,82.82a1.92,1.92,0,0,1-.46-.06,1.22,1.22,0,0,1-.94-1.44.53.53,0,0,1,.5-.43.62.62,0,0,1,.63.41l0,.13c.07.24.11.33.26.34a1.46,1.46,0,0,0,1.19-.45c1.53-1.57,1.07-6.68.88-8.87,0-.28,0-.51-.06-.69-.09-1.31-.22-2.64-.35-3.92s-.28-2.89-.37-4.33c0-.14,0-.3,0-.46-.11-1.27-.25-3,.82-3.91a2.13,2.13,0,0,1,2.59-.11h0a.57.57,0,0,1,.27.57.66.66,0,0,1-.44.51.54.54,0,0,1-.56-.16l-.15-.18a1.3,1.3,0,0,0-.24-.26.67.67,0,0,0-.66,0c-1.15.58-.84,3.61-.73,4.61l0,.26c.09,1,.2,2.05.31,3l.1,1a64.33,64.33,0,0,1,.47,6.82v.48c0,2.42,0,6.92-3.07,7.12Z" transform="translate(21.76)"/><rect class="cls-9" x="433.31" y="33.73" width="51.37" height="51.37"/><rect class="cls-9" x="433.31" y="33.73" width="51.37" height="51.37"/><path class="cls-10" d="M416.26,85.1c1.12-5.4,3.76-6.95,6.61-7.72s3.53-3,1.7-4.4c-4.12-3-6.3-9.07-6.3-17.73s5-13.15,9.93-13.41a10.89,10.89,0,0,1,9.85,4.42c1.67,2.42,1.49,21.49-1.36,23s-6.94,4.08-7.1,6.73,3.54,3.05,5.34,4.26,3.83,4.84,3.83,4.84Z" transform="translate(21.76)"/><path class="cls-5" d="M422.88,62.34a3.23,3.23,0,0,0,.64,1.95A11.68,11.68,0,0,1,425,66a3,3,0,0,1-.21,3.12,7.26,7.26,0,0,0,5.62-1c.32-.22-.4-2.23-.42-2.57-.06-1.35.07-3.77-.76-4.89-.35-.48-2.14-.56-4.45-.69A2.68,2.68,0,0,0,422.88,62.34Z" transform="translate(21.76)"/><path class="cls-11" d="M429.26,60.64c-.27-.36-1.37-.5-2.91-.6a1.18,1.18,0,0,0-.11,1c-.64,1.53-.48,5.75.83,8.19a6.65,6.65,0,0,0,3.36-1.17c.32-.22-.4-2.23-.42-2.57C430,64.19,430.09,61.77,429.26,60.64Z" transform="translate(21.76)"/><path class="cls-8" d="M447.69,81.71a6.21,6.21,0,0,0-.77-2.69c-1-1.46-2.78-.94-4.23-.74l-5.77.8c-2.29.31-4.62.39-6.92.69q-2.46.32-4.91.75c-1.25.22-3,.28-4.07,1a1.72,1.72,0,0,0-.5.67L419,85.1h29.29C448.06,84,447.84,82.85,447.69,81.71Z" transform="translate(21.76)"/><path class="cls-2" d="M427.53,81.59a4.43,4.43,0,0,0,.17,3.51H428a4,4,0,0,1-.27-3.46C427.79,81.52,427.58,81.47,427.53,81.59Z" transform="translate(21.76)"/><path class="cls-4" d="M436.5,79.17a18.91,18.91,0,0,0-2.14.07,14.61,14.61,0,0,0-2.92.21,2.93,2.93,0,0,0-2,1.24,3.27,3.27,0,0,0-.24,2.52,4,4,0,0,0,1.08,1.89h7.57a3.68,3.68,0,0,0,.68-1.32C439.05,82,438.88,79.4,436.5,79.17Z" transform="translate(21.76)"/><path class="cls-19" d="M436.5,79.17a18.93,18.93,0,0,0-2.14.07,14.61,14.61,0,0,0-2.92.21,2.93,2.93,0,0,0-2,1.24,2.6,2.6,0,0,0-.28.69c3.08-.42,6.17-.65,9.25-1A2.25,2.25,0,0,0,436.5,79.17Z" transform="translate(21.76)"/><path class="cls-4" d="M432.7,71.06c0,.3,0,.6-.06.89-.2,1.15-.28,2.31-.49,3.45-.29,1.59-.71,3.14-1.11,4.7-.09.36-.38,1-.28,1.31.21.7,1.19.82,1.77.93a5.38,5.38,0,0,0,2.9,0c1.19-.47.85-1.61.83-2.65a15.74,15.74,0,0,1,.39-3.07c.26-1.42.71-2.71,1-4.11.13-.54.15-.37-.27-.56a8,8,0,0,0-.9-.33c-.51-.16-1-.2-1.55-.36s-1.79-1.87-2.17-.81A2.1,2.1,0,0,0,432.7,71.06Z" transform="translate(21.76)"/><path class="cls-19" d="M434.89,78c0,.11-.09.22-.12.34a.13.13,0,0,0,.09.15.13.13,0,0,0,.15-.09c0-.11.08-.22.12-.34a.12.12,0,0,0-.08-.15.12.12,0,0,0-.15.08Z" transform="translate(21.76)"/><path class="cls-19" d="M435.48,77a3.39,3.39,0,0,0,.33-1.11c0-.23-.34-.23-.36,0a3.89,3.89,0,0,1-.23,1c-.06.15.19.26.27.11Z" transform="translate(21.76)"/><path class="cls-19" d="M437.42,72a8,8,0,0,0-.9-.33c-.51-.16-1-.2-1.55-.36s-1.79-1.87-2.17-.81a2.1,2.1,0,0,0-.11.57c0,.3,0,.6-.06.89-.11.65-.19,1.31-.27,2a15.42,15.42,0,0,0,4.57,1.5c.24-1,.53-1.88.76-2.86C437.82,72,437.84,72.18,437.42,72Z" transform="translate(21.76)"/><path class="cls-4" d="M438.14,73h0a9.88,9.88,0,0,1-10.06-10V52.56a10.26,10.26,0,0,1,10.06-10.45h0c2.53,0,7.22,2.19,8.39,8.29a56.78,56.78,0,0,1,1.87,12.41A10.25,10.25,0,0,1,438.14,73Z" transform="translate(21.76)"/><path class="cls-5" d="M436.88,38.95a21.11,21.11,0,0,1,8.43,1.89,30.11,30.11,0,0,0,8,2c.64.07,3.34.34,4,.39,1.75.3,1.2,3.11-1,2.29a3.77,3.77,0,0,0-3.12-.19.93.93,0,0,0-.11,1.35c.29.34.6.79.44,1.21s-.83.84-1.08,1.06c-1.45,1.28-.73,2.55,1.15,3.54,0,.73-1,2.17-2,2.17-.83,0-3.61-1.11-4.42-1.11l-.58-2.42a38.55,38.55,0,0,1-6.4-3.87c-2.85-2.15-5.13-.35-5.4,1.92-3.45-.91-5.29,1.59-4.41,5.77.27,1.28,1.3,2.73.31,3.6-1.19,1-3,.89-4.54.6A7.58,7.58,0,0,1,421.88,57a6.57,6.57,0,0,1,2.42-10.26c1.43-.62,2.82-.75,4.13-1.59C429.25,41.26,432.29,38.95,436.88,38.95Z" transform="translate(21.76)"/><path class="cls-5" d="M427.67,37.27a12,12,0,0,0-.63,3.92,5.43,5.43,0,0,0,.55,2.17,4,4,0,0,0,2.48,2.23c1.74.68-.76,2.35-1.94,2A3.61,3.61,0,0,1,426,45.19,9.51,9.51,0,0,1,427.67,37.27Z" transform="translate(21.76)"/><circle class="cls-4" cx="447.84" cy="58.61" r="2.99"/><path class="cls-4" d="M431,43.47A7.4,7.4,0,0,1,434.49,41a6.38,6.38,0,0,1,4.8.52c.36.19.67-.36.32-.54a6.7,6.7,0,0,0-8.87,2.32c-.08.14.12.31.24.18Z" transform="translate(21.76)"/><path class="cls-4" d="M422.52,51.3a4.71,4.71,0,0,1,4.84-2.93.28.28,0,1,0,.08-.56,4.92,4.92,0,0,0-5.26,3.39c-.06.23.26.3.34.09Z" transform="translate(21.76)"/><path class="cls-4" d="M426.81,45.67a4.16,4.16,0,0,1-1.47-2.42,5.92,5.92,0,0,1,.55-3.37.23.23,0,1,0-.41-.17,6.35,6.35,0,0,0-.53,3.66,3.59,3.59,0,0,0,1.69,2.53c.14.07.3-.11.17-.22Z" transform="translate(21.76)"/><path class="cls-4" d="M449.12,43a34,34,0,0,0,9.51,1.17.23.23,0,0,0,0-.47,41.53,41.53,0,0,1-9.43-1,.16.16,0,0,0-.08.31Z" transform="translate(21.76)"/><path class="cls-4" d="M450.77,46.72a8,8,0,0,0,3,.51.29.29,0,0,0,0-.58,12.65,12.65,0,0,1-2.88-.37.23.23,0,0,0-.12.44Z" transform="translate(21.76)"/><path class="cls-4" d="M449.92,50.37a8,8,0,0,0,2.65,1.38.3.3,0,0,0,.16-.57,8.14,8.14,0,0,1-2.48-1.23c-.24-.18-.57.23-.33.42Z" transform="translate(21.76)"/><path class="cls-11" d="M453.17,53.58c-1.07-.47-2.2-.74-3.26-1.23A22.47,22.47,0,0,1,445,49.69c-1.55-1.25-3.56-3.4-5.36-4.3a3.14,3.14,0,0,0-3.18.17c-1,.67-1.93,2.22-1.45,2.83h0c.63-1.87,2.7-3.07,5.22-1.17a38.56,38.56,0,0,0,6.4,3.87l.58,2.42c.81,0,3.59,1.11,4.42,1.11A2.11,2.11,0,0,0,453.17,53.58Z" transform="translate(21.76)"/><path class="cls-20" d="M436.88,38.95a21.11,21.11,0,0,1,8.43,1.89,30.11,30.11,0,0,0,8,2c.64.07,3.34.34,4,.39,1.75.3,1.2,3.11-1,2.29a3.77,3.77,0,0,0-3.12-.19.93.93,0,0,0-.11,1.35c.29.34.6.79.44,1.21s-.83.84-1.08,1.06c-1.45,1.28-.73,2.55,1.15,3.54,0,.73-1,2.17-2,2.17-.83,0-3.61-1.11-4.42-1.11l-.58-2.42a38.55,38.55,0,0,1-6.4-3.87c-2.85-2.15-5.13-.35-5.4,1.92-3.45-.91-5.29,1.59-4.41,5.77.27,1.28,1.3,2.73.31,3.6-1.19,1-3,.89-4.54.6A7.58,7.58,0,0,1,421.88,57a6.57,6.57,0,0,1,2.42-10.26c1.43-.62,2.82-.75,4.13-1.59C429.25,41.26,432.29,38.95,436.88,38.95Z" transform="translate(21.76)"/><path class="cls-21" d="M434.2,52c.82,0,1.62-.26,2.45-.26a14.06,14.06,0,0,1,2.48.21.56.56,0,1,0,.15-1.11,10,10,0,0,0-2.64.08,7,7,0,0,0-2.53.71.19.19,0,0,0,.1.36Z" transform="translate(21.76)"/><path class="cls-5" d="M442.8,52.38a6,6,0,0,0-2.24,3,6.86,6.86,0,0,0-.36,3.42c.05.49.12,1.21.11,1.51,0,1.07,0,1.81,0,2.66,0,.32-.64.38-1,.41s-.7-.39-1-.22-.06.47.15.65a3,3,0,0,0,1.54.3c.25,0,.85-.15,1-.41a2.31,2.31,0,0,0,.12-.87,35,35,0,0,0-.57-4.12,6.63,6.63,0,0,1,.14-3.2,6.92,6.92,0,0,1,.84-1.65,12,12,0,0,1,1.29-1.43A.06.06,0,0,0,442.8,52.38Z" transform="translate(21.76)"/><circle class="cls-5" cx="459.07" cy="59.05" r="0.41"/><circle class="cls-5" cx="459.41" cy="60.4" r="0.41"/><circle class="cls-5" cx="457.56" cy="59.95" r="0.45"/><circle class="cls-5" cx="464.17" cy="59.29" r="0.41"/><circle class="cls-5" cx="464.84" cy="60.64" r="0.37"/><circle class="cls-5" cx="466.27" cy="60.09" r="0.45"/><path class="cls-21" d="M442.73,52.52a17.92,17.92,0,0,1,2.48.87c.36.16.84-.3.47-.61a7.36,7.36,0,0,0-2.63-1.42.6.6,0,0,0-.32,1.16Z" transform="translate(21.76)"/><path class="cls-21" d="M438.31,54.88A7,7,0,0,0,435,55c-.17.05-.11.27.08.24a10.42,10.42,0,0,1,1.11-.14c-.06.1-.1.22-.14.31a2.57,2.57,0,0,0-.29,1.15.35.35,0,0,0,.15.25,4.59,4.59,0,0,0-.78.1c-.18.06-.11.28.08.25a7.64,7.64,0,0,1,2.06-.06c.26,0,.26-.34,0-.35h-.45a14.77,14.77,0,0,0,.15-1.66,7.19,7.19,0,0,1,1.21.14C438.48,55.33,438.6,54.93,438.31,54.88Z" transform="translate(21.76)"/><path class="cls-21" d="M444.5,55.69a15.1,15.1,0,0,0-2.61-.43.14.14,0,0,0,0,.28l.67.19a3.07,3.07,0,0,0-.48,1.16.35.35,0,0,0,.09.33,4.67,4.67,0,0,0-.53,0,.13.13,0,1,0,0,.25,10.44,10.44,0,0,1,1.93.16c.21,0,.3-.23.09-.28a3.16,3.16,0,0,0-.57-.07v0a5.18,5.18,0,0,0,.1-.76,1.89,1.89,0,0,0,.06-.6l1.15.24C444.69,56.21,444.83,55.76,444.5,55.69Z" transform="translate(21.76)"/><path class="cls-21" d="M424.89,59a1,1,0,0,1,.47-1.26c.39-.18,1.6-.1,1.64.51l.23-.17a1.12,1.12,0,0,0-1.33.5.74.74,0,0,0,.42,1c.23.09.34-.29.1-.38-.39-.15-.15-.59,0-.71a1,1,0,0,1,.67,0,.18.18,0,0,0,.23-.17c0-.84-1.36-1.14-2-.89a1.27,1.27,0,0,0-.66,1.72c0,.11.24,0,.2-.08Z" transform="translate(21.76)"/><path class="cls-21" d="M434.27,65.85A3.83,3.83,0,0,0,437,68a5,5,0,0,0,3.78-.24c.39-.23,0-.8-.35-.6a4.67,4.67,0,0,1-3.25.2,4.24,4.24,0,0,1-2.58-1.66.19.19,0,0,0-.33.19Z" transform="translate(21.76)"/><rect class="cls-3" x="433.31" y="89.09" width="51.37" height="51.37"/><path class="cls-9" d="M444,132.43a10.12,10.12,0,0,0-6.55-.44c-1.32.3-7,1.7-8.18,2.14a6.56,6.56,0,0,0-2.8,1.35c-.92.86-1.92,3-3,5h32.77a14.48,14.48,0,0,0-.13-1.51,3.34,3.34,0,0,0-1.73-3C452,134.4,446.44,133.63,444,132.43Z" transform="translate(21.76)"/><path class="cls-4" d="M437.47,125.88c-.41-.2.06,5.36-.19,6.53a2.59,2.59,0,0,0-1.78,2.49c0,1.57,1.78,3,4.08,3,3,0,5.1-1.89,5.1-3.61A1.21,1.21,0,0,0,444,133a3.64,3.64,0,0,1-1.42-1.64c-.94-2.09-.29-5.54,0-8.47C441,122.12,438.62,124.8,437.47,125.88Z" transform="translate(21.76)"/><path class="cls-19" d="M438.1,128.95a11.57,11.57,0,0,0,4-1.4c.07-1.42.31-3,.47-4.63-1.57-.79-4,1.89-5.14,3-.23-.11-.19,1.49-.15,3.16Z" transform="translate(21.76)"/><path class="cls-4" d="M447.22,110.11c0,6.29-5.1,17.31-11.4,17.31s-10.12-8.72-10.12-17.28c0-6.29,3.82-11.42,10.12-11.42A11.4,11.4,0,0,1,447.22,110.11Z" transform="translate(21.76)"/><ellipse class="cls-21" cx="458.21" cy="112.11" rx="0.7" ry="0.88"/><ellipse class="cls-21" cx="450.52" cy="112.11" rx="0.7" ry="0.88"/><path class="cls-7" d="M456.13,100.78A6.95,6.95,0,0,0,445.25,95a12.25,12.25,0,0,0-7.25-2,18.54,18.54,0,0,0-10.38,2.86c-4.22,2.47-7.69,7.86-6,9.27l.12.08a11.51,11.51,0,0,0-.65,6.64h0a11.18,11.18,0,0,1,1.36-6.16,6.43,6.43,0,0,0,3.69.79,12.54,12.54,0,0,1,1.63-3.66c1.16-1.64,1.92-1.75,4.79-1.68.7-.5,2.1-2,2.86-2.08a16.08,16.08,0,0,0-.76,2.23c4.62.51,6.86,1.34,8.36,2.56l0,.07a43.33,43.33,0,0,1-1.27,8.51c1.21.23,2.06-1.35,2.22-2.9.95.48,3.23,1.73,3.14,3.33-.07,1.27-.77,1.59-2.69,2.74a7.56,7.56,0,0,0,1.93-.25c-.06.22-.15.47-.23.72a4.42,4.42,0,0,1-1.74.88,1.5,1.5,0,0,0,1.44,0,24.44,24.44,0,0,1-1.6,3.52,4.76,4.76,0,0,0,.82,1.5c.14.18.25.08.17-.13a4,4,0,0,1-.22-1.71.19.19,0,0,1,.16-.16,8.31,8.31,0,0,0,1.43,1.5c.24.18.31.09.14-.16a4,4,0,0,1-.77-1.92c1.61.18,5.22.33,7.37-2.36a8.09,8.09,0,0,1-2.63-4.77s.74,2.77,3,2.21c-2-1.68-2.76-4.16-3.31-6.9A6.94,6.94,0,0,0,456.13,100.78Z" transform="translate(21.76)"/><circle class="cls-4" cx="468.32" cy="111.06" r="3.13"/><path class="cls-21" d="M445.81,110.77c.22-.07.42-.17.64,0a.51.51,0,0,1,.18.57.28.28,0,0,0,.53.15,1,1,0,0,0-.42-1.15.9.9,0,0,0-1.15.17.2.2,0,0,0,.23.29Z" transform="translate(21.76)"/><path class="cls-5" d="M430.86,117.21a.07.07,0,0,0,0-.13.07.07,0,0,0,0,.13Z" transform="translate(21.76)"/><path class="cls-12" d="M421.09,107.72a13.38,13.38,0,0,1,5.37-8.4c.32-.22-.05-.73-.36-.48a13.21,13.21,0,0,0-5.17,8.86.08.08,0,0,0,.16,0Z" transform="translate(21.76)"/><path class="cls-5" d="M432,117.56c-.29.14-.78.63-.79.05a18.46,18.46,0,0,1,.71-4,24,24,0,0,0,.63-3.83c-.06-1.33-.26-1.85-1.36-2.44-.22-.12-1,.2-.43.37a1.7,1.7,0,0,1,1.26,2c0,1.14-1,5.15-1.7,8.07a.66.66,0,0,0,.22.62c.15.12,1-.29,1.48,0,.81.42,1.16-.11,1.13-.39S432.8,117.17,432,117.56Z" transform="translate(21.76)"/><path class="cls-12" d="M429.83,120.42a15.52,15.52,0,0,0,9.65-.33c-1.18,2.2-3.08,4.56-5,4.56C433,124.66,430.92,122.43,429.83,120.42Z" transform="translate(21.76)"/><path class="cls-5" d="M429.74,120.37a11.23,11.23,0,0,0,4.75.86,15.4,15.4,0,0,0,4.89-.79.2.2,0,1,0-.11-.38,16.15,16.15,0,0,1-4.8.78,16.49,16.49,0,0,1-4.61-.6c-.09,0-.19.06-.11.13Z" transform="translate(21.76)"/><path class="cls-21" d="M437.06,107.42a4.7,4.7,0,0,1,2.21,1.18c.35.39.71,0,.44-.47-.74-1.3-3.12-2-4.86-1.45a.79.79,0,0,0-.23,1A4.68,4.68,0,0,1,437.06,107.42Z" transform="translate(21.76)"/><path class="cls-21" d="M431.27,106.86a2.24,2.24,0,0,0-2-.42c-.79.1-2.19.37-2.7,1.1-.27.38,0,.78.28.41.69-.93,2.87-.78,3.9-.29.19.09.4-.14.43-.37Z" transform="translate(21.76)"/><path class="cls-12" d="M438.38,94.62a6.46,6.46,0,0,1,7.1,3.64c.13.27.52,0,.4-.23a6.45,6.45,0,0,0-7.55-3.6.1.1,0,0,0,.05.19Z" transform="translate(21.76)"/><path class="cls-12" d="M447.24,95.67a6.46,6.46,0,0,1,7.1,3.64c.13.27.52,0,.4-.23a6.45,6.45,0,0,0-7.55-3.6.1.1,0,0,0,.05.19Z" transform="translate(21.76)"/><path class="cls-18" d="M445.74,95l.48.34.14-.09s-1.79-3.64-3.11-6.17h-.88C443.42,91,445.74,95,445.74,95Z" transform="translate(21.76)"/><path class="cls-12" d="M428.65,97.45a2.59,2.59,0,0,0-1,.51c-.22.17.06.53.26.34a3.23,3.23,0,0,1,.86-.56c.15-.07.1-.33-.07-.29Z" transform="translate(21.76)"/><path class="cls-7" d="M553.63,59.17c6.73-7.45,17.73-18.95,23-24.27,1.06-1.08,2.29-2.08,3-1.46s-.44,2.06-1.4,3.09c-6.54,7-17.63,18.57-22.94,23.9A24.9,24.9,0,0,1,552,62.86c-.23.17-.51.1-.33-.24A17.88,17.88,0,0,1,553.63,59.17Z" transform="translate(21.76)"/><path class="cls-12" d="M450.68,305.58c-1.35-4.94-1-5.17,1.27-10.64a5.87,5.87,0,0,0-1.94-6.66c-.89-.68-3.6-2.52-3.87-3.45-1.14-3.81,8.1-3.57,12.35-4.69,4.59-1.21,6.72-4.13,6.56-7.25-.47-9.16-15.13-9.38-21.39-11-3.08-.8-3.14-3.55-1.58-4.8,2.86-2.3,8.58.44,11.92,1.31,4.43,1.15,9.22.8,11.87-1.77,2.24-2.17-.27-5.58-3.4-3.41-3.45,2.39-6.9,1.32-10.29.61a23.61,23.61,0,0,0-9.88-.12c-2.66.56-6.42,2-6.45,5.69,0,3,2.82,5,5.12,5.78,2.71,1,6.14,1.07,8.89,1.46,3.13.44,8.2,1,10.57,3.43s2.11,6.66-1.69,7.77c-1.47.43-5.51,1.13-6.82,1.33-2.27.34-4.76.57-6.82,1.68-2.47,1.33-3.05,2.82-1.25,5s4.6,2.77,5.82,5.43c1.45,3.14-.35,4.68-1.36,7.34s-.17,4.36,1.72,7.59C450.53,307.05,450.94,306.54,450.68,305.58Z" transform="translate(21.76)"/><path d="M342.83,313.05c-.56.66-1.15,1.38-1.8,2.16-7.79,9.52-7,14.25-8.76,37.1,11-1.25,22-1.83,28.49-6.52,4.47-3.2,12.56-8.33,16.35-18.42,1.12-3,7-6.51,11.08-8.77Z" transform="translate(21.76)"/><path class="cls-19" d="M358.52,171.6A35.77,35.77,0,0,0,371,167.26c.23-4.4,1-9.24,1.45-14.32-4.87-2.45-12.35,5.83-15.89,9.17-.7-.33-.58,4.6-.45,9.76Z" transform="translate(21.76)"/><path class="cls-4" d="M386.73,113.35c0,19.46-15.78,53.5-35.24,53.5s-31.28-27-31.28-53.43c0-19.46,11.82-35.3,31.28-35.3A35.24,35.24,0,0,1,386.73,113.35Z" transform="translate(21.76)"/><ellipse class="cls-21" cx="375.19" cy="119.56" rx="2.16" ry="2.72"/><ellipse class="cls-21" cx="351.41" cy="119.56" rx="2.16" ry="2.72"/><path class="cls-7" d="M414.28,84.52a21.5,21.5,0,0,0-33.6-17.77c-5.36-3.78-12.7-6.06-22.47-6.06-12.49,0-21.15,2.44-32.1,8.85-13,7.63-23.77,24.28-18.61,28.65l.25.2A35.66,35.66,0,0,0,305.86,119a0,0,0,0,0,0,0,34.66,34.66,0,0,1,4.05-19c3.88,2.33,7.79,2.59,11.55,2.43,1.65-5,2.71-8,5-11.31,3.57-5.06,5.93-5.42,14.82-5.2,2.15-1.54,6.49-6.08,8.86-6.44a49.75,49.75,0,0,0-2.34,6.9c14.13,1.56,21.08,4.1,25.71,7.79.09.18.17.37.26.54.18,4.62-1.65,16.14-3.94,26.09,3.75.71,6.38-4.17,6.85-9,2.93,1.47,10,5.34,9.7,10.3-.22,3.93-2.37,4.92-8.33,8.46a23.36,23.36,0,0,0,6-.78c-.19.69-.42,1.45-.68,2.23a13.4,13.4,0,0,1-5.4,2.71s1.53,1.18,4.46,0a76.1,76.1,0,0,1-5,10.86,14.72,14.72,0,0,0,2.55,4.63c.44.56.77.26.52-.41a12.27,12.27,0,0,1-.68-5.29.59.59,0,0,1,.5-.5,25.67,25.67,0,0,0,4.41,4.65c.75.55,1,.28.43-.48a12.33,12.33,0,0,1-2.38-5.92c5,.56,16.15,1,22.78-7.3a25,25,0,0,1-8.12-14.75s2.28,8.57,9.13,6.82c-6.16-5.18-8.54-12.83-10.22-21.29A21.49,21.49,0,0,0,414.28,84.52Z" transform="translate(21.76)"/><circle class="cls-4" cx="406.46" cy="116.29" r="9.68"/><path class="cls-21" d="M382.38,115.41c.67-.22,1.31-.53,2-.09a1.58,1.58,0,0,1,.55,1.76.86.86,0,0,0,1.65.46,3,3,0,0,0-1.3-3.57,2.78,2.78,0,0,0-3.57.53.62.62,0,0,0,.7.91Z" transform="translate(21.76)"/><path class="cls-5" d="M336.15,135.32a.2.2,0,0,0,0-.4.2.2,0,0,0,0,.4Z" transform="translate(21.76)"/><path class="cls-17" d="M306,106c2.21-10.35,7.73-19.93,16.6-26,1-.67-.17-2.24-1.12-1.5-8.54,6.71-14.83,16.43-16,27.39a.25.25,0,0,0,.49.08Z" transform="translate(21.76)"/><path class="cls-5" d="M339.66,136.39c-.9.44-2.42,1.93-2.45.17-.08-5.13,1.39-7.8,2.2-12.52s1.82-7.37,1.93-11.84c-.17-4.12-.82-5.72-4.2-7.53-.68-.36-3.09.62-1.32,1.15,2.67.8,4,2.51,3.91,6s-3.24,15.91-5.25,25a2,2,0,0,0,.67,1.91c.47.38,3.08-.9,4.58-.13,2.51,1.29,3.58-.34,3.51-1.22S342.13,135.18,339.66,136.39Z" transform="translate(21.76)"/><path class="cls-12" d="M333,145.24c10.32,2.6,18.5,2.77,29.84-1-3.66,6.81-9.53,14.11-15.48,14.11C342.89,158.33,336.34,151.44,333,145.24Z" transform="translate(21.76)"/><path class="cls-5" d="M332.69,145.1c3.72,2,9.69,2.65,14.68,2.65a47.62,47.62,0,0,0,15.11-2.44.61.61,0,1,0-.35-1.16,49.93,49.93,0,0,1-14.85,2.42A51,51,0,0,1,333,144.71c-.27-.08-.59.2-.33.39Z" transform="translate(21.76)"/><path class="cls-21" d="M355.33,105c2.14.54,5.11,1.73,6.84,3.64,1.09,1.2,2.19,0,1.37-1.46-2.28-4-9.63-6.11-15-4.47-.81.25-1.43,2.34-.7,3.16C350.43,105.12,353,104.46,355.33,105Z" transform="translate(21.76)"/><path class="cls-21" d="M337.41,103.33c-1.64-1.65-4-1.57-6.13-1.29-2.46.32-6.76,1.16-8.36,3.4-.84,1.17,0,2.41.86,1.28,2.14-2.88,8.88-2.4,12-.89.58.28,1.23-.43,1.32-1.15Z" transform="translate(21.76)"/><path class="cls-17" d="M359.39,65.49c9.29-1.35,17.91,2.54,21.94,11.25.39.84,1.61.11,1.24-.72-3.89-8.62-14.06-14-23.34-11.13a.31.31,0,0,0,.17.6Z" transform="translate(21.76)"/><path class="cls-17" d="M386.8,68.71c9.29-1.35,17.91,2.54,21.94,11.25.39.84,1.61.11,1.24-.72-3.89-8.62-14.06-14-23.34-11.13a.31.31,0,0,0,.17.6Z" transform="translate(21.76)"/><path class="cls-18" d="M367.42,43.21a2.38,2.38,0,0,1,1.25-2.87,2.61,2.61,0,0,1,3.44.69c.92,1.61-.6,1.81.4,3.66,4,7.3,11.57,22.77,11.57,22.77l-.45.28-1.49-1.06s-11.21-19.58-11.89-21S367.92,44.5,367.42,43.21Z" transform="translate(21.76)"/><polygon class="cls-12" points="392.32 46.23 393.39 48.1 395.5 47.07 394.48 45.05 392.32 46.23"/><path class="cls-12" d="M369.19,41.71a1.57,1.57,0,0,1,1.25.26.6.6,0,0,0,.81-.21.61.61,0,0,0-.21-.81,2.17,2.17,0,0,0-2.26-.2.53.53,0,0,0-.22.66.54.54,0,0,0,.62.3Z" transform="translate(21.76)"/><path class="cls-17" d="M329.31,74.23a8,8,0,0,0-3.23,1.57c-.68.53.17,1.63.79,1.06a10,10,0,0,1,2.66-1.73c.45-.2.31-1-.23-.9Z" transform="translate(21.76)"/><path class="cls-6" d="M291.42,353l21-23a8,8,0,0,1,6.89-2.54l62.4,7.88a4,4,0,0,1,2.81,6.21L368,366a8,8,0,0,1-7.77,3.43l-66.43-9.8A4,4,0,0,1,291.42,353Z" transform="translate(21.76)"/><path class="cls-18" d="M291.42,350.63l21-23a8,8,0,0,1,6.89-2.54l62.4,7.88a4,4,0,0,1,2.81,6.21L368,363.66a8,8,0,0,1-7.77,3.43l-66.43-9.8A4,4,0,0,1,291.42,350.63Z" transform="translate(21.76)"/><path class="cls-9" d="M300.12,349.12l16.58-18.35a4.11,4.11,0,0,1,3.56-1.32l55.82,7a1.9,1.9,0,0,1,1.33,3l-13.48,19.65a4.11,4.11,0,0,1-4,1.74l-58.69-8.57A1.9,1.9,0,0,1,300.12,349.12Z" transform="translate(21.76)"/><path class="cls-4" d="M344.27,332.77c-1.88,2.07-9.92,12.68-7.32,14.17s4.26-.46,6.53-2.72c.65,1.24,2.72,1.27,4.71-.36a17.62,17.62,0,0,0,7.62-1.63c1.63-.73,3.07-3.6,6.87-6.63,1.34-3.47,1.2-5.6,4.83-8.79s12.87-10.29,15.46-12.88c4.29-4.29,8.6-8.32,10.33-13.77,1.09-3.43-.73-8.33-8.22-10.78-6.8-2.22-9.36-.48-11.46,2.14s-4.39,8.68-8.56,15.18c-3.21,5-5.35,8.24-8.56,10.1-4.83,2.78-6,.79-8.93,2.18-3.28,1.57-4.67,1.2-6.3,3.11-1.83,2.13-5.19,3-6,5.81-.44,1.44,2.25,6.05,3.32,5.87,4.5-.76,6.23-5.7,9.14-6.61.83-.66,3.13-2.53,3.3-.87C351.26,329.05,346.15,330.7,344.27,332.77Z" transform="translate(21.76)"/><path class="cls-19" d="M362.68,335.58a5.71,5.71,0,0,1-3.68-.64,7.85,7.85,0,0,0-4.24-.84c-1.56,0-4.3-1.4-4.53-1.22-2.2,1.77-2.1,1.74-3.65,4.33-.63,1-2.17,1.9-3.23,2.78a22.78,22.78,0,0,0-3.34,2.82c-.74,1-1.48,2-2.22,3.06a2.5,2.5,0,0,0-.61,1.18c2.41,1.2,4.09-.65,6.29-2.84.65,1.24,2.72,1.27,4.71-.36a17.62,17.62,0,0,0,7.62-1.63C357.44,341.49,358.88,338.62,362.68,335.58Z" transform="translate(21.76)"/><path class="cls-8" d="M332.83,347.24c4.78-13.41,13-34.45,16.93-44.27.81-2,1.87-4,3.16-3.54,1.44.47.54,2.95-.16,4.81-4.75,12.76-13,33.9-17.1,43.77-.78,1.9-1.53,2.58-3,4.94-.21.35-.62.42-.56-.13C332.39,350.52,332.18,349.49,332.83,347.24Z" transform="translate(21.76)"/><path class="cls-4" d="M340.53,333.62c-1.7,2.74-4.36,5.59-7.52,10.61-1,1.59-1.07,3.7.08,4.43s2.67.25,4.25-1.89c2.22-3,3.75-4.12,4.94-6.28,2.47-4.47,3.74-4.27,5.77-7.71,1.93-3.28,5.45-5.9,5-8.5-.61-3.34-3.05-.47-6.15,2.1A27.23,27.23,0,0,0,340.53,333.62Z" transform="translate(21.76)"/><path class="cls-4" d="M333.12,340.12c-.26,2.31,3.74,2.25,4.71-1.61.61-2.41.07-3.68-.13-5.68a19.51,19.51,0,0,0-1.17-5.3c-.58-1.35-1.49-.26-1.57,2.4S333.34,338.15,333.12,340.12Z" transform="translate(21.76)"/><path class="cls-12" d="M293.71,243.55a2,2,0,0,1-.77-.15,2,2,0,0,1-.66-.45,1.91,1.91,0,0,1-.45-.65,2.08,2.08,0,0,1-.15-.78,1.81,1.81,0,0,1,0-.4,2.84,2.84,0,0,1,.11-.39,2.28,2.28,0,0,1,.19-.35,1.4,1.4,0,0,1,.25-.31,1.46,1.46,0,0,1,.31-.25,2.42,2.42,0,0,1,.36-.19,1.6,1.6,0,0,1,.38-.11,2,2,0,0,1,1.84.56,1.4,1.4,0,0,1,.25.31,1.66,1.66,0,0,1,.19.35,1.9,1.9,0,0,1,.11.39,1.81,1.81,0,0,1,0,.4,2.08,2.08,0,0,1-.15.78,1.93,1.93,0,0,1-.45.65A2,2,0,0,1,293.71,243.55Z" transform="translate(21.76)"/><path class="cls-12" d="M513.8,241.51a2,2,0,0,1,2-2h0a2,2,0,0,1,2,2h0a2,2,0,0,1-2,2h0A2,2,0,0,1,513.8,241.51Zm-10.1,0a2,2,0,0,1,2-2h0a2,2,0,0,1,2,2h0a2,2,0,0,1-2,2h0A2,2,0,0,1,503.71,241.51Zm-10.1,0a2,2,0,0,1,2-2h0a2,2,0,0,1,2,2h0a2,2,0,0,1-2,2h0A2,2,0,0,1,493.61,241.51Zm-10.1,0a2,2,0,0,1,2-2h0a2,2,0,0,1,2,2h0a2,2,0,0,1-2,2h0A2,2,0,0,1,483.51,241.51Zm-10.09,0a2,2,0,0,1,2-2h0a2,2,0,0,1,2,2h0a2,2,0,0,1-2,2h0A2,2,0,0,1,473.42,241.51Zm-10.1,0a2,2,0,0,1,2-2h0a2,2,0,0,1,2,2h0a2,2,0,0,1-2,2h0A2,2,0,0,1,463.32,241.51Zm-10.1,0a2,2,0,0,1,2-2h0a2,2,0,0,1,2,2h0a2,2,0,0,1-2,2h0A2,2,0,0,1,453.23,241.51Zm-10.1,0a2,2,0,0,1,2-2h0a2,2,0,0,1,2,2h0a2,2,0,0,1-2,2h0A2,2,0,0,1,443.13,241.51Zm-10.1,0a2,2,0,0,1,2-2h0a2,2,0,0,1,2,2h0a2,2,0,0,1-2,2h0A2,2,0,0,1,433,241.51Zm-10.1,0a2,2,0,0,1,2-2h0a2,2,0,0,1,2,2h0a2,2,0,0,1-2,2h0A2,2,0,0,1,422.93,241.51Zm-10.1,0a2,2,0,0,1,2-2h0a2,2,0,0,1,2,2h0a2,2,0,0,1-2,2h0A2,2,0,0,1,412.83,241.51Zm-10.1,0a2,2,0,0,1,2-2h0a2,2,0,0,1,2,2h0a2,2,0,0,1-2,2h0A2,2,0,0,1,402.74,241.51Zm-10.1,0a2,2,0,0,1,2-2h0a2,2,0,0,1,2,2h0a2,2,0,0,1-2,2h0A2,2,0,0,1,392.64,241.51Zm-10.1,0a2,2,0,0,1,2-2h0a2,2,0,0,1,2,2h0a2,2,0,0,1-2,2h0A2,2,0,0,1,382.54,241.51Zm-10.1,0a2,2,0,0,1,2-2h0a2,2,0,0,1,2,2h0a2,2,0,0,1-2,2h0A2,2,0,0,1,372.44,241.51Zm-10.09,0a2,2,0,0,1,2-2h0a2,2,0,0,1,2,2h0a2,2,0,0,1-2,2h0A2,2,0,0,1,362.35,241.51Zm-10.1,0a2,2,0,0,1,2-2h0a2,2,0,0,1,2,2h0a2,2,0,0,1-2,2h0A2,2,0,0,1,352.26,241.51Zm-10.1,0a2,2,0,0,1,2-2h0a2,2,0,0,1,2,2h0a2,2,0,0,1-2,2h0A2,2,0,0,1,342.16,241.51Zm-10.1,0a2,2,0,0,1,2-2h0a2,2,0,0,1,2,2h0a2,2,0,0,1-2,2h0A2,2,0,0,1,332.06,241.51Zm-10.1,0a2,2,0,0,1,2-2h0a2,2,0,0,1,2,2h0a2,2,0,0,1-2,2h0A2,2,0,0,1,322,241.51Zm-10.1,0a2,2,0,0,1,2-2h0a2,2,0,0,1,2,2h0a2,2,0,0,1-2,2h0A2,2,0,0,1,311.86,241.51Zm-10.1,0a2,2,0,0,1,2-2h0a2,2,0,0,1,2,2h0a2,2,0,0,1-2,2h0A2,2,0,0,1,301.77,241.51Z" transform="translate(21.76)"/><path class="cls-12" d="M525.94,243.55a2.06,2.06,0,0,1-.79-.15,2.17,2.17,0,0,1-1.1-1.1,2.08,2.08,0,0,1-.15-.78,1.75,1.75,0,0,1,0-.4,1.83,1.83,0,0,1,.11-.39,1.71,1.71,0,0,1,.19-.35,1.46,1.46,0,0,1,.25-.31,1.49,1.49,0,0,1,.31-.25,2.37,2.37,0,0,1,.35-.19,1.83,1.83,0,0,1,.39-.11,2,2,0,0,1,1.84.56,1.46,1.46,0,0,1,.25.31,1.66,1.66,0,0,1,.19.35,1.9,1.9,0,0,1,.11.39,1.75,1.75,0,0,1,0,.4,2.06,2.06,0,0,1-.15.78,1.92,1.92,0,0,1-.45.65,2,2,0,0,1-.31.26,2.27,2.27,0,0,1-.36.18,1.51,1.51,0,0,1-.38.11A1.74,1.74,0,0,1,525.94,243.55Z" transform="translate(21.76)"/><path class="cls-12" d="M523.9,231.25a2,2,0,0,1,2-2h0a2,2,0,0,1,2,2h0a2,2,0,0,1-2,2h0A2,2,0,0,1,523.9,231.25Zm0-10.25a2,2,0,0,1,2-2h0a2,2,0,0,1,2,2h0a2,2,0,0,1-2,2h0A2,2,0,0,1,523.9,221Zm0-10.26a2,2,0,0,1,2-2h0a2,2,0,0,1,2,2h0a2,2,0,0,1-2,2h0A2,2,0,0,1,523.9,210.74Zm0-10.25a2,2,0,0,1,2-2h0a2,2,0,0,1,2,2h0a2,2,0,0,1-2,2h0A2,2,0,0,1,523.9,200.49Zm0-10.26a2,2,0,0,1,2-2h0a2,2,0,0,1,2,2h0a2,2,0,0,1-2,2h0A2,2,0,0,1,523.9,190.22Zm0-10.25a2,2,0,0,1,2-2h0a2,2,0,0,1,2,2h0a2,2,0,0,1-2,2h0A2,2,0,0,1,523.9,180Zm0-10.26a2,2,0,0,1,2-2h0a2,2,0,0,1,2,2h0a2,2,0,0,1-2,2h0A2,2,0,0,1,523.9,169.71Z" transform="translate(21.76)"/><path class="cls-12" d="M525.94,161.5a2.59,2.59,0,0,1-.4,0,2.31,2.31,0,0,1-.39-.12,1.61,1.61,0,0,1-.35-.18,1.89,1.89,0,0,1-.31-.25,1.49,1.49,0,0,1-.25-.31,1.79,1.79,0,0,1-.19-.36,1.58,1.58,0,0,1-.11-.38,1.75,1.75,0,0,1,0-.4,2,2,0,0,1,.6-1.45,2.11,2.11,0,0,1,2.88,0,2.07,2.07,0,0,1,.6,1.45,2.72,2.72,0,0,1,0,.4,1.63,1.63,0,0,1-.11.38,1.73,1.73,0,0,1-.19.36,1.49,1.49,0,0,1-.25.31A2,2,0,0,1,525.94,161.5Z" transform="translate(21.76)"/><path class="cls-17" d="M141.1,174.06l143.57,4.1a7.14,7.14,0,0,1,6.94,6.93l4,135.86c.13,4.38-6,7.38-6,7.38l-144.8-17.82a7.14,7.14,0,0,1-6.26-6.81l-6.11-125.88S137,173.94,141.1,174.06Z" transform="translate(21.76)"/><path class="cls-1" d="M138.14,175.29l143.53,5.11a7.14,7.14,0,0,1,6.89,7l3,135.88a7.14,7.14,0,0,1-8.07,7.24L140.87,311.77a7.14,7.14,0,0,1-6.21-6.85l-3.91-122.25A7.14,7.14,0,0,1,138.14,175.29Z" transform="translate(21.76)"/><path class="cls-17" d="M200.49,287.5c0-20.21,14.28-28.1,22.44-33.36v-3.63l-28.14-1.78c-13.92,8.56-21.84,22.45-21.84,37.2v46.7c0,6.53-1.13,15.51,7.76,19.08,2.84.44,19.14,3.29,26.56,3.29s16.68-8.23,20.76-12.94v-3.51c-4.08,3.93-13.55,12.68-18.3,12.68-5.46,0-9.24-5-9.24-15.45Z" transform="translate(21.76)"/><path class="cls-1" d="M200.49,335.79c0,10.44,3.38,15.45,8.84,15.45,4.75,0,15.19-8.75,18.7-12.68l-27.54-3.47Z" transform="translate(21.76)"/><rect class="cls-7" x="252.4" y="84.52" width="3.24" height="24.94"/><polygon class="cls-6" points="95.11 322.65 102.49 317.34 102.49 309.45 79.79 306.77 70.79 310.38 70.79 326.47 81.75 320.56 95.11 322.65"/><path class="cls-1" d="M61,310.69a2.55,2.55,0,0,1-2.55-2.55v-9.48L15,217.71a2.55,2.55,0,0,1,.53-3.09l73.94-67.41A2.55,2.55,0,1,1,92.88,151L20.4,217.05l42.81,79.76a2.56,2.56,0,0,1,.3,1.21v10.13A2.55,2.55,0,0,1,61,310.69Z" transform="translate(21.76)"/><path class="cls-1" d="M104.43,49.92h0a1,1,0,0,1,.67.18c.34.34.26,1.6-.72,3.56a28.78,28.78,0,0,1-5.3,7c-4.07,4.07-8,6.2-9.86,6.2a1,1,0,0,1-.67-.18c-.34-.34-.26-1.6.72-3.56a28.78,28.78,0,0,1,5.3-7c4.26-4.26,8.1-6.2,9.86-6.2m0-1c-2.37,0-6.6,2.52-10.59,6.5-5,5-7.67,10.33-6,12a1.89,1.89,0,0,0,1.39.48c2.37,0,6.6-2.52,10.59-6.5,5-5,7.67-10.33,6-12a1.89,1.89,0,0,0-1.39-.48Z" transform="translate(21.76)"/><path class="cls-1" d="M89.21,49.92h0c1.76,0,5.6,1.94,9.86,6.2a28.78,28.78,0,0,1,5.3,7c1,2,1.06,3.22.72,3.56a1,1,0,0,1-.67.18c-1.76,0-5.6-1.94-9.86-6.2a28.77,28.77,0,0,1-5.3-7c-1-2-1.06-3.22-.72-3.56a1,1,0,0,1,.67-.18m0-1a1.89,1.89,0,0,0-1.39.48c-1.64,1.64,1.05,7,6,12,4,4,8.21,6.5,10.59,6.5a1.89,1.89,0,0,0,1.39-.48c1.64-1.64-1.05-7-6-12-4-4-8.21-6.5-10.59-6.5Z" transform="translate(21.76)"/><circle class="cls-1" cx="118.58" cy="58.38" r="1.14"/><path class="cls-17" d="M93.51,150.07l-3.1-3.41a2.54,2.54,0,0,0-1,.54l-9.78,8.91,3.51,3.71L92.88,151A2.53,2.53,0,0,0,93.51,150.07Z" transform="translate(21.76)"/><path class="cls-17" d="M80.42,140.39a2,2,0,0,1-1.44-.6l-1.57-1.57a2,2,0,1,1,2.88-2.88l1.57,1.57a2,2,0,0,1-1.44,3.48Z" transform="translate(21.76)"/><path class="cls-1" d="M132.59,156.63,99,190.24c-9.91-9.91-10.41-25.46-1.13-34.74S122.68,146.72,132.59,156.63Z" transform="translate(21.76)"/><rect class="cls-1" x="84.8" y="132.92" width="14.25" height="33.88" rx="7.12" ry="7.12" transform="translate(-57.28 108.89) rotate(-45)"/><path class="cls-17" d="M99,190.24l2.77-2.77c1.25-4.16,2.7-5.73,4.43-8.94-7.85-7.85-9.28-16.31-8-22.43L77.41,135.34h0a2,2,0,0,0,0,2.88l1.31,1.31A7.12,7.12,0,0,0,79.94,148l13.6,13.6C89.13,170.63,91,182.26,99,190.24Z" transform="translate(21.76)"/><path class="cls-17" d="M100.79,189.73a1,1,0,0,1-.69-.17c-1.15-1.15,2.22-9,12.51-19.3,8.32-8.33,15.66-12.68,18.61-12.68a1,1,0,0,1,.69.17c.3.3.51,2-2.08,6.41a69.72,69.72,0,0,1-10.43,12.89C111.08,185.38,103.74,189.73,100.79,189.73Z" transform="translate(21.76)"/><path class="cls-1" d="M130.77,158.88a17.73,17.73,0,0,1-2.73,5.76,72.76,72.76,0,0,1-9.54,11.51c-8,8-14.64,11.84-17.27,12.27a17.73,17.73,0,0,1,2.73-5.76,72.74,72.74,0,0,1,9.54-11.51c8-8,14.64-11.84,17.27-12.27m.45-2.58c-3.71,0-11.67,5.21-19.51,13.05-9.28,9.28-14.88,18.73-12.51,21.1a2.16,2.16,0,0,0,1.59.54c3.71,0,11.67-5.21,19.51-13.05,9.28-9.28,14.88-18.73,12.51-21.1a2.16,2.16,0,0,0-1.59-.54Z" transform="translate(21.76)"/><polygon class="cls-22" points="70.79 326.47 70.79 310.38 95.12 314.12 95.11 322.65 81.75 320.56 70.79 326.47"/><path class="cls-7" d="M69.34,167.7a4.7,4.7,0,0,0-2.63,3.21,2.41,2.41,0,0,0,1.64,2.88,2.39,2.39,0,0,0,2.88-1.64,17.6,17.6,0,0,1,1.62-1.87c1.27-.78,1.51-1.74.43-2.5A4.31,4.31,0,0,0,69.34,167.7Z" transform="translate(21.76)"/><path class="cls-7" d="M24.64,220.56c-3.31,0-5.43,0-9,.19-1.45.06,1,2.34,2,2.28,1.42-.05,4.08-.15,6.64-.07C25.59,223,25,220.56,24.64,220.56Z" transform="translate(21.76)"/><path class="cls-1" d="M409.34,508.3c3.11-.43,6.08,2.37,6.62,6.26s-1.54,7.4-4.65,7.84-6.08-2.37-6.62-6.26,1.54-7.4,4.65-7.84m-.42-3c-4.77.67-8,5.71-7.23,11.26s5.27,9.51,10,8.84,8-5.71,7.23-11.26-5.27-9.51-10-8.84Z" transform="translate(21.76)"/><ellipse class="cls-2" cx="408.38" cy="516.21" rx="7.37" ry="8.58" transform="translate(-45.83 61.57) rotate(-7.97)"/><path class="cls-1" d="M407.4,509.16c3.11-.43,6.08,2.37,6.62,6.26s-1.54,7.4-4.65,7.84-6.08-2.37-6.62-6.26,1.54-7.4,4.65-7.84m-.42-3c-4.77.67-8,5.71-7.23,11.26s5.27,9.51,10,8.84,8-5.71,7.23-11.26-5.27-9.51-10-8.84Z" transform="translate(21.76)"/><path class="cls-9" d="M287.49,565.4c-.79-4.32-1.77-8.13-2.12-10s-.77-3.78-2-3.6c.42,5.53-4.49,10.93-8.88,14.57a77.55,77.55,0,0,1-7,5c-.22-.25-.45-.49-.7-.72-4.3-4-12.38-6.09-17.56-5.35a2.78,2.78,0,0,0-1.76,1,160.89,160.89,0,0,0-16.09,24.07c-1.82,3.41-1.14,7.72,1.14,8.64,3.64,1.48,11.34,1.8,18-.8,5.23-2,16.27-8.7,22.17-13.86,3.63-3.14,8.43-8.88,12.36-12.61C287.07,569.86,287.92,567.73,287.49,565.4Z" transform="translate(21.76)"/><path class="cls-4" d="M287.52,564.54c0,2-2.27,5-6.53,9.23-2,2-4.42,4.92-9.35,9.48-7.59,7-20.7,13.51-29.18,14.43a14.44,14.44,0,0,0-.8-2.95c-1-2.4-4.78-4.38-7.92-4.7a3.81,3.81,0,0,0-4.11,3.14,6.78,6.78,0,0,0,2.77,6.85c2.3,1.64,5.06,2.35,10.41,1.53,7.72-.71,21.25-7.82,29.41-15.37,5-4.65,7.39-7.66,9.38-9.7,3.64-3.73,7-7.3,7-8.52C288.58,567,289.06,565.22,287.52,564.54Z" transform="translate(21.76)"/><path class="cls-9" d="M371,516.2c.09-5.29.91-16.85.73-23.15-.13-4.68-.9-7.89-3.86-9.54-4.84-2.71-6.91-3.69-10.35-2.81,2.72,1.4,3.15,4.17,3.24,6a195.37,195.37,0,0,1-.54,26.8,30.39,30.39,0,0,0-8.79.24,22.57,22.57,0,0,0-9.91,4.19,2.12,2.12,0,0,0-.69,2.12c1.33,6.75,2.75,13.59,4.73,18.82,2.22,5.87,5.63,13.21,9.86,15.64,3.35,1.93,8.67,1.36,11-2C371.66,544.93,374.18,534.28,371,516.2Z" transform="translate(21.76)"/><path class="cls-4" d="M373.75,531.8a69.15,69.15,0,0,0-.78-7.87A72.72,72.72,0,0,1,372,511c.16-3.94.53-7.05.87-9.79.35-2.9.68-6.3.75-8.51.13-4-.28-6-1.73-7.54-.9-1-2.82-1.48-3-.94,1.64,1.35,2.9,3.32,2.79,8.8a76,76,0,0,1-.85,7.94c-.34,2.78-.72,5.93-.88,10a74.3,74.3,0,0,0,.95,13.26,67.93,67.93,0,0,1,.76,7.63c.09,5.11-1.79,12.86-4.28,17.87a17.31,17.31,0,0,0-7.3-1.18,12.72,12.72,0,0,0-5.56,1.69,2.61,2.61,0,0,0-.14,4.52,11.14,11.14,0,0,0,5.92,1.68,9.51,9.51,0,0,0,7.09-2.23,5.17,5.17,0,0,0,.89-1.09v0C371.22,547.94,373.86,537.56,373.75,531.8Z" transform="translate(21.76)"/><path class="cls-6" d="M259.07,534.13q0-.22,0-.45a3.36,3.36,0,0,1,3.58-3.47c6,.37,14.72.81,20,.57a3.35,3.35,0,0,1,3.43,4.07q-.07.29-.16.59a3.41,3.41,0,0,1-2.65,2.41,58.73,58.73,0,0,1-21.69-.81A3.35,3.35,0,0,1,259.07,534.13Z" transform="translate(21.76)"/><path class="cls-6" d="M325.47,479.56c-.14-.17-.28-.34-.42-.52a3.31,3.31,0,0,1,1.67-5.1c6.56-2.13,13.4-5.62,17.33-8.85a3.33,3.33,0,0,1,5.33,1.86l0,.07a3.31,3.31,0,0,1-.66,2.87c-3.7,4.48-13.06,9.53-20.26,10.72A3.26,3.26,0,0,1,325.47,479.56Z" transform="translate(21.76)"/><path class="cls-1" d="M477.92,370l-8.24-1.47c2.43-1.8,8.14-3.68,11-4.73Z" transform="translate(21.76)"/><path class="cls-1" d="M480.67,363.81l4.41-10.53c1.35,1.88,1.82,3.75,1,5.76A8.9,8.9,0,0,1,480.67,363.81Z" transform="translate(21.76)"/><path class="cls-3" d="M485,371.79H485l-20.82-3.72a.51.51,0,0,1-.41-.59.52.52,0,0,1,.59-.41l20.82,3.72a.51.51,0,0,1-.09,1Z" transform="translate(21.76)"/><path class="cls-3" d="M476.31,374.65a.52.52,0,0,1-.2,0,.51.51,0,0,1-.27-.67l9.87-23.46a.51.51,0,1,1,.94.4l-9.87,23.46A.51.51,0,0,1,476.31,374.65Z" transform="translate(21.76)"/><path class="cls-18" d="M466.7,373.19a.76.76,0,0,1-.71-1.06c1.46-3.47,4-5.37,9.61-7.25,6.56-2.19,8.65-3.51,9.75-6.13s-.46-5.53-4.18-8.26a.76.76,0,1,1,.9-1.23c4.34,3.18,6,6.86,4.69,10.09-1.44,3.42-4.33,4.86-10.68,7-5.21,1.74-7.4,3.35-8.68,6.39A.77.77,0,0,1,466.7,373.19Z" transform="translate(21.76)"/><polygon class="cls-1" points="447.22 366.75 458.94 344.03 486.46 347.56 476.43 371.1 447.22 366.75"/><path class="cls-12" d="M470.85,326c-1.52-1.8-4.1-2.27-6.21-2.4l1.31-6H433.67l7.47,34.51c0,1.89,3.88,3.43,8.67,3.43s8.67-1.53,8.67-3.43l2.65-12.23c3-.6,9.82-2.6,10.84-8.62A6.17,6.17,0,0,0,470.85,326Zm-1.9,4.72c-.59,3.49-4.47,5.1-7.11,5.81l2.14-9.89c1.61.06,3.66.31,4.53,1.34A3.27,3.27,0,0,1,469,330.76Z" transform="translate(21.76)"/><path class="cls-5" d="M156.52,556.46H121.95l16,54.92c0,3,8.31,5.45,18.57,5.45s18.57-2.44,18.57-5.45l16-54.92Z" transform="translate(21.76)"/><path class="cls-11" d="M156.47,572.73l.05,44.1h0c10.25,0,18.57-2.44,18.57-5.45L188,567.21Z" transform="translate(21.76)"/><path class="cls-5" d="M191.09,556.46H179.53a71.15,71.15,0,0,0-23-3.47,71.15,71.15,0,0,0-23,3.47H121.95v10.2h0c0,7.55,15.48,13.67,34.57,13.67s34.57-6.12,34.57-13.67h0Z" transform="translate(21.76)"/><path class="cls-22" d="M156.52,566.85c-19.1,0-31.3-6.15-31.3-10.39s12.19-10.39,31.3-10.39,31.3,6.15,31.3,10.39S175.63,566.85,156.52,566.85Z" transform="translate(21.76)"/><path class="cls-5" d="M156.52,549.35c16.83,0,26.37,4.85,27.9,7.11-1.54,2.26-11.07,7.11-27.9,7.11s-26.37-4.85-27.9-7.11c1.54-2.26,11.07-7.11,27.9-7.11m0-6.56c-19.09,0-34.57,6.12-34.57,13.67s15.48,13.67,34.57,13.67,34.57-6.12,34.57-13.67-15.48-13.67-34.57-13.67Z" transform="translate(21.76)"/><path class="cls-5" d="M156.52,549.35c16.83,0,26.37,4.85,27.9,7.11-1.54,2.26-11.07,7.11-27.9,7.11s-26.37-4.85-27.9-7.11c1.54-2.26,11.07-7.11,27.9-7.11m0-6.56c-19.09,0-34.57,6.12-34.57,13.67s15.48,13.67,34.57,13.67,34.57-6.12,34.57-13.67-15.48-13.67-34.57-13.67Z" transform="translate(21.76)"/><path class="cls-6" d="M156.7,555.56c2-6.69,1.42-14.59,2.08-21.54.73-7.72,1.49-15.44,2-23.17,1-14.91,1.28-30-2.18-44.63-6.4-27-22.65-51.65-21.82-80.2.07-2.47-3.72-2.45-3.82,0-1.19,27.69,14.26,51.92,21.28,77.87,4.09,15.11,4.27,30.51,2.85,46-.71,7.73-1.71,15.43-2.35,23.17-.59,7.09-2.14,15.58-.14,22.51a1.09,1.09,0,0,0,2.09,0Z" transform="translate(21.76)"/><path class="cls-6" d="M153,556c-3.24-8.8-3-17.75-3-27,0-9.39-.19-18.83.27-28.21.89-18.16,7.76-35.07,6.73-53.46a285.83,285.83,0,0,0-8.36-53c-.8-3.21-1.26-6.72-2.68-9.73-1.84-3.9-3-7.85-4.73-11.84-3.22-7.59-8.89-14.06-11.15-22.07-2.79-9.88,3.59-18.2,5-27.76a94,94,0,0,0,.82-14.08c0-3.87.25-7.59-1.49-11.12-1.27-2.59-5-.32-3.83,2.24,1.65,3.69.9,9.56.8,13.51a58.66,58.66,0,0,1-1.94,14.82c-2,6.81-5.4,12.47-4.28,19.83,1.21,8,6.08,14.6,9.85,21.53,2.21,4.07,3,8.2,4.63,12.41,1.24,3.25,3,5.82,3.8,9.32,4.14,18.17,7.8,36.34,8.9,55,1.08,18.36-5.61,35.3-6.53,53.44-.52,10.34,0,20.79.18,31.14.13,8.83,0,18.16,4.17,26.17.79,1.49,3.37.46,2.77-1.17Z" transform="translate(21.76)"/><path class="cls-6" d="M161.19,558.12c-.19-3.59-.93-6.27.92-9.56s4.43-6.19,5.07-10.1c1.08-6.67-3.28-12.52-6-18.22-4.29-9.09.63-18.31-2.47-27.43C156.5,486.22,150,481.93,148,475.3c-1.33-4.55,1-8.87,1.9-13.27a58.93,58.93,0,0,0,1-11.49c0-8.22-1.21-16.43-.68-24.66.64-10.07,5.44-23,1.43-16.65-3.56,5.68-4.75,12.36-5,19-.27,8,.79,16,.56,23.94a48,48,0,0,1-1.69,11.92c-.94,3.28-2.16,6.34-1.79,9.81.66,6.28,5.65,10.73,8.89,15.77,5.2,8.1,1.17,16.3,2.56,25.06,1.27,8,10.13,15.81,8,24.12-1,4-4.48,6.8-5.74,10.67-.93,2.85-.06,5.73.18,8.64.19,2.28,3.73,2.34,3.6,0Z" transform="translate(21.76)"/><path class="cls-1" d="M399.08,577.78c2.9.33,4.93,4.35,4.42,8.78s-3.39,7.88-6.29,7.55-4.93-4.35-4.42-8.78,3.39-7.88,6.29-7.55m.36-3.17c-4.71-.54-9.1,4.1-9.82,10.36s2.52,11.77,7.23,12.3,9.1-4.1,9.82-10.36-2.52-11.77-7.23-12.3Z" transform="translate(21.76)"/><path class="cls-8" d="M144.24,418.16a4.28,4.28,0,0,0,.28,1C144.44,418.85,144.35,418.51,144.24,418.16Z" transform="translate(21.76)"/><path class="cls-8" d="M145.11,422.87h0a3.88,3.88,0,0,0,.69-.59l-.72-.06C145.11,422.43,145.11,422.65,145.11,422.87Z" transform="translate(21.76)"/><path class="cls-8" d="M112.28,288.33c0,.16.07.33.12.49S112.48,288.67,112.28,288.33Z" transform="translate(21.76)"/><ellipse class="cls-9" cx="263.54" cy="313.14" rx="3.04" ry="3.06"/><path class="cls-9" d="M285.81,369.55a12.06,12.06,0,0,1-1.81-.14l-53.7-8.15a4.86,4.86,0,0,1-2.77-8.17l5.81-6a5.31,5.31,0,0,0,1.47-3.81l-.59-20.83a8.31,8.31,0,0,1,2.61-6.29l3.95-3.71a1,1,0,0,1,1.37,1.46l-3.95,3.71a6.31,6.31,0,0,0-2,4.77l.59,20.83a7.32,7.32,0,0,1-2,5.25l-5.81,6a2.86,2.86,0,0,0,1.63,4.81l53.7,8.15a10.35,10.35,0,0,0,9.39-3.52l4.33-5.1a1,1,0,0,1,1.53,1.29l-4.33,5.1A12.38,12.38,0,0,1,285.81,369.55Z" transform="translate(21.76)"/><path class="cls-6" d="M449.81,322.46c-8.92,0-14.61-2.87-14.61-4.85s5.69-4.85,14.61-4.85,14.61,2.87,14.61,4.85S458.73,322.46,449.81,322.46Z" transform="translate(21.76)"/><path class="cls-12" d="M449.81,314.28c7.86,0,12.31,2.27,13,3.32-.72,1.05-5.17,3.32-13,3.32s-12.31-2.27-13-3.32c.72-1.05,5.17-3.32,13-3.32m0-3.06c-8.91,0-16.14,2.86-16.14,6.38S440.9,324,449.81,324,466,321.13,466,317.61s-7.23-6.38-16.14-6.38Z" transform="translate(21.76)"/><path class="cls-8" d="M168.16,502.19a7.76,7.76,0,0,0,6,4.39,16,16,0,0,0,7.19-1.43,16.62,16.62,0,0,0-3.16-2.31A13.57,13.57,0,0,0,168.16,502.19Z" transform="translate(21.76)"/><path class="cls-8" d="M200.52,464.16a8.1,8.1,0,0,0,2.91,7.35c2.55,2.25,7.88,3.45,9.75,3.72C211.87,469.38,204.45,464.46,200.52,464.16Z" transform="translate(21.76)"/><path class="cls-8" d="M210,461.28c-.32,4.46,7.59.92,9.05-.61,1-1.07,1.42-3.28,2.88-3C219.4,457.19,210.27,457.79,210,461.28Z" transform="translate(21.76)"/><path class="cls-8" d="M171.8,339.91c3.65-1.16,6.24-6,7.3-9.47a18.54,18.54,0,0,0,.76-6.7c0-.61-1.58-5.78-1.51-5.86C174.41,322.62,168.42,333.71,171.8,339.91Z" transform="translate(21.76)"/><path class="cls-8" d="M111.23,341.11c2.16-3.37,1.92-8.39,1.92-8.39a19.56,19.56,0,0,0-9.09,6,22.68,22.68,0,0,0-3.41,9.07C105.08,346.41,109.29,344.15,111.23,341.11Z" transform="translate(21.76)"/><path class="cls-8" d="M97.39,338.9a5.64,5.64,0,0,0-1.12-3.77,18.23,18.23,0,0,0-6.62,8.14c-1.24,3.24-2.35,8.48-2.45,8.51C93.19,349.93,97.21,345.16,97.39,338.9Z" transform="translate(21.76)"/><path class="cls-8" d="M223.95,402.59c2.63-.67,6.17-2.92,7.07-4.55-4.52-1.5-6.38-1.89-12.2-1.55a36.63,36.63,0,0,0-4.6.72,9.08,9.08,0,0,1-4.75-.37c-1-.34-2-.73-3.06-1.12a18.72,18.72,0,0,0,4-.74c1.91-.58,6.84-3.25,8.05-5.16-5.17-1.38-13.06-1.93-15.87.11-1.93,1.39-2.78,2.56-2.76,3.48-3.74-1.22-7.73-2.53-11.84-3.84a33.6,33.6,0,0,0,7.94-2.68c2.22-1.11,4.84-3.73,6.75-6.11-4.81-1.23-8.86-1.45-12.69-.07a21.1,21.1,0,0,0-9.68,6.49c-2.29-.68-4.6-1.35-6.9-2,4.19-4,5.87-6.49,7.46-10.37-4.17.09-8.33,2.17-14.4,6.61.22-2.78,3.11-11.23,2-14.15-5.86.6-8.87,5.06-14.25,13.45-.58.91-1.22.08-1.93-1.41,2.37-2.45,2.89-4.92,3.44-8.2a44.2,44.2,0,0,0-6.52,1.48,7.41,7.41,0,0,0-.57-.81,7.72,7.72,0,0,0,2.59-1.82c2.07-2.21,3.94-7.22,3.73-8.78A30.61,30.61,0,0,0,144,364a3.42,3.42,0,0,0-.43-2.06c-.5.13-1,.3-1.57.5l3.62-4,3.36-2.44a38.73,38.73,0,0,1,7.49-5.12,1.36,1.36,0,0,1,1.95,1,7.11,7.11,0,0,0,2.9,4.3A14.32,14.32,0,0,0,175.83,358c-2.53-2.37-5.11-4.45-7.17-6.38A14.89,14.89,0,0,0,163,348.3l2.77-.74a5.76,5.76,0,0,1,4.51.73c2.67,1.66,4.26,2.55,7.52,2.54a30.87,30.87,0,0,0,11.57-2.41c-1.79-2.85-6.38-5.71-10.15-6.31,1.42-.67,2.87-1.4,4.34-2.22a3.07,3.07,0,0,1,3.73.45,6.75,6.75,0,0,0,2.85,1.63,57.6,57.6,0,0,0,14.42,1.72,11.62,11.62,0,0,0-6.62-5.55c-2-.69-4.75-1-9.37-1.36q1.66-1.14,3.37-2.46a5.44,5.44,0,0,1,6.28-.2c3.58,2.25,9.77,2.52,15.54.13-5.15-3.6-9.65-4.5-15.39-5.57a27.49,27.49,0,0,1,2.2-1.86,5.08,5.08,0,0,1,4.41-.93,16.14,16.14,0,0,0,9.93-.32c2.07-.85,6.94-6.57,8.05-8.19-5.56-.65-9.86,1.17-14.75,3.43a23,23,0,0,1-3.62,1.12,31.14,31.14,0,0,1,5.7-5.81,29.72,29.72,0,0,0,7.76-8.71c1.11-2,0-7.15-.73-9.28a29.83,29.83,0,0,0-5.85,6.16,45.2,45.2,0,0,0-3.74,6.91,50.53,50.53,0,0,1-4.7,8.3c.41-3.68,1.66-7.91,1.12-10.27-3.68,3.7-8.37,10.54-9.08,16.76a4.53,4.53,0,0,1-1.43,2.9,68.35,68.35,0,0,1-5.42,4.37,54.56,54.56,0,0,0,4.1-7.93,17.48,17.48,0,0,0,1.15-9.82c-3.3,1.08-5.15,2.7-6.87,6.05a22.36,22.36,0,0,0-1.36,6.4A15,15,0,0,1,176.36,340c-3.35,1.48-6.57,2.63-9.69,3.73l-2.21.79a57.34,57.34,0,0,0,3.08-11.64c.52-3.94.78-8.43-1.89-11.36-2,5-6.26,15.46-5.28,21.85a3,3,0,0,1-1.48,3.1c-.88.48-1.86,1-2.56,1.33a12.27,12.27,0,0,0,.23-1.3,40,40,0,0,0,.29-12c-.13-1.19-1.55-4.93-2.31-5.1-2.76,2.72-5.89,10.49-5.28,20.7,0,.49-.52,1.06-1.3,1.66a8.85,8.85,0,0,1-2.84.94,24.82,24.82,0,0,0,1-9.65c-.33-3.17-2.89-8.08-5.3-11.15,3.38-.87,6.52-2.21,8.28-3.75-3.37-3.69-6.42-3.53-14.92-.8-1.22-1.47-2.55-3.5-4.17-5.23a6.33,6.33,0,0,0,1.34-.88c1.72,2.09,4.14,3.41,6.57,2.31a10.67,10.67,0,0,0,5.88-8.89,26.84,26.84,0,0,0-7.54.66c.25-.63.49-1.26.75-1.88a12,12,0,0,0,4.86-1.75c2.25-1.5,4.5-4.5,6-8.5a34.15,34.15,0,0,0-6.29.12c1.2-2.45,2.44-4.88,3.77-7.29,2.54,1.95,5.22,2.81,10.36,2.19,5.56-.67,10.67-4.45,11.4-10.11a27.57,27.57,0,0,0-19.72,4.3c1.95-3.34,4.35-7,6.53-10.28,2.9.45,6.18,1.18,9.71-.58,2.83-1.41,5-4.71,6.36-7.42-3.33-.31-9-.06-12.53,2.26a95.3,95.3,0,0,1,6.77-8.38c2.18-2.36,6.19-5,7.33-7.94,1.21-3.08-.11-8.84-1.41-12.55A18,18,0,0,0,163.29,259c-.18,1.16,0,4.65-1.23,7a66.86,66.86,0,0,1-5.64,8.24,40.58,40.58,0,0,0,1.31-14.22c-.53-3.23-2.5-6.43-5.61-7.47-1.48,5.07-2.3,9.81-1.49,14.66.64,3.84,1.46,8.56,2.73,10.66-2.33,3.3-4.48,6.27-6.57,9.67a21.88,21.88,0,0,0,1.44-10.86c-.68-3.79-3.5-7.62-5.65-10.74-2.22,5.37-3.66,10.07-2,15.87.78,2.66,4.37,6.55,5.17,7.4q-4.37,7.33-8,14.95a9.46,9.46,0,0,0-5.75,5,39.26,39.26,0,0,0-2.94-5c5.93-1.6,8.88-6.26,8.2-12.56-.55-5.1-1.37-9.3-5.2-14-4.12,6.93-5.2,12.72-4.6,19.37.18,1.94.43,4.24.61,5.74a75,75,0,0,0-6.84-8,7.89,7.89,0,0,1-2.07-7.52c2-7.53-2-14.11-5.9-18.39-2,5.19-1.93,11.86-.39,18.84l-3.52-2.76a5.68,5.68,0,0,1-2.2-4.36c-.07-5.17-1.52-11.82-7.68-16.81-2.72,2.4-2.29,6.74-1.15,10.18a39.12,39.12,0,0,0,1.83,4.51,39.46,39.46,0,0,1-7.75-6.71c-2.87-3.58-5.42-7.54-7.07-9.21-1.45-1.47-6.82-4.32-8.77-3.65-.23,4,1.62,7.91,4.23,10.95,1.26,1.46,6.87,4.61,10.08,6.07a48.44,48.44,0,0,1,8.26,5c1.65,1.15,3.4,2.38,5.19,3.67-4,.09-8.68-2.33-12.51-3.28-4.08-1-8.63-1.54-12.27.55,2.7,4,8.31,6.17,13.91,6.9a29.31,29.31,0,0,0,11.14-.9,6.59,6.59,0,0,1,5.71,1.21c1.54,1.2,3.07,2.45,4.57,3.73-10.07,0-20.78-1.83-28.78,3.57,3.24,4.36,13.19,5.45,18.27,5.33a16.43,16.43,0,0,0,9.87-3.39,5.25,5.25,0,0,1,7.11.58,45.6,45.6,0,0,1,5.08,7c-9-3.26-15.37-1.48-19.79,3.54,3.56,2.69,9,5.27,14.72,3.84a9.13,9.13,0,0,0,6.44-5,33.41,33.41,0,0,1,3.62,9.16l-.07,0a52,52,0,0,0-8.85-.74,34.9,34.9,0,0,0-8.38,1.2,19.38,19.38,0,0,0,8.38,4.79,12.44,12.44,0,0,0,4.14.33,34.11,34.11,0,0,1-2.57,3.69,32.39,32.39,0,0,0-16.84-8.18,11.14,11.14,0,0,0,.57,8.5c.29.47-5.61.92-5.79.84a16.26,16.26,0,0,0-7-5.9c-4.24-1.53-8.7-1.86-10.77-.89.08,2.33,3.22,6.38,10.34,8.1,0,0-4.65,1-8.47,1.88a7.39,7.39,0,0,1-6.62-1.58c-3.59-3.16-7-4.39-10.48-3.65.11,2.82,1.86,6,5.43,8.58,0,0-3,1-4.54,1.32a8.23,8.23,0,0,1-6.77-1.1c-3.71-2.73-8-4.12-12.8-2.88.73,2.8,5.75,6.44,9.25,7.22a27,27,0,0,1-6.17,1.53c-2,.09-5.58-.54-8.07.17-3.49,1-5.91,3.68-8.25,6.55a18.82,18.82,0,0,0,9.19-.22c2.18-.89,4.62-3.85,6.38-4.36a42.87,42.87,0,0,1,4.87-.66,17.13,17.13,0,0,0-5.17,5.92A11.29,11.29,0,0,0,52,356c3.66-2.36,6.74-5.94,7.92-9.52a23.88,23.88,0,0,0,1.08-5c1.06-.18,3.54-.71,3.54-.71.16,2,.35,9.48,4.66,14.53,1.14-.67,2-3.77,2.08-5.67.13-3.73-2.48-7.31-5.13-9.53a78.6,78.6,0,0,0,15.39-4.56A18.77,18.77,0,0,0,77,342.09c-1,2.74.13,6.71,1.63,9.21,2.32-1.57,5.52-7,8.28-11.86a14.1,14.1,0,0,1,9.92-6.92l1.18-.18c.48,3.19,1.37,5.47,2.13,6.13a30.16,30.16,0,0,0,7.31-5.87,7.36,7.36,0,0,1,4.3-2.28,33.48,33.48,0,0,1,4.45-.4c-.18.2-1.43,4.44-.56,5.32l11.72-3.68,2,.16c-5,3.79-9.45,6.57-12.82,12.34,3.06.8,9.14-.16,12-2.09s5-5.62,7.22-9.14c.43,0,.86-.1,1.29-.16a19,19,0,0,0-1.64,8.19,7.65,7.65,0,0,0-1.89.91,9,9,0,0,0-3.19,4.17,7.35,7.35,0,0,0-4.4-.68,18.63,18.63,0,0,0,1,7.43,48.85,48.85,0,0,0,2.39,5c-2.9-1.44-7.5-1.7-9.24-.85-.45,3.88,1.91,7.23,6.6,9.84a9.63,9.63,0,0,0,6,1.27,10.94,10.94,0,0,0-2.26,4.62,6,6,0,0,0-1.08-.49c-3.91-1.2-9.89-.46-13.06.14.35,2.9,3.87,8.64,12.66,11.86,1.61,2.05-.29,6.3-.29,6.3-2.2-1.32-4.91-1.64-8.32-.83a26,26,0,0,0,10.13,12.3,5.92,5.92,0,0,0-2.64,2.1c1.31,1.54,5.53,2.94,8.15,3.44a20.73,20.73,0,0,0-2,2.08,19.08,19.08,0,0,0-2.33,2.66c-2,2.84-2.23,5.25-2.14,8.27-.05.27-.11.54-.16.83-2.26-1.5-4.68-3-7.15-4.56,2.94-8.11.51-17-3.59-21.85-3.93,6.5-3.82,13.13-3.2,17.77-2.35-1.38-4.65-2.68-6.81-3.88a25,25,0,0,0-3.52-20.28,44.81,44.81,0,0,0-2.37,17.09,66.76,66.76,0,0,0-6.19-3c.14-6.2-1.71-15-5.88-18.95a28.63,28.63,0,0,0-1.78,7c-.43,3.1.44,7.78,2.14,10.28h0a7.19,7.19,0,0,1-4.88-5.56,17.07,17.07,0,0,0-1-3.33c-1.35-3.21-3.53-5.63-7.07-8.63-.48,3.37.56,9.68,3.42,14.51-.2-.07-2.47-.87-4.37-1.44a7.82,7.82,0,0,1-5-5.21c-2.46-7.89-5.82-11.09-9.18-11.74A16.52,16.52,0,0,0,65.83,393c-3.83-1.09-6.74-1.92-9.72-2.64A11.66,11.66,0,0,1,49.43,386c-3.33-4.56-6.8-7.74-9.15-8.29a14,14,0,0,0,3,7.8,13.24,13.24,0,0,0,5.82,3.81,32.65,32.65,0,0,1-7.8-.75c-2.64-.74-6.82-2.82-8.38-3.15a14.73,14.73,0,0,0-8.5.46c1.79,3.58,4.39,5.5,8.82,6.12,3.4.48,6.49-.93,10-.87s7.16,1.15,12.59,2.44c-4.13.09-8.56.87-10.63,4.3-1.08,1.78-.82,4.83,0,6.63,5.75-1.13,9.34-2.59,14-6.37a7.38,7.38,0,0,1,6.2-1.53c4.53,1,9,2.64,11.34,3.27a21.85,21.85,0,0,0-10.89,2.81c-2.48,1.41-3.75,4.2-3.85,7.62,5.47.22,12.7-2.35,19.46-6.46a6.57,6.57,0,0,1,5.55-.63l3.38,1.16c-3.48,1.41-8.88,5.52-10.66,10,6.07,1,14-3.94,15.89-7.57.78.33,2.74,1.29,5.41,2.66-6.08,3.18-9.15,11.51-9.82,15.08,8.82,2.58,14.41-4.75,16.95-11.34,2,1.07,4.12,2.21,6.27,3.4-4.08,2.79-7.21,6.16-8.43,13.09,8,3,14.43-4.19,16.14-8.74,2.17,1.26,4.26,2.5,6.18,3.69-4.5,4.21-8,8.11-9.55,16.24a18,18,0,0,0,15.54-10.22c.62-.23,1.29-.51,2-.83l2.27,2.23c-2.9,3.18-5.56,6.9-6.48,11.13,3.08.38,6.52-1,9.21-3.16a15.32,15.32,0,0,0,2.6,2.15,26.17,26.17,0,0,0,1,4.93c.09.27.2.56.33.84a47.16,47.16,0,0,0-11.92.31c.33,2.78,5.16,8.52,13.31,11.83a32.49,32.49,0,0,0-4.48,5.47,14.29,14.29,0,0,0-2.05.22c-1.33-4.29-3.19-8.72-8.07-10.29-2.42,4.43-2.22,7.05-2.13,11.58-3.49-2.21-6.43-5.2-9.92-7.41s-8.19-3.67-12.09-2c3.82,5.39,8.46,8.25,15.27,10.77-4.07-.67-8.49-1.18-13.22-1.5a10.15,10.15,0,0,1-5.28-1.88,62.29,62.29,0,0,1-5.21-4.77c-2.31-2.14-5.21-4.85-8.76-4.83.3,6.93,2.78,8.38,5.88,11.6-1.53,0-3.06.06-4.61.15-5.95.34-11.29-2.87-14.48-7.9-2.09-3.3-5.13-6.27-9.16-5.6A13.32,13.32,0,0,0,72,464c1.24,1.33,3.11,3.83,3.94,4.64l-2.07.19a17.3,17.3,0,0,1-12.61-3.67,26,26,0,0,0-13-5.61c-1,2.21.1,4.86,1.69,6.71a26.8,26.8,0,0,0,7.31,5.08c-5.77.08-10-.16-14.09.38-3.68.5-8.26,1.85-10.88,3.68,2.26,2.25,7.76,3.48,10.94,3.3,6.38-.35,10.27-3.8,14.25-4.47-3.77,4.5-6.92,11.72-7.09,15.29a35.07,35.07,0,0,0,8-4.5,16.35,16.35,0,0,0,2.77-3.76,17.78,17.78,0,0,1,13.95-8.62h.13c-6,4.33-10.17,10.76-11.5,19.95,5-2.06,10.35-4.6,13.38-9.1.79-1.18,1.59-2.45,2.35-3.76a15.67,15.67,0,0,1,13.82-7.85h0c-5.22,3.95-12.42,16-12.14,16.62,9.19-1.27,14.65-8.63,16.09-11a12.69,12.69,0,0,1,11.14-6.16l1.67.05a38.7,38.7,0,0,0-15.47,16.24c5.82.93,10.33-2.77,14.13-6.6,1.81-1.82,4.91-4.28,8-6.79a7.9,7.9,0,0,1,6.21-1.69l1,.16a27.7,27.7,0,0,0-10.28,13.6c5.73-1.29,9.54-5.54,12.07-8.38a2.13,2.13,0,0,1,2.36-.57c-2.54,4.9-6.76,12.63-6.51,16.25,3.82-1.29,10.63-10.29,12.82-15.17a1.34,1.34,0,0,1,1.54-.76h0a1.32,1.32,0,0,1,.88,1.83c-2.09,4.71-3.35,11.71-2.48,15.55,2.84-1.49,6.69-6.82,8.58-12.06.55-1.51,1.39-4.75,2.28-7.92a33.29,33.29,0,0,0,5,3.8c.35.22.73.43,1.11.63a62.78,62.78,0,0,0,3,7.44,12.27,12.27,0,0,0-6.85.39,13.24,13.24,0,0,0-6.31,6.84c2.32,2,6.47,2.17,9.25.57a14.24,14.24,0,0,0,5.17-5.33,46.64,46.64,0,0,0,2.91,4.65c-1.79,0-4.28,2-5.32,3.71-1.64,2.73-3.41,6.32-2,11.23a11.55,11.55,0,0,0,5.21-5.4c1.07-2.11,2.56-6.58,2.48-9,1.1,1.51,2.16,2.77,3.1,3.9l.6.7c-2.57,1.26-3.86,5.75-3.89,8-.05,3.47,2.23,6.89,3.75,6.86a40.19,40.19,0,0,0,1.55-13.3,17.78,17.78,0,0,1,2.59,4.26c.37,1.76,0,4.78.35,6a5.79,5.79,0,0,0,4.9,4.38,20.19,20.19,0,0,0-1.45-6.57c-.53-1.25-2-2.37-2.29-4.09a16.59,16.59,0,0,0-2.44-6.31,9.47,9.47,0,0,0,1.5.43c3.4.67,10.48-.81,12.8-.86-4.21-4-10.45-5.15-16.71-2.76a49,49,0,0,1-3.6-4.93,4.17,4.17,0,0,0,3.8.65c2.45-.55,5.95-2.53,7-5.12-4.06-1.13-9.35-.39-11.74,3a51.56,51.56,0,0,1-3.64-7.86,14.41,14.41,0,0,0,3,.49,11.09,11.09,0,0,0,6.3,2.13c4.27.22,9.3-2.29,10.68-3.29-3.18-1.73-10.67-3.48-15.88-3.31l-.23-.37a7.33,7.33,0,0,0,1.52-1.14c2-1.35,4.12-2.63,6.28-3.82,7.31,2.19,14.73,2.38,20.9.53,1.55-.47,3.41-1.65,3.12-3.13a13.12,13.12,0,0,0,7.83-1.23c-2.4-1-4.45-2.69-6.82-3.75a13.67,13.67,0,0,0-1.54-.57,24.11,24.11,0,0,0,18.44-11.75,6.58,6.58,0,0,0-6.27,0,29.71,29.71,0,0,0-5.31,3.8,47.62,47.62,0,0,1-7.7,4.86c-.62.22-1.32.41-2.11.6a9.45,9.45,0,0,0,2.66-4.46,25.16,25.16,0,0,0,.58-7.28c-4.4,3.7-6.7,8.19-9.47,13.05l-1.71.37c-1,.23-2.11.5-3.18.81,1.67-3,3.13-6.42,2-9.59-2.45-.44-3.92,2.59-4.51,5l-1.46,5.93c-1.45.54-1.91.5-3,.9-.88-2.12-2.77-5.28-4.36-5.92a22,22,0,0,0,5.56-3.59c2.9-2.65,3.43-5.25,4-8.79-6.42,1-10.39,2.4-14.91,6.2-.3.25-.59.52-.87.8-.34-1.66-.83-3.22-1.2-4.52,4.12-1.32,9.08,0,12.49-3.63,2.07-2.21,3.94-7.22,3.73-8.78a26.27,26.27,0,0,0-7.35,1.37,16.49,16.49,0,0,0,1.66-6.07c-2.63-.11-3.8.7-5.11,1l-.06-.14a45,45,0,0,0,1.37-6.57,8,8,0,0,0,3.27-1.18,7.79,7.79,0,0,0-2.63-5.13,11.75,11.75,0,0,0,0-1.43A17.64,17.64,0,0,0,163,414c1.05-.31,2.06-.64,3-1q1.87.65,3.71,1.33a3.09,3.09,0,0,1,1.94,3.71,8.67,8.67,0,0,0-.34,2.59c.07,3.13,3.7,9.7,7.57,12.82.73-1.54,1.86-10.32,1.39-14.87q2.68,1.16,5.23,2.34a3.52,3.52,0,0,1,2,4.12c-1.58,5.45,2,11.87,10,13,.13-2.81-.68-8.89-3.26-12.9,3.44,1.71,7,3.55,10.13,5.13a1.48,1.48,0,0,1,.47,2.25l0,0c-1.78,2.23-.35,5.85.91,7.85s6.62,5.77,6.62,5.22c0-2.19-1.3-9.92-3.56-13,1.52.8,2.64,1.4,3.12,1.68,1.85,1.09,4.86,4.36,7.1,5.05,2.58.8,6.73.65,8.75-1.14-.71-1.41-3.75-3-5.29-3.42-3.56-.87-5.75-.26-8.44-1.72-1.65-.9-6.06-3.6-11.19-6.53a25.73,25.73,0,0,0,8.9.47c1.93-.24,5.67-1.66,6.66-3.4-2.39-2.84-6.59-3.54-10.29-3.73a21.75,21.75,0,0,0-8.12,1.62,8.93,8.93,0,0,1-7.16-.35l0,0c-3.06-1.51-6.35-3.05-9.78-4.57,1.84,0,3.52.19,5.82.25,2.8.08,5.22-.53,7-2.12-1.36-2.5-7-4.39-11.27-4.5a11.9,11.9,0,0,0-6.3,2.22,4.55,4.55,0,0,1-4.18.4c-2.39-.94-4.84-1.83-7.31-2.68-2.07-2.65-6.46-5.79-13.62-6.81-2-1.67-1-6.23-1-6.23a9.14,9.14,0,0,0,4.72.28c2.12,2.84,4.08,5.66,5.67,6.59,1.13.66,3.94,3.52,6.36,3.24,1.94-2.82,2.36-7.18.86-9.91-2.41-4.38-11.64-7.67-14.09-9.09,2.12.12,8-.78,13.29-1.09,3.08.76,6.3,1.63,9.57,2.57-.91,2.88-1,6.37.37,8.15a10.63,10.63,0,0,0,6.26,4.07,63.17,63.17,0,0,0,.45-10.12l3.94,1.21a9.65,9.65,0,0,0-.81,3.71c-.2,5.85,4.46,10.49,10.07,11.88a25,25,0,0,0-2-8.76,23.56,23.56,0,0,0-3.69-5.7l7.92,2.54,1.61.52a9.42,9.42,0,0,0-.56,4.64c.3,2.72,2.17,6.23,6.26,9.45a12.68,12.68,0,0,0-2.85-13.13,80,80,0,0,1,7.71,3.1A15.88,15.88,0,0,0,223.95,402.59Zm-90.16-89.22-.1.25c0-.09-.05-.19-.08-.28Zm-1.27,3.28.17.06-.4.21Zm-5,9.47.13-.06h0Zm12.08,47.28a22.2,22.2,0,0,1,3-.44,12.32,12.32,0,0,0,1.79,1.84,27.1,27.1,0,0,0-3.55,2.55c-.3.25-.59.52-.87.8-.3-1.48-.72-2.88-1.08-4.09C139.15,373.85,139.39,373.62,139.62,373.39Zm-3.55-26.1a24.6,24.6,0,0,0,2.69,6.37c0,2.69-.61,7.65-.7,10.5a28.76,28.76,0,0,0-3,1.86,9.7,9.7,0,0,0-.75-2.41l.16.08c2-2.39,2.78-5.28,2.33-9.19a11.16,11.16,0,0,0-2.76-5.87,9.22,9.22,0,0,0-.66-.67A7.81,7.81,0,0,0,136.07,347.29Zm-.45,47.87a12.34,12.34,0,0,0-1.94-1.19c1.6-2.77,2-5.33,2.73-7a15.43,15.43,0,0,0,2.91,3.59A33,33,0,0,0,135.63,395.16ZM141.45,429l-1.35-1.31a24.9,24.9,0,0,0,4.55-3.43c0,.52.08,1,.14,1.54C143.79,426.73,142.65,427.8,141.45,429Zm-.09-11.69a23.23,23.23,0,0,0,.89-4.13l.61-.76c.24-.31.47-.63.69-1,.67,1.55,1.49,3,2.12,4.17A21.24,21.24,0,0,1,141.35,417.28Zm1.95-15.89c-1-.22-1.92-.45-2.74-.64a19.76,19.76,0,0,0-2.52-3.41c1.26-.48,1.75-1.19,4.82-2.94a6.57,6.57,0,0,0,1-.71,12.7,12.7,0,0,0,2.56.95A16.63,16.63,0,0,0,143.3,401.4Zm7.63,22a10,10,0,0,0-4.12-1.8,40.5,40.5,0,0,0,4.34-7.4C151,416.62,150.91,420.11,150.93,423.4Zm31,42,.83-.21a13.34,13.34,0,0,0,3.4,2.44c-4.11.49-9.5.52-14.13,1.34A56.18,56.18,0,0,1,182,465.4ZM155,436.52l.49.39a11,11,0,0,0,2.41,1.31,11.4,11.4,0,0,0,.2,5.53,26.47,26.47,0,0,0-2.36,3.21c-.2-1-.42-1.91-.59-2.56a19.17,19.17,0,0,0-1.9-4.59A10.23,10.23,0,0,0,155,436.52Zm1.76,27.83a13.43,13.43,0,0,0,2.2,1.37,8.16,8.16,0,0,0,.5,5.11,30.22,30.22,0,0,0-3.23,2.37,14.38,14.38,0,0,0-3.9-2.89A16.63,16.63,0,0,0,156.79,464.35Z" transform="translate(21.76)"/><rect class="cls-20" width="640" height="651.67"/></g></g></svg>