<svg xmlns="http://www.w3.org/2000/svg" viewBox="0 0 640 356.25"><defs><style>.cls-1{fill:#1fb366;}.cls-2{fill:#21de80;}.cls-3{fill:#4119ab;}.cls-4{fill:#f3e1c4;}.cls-5{fill:#dfdee0;}.cls-6{fill:#203966;}.cls-7{fill:#6b676f;}.cls-8{fill:#55515a;}.cls-9{fill:#fff;}.cls-10{fill:#f3988c;}.cls-11{fill:#2d8bea;}.cls-12{fill:#256fbb;}.cls-13{fill:#c47971;}.cls-14{fill:#2b2631;}.cls-15{fill:#231e26;}.cls-16{fill:#c2b49d;}.cls-17{fill:#544b4d;}.cls-18{fill:#752e51;}.cls-19{fill:#b2b1b3;}.cls-20{fill:#9c9b9b;}.cls-21{fill:#f454a8;}.cls-22{fill:#182e52;}.cls-23{fill:#943a68;}.cls-24{fill:#c44185;}.cls-25{fill:none;}</style></defs><title>Fichier 1ExportationDeFichier</title><g id="Calque_2" data-name="Calque 2"><g id="Illu"><polygon class="cls-1" points="279.77 35.09 388.95 4.87 397.36 57.85 286.89 79.62 279.77 35.09"/><polygon class="cls-2" points="273.4 30.22 382.59 0 390.99 52.98 280.52 74.75 273.4 30.22"/><path class="cls-2" d="M127.5,57.5V91.73h-6.36V66.24l-5.69,2.27V62.83Z"/><path class="cls-2" d="M321.77,356.25V353l13.8-16.54a7.2,7.2,0,0,0,2.07-4.45c0-2.27-2-4-4.86-4a5.37,5.37,0,0,0-5.27,4.91l-5.89-1.09c1-6.15,5.43-10,11.43-10S344,326,344,332a13.16,13.16,0,0,1-3.62,8.63L332,350.2h11.43v6Z"/><path class="cls-2" d="M535.24,76.69V71h3.62a3.82,3.82,0,0,0,.83-7.55,5.5,5.5,0,0,0-5.22,2.07l-5-3.26a11.08,11.08,0,0,1,10.24-5c5.79.31,9.77,4.45,9.77,9.46a7.83,7.83,0,0,1-4.19,6.62,9.4,9.4,0,0,1,5.64,9.2c-.62,6.15-6.46,10.08-13,9.62a12.55,12.55,0,0,1-10.5-7.13c.47-.26,5.07-2.53,5.53-2.79A6.55,6.55,0,0,0,538.45,86c3.21,0,5.69-2.07,5.69-5,0-.88-.67-4.5-5.27-4.34Z"/><path d="M336.1,9.64a35.46,35.46,0,0,0-24.82,10.09l33-9.14A35.66,35.66,0,0,0,336.1,9.64Z"/><path class="cls-3" d="M315.22,74A35.57,35.57,0,0,0,366.36,64Z"/><path class="cls-1" d="M371.69,45.23a35.59,35.59,0,0,0-27.4-34.63l-33,9.14A35.57,35.57,0,0,0,315.22,74L366.36,64A35.41,35.41,0,0,0,371.69,45.23Z"/><circle class="cls-4" cx="331.85" cy="43.1" r="34.72"/><path class="cls-2" d="M123.8,175.17a1.59,1.59,0,0,1-1.12-2.72,1.64,1.64,0,0,1,2.25,0,1.61,1.61,0,0,1,.46,1.12,1.59,1.59,0,0,1-1.59,1.59Z"/><path class="cls-2" d="M127,168a1.58,1.58,0,0,1-.57-2.18h0a1.59,1.59,0,0,1,2.17-.57h0a1.6,1.6,0,0,1,.57,2.18h0a1.58,1.58,0,0,1-1.37.79h0A1.53,1.53,0,0,1,127,168Zm4.14-6.9a1.59,1.59,0,0,1-.49-2.2h0a1.6,1.6,0,0,1,2.2-.49h0a1.6,1.6,0,0,1,.49,2.2h0a1.58,1.58,0,0,1-1.35.74h0A1.58,1.58,0,0,1,131.09,161.05Zm4.37-6.74a1.6,1.6,0,0,1-.41-2.21h0a1.59,1.59,0,0,1,2.21-.42h0a1.6,1.6,0,0,1,.41,2.21h0a1.57,1.57,0,0,1-1.31.69h0A1.63,1.63,0,0,1,135.47,154.31Zm4.6-6.6a1.6,1.6,0,0,1-.34-2.23h0a1.59,1.59,0,0,1,2.22-.34h0a1.59,1.59,0,0,1,.34,2.23h0A1.58,1.58,0,0,1,141,148h0A1.59,1.59,0,0,1,140.07,147.71Zm4.82-6.44a1.6,1.6,0,0,1-.27-2.24h0a1.6,1.6,0,0,1,2.24-.27h0a1.6,1.6,0,0,1,.27,2.24h0a1.62,1.62,0,0,1-1.26.61h0A1.56,1.56,0,0,1,144.89,141.27Zm5-6.28a1.59,1.59,0,0,1-.2-2.25h0a1.59,1.59,0,0,1,2.25-.19h0a1.58,1.58,0,0,1,.19,2.24h0a1.59,1.59,0,0,1-1.22.57h0A1.6,1.6,0,0,1,149.92,135Zm5.23-6.11a1.59,1.59,0,0,1-.11-2.25h0a1.59,1.59,0,0,1,2.25-.12h0a1.59,1.59,0,0,1,.12,2.25h0a1.6,1.6,0,0,1-1.19.53h0A1.58,1.58,0,0,1,155.15,128.88ZM160.6,123a1.59,1.59,0,0,1,0-2.25h0a1.59,1.59,0,0,1,2.25,0h0a1.59,1.59,0,0,1,0,2.25h0a1.58,1.58,0,0,1-1.15.49h0A1.58,1.58,0,0,1,160.6,123Zm5.63-5.74a1.6,1.6,0,0,1,0-2.25h0a1.6,1.6,0,0,1,2.25,0h0a1.6,1.6,0,0,1,0,2.25h0a1.59,1.59,0,0,1-1.12.45h0A1.59,1.59,0,0,1,166.23,117.22Zm5.82-5.55a1.59,1.59,0,0,1,.11-2.25h0a1.6,1.6,0,0,1,2.25.1h0a1.6,1.6,0,0,1-.1,2.25h0a1.6,1.6,0,0,1-1.08.41h0A1.59,1.59,0,0,1,172,111.67Zm6-5.35a1.59,1.59,0,0,1,.18-2.24h0a1.6,1.6,0,0,1,2.25.18h0a1.59,1.59,0,0,1-.18,2.25h0a1.6,1.6,0,0,1-1,.38h0A1.59,1.59,0,0,1,178.05,106.31Zm6.18-5.14a1.6,1.6,0,0,1,.26-2.24h0a1.6,1.6,0,0,1,2.24.26h0a1.6,1.6,0,0,1-.26,2.25h0a1.57,1.57,0,0,1-1,.34h0A1.6,1.6,0,0,1,184.23,101.17Zm6.35-4.94a1.59,1.59,0,0,1,.33-2.22h0a1.59,1.59,0,0,1,2.23.33h0a1.6,1.6,0,0,1-.33,2.23h0a1.57,1.57,0,0,1-.95.31h0A1.58,1.58,0,0,1,190.59,96.23Zm6.51-4.72a1.59,1.59,0,0,1,.41-2.21h0a1.6,1.6,0,0,1,2.21.41h0a1.59,1.59,0,0,1-.41,2.21h0a1.61,1.61,0,0,1-.91.29h0A1.57,1.57,0,0,1,197.1,91.51Zm6.67-4.5a1.59,1.59,0,0,1,.48-2.2h0a1.59,1.59,0,0,1,2.2.49h0a1.59,1.59,0,0,1-.48,2.2h0a1.63,1.63,0,0,1-.86.25h0A1.57,1.57,0,0,1,203.77,87Zm6.81-4.27a1.59,1.59,0,0,1,.56-2.18h0a1.59,1.59,0,0,1,2.18.55h0a1.61,1.61,0,0,1-.56,2.19h0a1.59,1.59,0,0,1-.81.22h0A1.6,1.6,0,0,1,210.58,82.74Zm7-4a1.6,1.6,0,0,1,.63-2.17h0a1.6,1.6,0,0,1,2.17.63h0a1.59,1.59,0,0,1-.63,2.16h0a1.67,1.67,0,0,1-.76.19h0A1.6,1.6,0,0,1,217.53,78.7Zm7.09-3.81a1.59,1.59,0,0,1,.7-2.14h0a1.59,1.59,0,0,1,2.14.7h0a1.6,1.6,0,0,1-.7,2.14h0a1.56,1.56,0,0,1-.72.17h0A1.6,1.6,0,0,1,224.62,74.9Zm7.21-3.57a1.59,1.59,0,0,1,.77-2.11h0a1.58,1.58,0,0,1,2.12.77h0a1.6,1.6,0,0,1-.77,2.12h0a1.66,1.66,0,0,1-.67.14h0A1.59,1.59,0,0,1,231.82,71.33Z"/><path class="cls-2" d="M240.64,69a1.62,1.62,0,0,1-.61-.12,1.5,1.5,0,0,1-.51-.35,1.61,1.61,0,0,1-.35-.52,1.58,1.58,0,0,1-.12-.61,1.36,1.36,0,0,1,0-.31,1.33,1.33,0,0,1,.09-.3,1.29,1.29,0,0,1,.15-.27,1.18,1.18,0,0,1,.2-.25,1.58,1.58,0,0,1,1.43-.43,1.28,1.28,0,0,1,.29.09,1.87,1.87,0,0,1,.28.14,2,2,0,0,1,.24.2,1.19,1.19,0,0,1,.2.25,1.81,1.81,0,0,1,.15.27,1.89,1.89,0,0,1,.09.3,1.38,1.38,0,0,1,0,.31,1.58,1.58,0,0,1-.12.61,1.61,1.61,0,0,1-.35.52A1.57,1.57,0,0,1,240.64,69Z"/><polygon class="cls-2" points="238.86 75.11 259.13 60.43 234.24 63.01 238.86 75.11"/><path class="cls-2" d="M406.34,64.42a1.6,1.6,0,0,1-1.59-1.59,1.37,1.37,0,0,1,0-.31,1.89,1.89,0,0,1,.09-.3,1.81,1.81,0,0,1,.15-.27,1.42,1.42,0,0,1,.2-.25,1.61,1.61,0,0,1,1.43-.43,1.43,1.43,0,0,1,.3.09,1.33,1.33,0,0,1,.27.15,1.45,1.45,0,0,1,.44.44,1.31,1.31,0,0,1,.15.27,1.33,1.33,0,0,1,.09.3,1.53,1.53,0,0,1,0,.62,1.27,1.27,0,0,1-.09.29,1.35,1.35,0,0,1-.15.28,1.14,1.14,0,0,1-.2.24A1.57,1.57,0,0,1,406.34,64.42Z"/><path class="cls-2" d="M525.65,153.22A1.6,1.6,0,0,1,526,151h0a1.6,1.6,0,0,1,2.22.38h0a1.59,1.59,0,0,1-.38,2.22h0a1.57,1.57,0,0,1-.92.29h0A1.6,1.6,0,0,1,525.65,153.22Zm-4.71-6.45a1.59,1.59,0,0,1,.31-2.23h0a1.59,1.59,0,0,1,2.23.31h0a1.6,1.6,0,0,1-.31,2.23h0a1.6,1.6,0,0,1-1,.33h0A1.59,1.59,0,0,1,520.95,146.77ZM516,140.48h0a1.59,1.59,0,0,1,.23-2.25h0a1.59,1.59,0,0,1,2.24.24h0a1.58,1.58,0,0,1-.23,2.24h0a1.6,1.6,0,0,1-1,.36h0A1.57,1.57,0,0,1,516,140.48Zm-5.14-6.12a1.6,1.6,0,0,1,.16-2.25h0a1.6,1.6,0,0,1,2.25.17h0a1.6,1.6,0,0,1-.16,2.25h0a1.63,1.63,0,0,1-1,.38h0A1.6,1.6,0,0,1,510.89,134.36Zm-5.33-5.94h0a1.59,1.59,0,0,1,.08-2.25h0a1.6,1.6,0,0,1,2.25.09h0a1.6,1.6,0,0,1-.09,2.25h0a1.6,1.6,0,0,1-1.08.42h0A1.57,1.57,0,0,1,505.56,128.42ZM500,122.66a1.59,1.59,0,0,1,0-2.25h0a1.59,1.59,0,0,1,2.25,0h0a1.6,1.6,0,0,1,0,2.25h0a1.61,1.61,0,0,1-1.12.46h0A1.59,1.59,0,0,1,500,122.66Zm-5.73-5.57a1.6,1.6,0,0,1-.06-2.25h0a1.59,1.59,0,0,1,2.25-.06h0a1.59,1.59,0,0,1,.06,2.25h0a1.57,1.57,0,0,1-1.16.5h0A1.6,1.6,0,0,1,494.31,117.09Zm-5.9-5.38a1.59,1.59,0,0,1-.14-2.25h0a1.59,1.59,0,0,1,2.25-.14h0a1.59,1.59,0,0,1,.14,2.25h0a1.6,1.6,0,0,1-1.2.54h0A1.62,1.62,0,0,1,488.41,111.7Zm-6.08-5.18a1.6,1.6,0,0,1-.21-2.25h0a1.58,1.58,0,0,1,2.24-.21h0a1.58,1.58,0,0,1,.22,2.24h0a1.6,1.6,0,0,1-1.23.58h0A1.61,1.61,0,0,1,482.33,106.53Zm-6.25-5h0a1.59,1.59,0,0,1-.29-2.23h0A1.59,1.59,0,0,1,478,99h0a1.59,1.59,0,0,1,.29,2.23h0a1.57,1.57,0,0,1-1.27.62h0A1.6,1.6,0,0,1,476.08,101.55Zm-6.41-4.76a1.6,1.6,0,0,1-.37-2.22h0a1.6,1.6,0,0,1,2.22-.37h0a1.59,1.59,0,0,1,.37,2.22h0a1.58,1.58,0,0,1-1.29.67h0A1.62,1.62,0,0,1,469.67,96.79Zm-6.56-4.54h0a1.6,1.6,0,0,1-.45-2.21h0a1.6,1.6,0,0,1,2.21-.44h0a1.6,1.6,0,0,1,.44,2.21h0a1.6,1.6,0,0,1-1.33.71h0A1.61,1.61,0,0,1,463.11,92.25Zm-6.72-4.32h0a1.58,1.58,0,0,1-.51-2.19h0a1.59,1.59,0,0,1,2.19-.52h0a1.58,1.58,0,0,1,.51,2.19h0a1.59,1.59,0,0,1-1.35.76h0A1.6,1.6,0,0,1,456.39,87.93Zm-6.86-4.09a1.59,1.59,0,0,1-.59-2.17h0a1.59,1.59,0,0,1,2.17-.59h0a1.59,1.59,0,0,1,.59,2.17h0a1.58,1.58,0,0,1-1.39.8h0A1.59,1.59,0,0,1,449.53,83.83Zm-7-3.85h0a1.59,1.59,0,0,1-.66-2.16h0a1.59,1.59,0,0,1,2.15-.66h0a1.59,1.59,0,0,1,.66,2.16h0a1.6,1.6,0,0,1-1.41.84h0A1.57,1.57,0,0,1,442.54,80Zm-7.12-3.62a1.6,1.6,0,0,1-.73-2.13h0a1.59,1.59,0,0,1,2.13-.72h0a1.59,1.59,0,0,1,.74,2.13h0a1.59,1.59,0,0,1-1.43.89h0A1.56,1.56,0,0,1,435.42,76.36ZM428.18,73a1.6,1.6,0,0,1-.8-2.1h0a1.6,1.6,0,0,1,2.1-.81h0a1.6,1.6,0,0,1,.81,2.11h0a1.61,1.61,0,0,1-1.46.94h0A1.75,1.75,0,0,1,428.18,73Zm-7.34-3.14a1.58,1.58,0,0,1-.88-2.07h0a1.59,1.59,0,0,1,2.07-.88h0a1.59,1.59,0,0,1,.88,2.08h0a1.59,1.59,0,0,1-1.47,1h0A1.56,1.56,0,0,1,420.84,69.84ZM413.38,67a1.59,1.59,0,0,1-.94-2h0a1.59,1.59,0,0,1,2-.95h0a1.59,1.59,0,0,1,.95,2h0a1.59,1.59,0,0,1-1.5,1h0A1.66,1.66,0,0,1,413.38,67Z"/><path class="cls-2" d="M531.48,160.55a1.61,1.61,0,0,1-1.13-.47,1.9,1.9,0,0,1-.2-.24,1.77,1.77,0,0,1-.14-.27,1.76,1.76,0,0,1-.12-.61,1.37,1.37,0,0,1,0-.31,1.31,1.31,0,0,1,.09-.3,1.33,1.33,0,0,1,.15-.27,1.39,1.39,0,0,1,.19-.24,1.61,1.61,0,0,1,1.44-.44,1.84,1.84,0,0,1,.29.09,1.89,1.89,0,0,1,.28.15,1.16,1.16,0,0,1,.24.2,1.47,1.47,0,0,1,.2.24,1.85,1.85,0,0,1,.15.27,1.94,1.94,0,0,1,.09.3,1.41,1.41,0,0,1,0,.31,1.74,1.74,0,0,1-.12.61,1.31,1.31,0,0,1-.15.27,1.14,1.14,0,0,1-.2.24,1.16,1.16,0,0,1-.24.2,1.33,1.33,0,0,1-.28.15,1.18,1.18,0,0,1-.29.09A1.36,1.36,0,0,1,531.48,160.55Z"/><polygon class="cls-2" points="523.57 158.58 541.62 175.91 534.65 151.87 523.57 158.58"/><circle class="cls-5" cx="176.61" cy="107.53" r="21.48"/><path class="cls-2" d="M176.61,130A22.42,22.42,0,1,1,199,107.53,22.44,22.44,0,0,1,176.61,130Zm0-43a20.54,20.54,0,1,0,20.54,20.54A20.57,20.57,0,0,0,176.61,87Z"/><path class="cls-6" d="M163.48,107.13v-1.85h3.61a10.65,10.65,0,0,1,10.38-8.23,10.38,10.38,0,0,1,8.54,4.19l-3.14,2.25a6.78,6.78,0,0,0-5.39-2.71,6.65,6.65,0,0,0-6.29,4.5h7.21v1.85Zm14.91,1.73v1.85h-7.18a6.67,6.67,0,0,0,6.26,4.41,6.77,6.77,0,0,0,5.52-2.87l3.11,2.28a10.41,10.41,0,0,1-8.63,4.31,10.62,10.62,0,0,1-10.35-8.13h-3.64v-1.85Z"/><circle class="cls-5" cx="485.92" cy="107.53" r="21.48"/><path class="cls-2" d="M485.92,130a22.42,22.42,0,1,1,22.42-22.42A22.44,22.44,0,0,1,485.92,130Zm0-43a20.54,20.54,0,1,0,20.54,20.54A20.57,20.57,0,0,0,485.92,87Z"/><path class="cls-6" d="M472.79,107.13v-1.85h3.61a10.65,10.65,0,0,1,10.38-8.23,10.38,10.38,0,0,1,8.54,4.19l-3.14,2.25a6.78,6.78,0,0,0-5.39-2.71,6.65,6.65,0,0,0-6.29,4.5h7.21v1.85Zm14.91,1.73v1.85h-7.18a6.67,6.67,0,0,0,6.26,4.41,6.77,6.77,0,0,0,5.52-2.87l3.11,2.28a10.41,10.41,0,0,1-8.63,4.31,10.62,10.62,0,0,1-10.35-8.13h-3.64v-1.85Z"/><rect class="cls-2" x="210.89" y="256" width="237.14" height="4.2"/><path class="cls-7" d="M380.12,294.51V229.73A3.73,3.73,0,0,0,376.4,226H280.67a3.73,3.73,0,0,0-3.72,3.72v64.78a3.73,3.73,0,0,0,3.72,3.72H376.4A3.73,3.73,0,0,0,380.12,294.51Z"/><path class="cls-8" d="M380.13,230.28v64.21a3.75,3.75,0,0,1-3.74,3.74H281.24a4.12,4.12,0,0,1-2.88-.82.07.07,0,0,1,0-.11l100.39-70.37a.07.07,0,0,1,.09,0A3.86,3.86,0,0,1,380.13,230.28Z"/><path class="cls-9" d="M376.4,226a3.73,3.73,0,0,1,3.72,3.72v64.78a3.73,3.73,0,0,1-3.72,3.72H280.67a3.73,3.73,0,0,1-3.72-3.72V229.73a3.73,3.73,0,0,1,3.72-3.72H376.4m0-.89H280.67a4.61,4.61,0,0,0-4.61,4.61v64.78a4.61,4.61,0,0,0,4.61,4.61H376.4a4.61,4.61,0,0,0,4.61-4.61V229.73a4.61,4.61,0,0,0-4.61-4.61Z"/><rect class="cls-5" x="279.93" y="229.85" width="97.21" height="64.54"/><polygon class="cls-2" points="216.14 265.63 185.92 257.53 216.14 249.44 216.14 265.63"/><polygon class="cls-2" points="441.74 265.63 471.95 257.53 441.74 249.44 441.74 265.63"/><path class="cls-10" d="M331.85,23.9a7.35,7.35,0,0,1,7.35,7.35V45.54a7.35,7.35,0,1,1-14.69,0V31.25a7.35,7.35,0,0,1,7.35-7.35m0-4.2a11.54,11.54,0,0,0-11.54,11.54V45.54a11.54,11.54,0,0,0,23.08,0V31.25a11.54,11.54,0,0,0-11.54-11.54Z"/><rect class="cls-6" x="315.06" y="37.75" width="33.58" height="25.18"/><circle class="cls-5" cx="331.85" cy="50.53" r="9.48"/><path class="cls-6" d="M333.43,53a1.57,1.57,0,0,1-1.57,1.57h0A1.57,1.57,0,0,1,330.28,53V47.71a1.57,1.57,0,0,1,1.57-1.57h0a1.57,1.57,0,0,1,1.57,1.57Z"/><circle class="cls-3" cx="86.06" cy="242.81" r="65.72"/><path class="cls-11" d="M163.29,251.42a81.29,81.29,0,0,0-17.22-50.16c-2.34,1.28-4.71,2.52-7.12,3.67a20.28,20.28,0,0,0-10,10.79c-25.91-.76-51.83,1-77.75,1-4.38,0-6.75,1.64-7.79,5.35-1.59-3.33-3.62-4.78-8.7-4.78-9.95,0-18.53,1.07-28.05,1.88a81.65,81.65,0,1,0,156.66,32.27Z"/><path class="cls-12" d="M152.58,289.92a248.62,248.62,0,0,1-62.72,15.29c-1.44.16-17.11-25.41-20-29.19-4.87-6.35-8-12.94-4.49-20.8,1.48-3.33,3.53-6.41,4.62-9.88a27.29,27.29,0,0,0,1.09-7c.21-5,.23-20.4-6.61-21.24a108.9,108.9,0,0,0-13.29-.36,11.17,11.17,0,0,0-3.53.49,42.29,42.29,0,0,0-.35,6.43c0,5.73.83,15.89,4.64,20.43l4.34,5.15a9,9,0,0,1,2.27,3.85c.29,1.48-.41,3.27-1.87,3.65-4.44,1.16-8,1.17-10.34,5.93-1.51,3.06-1.78,6.57-2,10a58.79,58.79,0,0,0,1.08,14.24c1.16,6.68,5.95,26,7.23,30.94-5.46.34-11,.59-17.13,1a81.21,81.21,0,0,0,29.12,12.52s51.48-19.23,54.52-20.46c8.66-3.5,23.89-6,24.39-6.11a81.81,81.81,0,0,0,10.43-15.32Z"/><path d="M133.49,311.22c-6.34.74-11.42,3.59-16.73,6.48l5.42,4.61q3.05-1.75,5.93-3.75l-.26,0a8.12,8.12,0,0,1,4.13-2.86q3-2.32,5.68-4.89C136.38,310.92,135,311,133.49,311.22Z"/><path class="cls-10" d="M54.55,232.49a5.18,5.18,0,0,0,1,3.12c.6.76,2,1.84,2.42,2.78a4.74,4.74,0,0,1-.33,5,11.64,11.64,0,0,0,9-1.67c.51-.35-.64-3.58-.67-4.12-.1-2.16.11-6-1.22-7.85-.56-.76-3.43-.89-7.13-1.11A4.29,4.29,0,0,0,54.55,232.49Z"/><path class="cls-13" d="M64.79,229.77c-.43-.58-2.2-.79-4.66-1a1.9,1.9,0,0,0-.17,1.67c-1,2.46-.76,9.23,1.34,13.14a10.66,10.66,0,0,0,5.38-1.88c.51-.35-.64-3.58-.67-4.12C65.92,235.46,66.12,231.57,64.79,229.77Z"/><path class="cls-14" d="M81.65,333.06a82.38,82.38,0,0,0,10.75-.7,8.78,8.78,0,0,0-2.58-6.3c-2.42-2.41-4.81-.75-8.2-1.21-9.31-1.27-18.38.07-27.21,1.91-.92.19-1.84.4-2.76.61A81.43,81.43,0,0,0,81.65,333.06Z"/><path class="cls-15" d="M67,331.76a82.31,82.31,0,0,0,26.52.44c-1.37-3.24-9.54-5-12.84-4.05C76.32,329.44,71.39,330.63,67,331.76Z"/><path class="cls-16" d="M100.34,316.57c.78,1.82-3.82,2.71-6.4,3-4.64-8.15-9.15-16.76-9.77-26.12a19.81,19.81,0,0,1,1-8.34c.81-2.14,5.69-8.24,7.52-8.16s1.08.43,1.11,1.89C94.2,298.3,97.52,310,100.34,316.57Z"/><path class="cls-2" d="M39.3,284.33c.88-1.38,1.38-2.13,1.93-3,.71-1.11,1.42-2.22,2.1-3.35,2.65-4.44,5.06-9.11,7.44-13.64a2.76,2.76,0,0,1,.81-1.07c1.73-1.17,4.53-1.26,6.53-1.62Q62,261,66,260.46c3.69-.48,7.43-.61,11.11-1.1,3.09-.41,6.17-.85,9.25-1.29,2.33-.33,5.22-1.15,6.78,1.18a10,10,0,0,1,1.23,4.31,111.42,111.42,0,0,0,3.36,16.06c-.13-.42-3.12.47-3.47.56a36.37,36.37,0,0,0-6.31,2.75c0,2.35.06,3.9.06,5.89q0,3.25.32,6.48A29.07,29.07,0,0,0,89.79,301l2,6.58c.35,1.13,2.88,9.45,2.87,11a10.29,10.29,0,0,1-2.29,6c-2.9,3.8-8,6-12.63,5a41.14,41.14,0,0,1-6.15-2.41,24.09,24.09,0,0,0-13.73-1.53c-.06-3.16.12-6-.06-9.13s-.68-6.4-1.17-9.59l-1.28-8.23c-.3-2-.62-3.9-.9-5.87a4.92,4.92,0,0,0-.22-1.54,5.37,5.37,0,0,0-1-.38c-1.54-.47-3-1.36-4.48-1.93A21.63,21.63,0,0,0,44,287.25a5.39,5.39,0,0,1-2.7-.81A5.53,5.53,0,0,1,39.3,284.33Z"/><path class="cls-1" d="M62,263.37a7.29,7.29,0,0,0,.91,6.83,10.46,10.46,0,0,0,5.91,3.86.18.18,0,0,0,.1-.35c-4.31-1.27-8.44-5.45-6.58-10.25.08-.2-.25-.29-.33-.09Z"/><path class="cls-1" d="M77.42,273.19l1.34-.77a.21.21,0,0,0-.22-.37l-1.34.78a.21.21,0,0,0,.21.36Z"/><path class="cls-1" d="M79.83,271.22A3.11,3.11,0,0,0,81,269.59c.1-.32-.39-.45-.49-.14a3.32,3.32,0,0,1-.91,1.46c-.16.15.06.44.23.3Z"/><path class="cls-4" d="M68.29,259.94a4.7,4.7,0,0,0-3.18,2,5.24,5.24,0,0,0-.39,4,6.36,6.36,0,0,0,1.8,3.12,9.52,9.52,0,0,0,4.64,2.29,11.28,11.28,0,0,0,3.15.05,5.27,5.27,0,0,0,1.61-.4,6.22,6.22,0,0,0,3.76-4.14c.82-2.94.54-7-3.28-7.4a30.36,30.36,0,0,0-3.43.11A23.43,23.43,0,0,0,68.29,259.94Z"/><path class="cls-16" d="M76.4,259.49a30.38,30.38,0,0,0-3.43.11,23.44,23.44,0,0,0-4.68.34,4.7,4.7,0,0,0-3.18,2,4.17,4.17,0,0,0-.45,1.1c4.94-.68,9.89-1,14.83-1.54A3.62,3.62,0,0,0,76.4,259.49Z"/><path class="cls-4" d="M70.3,246.48c0,.48,0,1-.1,1.42-.32,1.84-.46,3.71-.79,5.54-.46,2.54-1.15,5-1.78,7.54-.14.57-.6,1.58-.44,2.1.34,1.12,1.91,1.31,2.84,1.49a8.63,8.63,0,0,0,4.65.06c1.91-.75,1.37-2.59,1.33-4.24a25.24,25.24,0,0,1,.63-4.93c.42-2.27,1.14-4.35,1.66-6.59.2-.87.24-.6-.43-.9a12.77,12.77,0,0,0-1.44-.52c-.81-.25-1.67-.32-2.48-.57-1-.31-2.87-3-3.48-1.3A3.36,3.36,0,0,0,70.3,246.48Z"/><path class="cls-16" d="M73.82,257.56c-.07.18-.14.36-.2.54a.2.2,0,0,0,.14.24.2.2,0,0,0,.24-.14c.07-.18.13-.36.19-.54a.2.2,0,0,0-.14-.24.2.2,0,0,0-.24.13Z"/><path class="cls-16" d="M74.76,255.93a5.43,5.43,0,0,0,.52-1.78c0-.37-.54-.37-.58,0a6.24,6.24,0,0,1-.37,1.6c-.09.25.31.42.43.18Z"/><path class="cls-1" d="M41.26,286.44a5.39,5.39,0,0,0,2.7.81,21.63,21.63,0,0,1,6.82,1.81c1.51.57,2.94,1.46,4.48,1.93.35.11.6.29,1,.38a8.81,8.81,0,0,0,3.15.17c-6-6.93-11.63-7.72-20.07-7.21A5.53,5.53,0,0,0,41.26,286.44Z"/><path class="cls-16" d="M77.88,248a12.77,12.77,0,0,0-1.44-.52c-.81-.25-1.67-.32-2.48-.57-1-.31-2.87-3-3.48-1.3a3.36,3.36,0,0,0-.17.91c0,.48,0,1-.1,1.42-.18,1-.3,2.1-.44,3.15a24.73,24.73,0,0,0,7.33,2.41c.39-1.53.85-3,1.21-4.59C78.52,248,78.56,248.27,77.88,248Z"/><path class="cls-12" d="M142.24,216.73c-1.93-.19-3.86-.33-5.8-.49-.55-.36-.6-1.26-.51-2a30.34,30.34,0,0,1,2.71-9.19A20.29,20.29,0,0,0,129,215.6l0,.12a21.73,21.73,0,0,0,6.51,1c2.27.11,4.54.15,6.8.25C142.42,217,142.41,216.75,142.24,216.73Z"/><path class="cls-4" d="M79,250.1h0A16.55,16.55,0,0,1,62.6,233.52V216.79A16.26,16.26,0,0,1,79,200.56h0c4.06,0,11.58,3.26,13.46,13,0,0,3,11.12,3,20A16.56,16.56,0,0,1,79,250.1Z"/><path class="cls-10" d="M77,195a33.86,33.86,0,0,1,13.52,3,48.29,48.29,0,0,0,12.88,3.13c1,.12,5.37.55,6.39.62,2.81.48,1.92,5-1.54,3.68-1.73-.84-3.92-.95-5-.31a1.49,1.49,0,0,0-.18,2.17c.47.55,1,1.27.7,1.95-.19.49-1.34,1.35-1.73,1.7-2.32,2.06-1.17,4.09,1.84,5.68,0,1.17-1.58,3.48-3.17,3.48-1.33,0-5.8-1.77-7.09-1.77l-.94-3.88a61.84,61.84,0,0,1-10.26-6.21c-4.57-3.45-8.23-.55-8.66,3.08-5.53-1.45-8.49,2.55-7.07,9.25.44,2.06,2.08,4.38.49,5.77-1.91,1.67-4.79,1.44-7.29,1A12.15,12.15,0,0,1,53,223.89a10.53,10.53,0,0,1,3.88-16.46c2.3-1,4.52-1.2,6.62-2.55C64.78,198.67,69.65,195,77,195Z"/><path class="cls-10" d="M62.24,192.28a19.21,19.21,0,0,0-1,6.29,8.7,8.7,0,0,0,.89,3.48,6.38,6.38,0,0,0,4,3.57c2.8,1.09-1.23,3.77-3.11,3.15A5.8,5.8,0,0,1,59.6,205C58.32,200.81,59.73,195.71,62.24,192.28Z"/><path class="cls-17" d="M79.32,220.53a11.27,11.27,0,0,0-5.28.26c-.28.09-.17.43.12.38a16.71,16.71,0,0,1,1.77-.22c-.09.16-.16.35-.23.5a4.12,4.12,0,0,0-.47,1.84.56.56,0,0,0,.23.41,7.36,7.36,0,0,0-1.25.16c-.29.1-.18.45.13.4a12.26,12.26,0,0,1,3.31-.1c.41,0,.41-.54,0-.56a7.07,7.07,0,0,0-.73,0h0a23.69,23.69,0,0,0,.24-2.67,11.52,11.52,0,0,1,1.95.22C79.59,221.24,79.78,220.61,79.32,220.53Z"/><path class="cls-17" d="M89.23,221.82a24.23,24.23,0,0,0-4.19-.69.23.23,0,0,0-.07.45c.35.11.71.21,1.07.3a4.93,4.93,0,0,0-.78,1.85.57.57,0,0,0,.14.53,7.48,7.48,0,0,0-.84,0,.2.2,0,1,0,0,.4,16.75,16.75,0,0,1,3.1.26c.34.06.48-.37.14-.45a5.08,5.08,0,0,0-.91-.1v0a8.3,8.3,0,0,0,.16-1.22,3,3,0,0,0,.09-1l1.84.39C89.54,222.65,89.77,221.94,89.23,221.82Z"/><circle class="cls-4" cx="59.69" cy="226.51" r="4.8"/><path class="cls-17" d="M58.52,224.52a2,2,0,0,0-1.06,2.76c.08.18.38.05.32-.13a1.62,1.62,0,0,1,.76-2c.55-.26,2.09-.18,2.52.49a1.57,1.57,0,0,0-1.65.86,1.19,1.19,0,0,0,.67,1.58c.37.15.55-.46.17-.61-.63-.24-.25-.95.07-1.14a1.55,1.55,0,0,1,1.07-.07.29.29,0,0,0,.37-.28C61.68,224.59,59.57,224.12,58.52,224.52Z"/><path class="cls-17" d="M72.82,238.11a6.15,6.15,0,0,0,4.39,3.39,7.93,7.93,0,0,0,6.07-.39c.63-.36.07-1.29-.56-1a7.49,7.49,0,0,1-5.21.32,6.8,6.8,0,0,1-4.14-2.66.31.31,0,0,0-.53.31Z"/><path class="cls-4" d="M67.53,202.23a11.87,11.87,0,0,1,5.65-4,10.24,10.24,0,0,1,7.69.84c.57.3,1.08-.57.51-.87C76.44,195.67,70,197,67.15,201.94c-.13.23.2.5.38.29Z"/><path class="cls-4" d="M54,214.78a7.55,7.55,0,0,1,7.77-4.7.45.45,0,1,0,.12-.9,7.89,7.89,0,0,0-8.44,5.44c-.1.36.41.48.55.15Z"/><path class="cls-4" d="M60.86,205.75a6.67,6.67,0,0,1-2.35-3.88,9.49,9.49,0,0,1,.88-5.41.36.36,0,1,0-.66-.28,10.19,10.19,0,0,0-.84,5.86,5.75,5.75,0,0,0,2.71,4.07c.22.11.48-.18.28-.36Z"/><path class="cls-4" d="M96.64,201.52a54.48,54.48,0,0,0,15.26,1.87.37.37,0,0,0,0-.75A66.61,66.61,0,0,1,96.78,201a.26.26,0,0,0-.14.49Z"/><path class="cls-4" d="M99.29,207.44a12.75,12.75,0,0,0,4.82.82.46.46,0,0,0,0-.93,20.29,20.29,0,0,1-4.62-.59.37.37,0,0,0-.19.7Z"/><path class="cls-4" d="M97.93,213.29a12.81,12.81,0,0,0,4.25,2.21.48.48,0,0,0,.25-.92,13.05,13.05,0,0,1-4-2c-.39-.28-.91.37-.52.68Z"/><path class="cls-1" d="M85.74,324.81c-4.05-.25-6.29,1.41-9.84-1.06a20.78,20.78,0,0,0-5.34-2.58c-1.53-.48-1.95.39-3.18.35-2.74-.1-2.65-6.58-3-8.6-.68-3.78-.9-7.45-1.25-11.29-.52-5.66-1.95-11-2.38-16.68-.57,2.87-1.17,5.08-1.37,6.58a8.81,8.81,0,0,1-3.15-.17,4.92,4.92,0,0,1,.22,1.54c.28,2,.6,3.9.9,5.87L58.62,307c.49,3.18,1,6.37,1.17,9.59s0,6,.06,9.13a24.09,24.09,0,0,1,13.73,1.53,41.14,41.14,0,0,0,6.15,2.41,12.26,12.26,0,0,0,9.37-2A3.52,3.52,0,0,0,85.74,324.81Z"/><path class="cls-1" d="M53.88,290.46l.33.14Z"/><path class="cls-4" d="M45,284.25c-.17.63-.4,1.39-.63,2a52.19,52.19,0,0,0-1.6,5.8Q42,295.51,41.23,299c-.33,1.48-1.56,4.4-1.08,5.91a2.68,2.68,0,0,0,.76,1l1.76,1.74c2.15,2.12,4.5,2,7.25,1.17,5.07-1.59,10-3.56,15.09-5.1,3.26-1,6.34-2.31,9.63-3.24,2.74-.77,5.48-1.7,8.23-2.42,1.74-.46,7-1.94,8.78-1.21.58.24,1.13,1.37,1.8,1.78,1.9,1.15,3.09.71,4.17.72,1.24,0,3.34-.45,3.69.09.52.8.85,1.33-1.28,3.08-1.12.92-.85,1.77.09,1.37a5.47,5.47,0,0,0,3.27-3,5.29,5.29,0,0,1-.66,3.45c-.62,1.28.19,2.18.62,1.66a9.37,9.37,0,0,0,2.35-6.58,10.23,10.23,0,0,1,1.08,3.87c.22,1.06.32,2,1.4,2.14.67.11.1-4.13-.05-4.89-.36-1.78-.19-1.93-1.06-3.56-1.5-2.81-1.71-2.47-3.57-3.44-2.49-1.29-8.27-3.62-11.08-3.23-3.06.42-4.64.54-7.66,1.21-2.47.55-4.85,1.31-7.32,1.85-3.66.81-7.37,1.23-11,2.15-3,.74-5.89,1.27-8.87,1.94-1.58.36-3.41.36-4.91,1,.43-1.08.52-2.39.87-3.52a34.79,34.79,0,0,0,1.84-7.13c0-.26-2.74-1.8-5-2.57a27.31,27.31,0,0,0-3.29-.72A14.41,14.41,0,0,0,45,284.25Z"/><path class="cls-16" d="M52.64,298.39l-7.07,2.09a6.7,6.7,0,0,1,2.92-2.5,11.75,11.75,0,0,1,4.61-1.37s-.14.53-.22.88C52.77,298,52.64,298.39,52.64,298.39Z"/><path class="cls-13" d="M103.16,218.42c-1.72-.75-3.54-1.18-5.24-2-2.73-1.26-5.5-2.37-7.85-4.26s-5.7-5.45-8.6-6.9a5,5,0,0,0-5.1.27c-1.61,1.07-3.09,3.55-2.33,4.55h0c1-3,4.34-4.93,8.38-1.87a61.87,61.87,0,0,0,10.26,6.21l.94,3.88c1.29,0,5.75,1.77,7.09,1.77A3.4,3.4,0,0,0,103.16,218.42Z"/><path class="cls-18" d="M130.86,313.49c-1.37-1.44-1.73-1.28-3.71-1.4a24.1,24.1,0,0,0-5.92.6l-24.55,4.58c-2.06.38-8.49,1.1-9.36,1.5-.68.31-3.8,5.65-2.26,9.72a10,10,0,0,0,3.15,4.3,81.21,81.21,0,0,0,43.71-17A5.16,5.16,0,0,0,130.86,313.49Z"/><path class="cls-14" d="M130.86,313.49c-1.37-1.44-1.73-1.28-3.71-1.4a16.68,16.68,0,0,0-3.33.16l-.61.09h-.07l-.58.1h-.08l-.58.1h-.07l-.59.11-8.9,1.66-15.64,2.92c-2.06.38-8.49,1.1-9.36,1.5l-.07,0,0,0-.05,0,0,0-.05.05,0,0-.05.06-.05.06,0,.06-.06.09h0c-.1.14-.2.29-.31.47v0l-.11.18v0l-.11.2h0a13.69,13.69,0,0,0-.6,1.24c4.36-.29,8.72-.12,13.12-.38A93.33,93.33,0,0,0,109,319.6c5-.84,10-1.54,14.88-2.62a9.33,9.33,0,0,1,3.7-.34,4.94,4.94,0,0,1,2.14.8q1.14-.83,2.24-1.69A5.17,5.17,0,0,0,130.86,313.49Z"/><path class="cls-10" d="M86.49,216.5a9.59,9.59,0,0,0-3.6,4.86,11,11,0,0,0-.58,5.5c.09.79.19,1.94.17,2.42-.05,1.72.07,2.91.07,4.26,0,.52-1,.62-1.57.65s-1.12-.63-1.55-.36-.09.76.24,1a4.73,4.73,0,0,0,2.48.47c.39,0,1.36-.25,1.53-.65a3.7,3.7,0,0,0,.19-1.39,56.21,56.21,0,0,0-.91-6.61,10.64,10.64,0,0,1,.23-5.13,11.1,11.1,0,0,1,1.35-2.64,19.23,19.23,0,0,1,2.07-2.29A.09.09,0,0,0,86.49,216.5Z"/><path class="cls-5" d="M83.5,319.52c17.08-1.79,32.21-4.65,49.3-6.44.71-.7,1-2.36.14-2.92s-3.79,1-4.79,1.06a85.38,85.38,0,0,0-15.48,1.67c-6.29,1.06-12.39,2.07-18.48,3.23-3.21.61-7.48,1.06-10.69,1.67C83,317.89,83.19,319.17,83.5,319.52Z"/><path class="cls-19" d="M132.94,310.16c-.82-.56-3.79,1-4.79,1.06a85.37,85.37,0,0,0-15.48,1.67l-4.07.68a3,3,0,0,0,.47,2.6c7.74-1.12,15.51-2.23,23.72-3.09C133.51,312.38,133.76,310.72,132.94,310.16Z"/><path class="cls-5" d="M135.22,309.67a269.63,269.63,0,0,1,5.53-34.88,1.08,1.08,0,0,0-.86-1.38,174.86,174.86,0,0,0-22.7.06,1.54,1.54,0,0,0-1.33,1.41l-5,37.21a1.55,1.55,0,0,0,1.71,1.89c7.19-1.75,14-2,21.38-2.81A1.57,1.57,0,0,0,135.22,309.67Z"/><path class="cls-19" d="M127,288a2.77,2.77,0,0,0-2.81,2.29,2.91,2.91,0,0,0,1.87,3.12,2.49,2.49,0,0,0,3.2-1.77c.37-1.16.2-2.78-1.13-3.18a.5.5,0,0,0-.27,1c1.48.45.17,4.08-1.84,2.94-1.84-1-.86-3.47,1-3.71a.32.32,0,0,0,0-.64Z"/><path class="cls-19" d="M129.07,286.65a30,30,0,0,0-5.21,7.15c-.22.39.38.74.6.35q1.07-1.92,2.31-3.74c.82-1.21,1.78-2.32,2.6-3.53.12-.18-.14-.36-.29-.23Z"/><path class="cls-17" d="M72.71,215.84c1.31,0,2.6-.41,3.93-.42a22.55,22.55,0,0,1,4,.34.9.9,0,1,0,.24-1.77,16.07,16.07,0,0,0-4.24.13,11.17,11.17,0,0,0-4.06,1.15.31.31,0,0,0,.16.58Z"/><path class="cls-17" d="M86.4,216.73a28.75,28.75,0,0,1,4,1.4c.58.25,1.34-.48.75-1a11.81,11.81,0,0,0-4.22-2.28,1,1,0,0,0-.51,1.86Z"/><circle class="cls-10" cx="77.68" cy="227.21" r="0.65"/><circle class="cls-10" cx="78.22" cy="229.38" r="0.65"/><circle class="cls-10" cx="75.26" cy="228.65" r="0.73"/><circle class="cls-10" cx="85.87" cy="227.59" r="0.65"/><circle class="cls-10" cx="86.94" cy="229.76" r="0.59"/><circle class="cls-10" cx="89.24" cy="228.88" r="0.73"/><circle class="cls-9" cx="328.53" cy="227.97" r="1.24"/><polygon class="cls-20" points="323.09 288.97 323.09 234.38 361.57 234.38 362.33 235.15 362.33 289.74 323.85 289.74 323.09 288.97"/><rect class="cls-9" x="323.09" y="234.38" width="38.48" height="54.59"/><polygon class="cls-19" points="354.85 282.25 361.18 282.25 354.85 288.58 354.85 282.25"/><polygon class="cls-9" points="361.18 288.58 354.85 288.58 361.18 282.25 361.18 288.58"/><rect class="cls-5" x="326.95" y="239.8" width="30.76" height="1.2"/><rect class="cls-5" x="326.94" y="243.04" width="21.75" height="1.2"/><path class="cls-5" d="M332.34,270.75v-9.12c2.72,1.73,6.26,6.78,8.16,9.27Z"/><path class="cls-5" d="M340.49,270.9h13.8c-2,2.21-4.17,3.5-6.81,3.5A8.54,8.54,0,0,1,340.49,270.9Z"/><path class="cls-11" d="M332.35,278.9a.26.26,0,0,1-.26-.26v-23a.26.26,0,1,1,.53,0v23A.26.26,0,0,1,332.35,278.9Z"/><path class="cls-11" d="M357.71,271.15H326.94a.26.26,0,0,1,0-.53h30.77a.26.26,0,1,1,0,.53Z"/><path class="cls-21" d="M347.48,274.78c-4.31,0-6.64-2.31-10.55-7.85-3.32-4.7-5.84-6.29-10-6.29a.4.4,0,0,1,0-.79c4.4,0,7.18,1.73,10.64,6.63,4.17,5.9,6.29,7.51,9.9,7.51s7.21-3,9.87-8.32a.4.4,0,0,1,.71.36C355.26,271.58,351.4,274.78,347.48,274.78Z"/><path class="cls-21" d="M342.5,259a1.3,1.3,0,0,1-1.18-.76,1.65,1.65,0,0,1,.08-1.4,2.42,2.42,0,0,1,1.48-1.29.22.22,0,0,1,.27.16.21.21,0,0,1-.15.27,1.6,1.6,0,0,0-1.17,1.48.73.73,0,0,0,.54.85.9.9,0,0,0,1-.52,6.82,6.82,0,0,0,.24-2.58c0-.43,0-.81-.08-1.16a5.7,5.7,0,0,1-.74.52h0a.1.1,0,0,1-.13,0,.1.1,0,0,1,0-.13,9.83,9.83,0,0,0,.82-.72l-.06-.52c0-.4-.09-.78-.12-1.21l0-.34a6.81,6.81,0,0,1,0-2.28.79.79,0,0,1,.67-.58.7.7,0,0,1,.58.22,3.45,3.45,0,0,1,.54,2.32,4.11,4.11,0,0,1-1.22,2.43l.06.6.1,1a5.86,5.86,0,0,1-.26,2.78,1.42,1.42,0,0,1-1.27.92Zm1.52-9.59c-.22,0-.34.14-.38.43a17.59,17.59,0,0,0,.07,1.93c0,.55.09,1,.13,1.52a3.38,3.38,0,0,0,.76-3.37c-.11-.24-.34-.51-.57-.51Z"/><path class="cls-21" d="M347,257.43a.23.23,0,0,1-.19-.11c-1.1-1.7-1.41-4.27.14-5.88h0l.05-.05.12.1,0,.07c-1.35,1.7-.78,4,.13,5.53a.22.22,0,0,1-.07.31A.25.25,0,0,1,347,257.43Z"/><path class="cls-21" d="M349.83,255.43a.2.2,0,0,1-.12,0c-.27-.2-.53-.44-.78-.66l-.28-.25-.29-.25a7,7,0,0,1-.83-.78h0a.15.15,0,0,1,0-.19.14.14,0,0,1,.18,0,6.59,6.59,0,0,1,.84.63l.25.21.34.27c.28.22.58.45.84.71a.22.22,0,0,1,0,.31A.21.21,0,0,1,349.83,255.43Z"/><path class="cls-21" d="M347.65,255.54h0l-.08,0a.12.12,0,0,1,0-.09.1.1,0,0,1,0-.08l.07-.08c.63-.75,1.28-1.53,1.89-2.32a.2.2,0,0,1,.19-.09.21.21,0,0,1,.16.13.2.2,0,0,1,0,.21,25.85,25.85,0,0,1-2.1,2.33Z"/><path class="cls-21" d="M351.21,257a.23.23,0,0,1-.11,0,.23.23,0,0,1-.1-.31,4.4,4.4,0,0,0-.79-5.41.11.11,0,0,1,0-.15.11.11,0,0,1,.15,0,4.31,4.31,0,0,1,1,5.82A.22.22,0,0,1,351.21,257Z"/><path class="cls-21" d="M355.51,254.73a1.28,1.28,0,0,1-.88-.37,1.21,1.21,0,0,1,1.31-1.95h0a.12.12,0,0,1,.07.08.23.23,0,0,1,.25.16c.17.46.34,1.45-.16,1.88A.9.9,0,0,1,355.51,254.73Zm.13-2.1a.91.91,0,0,0-.85.44.83.83,0,0,0,.13,1,.8.8,0,0,0,.69.19.37.37,0,0,0,.27-.26,2.37,2.37,0,0,0,0-1.11l0-.1a.25.25,0,0,1,0-.13Z"/><path class="cls-21" d="M356.92,254.54a.18.18,0,0,1-.15-.08,7.1,7.1,0,0,1-1.32-3.94.14.14,0,0,1,.09-.14.14.14,0,0,1,.12,0,.13.13,0,0,1,.06.09,16.21,16.21,0,0,0,1.35,3.81.18.18,0,0,1-.07.24Z"/><path class="cls-21" d="M359.38,254.06a.22.22,0,0,1-.14-.06l-.52-.44a8.41,8.41,0,0,1-1.29-1.22.11.11,0,0,1,0-.13.1.1,0,0,1,.13,0,4.77,4.77,0,0,1,.74.52l.22.17.69.54.33.26a.19.19,0,0,1,.07.18.24.24,0,0,1-.15.18Z"/><path class="cls-21" d="M357.79,254.19h0a.14.14,0,0,1-.09-.15,9.21,9.21,0,0,1,1-2.36.21.21,0,0,1,.19-.11.24.24,0,0,1,.21.12.2.2,0,0,1,0,.21c-.28.43-.51.89-.74,1.34-.15.29-.31.6-.47.89A.09.09,0,0,1,357.79,254.19Z"/><path class="cls-21" d="M335.92,259.84a1,1,0,0,1-.24,0,.63.63,0,0,1-.49-.75.28.28,0,0,1,.26-.22.32.32,0,0,1,.33.21l0,.07c0,.12.06.17.13.18a.76.76,0,0,0,.62-.23c.79-.81.56-3.47.46-4.6,0-.14,0-.27,0-.36,0-.68-.12-1.37-.18-2s-.14-1.5-.19-2.25l0-.24c-.06-.66-.13-1.56.43-2a1.1,1.1,0,0,1,1.34-.06h0a.3.3,0,0,1,.14.3.34.34,0,0,1-.23.27A.28.28,0,0,1,338,248l-.08-.09a.67.67,0,0,0-.12-.14.35.35,0,0,0-.34,0c-.59.3-.43,1.87-.38,2.39v.13c0,.53.1,1.06.16,1.58l.05.52a33.36,33.36,0,0,1,.24,3.53v.25c0,1.26,0,3.59-1.59,3.69Z"/><path class="cls-9" d="M375.36,249.54A24.56,24.56,0,1,1,399.92,225,24.59,24.59,0,0,1,375.36,249.54Z"/><path class="cls-2" d="M375.36,201.68A23.31,23.31,0,1,1,352.05,225a23.31,23.31,0,0,1,23.31-23.31m0-2.51A25.82,25.82,0,1,0,401.18,225a25.85,25.85,0,0,0-25.82-25.82Z"/><path class="cls-21" d="M387.66,232.45c-.17,0-.17,0-.34-.11L375,226.48V206.55a1.06,1.06,0,1,1,2.1,0V225l11.11,5.22a1.19,1.19,0,0,1,.56,1.59A1.21,1.21,0,0,1,387.66,232.45Z"/><circle class="cls-11" cx="572.85" cy="251.05" r="61.67"/><path class="cls-5" d="M618.45,258.47c8.84,2.95,14.62,9.09,14.62,18.55s-16,35.14-16,35.14l-4.31-3.41Z"/><path class="cls-2" d="M630.39,274.47c0,8.65-2,14.51-9.3,27.45a77.47,77.47,0,0,0-8.36,20.65l3.64-.82a70.42,70.42,0,0,1,6.81-16.49c5.81-10.31,13-16.53,13-29.47s-8.41-17.64-14.39-19.18a22.83,22.83,0,0,0-11.47.13s-.3,4,1.47,3.78C622.75,259.38,630.39,267.44,630.39,274.47Z"/><path class="cls-6" d="M595.91,243.14c-1.86.43-9.78,2.38-11.49,3s-2.66.7-3.94,1.89c-1.62,1.51-3.4,5.73-5.28,9.07-3.59,6.38-8.14,14.45-12.54,20.26a1.92,1.92,0,0,0-2.15-.26,13.75,13.75,0,0,0-2.9,2.32,2.71,2.71,0,0,0-.13,2.56,12.48,12.48,0,0,0,5.65,6.67,4.42,4.42,0,0,0,3.13.53,11.3,11.3,0,0,0,3.39-2.45c.35-.36.66-.71.63-1.07a2.26,2.26,0,0,0-.31-.85c4.76-.38,10.06-9.91,11.9-11.5.16,2.09,1.16,3.44,1.94,6.58,1.09,4.35,1.45,16.37,1.74,19.95.41,5,5.3,13.78,7.62,18.24,4,7.65,20,2.83,21.2-1.4,2.62-8.95.31-23.31,4-36.18s4.47-23.18,3.81-27.58c-.26-1.7-.24-2.82-2.43-4.25-3.29-2.15-11.16-3.23-14.63-4.92A14.22,14.22,0,0,0,595.91,243.14Z"/><path class="cls-22" d="M603.56,273.08c-.77,2.6-.59,3.89-2.1,5-1.28,1-14.82,0-18.83-1.77,2.14,5.21,2.5,16.13,2.65,19.57.23,5.24.67,5.56,1.13,11.61,5.38,4.66,21,12.29,24.21,10.9-2.13-2,5.17-9.18,5.18-11,0-5.14.6-16.19,1.15-20.52.49-3.8,2-7.29,2.54-11,.22-1.6,2.27-10.76,2.49-12.26-2.2,2.78-2.4,5.75-4.5,8.82-1.66-.7-9.07-7.18-11.11-5C604.66,269.13,604.22,270.82,603.56,273.08Z"/><path class="cls-4" d="M596,234.56c-.58-.28.09,7.53-.27,9.17-1.86.91-2.5,2-2.5,3.5,0,2.2,2.51,4.15,5.73,4.15,4.27,0,7.16-2.66,7.16-5.07a1.7,1.7,0,0,0-.91-1.71,5.12,5.12,0,0,1-2-2.31c-1.32-2.93-.4-7.78,0-11.9C601,229.28,597.58,233,596,234.56Z"/><path class="cls-22" d="M565.79,285.61c0,.91,2.06,1.44,2.68,1.18a35.35,35.35,0,0,0,6.5-4.92c2.66-2.56,4.77-6.23,6.9-8.57-.17-2.83.75-5.79,1.43-9.21a37.44,37.44,0,0,0-4.7,5.47C576.07,273.56,565.84,284.7,565.79,285.61Z"/><path class="cls-6" d="M610,261.67c-1.09,2.12-1.84,6.25-2.39,9.2-1.26,6.72-.4,8.24-3.91,16.08a4.1,4.1,0,0,0-2.36,1.76,13.7,13.7,0,0,0-1.22,3.45c-.31,1.49.53,4.28,5.08,6.22,3.92,1.67,6.76,1.46,8.76.41a7.35,7.35,0,0,0,2.85-3.8c.34-1,1-3.32-.07-4.55,1-3.05,1.76-5.94,2.66-9.51a94.33,94.33,0,0,0,3-22.69c0-3.44-.35-4-1.91-6.72-.66-1.16-6.32,3.48-7.49,4.74S610.74,260.29,610,261.67Z"/><path class="cls-10" d="M516.46,294.18A81.41,81.41,0,0,0,640,309.33Z"/><path class="cls-13" d="M517.33,295.46a81.88,81.88,0,0,0,20.94,21.11c2.11-2.28,3.83-4.08,3.83-4.08l22.66,2.61a4.48,4.48,0,0,0,3.65-1.35l10.26-11.94-60.06-7.36Z"/><path class="cls-16" d="M596.85,238.87a16.25,16.25,0,0,0,5.69-2c.1-2,.43-4.2.66-6.51-2.21-1.12-5.61,2.65-7.22,4.17-.32-.15-.26,2.09-.2,4.43Z"/><path class="cls-4" d="M609.67,212.41c0,8.84-7.17,24.31-16,24.31s-14.22-12.25-14.22-24.28c0-8.84,5.37-16,14.22-16A16,16,0,0,1,609.67,212.41Z"/><ellipse class="cls-17" cx="594.54" cy="215.23" rx="0.98" ry="1.24"/><ellipse class="cls-17" cx="583.73" cy="215.23" rx="0.98" ry="1.24"/><path class="cls-14" d="M622.19,199.3a9.77,9.77,0,0,0-15.27-8.08c-2.43-1.72-5.77-2.75-10.21-2.75a26.05,26.05,0,0,0-14.59,4c-5.93,3.47-10.8,11-8.46,13l.12.09a16.2,16.2,0,0,0-.87,9.35h0a15.75,15.75,0,0,1,1.85-8.65,9,9,0,0,0,5.24,1.11,17.62,17.62,0,0,1,2.28-5.14c1.62-2.3,2.69-2.47,6.73-2.36,1-.7,3-2.76,4-2.93a22.61,22.61,0,0,0-1.06,3.14c6.42.71,9.58,1.87,11.68,3.54l.12.25c.08,2.1-.75,7.34-1.79,11.86,1.71.32,2.9-1.9,3.11-4.08,1.33.67,4.54,2.43,4.41,4.68-.1,1.79-1.08,2.24-3.78,3.84a10.61,10.61,0,0,0,2.71-.35c-.09.31-.19.65-.3,1a6.21,6.21,0,0,1-2.46,1.25,2.12,2.12,0,0,0,2,0,34.58,34.58,0,0,1-2.26,4.94,6.69,6.69,0,0,0,1.16,2.1c.2.25.35.12.24-.19a5.58,5.58,0,0,1-.31-2.41.27.27,0,0,1,.23-.23,11.67,11.67,0,0,0,2,2.11c.34.25.44.13.19-.22a5.6,5.6,0,0,1-1.08-2.69c2.26.26,7.34.47,10.35-3.32a11.36,11.36,0,0,1-3.69-6.7s1,3.9,4.15,3.1c-2.8-2.35-3.88-5.83-4.64-9.68A9.77,9.77,0,0,0,622.19,199.3Z"/><circle class="cls-4" cx="608.75" cy="213.74" r="4.4"/><path class="cls-17" d="M607.69,213.34c.3-.1.59-.24.9,0a.72.72,0,0,1,.25.8.39.39,0,0,0,.75.21,1.39,1.39,0,0,0-.59-1.62,1.26,1.26,0,0,0-1.62.24.28.28,0,0,0,.32.41Z"/><path class="cls-10" d="M586.68,222.39a.09.09,0,0,0,0-.18.09.09,0,0,0,0,.18Z"/><path class="cls-19" d="M573,209.06a18.8,18.8,0,0,1,7.54-11.8c.45-.31-.08-1-.51-.68A18.57,18.57,0,0,0,572.74,209a.11.11,0,0,0,.22,0Z"/><path class="cls-10" d="M588.28,222.88c-.41.2-1.1.88-1.11.08,0-2.33.63-3.54,1-5.69a33.77,33.77,0,0,0,.88-5.38c-.08-1.87-.37-2.6-1.91-3.42-.31-.17-1.41.28-.6.52,1.22.36,1.81,1.14,1.78,2.74s-1.47,7.23-2.38,11.34a.93.93,0,0,0,.31.87c.21.17,1.4-.41,2.08-.06,1.14.58,1.63-.16,1.59-.55S589.4,222.32,588.28,222.88Z"/><path class="cls-9" d="M585.23,226.89a21.81,21.81,0,0,0,13.56-.46c-1.66,3.1-4.33,6.41-7,6.41C589.75,232.85,586.77,229.72,585.23,226.89Z"/><path class="cls-10" d="M585.11,226.83a15.78,15.78,0,0,0,6.67,1.21,21.64,21.64,0,0,0,6.87-1.11.28.28,0,1,0-.16-.53,22.69,22.69,0,0,1-6.75,1.1,23.17,23.17,0,0,1-6.48-.84c-.12,0-.27.09-.15.18Z"/><path class="cls-17" d="M595.4,208.63a6.61,6.61,0,0,1,3.11,1.66c.5.55,1,0,.62-.66-1-1.82-4.38-2.78-6.83-2A1.11,1.11,0,0,0,592,209,6.58,6.58,0,0,1,595.4,208.63Z"/><path class="cls-17" d="M587.26,207.85a3.14,3.14,0,0,0-2.78-.59c-1.12.14-3.07.53-3.8,1.54-.38.53,0,1.1.39.58,1-1.31,4-1.09,5.47-.4.27.13.56-.19.6-.52Z"/><path class="cls-19" d="M597.25,190.65a9.08,9.08,0,0,1,10,5.11c.18.38.73,0,.56-.33a9.06,9.06,0,0,0-10.61-5.06.14.14,0,0,0,.08.27Z"/><path class="cls-19" d="M609.7,192.12a9.08,9.08,0,0,1,10,5.11c.18.38.73,0,.56-.33a9.05,9.05,0,0,0-10.61-5.06.14.14,0,0,0,.08.27Z"/><path class="cls-21" d="M600.9,180.53a1.08,1.08,0,0,1,.57-1.3,1.19,1.19,0,0,1,1.56.31c.42.73-.27.82.18,1.66,1.8,3.32,5.26,10.35,5.26,10.35l-.2.13-.68-.48s-5.09-8.9-5.4-9.56S601.12,181.11,600.9,180.53Z"/><polygon class="cls-9" points="602.32 181.9 602.81 182.75 603.77 182.28 603.3 181.36 602.32 181.9"/><path class="cls-9" d="M601.7,179.84a.71.71,0,0,1,.57.12.27.27,0,0,0,.37-.1.28.28,0,0,0-.1-.37,1,1,0,0,0-1-.09.24.24,0,0,0-.1.3.25.25,0,0,0,.28.14Z"/><path class="cls-19" d="M583.58,194.62a3.64,3.64,0,0,0-1.47.71c-.31.24.08.74.36.48a4.54,4.54,0,0,1,1.21-.79c.21-.09.14-.46-.1-.41Z"/><path class="cls-19" d="M498.73,240.23l64.79,1.85a3.22,3.22,0,0,1,3.13,3.13l1.8,61.31c.06,2-2.7,3.33-2.7,3.33l-65.35-8a3.22,3.22,0,0,1-2.82-3.07l-2.76-56.81S496.87,240.18,498.73,240.23Z"/><path class="cls-5" d="M497.15,241l64.79,1.85a3.22,3.22,0,0,1,3.13,3.13l1.8,61.31a3.22,3.22,0,0,1-3.62,3.29l-64.43-8a3.22,3.22,0,0,1-2.82-3.07l-2.15-55.16A3.22,3.22,0,0,1,497.15,241Z"/><path class="cls-19" d="M525.74,291.43c0-9.12,6.33-12.68,9.49-15.05v-1.64l-12.5-.81a19.56,19.56,0,0,0-9.65,16.79V311.8c0,2.95-.5,7,3.51,8.61,1.28.2,8.46,1.48,11.82,1.48s7.61-3.72,9.2-5.84v-1.58c-1.58,1.77-5.83,5.72-8,5.72-2.46,0-3.89-2.26-3.89-7Z"/><path class="cls-5" d="M525.74,313.22c0,4.71,1.42,7,3.89,7,2.14,0,6.4-3.95,8-5.72l-11.87-1.57Z"/><path class="cls-23" d="M569.23,319.38l9-9.82a3.4,3.4,0,0,1,2.94-1.08l26.62,3.36a1.71,1.71,0,0,1,1.2,2.65l-7.06,10.45a3.4,3.4,0,0,1-3.32,1.46l-28.34-4.18A1.71,1.71,0,0,1,569.23,319.38Z"/><path class="cls-21" d="M569.23,318.38l9-9.82a3.4,3.4,0,0,1,2.94-1.08l26.62,3.36a1.71,1.71,0,0,1,1.2,2.65l-7.06,10.45a3.4,3.4,0,0,1-3.32,1.46l-28.34-4.18A1.71,1.71,0,0,1,569.23,318.38Z"/><path class="cls-6" d="M572.94,317.74l7.07-7.83a1.75,1.75,0,0,1,1.52-.56l23.81,3a.81.81,0,0,1,.57,1.26L600.16,322a1.75,1.75,0,0,1-1.7.74l-25-3.66A.81.81,0,0,1,572.94,317.74Z"/><path class="cls-6" d="M572.51,322c-.47.11-.8.74-1.1,1.09a14.18,14.18,0,0,0-1,1.33c-.16.23.15.52.38.38a5.12,5.12,0,0,0,1.35-1.23c.31-.39.78-.87.7-1.39a.25.25,0,0,0-.31-.17Z"/><path class="cls-6" d="M570.19,324.59c-2.3,1.79-5.19,1-7.82.58-2.45-.37-4.9-.74-7.35-1.13l-7.35-1.17c-1.06-.17-2.57-.31-3.82-.59-1.48-.33-1.67-1.25-1-2.24a14.78,14.78,0,0,1,1.47-1.48c.94-1,1.75-1.71,1.95-3.1a22.3,22.3,0,0,0,.07-3.39c0-1.51-.65-4.75-.15-7a2.73,2.73,0,0,1,2-2.3c.55-.12.32-1-.23-.84-3.7.83-2.57,5.58-2.5,8.35,0,1.65.46,3.94,0,5.56-.55,2-4.09,3.23-3.84,5.5.21,1.83,3,1.76,4.26,2q4.89.77,9.8,1.5c3.21.48,6.42,1.13,9.65,1.49a6.21,6.21,0,0,0,5.23-1.36c.24-.22-.11-.54-.35-.35Z"/><path class="cls-6" d="M548.06,303.69a1.3,1.3,0,0,0,0-2.6,1.3,1.3,0,0,0,0,2.6Z"/><path class="cls-13" d="M604.58,309c.45-1.19,2.79-2.59,4.42-3.49l-18.08-2.22-.72.86a11.4,11.4,0,0,0-2.35,4.16l16.11,2A11.54,11.54,0,0,0,604.58,309Z"/><path class="cls-24" d="M587.46,310.1,602.89,312l.19-.25a12.58,12.58,0,0,0,.88-1.43l-16.11-2a13.4,13.4,0,0,0-.35,1.5C587.49,309.92,587.47,310,587.46,310.1Z"/><path class="cls-22" d="M586.71,319c4.38-.5,8.75-.73,11.36-2.6a20.44,20.44,0,0,0,4.82-4.31l-15.43-1.95C587.13,312.12,587,314.77,586.71,319Z"/><path class="cls-4" d="M591.77,310.77c-.8.88-4.21,5.38-3.1,6s1.81-.19,2.77-1.15c.28.52,1.15.54,2-.15a7.47,7.47,0,0,0,3.23-.69c.69-.31,1.3-1.53,2.91-2.81.57-1.47.51-2.37,2-3.73s5.46-4.36,6.56-5.46c1.82-1.82,3.65-3.53,4.38-5.84.46-1.45-.31-3.53-3.48-4.57-2.89-.94-4-.21-4.86.91s-1.86,3.68-3.63,6.44c-1.36,2.12-2.27,3.5-3.63,4.28-2,1.18-2.56.34-3.79.92-1.39.67-2,.51-2.67,1.32s-2.2,1.26-2.56,2.46c-.19.61,1,2.57,1.41,2.49,1.91-.32,2.64-2.42,3.88-2.8.35-.28,1.33-1.07,1.4-.37C594.74,309.2,592.57,309.9,591.77,310.77Z"/><path class="cls-16" d="M598,311.69a3.33,3.33,0,0,0-1.8-.36c-.66,0-1.83-.6-1.92-.52a4.52,4.52,0,0,0-1.55,1.83,6.3,6.3,0,0,1-1.37,1.18l-.59.46c-.48.77-1.1,1.26-2,2.42l0,.06a.44.44,0,0,0,0,0c1,.51,1.74-.27,2.67-1.2.28.52,1.15.54,2-.15a7.47,7.47,0,0,0,3.23-.69c.69-.31,1.3-1.53,2.91-2.81A2.42,2.42,0,0,1,598,311.69Z"/><path class="cls-2" d="M586.92,316.91c2-5.69,5.49-14.61,7.18-18.77.34-.84.79-1.68,1.34-1.5s.23,1.25-.07,2c-2,5.41-5.53,14.38-7.25,18.56a15,15,0,0,1-1.25,2.1c-.09.15-.26.18-.24-.06A10.76,10.76,0,0,1,586.92,316.91Z"/><path class="cls-4" d="M590.19,311.14c-.72,1.16-1.85,2.37-3.19,4.5-.43.67-.46,1.57,0,1.88s1.13.11,1.8-.8a31.85,31.85,0,0,0,2.1-2.66c1-1.9,1.59-1.81,2.45-3.27s2.31-2.5,2.11-3.6c-.26-1.42-1.29-.2-2.61.89A11.55,11.55,0,0,0,590.19,311.14Z"/><path class="cls-4" d="M587,313.89c-.11,1,1.59,1,2-.68a5.6,5.6,0,0,0-.06-2.41,8.28,8.28,0,0,0-.5-2.25c-.25-.57-.63-.11-.66,1S587.14,313.05,587,313.89Z"/><rect class="cls-6" x="285.09" y="263.09" width="26.64" height="26.64"/><rect class="cls-6" x="285.09" y="263.09" width="26.64" height="26.64"/><path class="cls-22" d="M287.54,289.74c.58-2.8,1.59-3.79,3.06-4.19s2.06-1.61,1.44-2.61-3.46-4.19-3.46-8.68,2.61-6.82,5.15-7a5.65,5.65,0,0,1,5.11,2.29c.86,1.25.77,11.15-.7,11.93s-3.6,2.12-3.68,3.49,1.83,1.58,2.77,2.21a9.32,9.32,0,0,1,2,2.51Z"/><path class="cls-10" d="M291,277.93a1.68,1.68,0,0,0,.33,1,6.06,6.06,0,0,1,.78.9,1.53,1.53,0,0,1-.11,1.62,3.76,3.76,0,0,0,2.92-.54c.17-.11-.21-1.16-.22-1.33a5.44,5.44,0,0,0-.39-2.54c-.18-.25-1.11-.29-2.31-.36A1.39,1.39,0,0,0,291,277.93Z"/><path class="cls-13" d="M294.28,277.05c-.14-.19-.71-.26-1.51-.31a.61.61,0,0,0-.06.54,6.48,6.48,0,0,0,.43,4.25,3.45,3.45,0,0,0,1.74-.61c.17-.11-.21-1.16-.22-1.33A5.44,5.44,0,0,0,294.28,277.05Z"/><path class="cls-2" d="M303.84,288a3.22,3.22,0,0,0-.4-1.39c-.51-.76-1.44-.49-2.19-.38l-3,.42c-1.19.16-2.4.2-3.59.36q-1.28.17-2.55.39a5.76,5.76,0,0,0-2.11.52.89.89,0,0,0-.26.35l-.8,1.51h15.19C304,289.15,303.92,288.57,303.84,288Z"/><path class="cls-1" d="M293.38,287.92a2.3,2.3,0,0,0,.09,1.82h.16a2,2,0,0,1-.14-1.79C293.52,287.88,293.41,287.85,293.38,287.92Z"/><path class="cls-4" d="M298,286.66a9.81,9.81,0,0,0-1.11,0,7.58,7.58,0,0,0-1.51.11,1.52,1.52,0,0,0-1,.64,1.7,1.7,0,0,0-.13,1.31,2.08,2.08,0,0,0,.56,1h3.92a1.91,1.91,0,0,0,.35-.68C299.36,288.1,299.27,286.78,298,286.66Z"/><path class="cls-16" d="M298,286.66a9.82,9.82,0,0,0-1.11,0,7.58,7.58,0,0,0-1.51.11,1.52,1.52,0,0,0-1,.64,1.35,1.35,0,0,0-.15.36c1.6-.22,3.2-.33,4.8-.5A1.17,1.17,0,0,0,298,286.66Z"/><path class="cls-4" d="M296.06,282.45c0,.15,0,.31,0,.46-.1.59-.15,1.2-.26,1.79-.15.82-.37,1.63-.58,2.44,0,.19-.2.51-.14.68.11.36.62.42.92.48a2.79,2.79,0,0,0,1.51,0c.62-.24.44-.84.43-1.37a8.16,8.16,0,0,1,.2-1.59c.14-.74.37-1.41.54-2.13.07-.28.08-.19-.14-.29a4.13,4.13,0,0,0-.47-.17c-.26-.08-.54-.1-.8-.19s-.93-1-1.13-.42A1.09,1.09,0,0,0,296.06,282.45Z"/><path class="cls-16" d="M297.2,286l-.06.17a.07.07,0,0,0,0,.08.07.07,0,0,0,.08,0l.06-.17a.06.06,0,0,0,0-.08.06.06,0,0,0-.08,0Z"/><path class="cls-16" d="M297.5,285.51a1.76,1.76,0,0,0,.17-.57c0-.12-.18-.12-.19,0a2,2,0,0,1-.12.52c0,.08.1.14.14.06Z"/><path class="cls-16" d="M298.51,282.93a4.14,4.14,0,0,0-.47-.17c-.26-.08-.54-.1-.8-.19s-.93-1-1.13-.42a1.09,1.09,0,0,0-.06.29c0,.15,0,.31,0,.46-.06.34-.1.68-.14,1a8,8,0,0,0,2.37.78c.13-.5.27-1,.39-1.48C298.72,282.94,298.73,283,298.51,282.93Z"/><path class="cls-4" d="M298.89,283.45h0a5.12,5.12,0,0,1-5.22-5.19v-5.41a5.32,5.32,0,0,1,5.22-5.42h0a4.9,4.9,0,0,1,4.35,4.3,29.45,29.45,0,0,1,1,6.44A5.32,5.32,0,0,1,298.89,283.45Z"/><path class="cls-10" d="M298.23,265.8a11,11,0,0,1,4.37,1,15.61,15.61,0,0,0,4.16,1c.33,0,1.73.18,2.07.2.91.15.62,1.61-.5,1.19a2,2,0,0,0-1.62-.1.48.48,0,0,0-.06.7c.15.18.31.41.23.63s-.43.44-.56.55c-.75.67-.38,1.32.59,1.84,0,.38-.51,1.13-1,1.13s-1.87-.57-2.29-.57l-.3-1.25a20,20,0,0,1-3.32-2c-1.48-1.12-2.66-.18-2.8,1-1.79-.47-2.74.82-2.29,3,.14.67.67,1.42.16,1.86a2.77,2.77,0,0,1-2.36.31,3.93,3.93,0,0,1-2.24-1.1,3.41,3.41,0,0,1,1.25-5.32,13.61,13.61,0,0,0,2.14-.83C294.28,267,295.85,265.8,298.23,265.8Z"/><path class="cls-10" d="M293.45,264.93a6.21,6.21,0,0,0-.33,2,2.81,2.81,0,0,0,.29,1.13,2.06,2.06,0,0,0,1.29,1.16c.9.35-.4,1.22-1,1A1.87,1.87,0,0,1,292.6,269,4.93,4.93,0,0,1,293.45,264.93Z"/><circle class="cls-4" cx="292.63" cy="276" r="1.55"/><path class="cls-4" d="M295.17,268.15a3.84,3.84,0,0,1,1.83-1.29,3.31,3.31,0,0,1,2.49.27c.18.1.35-.18.16-.28a3.48,3.48,0,0,0-4.6,1.2c0,.07.06.16.12.09Z"/><path class="cls-4" d="M290.78,272.21a2.44,2.44,0,0,1,2.51-1.52.15.15,0,1,0,0-.29,2.55,2.55,0,0,0-2.73,1.76c0,.12.13.15.18,0Z"/><path class="cls-4" d="M293,269.29a2.16,2.16,0,0,1-.76-1.26,3.07,3.07,0,0,1,.28-1.75.12.12,0,1,0-.21-.09,3.3,3.3,0,0,0-.27,1.9,1.86,1.86,0,0,0,.88,1.31c.07,0,.15-.06.09-.12Z"/><path class="cls-4" d="M304.58,267.92a17.61,17.61,0,0,0,4.93.61.12.12,0,0,0,0-.24,21.54,21.54,0,0,1-4.89-.52.08.08,0,0,0,0,.16Z"/><path class="cls-4" d="M305.44,269.83a4.12,4.12,0,0,0,1.56.26.15.15,0,0,0,0-.3,6.56,6.56,0,0,1-1.49-.19.12.12,0,0,0-.06.23Z"/><path class="cls-4" d="M305,271.72a4.14,4.14,0,0,0,1.37.72.15.15,0,0,0,.08-.3,4.22,4.22,0,0,1-1.29-.64c-.13-.09-.29.12-.17.22Z"/><path class="cls-13" d="M306.68,273.39c-.55-.24-1.14-.39-1.69-.64a11.66,11.66,0,0,1-2.54-1.38,19,19,0,0,0-2.78-2.23,1.63,1.63,0,0,0-1.65.09c-.52.35-1,1.15-.75,1.47h0c.33-1,1.4-1.59,2.71-.61a20,20,0,0,0,3.32,2l.3,1.25c.42,0,1.86.57,2.29.57A1.09,1.09,0,0,0,306.68,273.39Z"/><path class="cls-25" d="M298.23,265.8a11,11,0,0,1,4.37,1,15.61,15.61,0,0,0,4.16,1c.33,0,1.73.18,2.07.2.91.15.62,1.61-.5,1.19a2,2,0,0,0-1.62-.1.48.48,0,0,0-.06.7c.15.18.31.41.23.63s-.43.44-.56.55c-.75.67-.38,1.32.59,1.84,0,.38-.51,1.13-1,1.13s-1.87-.57-2.29-.57l-.3-1.25a20,20,0,0,1-3.32-2c-1.48-1.12-2.66-.18-2.8,1-1.79-.47-2.74.82-2.29,3,.14.67.67,1.42.16,1.86a2.77,2.77,0,0,1-2.36.31,3.93,3.93,0,0,1-2.24-1.1,3.41,3.41,0,0,1,1.25-5.32,13.61,13.61,0,0,0,2.14-.83C294.28,267,295.85,265.8,298.23,265.8Z"/><path class="cls-17" d="M296.84,272.55c.42,0,.84-.13,1.27-.14a7.29,7.29,0,0,1,1.29.11.29.29,0,1,0,.08-.57,5.2,5.2,0,0,0-1.37,0,3.61,3.61,0,0,0-1.31.37.1.1,0,0,0,.05.19Z"/><path class="cls-10" d="M301.3,272.77a3.1,3.1,0,0,0-1.16,1.57,3.56,3.56,0,0,0-.19,1.78c0,.26.06.63.06.78,0,.56,0,.94,0,1.38,0,.17-.33.2-.51.21s-.36-.2-.5-.12,0,.25.08.34a1.53,1.53,0,0,0,.8.15c.13,0,.44-.08.49-.21a1.2,1.2,0,0,0,.06-.45,18.16,18.16,0,0,0-.29-2.14,3.44,3.44,0,0,1,.07-1.66,3.59,3.59,0,0,1,.44-.85,6.21,6.21,0,0,1,.67-.74A0,0,0,0,0,301.3,272.77Z"/><circle class="cls-10" cx="298.46" cy="276.22" r="0.21"/><circle class="cls-10" cx="298.63" cy="276.93" r="0.21"/><circle class="cls-10" cx="297.67" cy="276.69" r="0.23"/><circle class="cls-10" cx="301.1" cy="276.35" r="0.21"/><circle class="cls-10" cx="301.45" cy="277.05" r="0.19"/><circle class="cls-10" cx="302.19" cy="276.76" r="0.23"/><path class="cls-17" d="M301.27,272.84a9.3,9.3,0,0,1,1.28.45c.19.08.43-.16.24-.32a3.82,3.82,0,0,0-1.36-.74.31.31,0,0,0-.17.6Z"/><path class="cls-17" d="M299,274.06a3.64,3.64,0,0,0-1.71.08c-.09,0-.05.14,0,.12a5.4,5.4,0,0,1,.57-.07c0,.05-.05.11-.07.16a1.33,1.33,0,0,0-.15.59.18.18,0,0,0,.08.13,2.38,2.38,0,0,0-.41.05c-.09,0-.06.14,0,.13a4,4,0,0,1,1.07,0c.13,0,.13-.18,0-.18h-.24a7.66,7.66,0,0,0,.08-.86,3.73,3.73,0,0,1,.63.07C299.06,274.29,299.13,274.09,299,274.06Z"/><path class="cls-17" d="M302.18,274.48a7.83,7.83,0,0,0-1.35-.22.07.07,0,0,0,0,.14l.35.1a1.59,1.59,0,0,0-.25.6.18.18,0,0,0,0,.17h-.27a.07.07,0,1,0,0,.13,5.41,5.41,0,0,1,1,.08c.11,0,.15-.12,0-.14a1.64,1.64,0,0,0-.29,0h0a2.69,2.69,0,0,0,.05-.4,1,1,0,0,0,0-.31l.59.13C302.28,274.75,302.36,274.52,302.18,274.48Z"/><path class="cls-17" d="M292,276.2a.52.52,0,0,1,.25-.65c.2-.1.83,0,.85.26l.12-.09a.58.58,0,0,0-.69.26.39.39,0,0,0,.22.51c.12,0,.18-.15.05-.2s-.08-.31,0-.37a.5.5,0,0,1,.35,0,.1.1,0,0,0,.12-.09c0-.44-.7-.59-1-.46a.66.66,0,0,0-.34.89c0,.06.12,0,.1,0Z"/><path class="cls-17" d="M296.88,279.75a2,2,0,0,0,1.42,1.1,2.56,2.56,0,0,0,2-.13c.2-.12,0-.42-.18-.31a2.42,2.42,0,0,1-1.69.1,2.2,2.2,0,0,1-1.34-.86.1.1,0,0,0-.17.1Z"/><rect class="cls-11" x="285.09" y="234.38" width="26.64" height="26.64"/><path class="cls-6" d="M301.91,256.86a5.25,5.25,0,0,0-3.39-.23c-.69.16-3.61.88-4.24,1.11a3.4,3.4,0,0,0-1.45.7,11.83,11.83,0,0,0-1.54,2.59h17a7.51,7.51,0,0,0-.07-.79,1.73,1.73,0,0,0-.9-1.57C306.09,257.88,303.19,257.48,301.91,256.86Z"/><path class="cls-4" d="M298.54,253.46c-.21-.1,0,2.78-.1,3.39a1.34,1.34,0,0,0-.92,1.29c0,.81.93,1.53,2.12,1.53,1.57,0,2.64-1,2.64-1.87a.63.63,0,0,0-.34-.63,1.89,1.89,0,0,1-.74-.85c-.49-1.08-.15-2.87,0-4.39C300.39,251.51,299.13,252.9,298.54,253.46Z"/><path class="cls-16" d="M298.86,255.05a6,6,0,0,0,2.1-.73c0-.74.16-1.55.24-2.4-.82-.41-2.07,1-2.67,1.54-.12-.06-.1.77-.08,1.64Z"/><path class="cls-4" d="M303.6,245.28c0,3.26-2.65,9-5.91,9s-5.25-4.52-5.25-9c0-3.26,2-5.92,5.25-5.92A5.91,5.91,0,0,1,303.6,245.28Z"/><ellipse class="cls-17" cx="298.01" cy="246.32" rx="0.36" ry="0.46"/><ellipse class="cls-17" cx="294.02" cy="246.32" rx="0.36" ry="0.46"/><path class="cls-14" d="M308.22,240.44a3.6,3.6,0,0,0-5.65-3,6.35,6.35,0,0,0-3.76-1,9.62,9.62,0,0,0-5.38,1.48c-2.19,1.28-4,4.07-3.12,4.81l.06,0a6,6,0,0,0-.34,3.44h0a5.8,5.8,0,0,1,.7-3.19,3.33,3.33,0,0,0,1.91.41,6.5,6.5,0,0,1,.84-1.9c.6-.85,1-.91,2.49-.87.36-.26,1.09-1,1.49-1.08a8.34,8.34,0,0,0-.39,1.16c2.39.26,3.56.7,4.34,1.33l0,0a22.47,22.47,0,0,1-.66,4.41c.63.12,1.07-.7,1.15-1.51.49.25,1.67.9,1.63,1.73,0,.66-.4.83-1.4,1.42a3.92,3.92,0,0,0,1-.13c0,.11-.08.25-.12.37a2.29,2.29,0,0,1-.9.46.78.78,0,0,0,.74,0,12.67,12.67,0,0,1-.83,1.82,2.47,2.47,0,0,0,.43.78c.07.09.13,0,.09-.07a2.06,2.06,0,0,1-.11-.89.1.1,0,0,1,.08-.08,4.31,4.31,0,0,0,.74.78c.13.09.16,0,.07-.08a2.07,2.07,0,0,1-.4-1,4.21,4.21,0,0,0,3.82-1.23,4.19,4.19,0,0,1-1.36-2.47s.38,1.44,1.53,1.14a5.88,5.88,0,0,1-1.71-3.58A3.6,3.6,0,0,0,308.22,240.44Z"/><circle class="cls-4" cx="303.25" cy="245.78" r="1.62"/><path class="cls-17" d="M302.86,245.63c.11,0,.22-.09.33,0a.26.26,0,0,1,.09.3.14.14,0,0,0,.28.08.51.51,0,0,0-.22-.6.47.47,0,0,0-.6.09.1.1,0,0,0,.12.15Z"/><path class="cls-10" d="M295.11,249a0,0,0,0,0,0-.07,0,0,0,0,0,0,.07Z"/><path class="cls-9" d="M290,244a6.94,6.94,0,0,1,2.78-4.36c.17-.11,0-.38-.19-.25A6.85,6.85,0,0,0,290,244a0,0,0,0,0,.08,0Z"/><path class="cls-10" d="M295.7,249.15c-.15.07-.41.32-.41,0a9.57,9.57,0,0,1,.37-2.1,12.47,12.47,0,0,0,.32-2c0-.69-.14-1-.7-1.26-.11-.06-.52.1-.22.19a.88.88,0,0,1,.66,1c0,.59-.54,2.67-.88,4.19a.34.34,0,0,0,.11.32c.08.06.52-.15.77,0,.42.22.6-.06.59-.2S296.11,248.94,295.7,249.15Z"/><path class="cls-9" d="M294.57,250.63a8.05,8.05,0,0,0,5-.17c-.61,1.14-1.6,2.37-2.6,2.37C296.24,252.83,295.14,251.67,294.57,250.63Z"/><path class="cls-10" d="M294.53,250.61a5.82,5.82,0,0,0,2.46.44,8,8,0,0,0,2.53-.41.1.1,0,1,0-.06-.2,8.38,8.38,0,0,1-2.49.41,8.55,8.55,0,0,1-2.39-.31s-.1,0-.06.07Z"/><path class="cls-17" d="M298.33,243.89a2.44,2.44,0,0,1,1.15.61c.18.2.37,0,.23-.24a2.37,2.37,0,0,0-2.52-.75.41.41,0,0,0-.12.53A2.43,2.43,0,0,1,298.33,243.89Z"/><path class="cls-17" d="M295.32,243.6a1.16,1.16,0,0,0-1-.22,2.23,2.23,0,0,0-1.4.57c-.14.2,0,.4.14.22.36-.48,1.49-.4,2-.15.1,0,.21-.07.22-.19Z"/><path class="cls-9" d="M299,237.25a3.35,3.35,0,0,1,3.68,1.89c.06.14.27,0,.21-.12a3.34,3.34,0,0,0-3.92-1.87.05.05,0,0,0,0,.1Z"/><path class="cls-9" d="M303.61,237.79a3.35,3.35,0,0,1,3.68,1.89c.06.14.27,0,.21-.12a3.34,3.34,0,0,0-3.92-1.87.05.05,0,0,0,0,.1Z"/><path class="cls-21" d="M302.82,237.45l.25.18.07,0s-.93-1.89-1.61-3.2h-.45C301.62,235.35,302.82,237.45,302.82,237.45Z"/><path class="cls-9" d="M294,238.72a1.34,1.34,0,0,0-.54.26c-.11.09,0,.27.13.18a1.68,1.68,0,0,1,.45-.29c.08,0,.05-.17,0-.15Z"/></g></g></svg>