<?xml version="1.0" encoding="UTF-8"?>
<svg width="147px" height="153px" viewBox="0 0 147 153" version="1.1" xmlns="http://www.w3.org/2000/svg" xmlns:xlink="http://www.w3.org/1999/xlink">
    <!-- Generator: Sketch 41.2 (35397) - http://www.bohemiancoding.com/sketch -->
    <title>teacher</title>
    <desc>Created with Sketch.</desc>
    <defs></defs>
    <g id="Page-1" stroke="none" stroke-width="1" fill="none" fill-rule="evenodd">
        <g id="teacher">
            <circle id="Oval" fill="#2D8BEA" cx="79.0026717" cy="72.18" r="61.67"></circle>
            <path d="M124.602672,79.6 C133.442672,82.55 139.222672,88.69 139.222672,98.15 C139.222672,107.61 123.222672,133.29 123.222672,133.29 L118.912672,129.88 L124.602672,79.6 Z" id="Shape" fill="#DFDEE0"></path>
            <path d="M136.542672,95.6 C136.542672,104.25 134.542672,110.11 127.242672,123.05 C123.475669,129.49461 120.659895,136.449842 118.882672,143.7 L122.522672,142.88 C124.084387,137.116848 126.372748,131.575723 129.332672,126.39 C135.142672,116.08 142.332672,109.86 142.332672,96.92 C142.332672,83.98 133.922672,79.28 127.942672,77.74 C124.170581,76.806474 120.222635,76.8512197 116.472672,77.87 C116.472672,77.87 116.172672,81.87 117.942672,81.65 C128.902672,80.51 136.542672,88.57 136.542672,95.6 Z" id="Shape" fill="#21DE80"></path>
            <path d="M102.062672,64.27 C100.202672,64.7 92.2826717,66.65 90.5726717,67.27 C88.8626717,67.89 87.9126717,67.97 86.6326717,69.16 C85.0126717,70.67 83.2326717,74.89 81.3526717,78.23 C77.7626717,84.61 73.2126717,92.68 68.8126717,98.49 C68.2179274,97.9688555 67.3644991,97.8656502 66.6626717,98.23 C65.5955357,98.868628 64.6199728,99.6490783 63.7626717,100.55 C63.2929985,101.327606 63.2441871,102.288816 63.6326717,103.11 C64.6503121,105.941768 66.6568183,108.310511 69.2826717,109.78 C70.224374,110.338173 71.339705,110.527031 72.4126717,110.31 C73.6852862,109.711404 74.8349773,108.880506 75.8026717,107.86 C76.1526717,107.5 76.4626717,107.15 76.4326717,106.79 C76.3876892,106.488668 76.2822431,106.199541 76.1226717,105.94 C80.8826717,105.56 86.1826717,96.03 88.0226717,94.44 C88.1826717,96.53 89.1826717,97.88 89.9626717,101.02 C91.0526717,105.37 91.4126717,117.39 91.7026717,120.97 C92.1126717,125.97 97.0026717,134.75 99.3226717,139.21 C103.322672,146.86 119.322672,142.04 120.522672,137.81 C123.142672,128.86 120.832672,114.5 124.522672,101.63 C128.212672,88.76 128.992672,78.45 128.332672,74.05 C128.072672,72.35 128.092672,71.23 125.902672,69.8 C122.612672,67.65 114.742672,66.57 111.272672,64.88 C108.355902,63.6582397 105.115096,63.4435935 102.062672,64.27 Z" id="Shape" fill="#203966"></path>
            <path d="M109.712672,94.21 C108.942672,96.81 109.122672,98.1 107.612672,99.21 C106.332672,100.21 92.7926717,99.21 88.7826717,97.44 C90.9226717,102.65 91.2826717,113.57 91.4326717,117.01 C91.6626717,122.25 92.1026717,122.57 92.5626717,128.62 C97.9426717,133.28 113.562672,140.91 116.772672,139.52 C114.642672,137.52 121.942672,130.34 121.952672,128.52 C121.952672,123.38 122.552672,112.33 123.102672,108 C123.592672,104.2 125.102672,100.71 125.642672,97 C125.862672,95.4 127.912672,86.24 128.132672,84.74 C125.932672,87.52 125.732672,90.49 123.632672,93.56 C121.972672,92.86 114.562672,86.38 112.522672,88.56 C110.812672,90.26 110.372672,91.95 109.712672,94.21 Z" id="Shape" fill="#182E52"></path>
            <path d="M102.152672,55.69 C101.572672,55.41 102.242672,63.22 101.882672,64.86 C100.022672,65.77 99.3826717,66.86 99.3826717,68.36 C99.3826717,70.56 101.892672,72.51 105.112672,72.51 C109.382672,72.51 112.272672,69.85 112.272672,67.44 C112.355502,66.7360258 111.992841,66.0545414 111.362672,65.73 C110.476429,65.1815104 109.778684,64.375615 109.362672,63.42 C108.042672,60.49 108.962672,55.64 109.362672,51.52 C107.152672,50.41 103.732672,54.13 102.152672,55.69 Z" id="Shape" fill="#F3E1C4"></path>
            <path d="M71.9426717,106.74 C71.9426717,107.65 74.0026717,108.18 74.6226717,107.92 C76.9718218,106.536152 79.1529883,104.885176 81.1226717,103 C83.7826717,100.44 85.8926717,96.77 88.0226717,94.43 C87.8526717,91.6 88.7726717,88.64 89.4526717,85.22 C87.7136367,86.8878446 86.1396699,88.719674 84.7526717,90.69 C82.2226717,94.69 71.9926717,105.83 71.9426717,106.74 Z" id="Shape" fill="#182E52"></path>
            <path d="M116.152672,82.8 C115.062672,84.92 114.312672,89.05 113.762672,92 C112.502672,98.72 113.362672,100.24 109.852672,108.08 C108.875242,108.354261 108.034317,108.981391 107.492672,109.84 C106.933558,110.93027 106.523231,112.090618 106.272672,113.29 C105.962672,114.78 106.802672,117.57 111.352672,119.51 C115.272672,121.18 118.112672,120.97 120.112672,119.92 C121.457066,119.003679 122.459434,117.667189 122.962672,116.12 C123.302672,115.12 123.962672,112.8 122.892672,111.57 C123.892672,108.52 124.652672,105.63 125.552672,102.06 C127.469919,94.6464674 128.477332,87.0270638 128.552672,79.37 C128.552672,75.93 128.202672,75.37 126.642672,72.65 C125.982672,71.49 120.322672,76.13 119.152672,77.39 C117.982672,78.65 116.892672,81.42 116.152672,82.8 Z" id="Shape" fill="#203966"></path>
            <path d="M22.6126717,115.31 C35.7334942,135.39762 57.047216,148.674481 80.8619054,151.594932 C104.676595,154.515383 128.566853,146.781993 146.152672,130.46 L22.6126717,115.31 Z" id="Shape" fill="#F3988C"></path>
            <path d="M23.4826717,116.59 C29.1158111,124.845682 36.2128063,132.000294 44.4226717,137.7 C46.5326717,135.42 48.2526717,133.62 48.2526717,133.62 L70.9126717,136.23 C72.2714662,136.359533 73.6151917,135.862539 74.5626717,134.88 L84.8226717,122.94 L24.7626717,115.58 L23.4826717,116.59 Z" id="Shape" fill="#C47971"></path>
            <path d="M103.002672,60 C105.007523,59.6942361 106.937424,59.0158878 108.692672,58 C108.792672,56 109.122672,53.8 109.352672,51.49 C107.142672,50.37 103.742672,54.14 102.132672,55.66 C101.812672,55.51 101.872672,57.75 101.932672,60.09 L103.002672,60 Z" id="Shape" fill="#C2B49D"></path>
            <path d="M115.822672,33.54 C115.822672,42.38 108.652672,57.85 99.8226717,57.85 C90.9926717,57.85 85.6026717,45.6 85.6026717,33.57 C85.6026717,24.73 90.9726717,17.57 99.8226717,17.57 C108.647525,17.5699845 115.806125,24.715162 115.822672,33.54 Z" id="Shape" fill="#F3E1C4"></path>
            <ellipse id="Oval" fill="#544B4D" cx="100.692672" cy="36.36" rx="0.98" ry="1.24"></ellipse>
            <ellipse id="Oval" fill="#544B4D" cx="89.8826717" cy="36.36" rx="0.98" ry="1.24"></ellipse>
            <path d="M128.342672,20.43 C128.344588,16.8085019 126.343111,13.4830402 123.142117,11.7892597 C119.941124,10.0954792 116.065813,10.3112848 113.072672,12.35 C110.642672,10.63 107.302672,9.6 102.862672,9.6 C97.7107293,9.4607079 92.6332399,10.8527544 88.2726717,13.6 C82.3426717,17.07 77.4726717,24.6 79.8126717,26.6 L79.9326717,26.69 C78.725928,29.6524217 78.4232079,32.9057922 79.0626717,36.04 L79.0626717,36.04 C78.8403744,33.0391432 79.4823637,30.0374094 80.9126717,27.39 C82.5062064,28.2832279 84.3338313,28.6703774 86.1526717,28.5 C86.632625,26.6756637 87.4024251,24.9402373 88.4326717,23.36 C90.0526717,21.06 91.1226717,20.89 95.1626717,21 C96.1626717,20.3 98.1626717,18.24 99.1626717,18.07 C98.7330025,19.0893274 98.3787178,20.1388126 98.1026717,21.21 C104.522672,21.92 107.682672,23.08 109.782672,24.75 L109.902672,25 C109.982672,27.1 109.152672,32.34 108.112672,36.86 C109.822672,37.18 111.012672,34.96 111.222672,32.78 C112.552672,33.45 115.762672,35.21 115.632672,37.46 C115.532672,39.25 114.552672,39.7 111.852672,41.3 C112.767315,41.3006299 113.6782,41.1829878 114.562672,40.95 C114.472672,41.26 114.372672,41.6 114.262672,41.95 C113.546791,42.5458798 112.706038,42.9730917 111.802672,43.2 C112.427449,43.5342248 113.177895,43.5342248 113.802672,43.2 C113.180047,44.9033837 112.424383,46.555146 111.542672,48.14 C111.799642,48.9041786 112.192626,49.6156157 112.702672,50.24 C112.902672,50.49 113.052672,50.36 112.942672,50.05 C112.66356,49.2791918 112.557718,48.4563519 112.632672,47.64 C112.649374,47.5205738 112.743246,47.4267026 112.862672,47.41 C113.438782,48.193949 114.110661,48.9027813 114.862672,49.52 C115.202672,49.77 115.302672,49.65 115.052672,49.3 C114.46282,48.5136615 114.090341,47.5859136 113.972672,46.61 C116.232672,46.87 121.312672,47.08 124.322672,43.29 C122.355171,41.5503526 121.051212,39.1827313 120.632672,36.59 C120.632672,36.59 121.632672,40.49 124.782672,39.69 C121.982672,37.34 120.902672,33.86 120.142672,30.01 C124.846805,29.2442129 128.311909,25.1959581 128.342672,20.43 L128.342672,20.43 Z" id="Shape" fill="#2B2631"></path>
            <circle id="Oval" fill="#F3E1C4" cx="114.902672" cy="34.87" r="4.4"></circle>
            <path d="M113.842672,34.47 C114.142672,34.37 114.432672,34.23 114.742672,34.47 C114.988626,34.6556838 115.089134,34.977311 114.992672,35.27 C114.947751,35.4722194 115.068759,35.6742749 115.268236,35.7301284 C115.467712,35.7859819 115.676051,35.6761433 115.742672,35.48 C115.945107,34.8685243 115.700931,34.198075 115.152672,33.86 C114.627215,33.5303167 113.939972,33.6321305 113.532672,34.1 C113.474925,34.1989484 113.483283,34.3230944 113.553773,34.4134091 C113.624262,34.5037237 113.74266,34.5419848 113.852672,34.51 L113.842672,34.47 Z" id="Shape" fill="#544B4D"></path>
            <path d="M92.8326717,43.52 C92.8823773,43.52 92.9226717,43.4797056 92.9226717,43.43 C92.9226717,43.3802944 92.8823773,43.34 92.8326717,43.34 C92.7829661,43.34 92.7426717,43.3802944 92.7426717,43.43 C92.7426717,43.4797056 92.7829661,43.52 92.8326717,43.52 L92.8326717,43.52 Z" id="Shape" fill="#F3988C"></path>
            <path d="M79.1526717,30.19 C80.0526911,25.4324659 82.7535764,21.2056161 86.6926717,18.39 C87.1426717,18.08 86.6126717,17.39 86.1826717,17.71 C82.1809198,20.7008319 79.5530572,25.1779313 78.8926717,30.13 C78.8926717,30.1907513 78.9419204,30.24 79.0026717,30.24 C79.063423,30.24 79.1126717,30.1907513 79.1126717,30.13 L79.1526717,30.19 Z" id="Shape" fill="#B2B1B3"></path>
            <path d="M94.4326717,44.01 C94.0226717,44.21 93.3326717,44.89 93.3226717,44.09 C93.3226717,41.76 93.9526717,40.55 94.3226717,38.4 C94.7605113,36.6333122 95.0548032,34.834118 95.2026717,33.02 C95.1226717,31.15 94.8326717,30.42 93.2926717,29.6 C92.9826717,29.43 91.8826717,29.88 92.6926717,30.12 C93.9126717,30.48 94.5026717,31.26 94.4726717,32.86 C94.4426717,34.46 93.0026717,40.09 92.0926717,44.2 C92.0345299,44.5244445 92.152466,44.8554265 92.4026717,45.07 C92.6126717,45.24 93.8026717,44.66 94.4826717,45.01 C95.6226717,45.59 96.1126717,44.85 96.0726717,44.46 C96.0326717,44.07 95.5526717,43.45 94.4326717,44.01 Z" id="Shape" fill="#F3988C"></path>
            <path d="M91.3826717,48.02 C95.8366199,49.3122489 100.586537,49.151116 104.942672,47.56 C103.282672,50.66 100.612672,53.97 97.9426717,53.97 C95.9026717,53.98 92.9226717,50.85 91.3826717,48.02 Z" id="Shape" fill="#FFFFFF"></path>
            <path d="M91.2626717,47.96 C93.3720958,48.841766 95.6479354,49.2546244 97.9326717,49.17 C100.267558,49.1730488 102.587551,48.7982029 104.802672,48.06 C104.911738,48.0443913 105.001513,47.9662716 105.032041,47.8604078 C105.06257,47.754544 105.028177,47.6406172 104.944169,47.5693305 C104.860161,47.4980438 104.742156,47.48265 104.642672,47.53 C102.461171,48.235597 100.185325,48.6064755 97.8926717,48.63 C95.7038365,48.6575079 93.5221471,48.3746963 91.4126717,47.79 C91.2926717,47.79 91.1426717,47.88 91.2626717,47.97 L91.2626717,47.96 Z" id="Shape" fill="#F3988C"></path>
            <path d="M101.552672,29.76 C102.720498,30.0215917 103.795395,30.5953309 104.662672,31.42 C105.162672,31.97 105.662672,31.42 105.282672,30.76 C104.282672,28.94 100.902672,27.98 98.4526717,28.76 C98.0403052,29.087657 97.914976,29.6599936 98.1526717,30.13 C99.2335813,29.7091388 100.406537,29.5814937 101.552672,29.76 Z" id="Shape" fill="#544B4D"></path>
            <path d="M93.4126717,28.98 C92.6331239,28.3512417 91.6004022,28.1320669 90.6326717,28.39 C89.5126717,28.53 87.5626717,28.92 86.8326717,29.93 C86.4526717,30.46 86.8326717,31.03 87.2226717,30.51 C88.2226717,29.2 91.2226717,29.42 92.6926717,30.11 C92.9626717,30.24 93.2526717,29.92 93.2926717,29.59 L93.4126717,28.98 Z" id="Shape" fill="#544B4D"></path>
            <path d="M103.402672,11.78 C107.515953,10.9706476 111.64863,13.0824455 113.402672,16.89 C113.582672,17.27 114.132672,16.89 113.962672,16.56 C112.148591,12.4965674 107.652065,10.3521357 103.352672,11.5 C103.278113,11.5220914 103.23558,11.6004416 103.257672,11.675 C103.279763,11.7495584 103.358113,11.7920914 103.432672,11.77 L103.402672,11.78 Z" id="Shape" fill="#B2B1B3"></path>
            <path d="M115.852672,13.25 C119.965953,12.4406476 124.09863,14.5524455 125.852672,18.36 C126.032672,18.74 126.582672,18.36 126.412672,18.03 C124.601792,13.9634475 120.102475,11.8176847 115.802672,12.97 C115.728113,12.9920914 115.68558,13.0704416 115.707672,13.145 C115.729763,13.2195584 115.808113,13.2620914 115.882672,13.24 L115.852672,13.25 Z" id="Shape" fill="#B2B1B3"></path>
            <path d="M107.052672,1.66 C106.891237,1.14511966 107.134594,0.590093942 107.622672,0.36 C108.145507,0.0496240187 108.818228,0.183305826 109.182672,0.67 C109.602672,1.4 108.912672,1.49 109.362672,2.33 C111.162672,5.65 114.622672,12.68 114.622672,12.68 L114.422672,12.81 L113.742672,12.33 C113.742672,12.33 108.652672,3.43 108.342672,2.77 C108.032672,2.11 107.272672,2.24 107.052672,1.66 Z" id="Shape" fill="#F454A8"></path>
            <polygon id="Shape" fill="#FFFFFF" points="108.472672 3.03 108.962672 3.88 109.922672 3.41 109.452672 2.49"></polygon>
            <path d="M107.852672,0.97 C108.05109,0.926631901 108.258581,0.97031425 108.422672,1.09 C108.484934,1.12608089 108.559024,1.13581403 108.628493,1.11703864 C108.697962,1.09826324 108.757062,1.05253296 108.792672,0.99 C108.862198,0.859601957 108.81842,0.697621057 108.692672,0.62 C108.399647,0.412706757 108.018001,0.378358607 107.692672,0.53 C107.588857,0.590800687 107.5461,0.719070635 107.592672,0.83 C107.64162,0.936559108 107.758055,0.994776466 107.872672,0.97 L107.852672,0.97 Z" id="Shape" fill="#FFFFFF"></path>
            <path d="M89.7326717,15.75 C89.1952364,15.8723185 88.6925968,16.1150899 88.2626717,16.46 C87.9526717,16.7 88.3426717,17.2 88.6226717,16.94 C88.9812406,16.6137543 89.3897475,16.3470432 89.8326717,16.15 C90.0426717,16.06 89.9726717,15.69 89.7326717,15.74 L89.7326717,15.75 Z" id="Shape" fill="#B2B1B3"></path>
            <path d="M4.88267172,61.36 L69.6726717,63.21 C71.3814211,63.2571284 72.7555433,64.6312506 72.8026717,66.34 L74.6026717,127.65 C74.6626717,129.65 71.9026717,130.98 71.9026717,130.98 L6.55267172,122.98 C4.98772245,122.785293 3.79406922,121.48582 3.73267172,119.91 L0.972671718,63.1 C0.972671718,63.1 3.02267172,61.31 4.88267172,61.36 Z" id="Shape" fill="#B2B1B3"></path>
            <path d="M3.30267172,62.13 L68.0926717,63.98 C69.8014211,64.0271284 71.1755433,65.4012506 71.2226717,67.11 L73.0226717,128.42 C73.0504553,129.360142 72.6657949,130.265434 71.9697556,130.898022 C71.2737163,131.530611 70.3358872,131.827249 69.4026717,131.71 L4.97267172,123.71 C3.40772245,123.515293 2.21406922,122.21582 2.15267172,120.64 L0.00267171762,65.48 C-0.0335980117,64.5896404 0.300718734,63.7240592 0.926064941,63.0892381 C1.55141115,62.454417 2.41186737,62.1071225 3.30267172,62.13 L3.30267172,62.13 Z" id="Shape" fill="#DFDEE0"></path>
            <path d="M31.8926717,112.56 C31.8926717,103.44 38.2226717,99.88 41.3826717,97.51 L41.3826717,95.87 L28.8826717,95.06 C22.9267854,98.55992 19.2587414,104.941936 19.2326717,111.85 L19.2326717,132.93 C19.2326717,135.88 18.7326717,139.93 22.7426717,141.54 C24.0226717,141.74 31.2026717,143.02 34.5626717,143.02 C37.9226717,143.02 42.1726717,139.3 43.7626717,137.18 L43.7626717,135.6 C42.1826717,137.37 37.9326717,141.32 35.7626717,141.32 C33.3026717,141.32 31.8726717,139.06 31.8726717,134.32 L31.8926717,112.56 Z" id="Shape" fill="#B2B1B3"></path>
            <path d="M31.8926717,134.35 C31.8926717,139.06 33.3126717,141.35 35.7826717,141.35 C37.9226717,141.35 42.1826717,137.4 43.7826717,135.63 L31.9126717,134.06 L31.8926717,134.35 Z" id="Shape" fill="#DFDEE0"></path>
            <path d="M75.3826717,140.51 L84.3826717,130.69 C85.1286301,129.873169 86.2253337,129.470298 87.3226717,129.61 L113.942672,132.97 C114.530372,133.045922 115.036871,133.420702 115.281317,133.960519 C115.525762,134.500336 115.473303,135.128229 115.142672,135.62 L108.082672,146.07 C107.349639,147.155566 106.058183,147.723495 104.762672,147.53 L76.4226717,143.35 C75.7942926,143.264846 75.2646316,142.838952 75.0465784,142.243499 C74.8285252,141.648046 74.9578882,140.980819 75.3826717,140.51 Z" id="Shape" fill="#943A68"></path>
            <path d="M75.3826717,139.51 L84.3826717,129.69 C85.1286301,128.873169 86.2253337,128.470298 87.3226717,128.61 L113.942672,131.97 C114.530372,132.045922 115.036871,132.420702 115.281317,132.960519 C115.525762,133.500336 115.473303,134.128229 115.142672,134.62 L108.082672,145.07 C107.349639,146.155566 106.058183,146.723495 104.762672,146.53 L76.4226717,142.35 C75.7942926,142.264846 75.2646316,141.838952 75.0465784,141.243499 C74.8285252,140.648046 74.9578882,139.980819 75.3826717,139.51 L75.3826717,139.51 Z" id="Shape" fill="#F454A8"></path>
            <path d="M79.0926717,138.87 L86.1626717,131.04 C86.5472477,130.615958 87.1149086,130.40682 87.6826717,130.48 L111.492672,133.48 C111.772926,133.514643 112.014908,133.692741 112.131299,133.950026 C112.24769,134.207311 112.221686,134.50664 112.062672,134.74 L106.312672,143.13 C105.933964,143.681247 105.274187,143.968444 104.612672,143.87 L79.6126717,140.21 C79.312268,140.177047 79.0551901,139.979603 78.9458598,139.697867 C78.8365294,139.416131 78.8931302,139.096961 79.0926717,138.87 L79.0926717,138.87 Z" id="Shape" fill="#203966"></path>
            <path d="M78.6626717,143.13 C78.1926717,143.24 77.8626717,143.87 77.5626717,144.22 C77.2035911,144.643376 76.869683,145.087474 76.5626717,145.55 C76.4026717,145.78 76.7126717,146.07 76.9426717,145.93 C77.4627497,145.60422 77.9200229,145.187593 78.2926717,144.7 C78.6026717,144.31 79.0726717,143.83 78.9926717,143.31 C78.9540118,143.177452 78.8152201,143.10134 78.6826717,143.14 L78.6626717,143.13 Z" id="Shape" fill="#203966"></path>
            <path d="M76.3426717,145.72 C74.0426717,147.51 71.1526717,146.72 68.5226717,146.3 C66.0726717,145.93 63.6226717,145.56 61.1726717,145.17 L53.8226717,144 C52.7626717,143.83 51.2526717,143.69 50.0026717,143.41 C48.5226717,143.08 48.3326717,142.16 49.0026717,141.17 C49.4572034,140.642661 49.9484265,140.148096 50.4726717,139.69 C51.4126717,138.69 52.2226717,137.98 52.4226717,136.59 C52.5320042,135.463414 52.5554051,134.330139 52.4926717,133.2 C52.4926717,131.69 51.8426717,128.45 52.3426717,126.2 C52.4794654,125.097901 53.2702449,124.188505 54.3426717,123.9 C54.8926717,123.78 54.6626717,122.9 54.1126717,123.06 C50.4126717,123.89 51.5426717,128.64 51.6126717,131.41 C51.6126717,133.06 52.0726717,135.35 51.6126717,136.97 C51.0626717,138.97 47.5226717,140.2 47.7726717,142.47 C47.9826717,144.3 50.7726717,144.23 52.0326717,144.47 C55.2926717,144.983333 58.5593384,145.483333 61.8326717,145.97 C65.0426717,146.45 68.2526717,147.1 71.4826717,147.46 C73.3422045,147.828715 75.268308,147.327854 76.7126717,146.1 C76.9526717,145.88 76.6026717,145.56 76.3626717,145.75 L76.3426717,145.72 Z" id="Shape" fill="#203966"></path>
            <path d="M54.2126717,124.82 C54.9306419,124.82 55.5126717,124.23797 55.5126717,123.52 C55.5126717,122.80203 54.9306419,122.22 54.2126717,122.22 C53.4947015,122.22 52.9126717,122.80203 52.9126717,123.52 C52.9126717,124.23797 53.4947015,124.82 54.2126717,124.82 Z" id="Shape" fill="#203966"></path>
            <path d="M110.732672,130.13 C111.182672,128.94 113.522672,127.54 115.152672,126.64 L97.0726717,124.42 L96.3526717,125.28 C95.2842859,126.485105 94.4833646,127.902905 94.0026717,129.44 L110.112672,131.44 C110.346582,131.016755 110.553657,130.579226 110.732672,130.13 Z" id="Shape" fill="#C47971"></path>
            <path d="M93.6126717,131.23 L109.042672,133.13 L109.232672,132.88 C109.557524,132.423463 109.851512,131.945732 110.112672,131.45 L94.0026717,129.45 C93.857341,129.942876 93.7404813,130.443703 93.6526717,130.95 C93.6426717,131.05 93.6226717,131.13 93.6126717,131.23 Z" id="Shape" fill="#C44185"></path>
            <path d="M92.8626717,140.13 C97.2426717,139.63 101.612672,139.4 104.222672,137.53 C106.047837,136.358167 107.674857,134.903302 109.042672,133.22 L93.6126717,131.27 C93.2826717,133.25 93.1526717,135.9 92.8626717,140.13 Z" id="Shape" fill="#182E52"></path>
            <path d="M97.9226717,131.9 C97.1226717,132.78 93.7126717,137.28 94.8226717,137.9 C95.9326717,138.52 96.6326717,137.71 97.5926717,136.75 C97.8726717,137.27 98.7426717,137.29 99.5926717,136.6 C100.707336,136.613888 101.810977,136.378126 102.822672,135.91 C103.512672,135.6 104.122672,134.38 105.732672,133.1 C106.302672,131.63 106.242672,130.73 107.732672,129.37 C109.222672,128.01 113.192672,125.01 114.292672,123.91 C116.112672,122.09 117.942672,120.38 118.672672,118.07 C119.132672,116.62 118.362672,114.54 115.192672,113.5 C112.302672,112.56 111.192672,113.29 110.332672,114.41 C109.472672,115.53 108.472672,118.09 106.702672,120.85 C105.342672,122.97 104.432672,124.35 103.072672,125.13 C101.072672,126.31 100.512672,125.47 99.2826717,126.05 C97.8926717,126.72 97.2826717,126.56 96.6126717,127.37 C95.9426717,128.18 94.4126717,128.63 94.0526717,129.83 C93.8626717,130.44 95.0526717,132.4 95.4626717,132.32 C97.3726717,132 98.1026717,129.9 99.3426717,129.52 C99.6926717,129.24 100.672672,128.45 100.742672,129.15 C100.892672,130.33 98.7226717,131.03 97.9226717,131.9 Z" id="Shape" fill="#F3E1C4"></path>
            <path d="M104.152672,132.82 C103.598249,132.53373 102.97455,132.40899 102.352672,132.46 C101.692672,132.46 100.522672,131.86 100.432672,131.94 C99.7606522,132.399306 99.2251352,133.031562 98.8826717,133.77 C98.4851182,134.227161 98.0237004,134.624586 97.5126717,134.95 L96.9226717,135.41 C96.4426717,136.18 95.8226717,136.67 94.9226717,137.83 L94.9226717,137.89 C95.9226717,138.4 96.6626717,137.62 97.5926717,136.69 C97.8726717,137.21 98.7426717,137.23 99.5926717,136.54 C100.707336,136.553888 101.810977,136.318126 102.822672,135.85 C103.512672,135.54 104.122672,134.32 105.732672,133.04 C105.196277,133.147351 104.639336,133.069802 104.152672,132.82 Z" id="Shape" fill="#C2B49D"></path>
            <path d="M93.0726717,138.04 C95.0726717,132.35 98.5626717,123.43 100.252672,119.27 C100.592672,118.43 101.042672,117.59 101.592672,117.77 C102.142672,117.95 101.822672,119.02 101.522672,119.77 C99.5226717,125.18 95.9926717,134.15 94.2726717,138.33 C93.9138172,139.062834 93.4957634,139.765164 93.0226717,140.43 C92.9326717,140.58 92.7626717,140.61 92.7826717,140.37 C92.7940557,139.58508 92.8913012,138.803763 93.0726717,138.04 Z" id="Shape" fill="#21DE80"></path>
            <path d="M96.3426717,132.27 C95.6226717,133.43 94.4926717,134.64 93.1526717,136.77 C92.7226717,137.44 92.6926717,138.34 93.1526717,138.65 C93.6126717,138.96 94.2826717,138.76 94.9526717,137.85 C95.6993826,137.00123 96.4003747,136.113307 97.0526717,135.19 C98.0526717,133.29 98.6426717,133.38 99.5026717,131.92 C100.362672,130.46 101.812672,129.42 101.612672,128.32 C101.352672,126.9 100.322672,128.12 99.0026717,129.21 C97.9425097,130.065175 97.0419705,131.101133 96.3426717,132.27 Z" id="Shape" fill="#F3E1C4"></path>
            <path d="M93.1526717,135.02 C93.0426717,136.02 94.7426717,136.02 95.1526717,134.34 C95.3078732,133.541837 95.2873988,132.719451 95.0926717,131.93 C95.0317186,131.160357 94.8634218,130.403021 94.5926717,129.68 C94.3426717,129.11 93.9626717,129.57 93.9326717,130.68 C93.9026717,131.79 93.2926717,134.18 93.1526717,135.02 Z" id="Shape" fill="#F3E1C4"></path>
        </g>
    </g>
</svg>