<?xml version="1.0" encoding="UTF-8"?>
<svg width="214px" height="157px" viewBox="0 0 214 157" version="1.1" xmlns="http://www.w3.org/2000/svg" xmlns:xlink="http://www.w3.org/1999/xlink">
    <!-- Generator: Sketch 41.2 (35397) - http://www.bohemiancoding.com/sketch -->
    <title>timing</title>
    <desc>Created with Sketch.</desc>
    <defs></defs>
    <g id="Page-1" stroke="none" stroke-width="1" fill="none" fill-rule="evenodd">
        <g id="timing">
            <g id="classe" transform="translate(0.000000, 20.000000)">
                <path d="M191.743868,128.4072 L191.743868,9.212 C191.743882,5.42873334 188.682949,2.35894281 184.900472,2.3488 L8.79339623,2.3488 C5.01808764,2.35891005 1.96010798,5.41751699 1.95,9.1936 L1.95,128.3888 C1.96010798,132.164883 5.01808764,135.22349 8.79339623,135.2336 L184.900472,135.2336 C188.668635,135.22355 191.723677,132.176095 191.743868,128.4072 Z" id="Shape" fill="#6B676F"></path>
                <path d="M191.762264,10.224 L191.762264,128.3704 C191.752156,132.166807 188.677704,135.24189 184.882075,135.252 L9.84198113,135.252 C7.94925233,135.431508 6.05819886,134.892972 4.54386792,133.7432 C4.51285466,133.718778 4.49475234,133.68148 4.49475234,133.642 C4.49475234,133.60252 4.51285466,133.565222 4.54386792,133.5408 L189.223585,4.06 C189.27146,4.01981201 189.341275,4.01981201 189.389151,4.06 C191.145398,5.5993877 192.032678,7.90403651 191.762264,10.224 Z" id="Shape" fill="#55515A"></path>
                <path d="M184.900472,2.3488 C188.67578,2.35891005 191.73376,5.41751699 191.743868,9.1936 L191.743868,128.3888 C191.73376,132.164883 188.67578,135.22349 184.900472,135.2336 L8.79339623,135.2336 C5.01808764,135.22349 1.96010798,132.164883 1.95,128.3888 L1.95,9.212 C1.96010798,5.43591699 5.01808764,2.37731005 8.79339623,2.3672 L184.900472,2.3672 L184.900472,2.3488 Z M184.900472,0.7296 L8.79339623,0.7296 C4.10965683,0.7296 0.312735849,4.52729984 0.312735849,9.212 L0.312735849,128.4072 C0.312735849,130.656872 1.20623143,132.814404 2.79666376,134.405163 C4.3870961,135.995921 6.54418525,136.8896 8.79339623,136.8896 L184.900472,136.8896 C187.149683,136.8896 189.306772,135.995921 190.897204,134.405163 C192.487636,132.814404 193.381132,130.656872 193.381132,128.4072 L193.381132,9.212 C193.381132,4.52729984 189.584211,0.7296 184.900472,0.7296 L184.900472,0.7296 Z" id="Shape" fill="#FFFFFF"></path>
                <rect id="Rectangle-path" fill="#DFDEE0" x="7.43207547" y="9.4328" width="178.829717" height="118.7536"></rect>
                <ellipse id="Oval" fill="#FFFFFF" cx="96.8377358" cy="5.9736" rx="2.28113208" ry="2.2816"></ellipse>
                <polygon id="Shape" fill="#9C9B9B" points="86.8301887 118.2136 86.8301887 17.768 157.618868 17.768 159.016981 19.1848 159.016981 119.6304 88.2283019 119.6304"></polygon>
                <rect id="Rectangle-path" fill="#FFFFFF" x="86.8301887" y="17.768" width="70.7886792" height="100.4456"></rect>
                <polygon id="Shape" fill="#B2B1B3" points="145.256604 105.8488 156.901415 105.8488 145.256604 117.496"></polygon>
                <polygon id="Shape" fill="#FFFFFF" points="156.901415 117.496 145.256604 117.496 156.901415 105.8488"></polygon>
                <rect id="Rectangle-path" fill="#DFDEE0" x="93.9311321" y="27.7408" width="56.5867925" height="2.208"></rect>
                <rect id="Rectangle-path" fill="#DFDEE0" x="93.9127358" y="33.7024" width="40.0117925" height="2.208"></rect>
                <path d="M103.846698,84.6888 L103.846698,67.908 C108.850472,71.0912 115.362736,80.3832 118.858019,84.9648 L103.846698,84.6888 Z" id="Shape" fill="#DFDEE0"></path>
                <path d="M118.839623,84.9648 L144.226415,84.9648 C140.54717,89.0312 136.555189,91.4048 131.698585,91.4048 C126.623903,91.4615101 121.834387,89.0628346 118.839623,84.9648 L118.839623,84.9648 Z" id="Shape" fill="#DFDEE0"></path>
                <path d="M103.865094,99.6848 C103.600936,99.6848 103.386792,99.470613 103.386792,99.2064 L103.386792,56.8864 C103.386792,56.617106 103.605054,56.3988 103.874292,56.3988 C104.143531,56.3988 104.361792,56.617106 104.361792,56.8864 L104.361792,99.2064 C104.361889,99.3365329 104.308979,99.4610896 104.215261,99.5513552 C104.121543,99.6416208 103.995104,99.6898051 103.865094,99.6848 Z" id="Shape" fill="#2D8BEA"></path>
                <path d="M150.517925,85.4248 L93.9127358,85.4248 C93.643497,85.4248 93.4252358,85.206494 93.4252358,84.9372 C93.4252358,84.667906 93.643497,84.4496 93.9127358,84.4496 L150.517925,84.4496 C150.787163,84.4496 151.005425,84.667906 151.005425,84.9372 C151.005425,85.206494 150.787163,85.4248 150.517925,85.4248 L150.517925,85.4248 Z" id="Shape" fill="#2D8BEA"></path>
                <path d="M131.698585,92.104 C123.769811,92.104 119.483491,87.8536 112.290566,77.66 C106.183019,69.012 101.54717,66.0864 93.8943396,66.0864 C93.5372354,66.0293894 93.2744744,65.7212987 93.2744744,65.3596 C93.2744744,64.9979013 93.5372354,64.6898106 93.8943396,64.6328 C101.988679,64.6328 107.10283,67.816 113.467925,76.832 C121.139151,87.688 125.039151,90.6504 131.680189,90.6504 C138.321226,90.6504 144.943868,85.1304 149.837264,75.3416 C150.040881,75.0229145 150.452838,74.910455 150.790088,75.0814901 C151.127338,75.2525252 151.280092,75.6513758 151.143396,76.004 C146.010849,86.216 138.909906,92.104 131.698585,92.104 Z" id="Shape" fill="#F454A8"></path>
                <path d="M122.537264,63.0688 C121.602647,63.066973 120.754734,62.5207478 120.366509,61.6704 C120.030176,60.8325606 120.084114,59.8884647 120.513679,59.0944 C121.045179,57.9539868 122.034248,57.0917155 123.236321,56.7208 C123.341263,56.6929645 123.452986,56.7084688 123.546388,56.7638292 C123.63979,56.8191897 123.707036,56.9097635 123.733019,57.0152 C123.766887,57.11771 123.756333,57.2297174 123.703913,57.3240933 C123.651493,57.4184693 123.561987,57.4866059 123.457075,57.512 C122.223964,57.8551086 121.353887,58.9559456 121.304717,60.2352 C121.165794,60.9380973 121.602926,61.6263163 122.298113,61.7992 C123.059794,61.9513507 123.824828,61.5534511 124.137736,60.8424 C124.586856,59.3027596 124.73673,57.6912803 124.579245,56.0952 C124.579245,55.304 124.579245,54.6048 124.432075,53.9608 C124.004356,54.3152948 123.54915,54.635235 123.070755,54.9176 L123.070755,54.9176 C123.001912,54.9764961 122.900447,54.9764961 122.831604,54.9176 C122.77272,54.8487428 122.77272,54.7472572 122.831604,54.6784 C123.358571,54.2650777 123.862177,53.8227964 124.340094,53.3536 L124.229717,52.3968 C124.229717,51.6608 124.064151,50.9616 124.008962,50.1704 L124.008962,49.5448 C123.773254,48.1563366 123.773254,46.7380634 124.008962,45.3496 C124.162871,44.7751798 124.651082,44.3524628 125.241509,44.2824 C125.640794,44.2437429 126.035282,44.3934072 126.308491,44.6872 C127.13582,45.9470437 127.487956,47.4602306 127.301887,48.956 C127.082619,50.6579194 126.291171,52.2346504 125.057547,53.4272 L125.167925,54.5312 L125.351887,56.3712 C125.60684,58.089907 125.442748,59.8447844 124.873585,61.4864 C124.505196,62.4686202 123.585185,63.1352217 122.537264,63.1792 L122.537264,63.0688 Z M125.333491,45.4232 C124.928774,45.4232 124.708019,45.6808 124.634434,46.2144 C124.612307,47.3995988 124.655297,48.5851185 124.763208,49.7656 C124.763208,50.7776 124.928774,51.6056 125.002358,52.5624 C126.569029,50.9077764 127.105462,48.5286319 126.400472,46.3616 C126.198113,45.92 125.775,45.4232 125.351887,45.4232 L125.333491,45.4232 Z" id="Shape" fill="#F454A8"></path>
                <path d="M130.815566,60.18 C130.672305,60.1760946 130.540757,60.0999201 130.466038,59.9776 C128.442453,56.8496 127.87217,52.1208 130.723585,49.1584 L130.723585,49.1584 L130.815566,49.0664 L131.036321,49.2504 L131.036321,49.3792 C128.55283,52.5072 129.601415,56.7392 131.275472,59.5544 C131.336427,59.6464466 131.357149,59.7594022 131.332836,59.8670977 C131.308522,59.9747933 131.241284,60.0678829 131.146698,60.1248 C131.047217,60.1842742 130.928954,60.2039888 130.815566,60.18 L130.815566,60.18 Z" id="Shape" fill="#F454A8"></path>
                <path d="M136.021698,56.5 C135.949848,56.5226005 135.872794,56.5226005 135.800943,56.5 C135.304245,56.132 134.825943,55.6904 134.366038,55.2856 L133.850943,54.8256 L133.317453,54.3656 C132.770358,53.9294789 132.259706,53.4494904 131.790566,52.9304 L131.790566,52.9304 C131.707371,52.8287215 131.707371,52.6824785 131.790566,52.5808 C131.886317,52.500424 132.025947,52.500424 132.121698,52.5808 C132.666798,52.9254756 133.183532,53.3131057 133.666981,53.74 L134.126887,54.1264 L134.752358,54.6232 C135.267453,55.028 135.81934,55.4512 136.297642,55.9296 C136.454316,56.0874441 136.454316,56.3421559 136.297642,56.5 C136.208797,56.5339776 136.110543,56.5339776 136.021698,56.5 L136.021698,56.5 Z" id="Shape" fill="#F454A8"></path>
                <path d="M132.011321,56.7024 L132.011321,56.7024 L131.864151,56.7024 C131.842671,56.6492904 131.842671,56.5899096 131.864151,56.5368 C131.843674,56.4898707 131.843674,56.4365293 131.864151,56.3896 L131.992925,56.2424 C133.151887,54.8624 134.347642,53.4272 135.469811,51.9736 C135.545578,51.8566628 135.680881,51.7925588 135.81934,51.808 C135.952523,51.8307645 136.064138,51.9214702 136.113679,52.0472 C136.186723,52.1656397 136.186723,52.3151603 136.113679,52.4336 C134.913896,53.9395657 133.623786,55.3712674 132.250472,56.7208 L132.011321,56.7024 Z" id="Shape" fill="#F454A8"></path>
                <path d="M138.560377,59.3888 C138.493917,59.4051708 138.424479,59.4051708 138.358019,59.3888 C138.257884,59.3376798 138.182206,59.2488014 138.147691,59.1417841 C138.113177,59.0347668 138.122663,58.9184104 138.174057,58.8184 C140.059611,55.5653275 139.457614,51.4419421 136.720755,48.864 C136.648316,48.7862649 136.648316,48.6657351 136.720755,48.588 C136.798474,48.5155467 136.918979,48.5155467 136.996698,48.588 C140.34256,51.110685 141.148421,55.8017573 138.836321,59.2968 C138.758916,59.3606095 138.660579,59.3933954 138.560377,59.3888 L138.560377,59.3888 Z" id="Shape" fill="#F454A8"></path>
                <path d="M146.470755,55.212 C145.86355,55.2023528 145.283549,54.9584388 144.851887,54.5312 C144.164282,53.7730031 144.082174,52.6435499 144.652888,51.7938392 C145.223602,50.9441285 146.300054,50.5931491 147.261792,50.9432 L147.261792,50.9432 C147.325289,50.9695372 147.372896,51.0239562 147.390566,51.0904 C147.595134,51.0632249 147.789462,51.1876201 147.850472,51.3848 C148.163208,52.2312 148.475943,54.0528 147.556132,54.844 C147.249675,55.0919902 146.86481,55.2224796 146.470755,55.212 L146.470755,55.212 Z M146.709906,51.348 C146.077422,51.299763 145.472006,51.6132188 145.146226,52.1576 C144.801599,52.754622 144.89959,53.508554 145.385377,53.9976 C145.729881,54.3074879 146.200173,54.4370152 146.654717,54.3472 C146.894767,54.2896193 147.084832,54.106556 147.151415,53.8688 C147.313058,53.1975986 147.313058,52.4976014 147.151415,51.8264 L147.151415,51.6424 C147.130326,51.5640617 147.130326,51.4815383 147.151415,51.4032 L146.709906,51.348 Z" id="Shape" fill="#F454A8"></path>
                <path d="M149.064623,54.8624 C148.953811,54.8626054 148.850241,54.8073569 148.788679,54.7152 C147.274551,52.5949462 146.428894,50.0702698 146.360377,47.4656 C146.353008,47.3526811 146.420177,47.2481737 146.525943,47.208 C146.595798,47.1748582 146.676843,47.1748582 146.746698,47.208 C146.805794,47.2445428 146.84608,47.3049841 146.857075,47.3736 C147.389231,49.8048862 148.223546,52.1599914 149.340566,54.384 C149.423512,54.5418696 149.366586,54.7370855 149.211792,54.8256 L149.064623,54.8624 Z" id="Shape" fill="#F454A8"></path>
                <path d="M153.590094,53.9792 C153.493841,53.9742468 153.402515,53.9350989 153.332547,53.8688 L152.375943,53.0592 C151.507929,52.396783 150.712459,51.6443239 150.00283,50.8144 C149.950686,50.7431955 149.950686,50.6464045 150.00283,50.5752 C150.071673,50.5163039 150.173138,50.5163039 150.241981,50.5752 C150.725029,50.8502878 151.180851,51.1706609 151.603302,51.532 L152.008019,51.8448 L153.277358,52.8384 L153.884434,53.3168 C153.984439,53.3955201 154.033765,53.5223846 154.013208,53.648 C153.985016,53.7988595 153.880536,53.9242606 153.737264,53.9792 L153.590094,53.9792 Z" id="Shape" fill="#F454A8"></path>
                <path d="M150.665094,54.2184 L150.665094,54.2184 C150.552161,54.1764529 150.483388,54.0618075 150.499528,53.9424 C150.907382,52.4162468 151.526584,50.9546295 152.339151,49.6 C152.408317,49.47214 152.54338,49.3939297 152.688679,49.3976 C152.847829,49.396175 152.995428,49.4805347 153.075,49.6184 C153.148044,49.7368397 153.148044,49.8863603 153.075,50.0048 C152.559906,50.796 152.136792,51.6424 151.713679,52.4704 C151.437736,53.004 151.143396,53.5744 150.849057,54.108 C150.82309,54.184934 150.745183,54.2316878 150.665094,54.2184 L150.665094,54.2184 Z" id="Shape" fill="#F454A8"></path>
                <path d="M110.432547,64.6144 C110.285911,64.6321281 110.137674,64.6321281 109.991038,64.6144 C109.687677,64.5525328 109.421676,64.371835 109.252339,64.1125929 C109.083002,63.8533509 109.024409,63.5371186 109.089623,63.2344 C109.139248,63.0068426 109.335338,62.8408859 109.567925,62.8296 C109.834595,62.8053105 110.084056,62.9640915 110.175,63.216 L110.175,63.3448 C110.175,63.5656 110.285377,63.6576 110.414151,63.676 C110.83899,63.7164344 111.259029,63.5605816 111.554717,63.2528 C113.008019,61.7624 112.584906,56.868 112.400943,54.7888 L112.400943,54.1264 C112.400943,52.8752 112.180189,51.6056 112.069811,50.4464 C111.959434,49.2872 111.812264,47.6864 111.720283,46.3064 L111.720283,45.8648 C111.609906,44.6504 111.481132,42.9944 112.511321,42.1848 C113.212939,41.5931983 114.224742,41.5478843 114.976415,42.0744 L114.976415,42.0744 C115.165185,42.1900791 115.266575,42.4073878 115.233962,42.6264 C115.197296,42.8582897 115.033913,43.0501265 114.810849,43.1232 C114.581556,43.1607999 114.355481,43.0402021 114.258962,42.8288 L114.111792,42.6632 C114.050429,42.5675676 113.976141,42.4808802 113.891038,42.4056 C113.696551,42.297509 113.460053,42.297509 113.265566,42.4056 C112.180189,42.9576 112.474528,45.8464 112.566509,46.8032 L112.566509,47.0424 C112.566509,48.0176 112.750472,48.9928 112.860849,49.9496 L112.95283,50.9064 C113.214767,53.0621309 113.362144,55.2302461 113.39434,57.4016 L113.39434,57.8616 C113.39434,60.18 113.39434,64.4672 110.46934,64.6512 L110.432547,64.6144 Z" id="Shape" fill="#F454A8"></path>
                <rect id="Rectangle-path" fill="#203966" x="16.9245283" y="70.5944" width="49.0075472" height="49.0176"></rect>
                <rect id="Rectangle-path" fill="#203966" x="16.9245283" y="70.5944" width="49.0075472" height="49.0176"></rect>
                <path d="M21.4316038,119.6304 C22.4985849,114.4784 24.3566038,112.6568 27.0608491,111.9208 C29.7650943,111.1848 30.8504717,108.9584 29.7099057,107.1184 C28.5693396,105.2784 23.3448113,99.4088 23.3448113,91.1472 C23.3448113,82.8856 28.1462264,78.5984 32.8188679,78.2672 C36.4767868,77.9106172 40.0510357,79.5127129 42.2193396,82.4808 C43.8014151,84.7808 43.6358491,102.9968 40.9316038,104.432 C38.2273585,105.8672 34.3089623,108.3328 34.1617925,110.8536 C34.0146226,113.3744 37.5283019,113.7608 39.2575472,114.92 C40.7417356,116.235092 41.9866037,117.797722 42.9367925,119.5384 L21.4316038,119.6304 Z" id="Shape" fill="#182E52"></path>
                <path d="M27.7966981,97.9 C27.7966784,98.5625565 28.0094953,99.2075885 28.4037736,99.74 C28.9352777,100.243537 29.4159,100.798215 29.8386792,101.396 C30.3473961,102.346397 30.2688158,103.503908 29.6363208,104.3768 C31.4873435,104.796789 33.4295888,104.437533 35.0080189,103.3832 C35.3207547,103.1808 34.6216981,101.2488 34.6033019,100.936 C34.7407415,99.3431806 34.4947271,97.7406038 33.8858491,96.2624 C33.554717,95.8024 31.8438679,95.7288 29.6363208,95.6 C28.5989879,95.9011026 27.8626893,96.8216647 27.7966981,97.9 L27.7966981,97.9 Z" id="Shape" fill="#F3988C"></path>
                <path d="M33.8306604,96.2808 C33.5731132,95.9312 32.5245283,95.8024 31.0528302,95.7104 C30.8624587,96.006021 30.8216037,96.3737918 30.9424528,96.704 C30.3148644,99.3251677 30.593702,102.081686 31.7334906,104.524 C32.8825191,104.447255 33.9890194,104.059265 34.934434,103.4016 C35.2471698,103.1992 34.5481132,101.2672 34.529717,100.9544 C34.6729727,99.3630567 34.4332744,97.7605336 33.8306604,96.2808 Z" id="Shape" fill="#C47971"></path>
                <path d="M51.4174528,116.4288 C51.3692585,115.531484 51.1176278,114.656888 50.6816038,113.8712 C49.7433962,112.4728 48.0325472,112.9696 46.6528302,113.172 L41.1339623,113.9448 C38.9448113,114.2392 36.7188679,114.3128 34.529717,114.6072 C32.9599057,114.815733 31.3962264,115.054933 29.8386792,115.3248 C28.4958353,115.394508 27.1785273,115.719219 25.9570755,116.2816 C25.7467233,116.453281 25.5823574,116.674589 25.4787736,116.9256 L24.0070755,119.704 L51.9509434,119.704 C51.7117925,118.5448 51.5646226,117.4776 51.4174528,116.4288 Z" id="Shape" fill="#21DE80"></path>
                <path d="M32.175,116.2816 C31.7668777,117.373059 31.8267738,118.58454 32.340566,119.6304 L32.6349057,119.6304 C32.0335013,118.634931 31.9380046,117.413686 32.3773585,116.3368 C32.4325472,116.208 32.2301887,116.1528 32.175,116.2816 Z" id="Shape" fill="#1FB366"></path>
                <path d="M40.6740566,113.9632 C39.9939418,113.924653 39.3121903,113.924653 38.6320755,113.9632 C37.7016991,113.937775 36.7711151,114.005579 35.8542453,114.1656 C35.1067848,114.292461 34.4428641,114.717457 34.0146226,115.3432 C33.6144908,116.081936 33.5283037,116.950615 33.7754717,117.7536 C33.9398128,118.451327 34.2967614,119.088865 34.8056604,119.5936 L42.0169811,119.5936 C42.3137448,119.224216 42.5327572,118.798619 42.6608491,118.3424 C43.1759434,116.6128 43.0103774,114.184 40.6740566,113.9632 Z" id="Shape" fill="#F3E1C4"></path>
                <path d="M40.6740566,113.9632 C39.9939406,113.924692 39.3121914,113.924692 38.6320755,113.9632 C37.7016991,113.937775 36.7711151,114.005579 35.8542453,114.1656 C35.1067848,114.292461 34.4428641,114.717457 34.0146226,115.3432 C33.8910715,115.549477 33.7981207,115.772605 33.7386792,116.0056 C36.6820755,115.6008 39.6254717,115.3984 42.5688679,115.0856 C42.1909262,114.392147 41.4636871,113.961364 40.6740566,113.9632 Z" id="Shape" fill="#C2B49D"></path>
                <path d="M37.1051887,106.2168 L37.1051887,107.0632 C36.9212264,108.1488 36.8292453,109.2712 36.6268868,110.3568 C36.3509434,111.8656 35.9462264,113.356 35.5599057,114.8464 C35.5599057,115.196 35.1919811,115.7848 35.3023585,116.0976 C35.504717,116.76 36.4429245,116.8704 36.9948113,116.9808 C37.9031525,117.236185 38.8643003,117.236185 39.7726415,116.9808 C40.9132075,116.5392 40.5820755,115.4352 40.5636792,114.46 C40.5900524,113.475088 40.7132881,112.495164 40.9316038,111.5344 C41.1891509,110.1728 41.6122642,108.94 41.925,107.6152 C42.0537736,107.1 42.0721698,107.2656 41.6674528,107.0816 C41.3858231,106.95997 41.097087,106.855512 40.8028302,106.7688 C40.3245283,106.6216 39.809434,106.5848 39.3311321,106.4192 C38.8528302,106.2536 37.620283,104.5792 37.2523585,105.6464 C37.1754997,105.828252 37.1259083,106.020458 37.1051887,106.2168 Z" id="Shape" fill="#F3E1C4"></path>
                <path d="M39.2023585,112.7488 L39.0919811,113.0616 C39.0611874,113.105833 39.0611874,113.164567 39.0919811,113.2088 C39.1362053,113.2396 39.1949268,113.2396 39.2391509,113.2088 L39.3495283,112.896 C39.3870042,112.854092 39.3870042,112.790708 39.3495283,112.7488 C39.307629,112.711316 39.2442578,112.711316 39.2023585,112.7488 L39.2023585,112.7488 Z" id="Shape" fill="#C2B49D"></path>
                <path d="M39.7542453,111.8472 C39.9172268,111.517879 40.022982,111.163215 40.0669811,110.7984 C40.0669811,110.5776 39.7358491,110.5776 39.7174528,110.7984 C39.6869316,111.125765 39.6126859,111.447562 39.4966981,111.7552 C39.4966981,111.9024 39.6806604,112.0128 39.7542453,111.8656 L39.7542453,111.8472 Z" id="Shape" fill="#C2B49D"></path>
                <path d="M41.6122642,107.1 C41.3306178,106.978412 41.0418843,106.873955 40.7476415,106.7872 C40.2693396,106.64 39.7542453,106.6032 39.2759434,106.4376 C38.7976415,106.272 37.5650943,104.5976 37.1971698,105.6648 C37.1362789,105.836816 37.0991438,106.016339 37.0867925,106.1984 L37.0867925,107.0448 C36.9764151,107.6704 36.9028302,108.296 36.8292453,108.8848 C38.198557,109.588327 39.6697474,110.072615 41.1891509,110.32 C41.4283019,109.4 41.6858491,108.48 41.9066038,107.5968 C41.9985849,107.1184 42.0169811,107.2288 41.6122642,107.1 Z" id="Shape" fill="#C2B49D"></path>
                <path d="M42.3113208,108.0568 L42.3113208,108.0568 C39.7590686,108.106914 37.2957858,107.118718 35.4855289,105.318496 C33.675272,103.518274 32.673098,101.060222 32.7084906,98.5072 L32.7084906,88.5528 C32.6592395,85.9565169 33.6434013,83.4470479 35.4443788,81.5766838 C37.2453563,79.7063197 39.7155528,78.6283438 42.3113208,78.58 L42.3113208,78.58 C46.4990674,79.0239134 49.8214749,82.308806 50.3136792,86.492 C51.3632999,90.3616293 51.9802844,94.3358243 52.1533019,98.3416 C52.1128015,103.740638 47.7093162,108.087399 42.3113208,108.0568 Z" id="Shape" fill="#F3E1C4"></path>
                <path d="M41.0971698,75.5808 C43.8747552,75.6356805 46.6112924,76.2620189 49.1363208,77.4208 C51.5907385,78.382546 54.1658641,79.0016936 56.7891509,79.2608 C57.3962264,79.2608 59.9716981,79.592 60.5971698,79.6288 C62.2712264,79.9048 61.7377358,82.5912 59.6773585,81.8184 C58.7546118,81.3385284 57.6719176,81.2716817 56.6971698,81.6344 C56.5041786,81.7855381 56.3826788,82.0101102 56.3617461,82.2543749 C56.3408134,82.4986397 56.4223314,82.7406169 56.5867925,82.9224 C56.8627358,83.2536 57.1570755,83.6768 57.0099057,84.0816 C56.8627358,84.4864 56.2188679,84.8912 55.979717,85.0936 C54.6,86.3264 55.2806604,87.5224 57.0650943,88.4792 C57.0650943,89.1784 56.1268868,90.5584 55.2254717,90.5584 C54.3240566,90.5584 51.7853774,89.5096 51.0127358,89.5096 L50.4608491,87.2096 C48.3106852,86.1835994 46.2652337,84.9511469 44.3533019,83.5296 C41.6306604,81.4688 39.4599057,83.1984 39.2023585,85.3696 C35.909434,84.5048 34.1617925,86.8784 34.9896226,90.8896 C35.2471698,92.1224 36.2221698,93.5024 35.2839623,94.312 C33.9964001,95.1460503 32.4016907,95.3555678 30.9424528,94.8824 C29.3854992,94.6734314 27.9389572,93.9629303 26.8216981,92.8584 C25.5485758,91.3425658 25.0653817,89.3146652 25.5181149,87.3874374 C25.9708481,85.4602095 27.3063996,83.8597334 29.1212264,83.0696 C30.4741442,82.6723181 31.7910905,82.1614351 33.0580189,81.5424 C33.8306604,77.7888 36.7188679,75.5808 41.0971698,75.5808 Z" id="Shape" fill="#F3988C"></path>
                <path d="M32.3037736,73.98 C31.9012693,75.1651312 31.6961792,76.4083564 31.6966981,77.66 C31.7271466,78.3827639 31.9088931,79.0910936 32.2301887,79.7392 C32.6685337,80.7653807 33.536705,81.5462221 34.6033019,81.8736 C36.2589623,82.5176 33.8674528,84.1184 32.7636792,83.7136 C31.7790834,83.3175771 31.0323401,82.4892011 30.7400943,81.4688 C30.1319329,78.8640336 30.704145,76.1235854 32.3037736,73.98 Z" id="Shape" fill="#F3988C"></path>
                <ellipse id="Oval" fill="#F3E1C4" cx="30.795283" cy="94.3488" rx="2.85141509" ry="2.852"></ellipse>
                <path d="M35.4679245,79.9048 C36.3294465,78.7966847 37.5014448,77.9703525 38.834434,77.5312 C40.3674395,77.0903069 42.0122045,77.2686915 43.4150943,78.028 C43.7462264,78.212 44.0589623,77.6968 43.709434,77.5128 C40.7472645,75.9067775 37.0474853,76.8721353 35.2471698,79.7208 C35.2471698,79.8496 35.3575472,80.0152 35.4679245,79.8864 L35.4679245,79.9048 Z" id="Shape" fill="#F3E1C4"></path>
                <path d="M27.3919811,87.3752 C28.13611,85.5179802 30.0191576,84.3774147 32.009434,84.5784 C32.1213857,84.6080584 32.2399412,84.5646411 32.3062773,84.4696901 C32.3726134,84.3747392 32.3726134,84.2484608 32.3062773,84.1535099 C32.2399412,84.0585589 32.1213857,84.0151416 32.009434,84.0448 C29.7756286,83.7803141 27.6685409,85.1390083 26.9872642,87.2832 C26.9872642,87.504 27.2264151,87.5592 27.3183962,87.2832 L27.3919811,87.3752 Z" id="Shape" fill="#F3E1C4"></path>
                <path d="M31.4759434,82.0024 C30.7529838,81.4170839 30.2582192,80.5966481 30.0778302,79.684 C29.9293148,78.5833581 30.1084798,77.4633475 30.5929245,76.464 C30.6555974,76.3919598 30.6648653,76.2877852 30.6158944,76.2058086 C30.5669236,76.123832 30.4708135,76.0826335 30.3776903,76.1037002 C30.2845671,76.1247669 30.2155375,76.203324 30.2066038,76.2984 C29.6984376,77.3887871 29.5255599,78.6055831 29.7099057,79.7944 C29.8651088,80.7983634 30.458222,81.6814746 31.3287736,82.2048 C31.4575472,82.2048 31.604717,82.0944 31.4943396,81.984 L31.4759434,82.0024 Z" id="Shape" fill="#F3E1C4"></path>
                <path d="M52.7787736,79.4816 C55.7336765,80.2824779 58.7871629,80.6603702 61.8481132,80.604 C61.9700327,80.604 62.0688679,80.5051445 62.0688679,80.3832 C62.0688679,80.2612555 61.9700327,80.1624 61.8481132,80.1624 C58.8228424,80.1879929 55.8045932,79.866968 52.8523585,79.2056 C52.7710788,79.2056 52.7051887,79.2715037 52.7051887,79.3528 C52.7051887,79.4340963 52.7710788,79.5 52.8523585,79.5 L52.7787736,79.4816 Z" id="Shape" fill="#F3E1C4"></path>
                <path d="M54.3608491,82.996 C55.2775893,83.3393339 56.2521449,83.5017931 57.2306604,83.4744 C57.3830597,83.4744 57.5066038,83.3508306 57.5066038,83.1984 C57.5066038,83.0459694 57.3830597,82.9224 57.2306604,82.9224 C56.3066121,82.9112217 55.3869054,82.7939196 54.4896226,82.5728 C54.3802376,82.559991 54.2781464,82.6297798 54.2503467,82.7363674 C54.2225469,82.842955 54.2775437,82.9537317 54.3792453,82.996 L54.3608491,82.996 Z" id="Shape" fill="#F3E1C4"></path>
                <path d="M53.5514151,86.4736 C54.3007811,87.0697307 55.1558132,87.5191828 56.0716981,87.7984 C56.1702832,87.8246947 56.2754048,87.7963868 56.3474646,87.7241395 C56.4195243,87.6518921 56.4475748,87.5466815 56.4210495,87.4481395 C56.3945242,87.3495974 56.317453,87.2726947 56.2188679,87.2464 C55.3662176,86.9927576 54.5634951,86.594426 53.8457547,86.0688 C53.6066038,85.9032 53.3122642,86.2896 53.5330189,86.4736 L53.5514151,86.4736 Z" id="Shape" fill="#F3E1C4"></path>
                <path d="M56.6419811,89.5464 C55.6301887,89.1048 54.5448113,88.8288 53.5330189,88.3688 C51.8761995,87.7195324 50.3065934,86.8665793 48.8603774,85.8296 C47.2879575,84.3046221 45.5757101,82.9308469 43.7462264,81.7264 C42.7793671,81.2265248 41.6176133,81.2899062 40.7108491,81.892 C39.7542453,82.536 38.8712264,84.008 39.3311321,84.5968 L39.3311321,84.5968 C39.9382075,82.7568 41.9066038,81.6712 44.3165094,83.4744 C46.2284413,84.8959469 48.2738927,86.1283994 50.4240566,87.1544 L50.9759434,89.4544 C51.7485849,89.4544 54.3976415,90.5032 55.1886792,90.5032 C55.793426,90.4220389 56.328323,90.0698826 56.6419811,89.5464 L56.6419811,89.5464 Z" id="Shape" fill="#C47971"></path>
                <path d="M41.0971698,75.5808 C43.8747552,75.6356805 46.6112924,76.2620189 49.1363208,77.4208 C51.5907385,78.382546 54.1658641,79.0016936 56.7891509,79.2608 C57.3962264,79.2608 59.9716981,79.592 60.5971698,79.6288 C62.2712264,79.9048 61.7377358,82.5912 59.6773585,81.8184 C58.7546118,81.3385284 57.6719176,81.2716817 56.6971698,81.6344 C56.5041786,81.7855381 56.3826788,82.0101102 56.3617461,82.2543749 C56.3408134,82.4986397 56.4223314,82.7406169 56.5867925,82.9224 C56.8627358,83.2536 57.1570755,83.6768 57.0099057,84.0816 C56.8627358,84.4864 56.2188679,84.8912 55.979717,85.0936 C54.6,86.3264 55.2806604,87.5224 57.0650943,88.4792 C57.0650943,89.1784 56.1268868,90.5584 55.2254717,90.5584 C54.3240566,90.5584 51.7853774,89.5096 51.0127358,89.5096 L50.4608491,87.2096 C48.3106852,86.1835994 46.2652337,84.9511469 44.3533019,83.5296 C41.6306604,81.4688 39.4599057,83.1984 39.2023585,85.3696 C35.909434,84.5048 34.1617925,86.8784 34.9896226,90.8896 C35.2471698,92.1224 36.2221698,93.5024 35.2839623,94.312 C33.9964001,95.1460503 32.4016907,95.3555678 30.9424528,94.8824 C29.3854992,94.6734314 27.9389572,93.9629303 26.8216981,92.8584 C25.5485758,91.3425658 25.0653817,89.3146652 25.5181149,87.3874374 C25.9708481,85.4602095 27.3063996,83.8597334 29.1212264,83.0696 C30.4741442,82.6723181 31.7910905,82.1614351 33.0580189,81.5424 C33.8306604,77.7888 36.7188679,75.5808 41.0971698,75.5808 Z" id="Shape"></path>
                <path d="M38.5400943,88.0008 C39.3127358,88.0008 40.0853774,87.7616 40.8764151,87.7432 C41.6718888,87.7401368 42.4660577,87.8078705 43.2495283,87.9456 C43.4488105,87.9992397 43.6611491,87.9331081 43.7947572,87.7757916 C43.9283653,87.6184752 43.9592756,87.3981942 43.8741266,87.2101687 C43.7889776,87.0221432 43.6030438,86.9001022 43.3966981,86.8968 C42.5602803,86.7856266 41.7128329,86.7856266 40.8764151,86.8968 C40.0372177,86.9688247 39.2193788,87.1998648 38.4665094,87.5776 C38.3868029,87.6156705 38.3453988,87.7050286 38.3678778,87.7904663 C38.3903568,87.8759039 38.4703732,87.9333027 38.5584906,87.9272 L38.5400943,88.0008 Z" id="Shape" fill="#544B4D"></path>
                <path d="M46.7448113,88.4056 C45.7410273,89.1135605 44.9925866,90.126744 44.6108491,91.2944 C44.2173344,92.3385357 44.0970214,93.4659101 44.2613208,94.5696 C44.2613208,95.048 44.3716981,95.7288 44.3716981,96.0048 L44.3716981,98.544 C44.3716981,98.8568 43.7646226,98.912 43.4334906,98.9304 C43.1023585,98.9488 42.7712264,98.5624 42.5136792,98.7096 C42.2561321,98.8568 42.5136792,99.1696 42.6608491,99.3352 C43.1175014,99.5584208 43.6260644,99.6537959 44.1325472,99.6112 C44.3716981,99.6112 44.9419811,99.464 45.0339623,99.2248 C45.1230923,98.9583386 45.160555,98.6773104 45.1443396,98.3968 C45.0447622,97.0748436 44.8666171,95.759986 44.6108491,94.4592 C44.4036141,93.4458363 44.4478282,92.397116 44.7396226,91.4048 C44.9384309,90.8496677 45.2106611,90.3236606 45.5490566,89.8408 C45.9227092,89.3545867 46.3348896,88.8992493 46.7816038,88.4792 L46.7448113,88.4056 Z" id="Shape" fill="#F3988C"></path>
                <ellipse id="Oval" fill="#F3988C" cx="41.520283" cy="94.7536" rx="0.386320755" ry="0.3864"></ellipse>
                <ellipse id="Oval" fill="#F3988C" cx="41.8330189" cy="96.06" rx="0.386320755" ry="0.3864"></ellipse>
                <ellipse id="Oval" fill="#F3988C" cx="40.0669811" cy="95.6184" rx="0.423113208" ry="0.4232"></ellipse>
                <ellipse id="Oval" fill="#F3988C" cx="46.3768868" cy="94.9928" rx="0.386320755" ry="0.3864"></ellipse>
                <ellipse id="Oval" fill="#F3988C" cx="47.0207547" cy="96.2808" rx="0.349528302" ry="0.3496"></ellipse>
                <ellipse id="Oval" fill="#F3988C" cx="48.3820755" cy="95.7472" rx="0.423113208" ry="0.4232"></ellipse>
                <path d="M46.6896226,88.5344 C47.4936372,88.7526879 48.2806367,89.0294242 49.0443396,89.3624 C49.3938679,89.5096 49.8353774,89.068 49.4858491,88.7736 C48.7535537,88.1536775 47.9021054,87.6902944 46.9839623,87.412 C46.6791636,87.3256227 46.3620672,87.5027389 46.2757076,87.8076 C46.189348,88.1124612 46.3664278,88.4296226 46.6712264,88.516 L46.6896226,88.5344 Z" id="Shape" fill="#544B4D"></path>
                <path d="M42.5136792,90.7792 C41.4683051,90.5774399 40.3898996,90.627902 39.3679245,90.9264 C39.2023585,90.9264 39.2759434,91.184 39.3679245,91.1472 C39.7149213,91.0856942 40.0649445,91.0427001 40.4165094,91.0184 C40.4165094,91.1104 40.3245283,91.2208 40.2877358,91.3128 C40.1130781,91.6484616 40.0186229,92.0200617 40.0117925,92.3984 C40.0229463,92.4960207 40.0768602,92.5836487 40.1589623,92.6376 C39.9053567,92.6463471 39.6529915,92.6771296 39.404717,92.7296 C39.2391509,92.7296 39.2943396,92.9872 39.404717,92.9688 C40.0578881,92.8806282 40.7199421,92.8806282 41.3731132,92.9688 C41.6122642,92.9688 41.6122642,92.6376 41.3731132,92.6376 L40.9316038,92.6376 C41.0103765,92.1133216 41.0595112,91.5850154 41.0787736,91.0552 C41.4680484,91.0651636 41.8557688,91.1082525 42.2377358,91.184 C42.6240566,91.2024 42.7528302,90.8344 42.5136792,90.7792 Z" id="Shape" fill="#544B4D"></path>
                <path d="M48.3636792,91.552 C47.5492398,91.3448656 46.7182397,91.2094156 45.8801887,91.1472 C45.809069,91.1472 45.7514152,91.2048658 45.7514152,91.276 C45.7514152,91.3471342 45.809069,91.4048 45.8801887,91.4048 L46.5240566,91.5888 C46.2963832,91.9211976 46.1398102,92.2970501 46.0641509,92.6928 C46.011823,92.7904986 46.011823,92.9079014 46.0641509,93.0056 L45.5674528,93.0056 C45.5137009,92.9841107 45.452219,93.0011363 45.4171707,93.0472162 C45.3821224,93.0932961 45.3821224,93.1571039 45.4171707,93.2031838 C45.452219,93.2492637 45.5137009,93.2662893 45.5674528,93.2448 C46.183895,93.2367718 46.7997496,93.2860502 47.4070755,93.392 C47.609434,93.392 47.6830189,93.1712 47.4070755,93.1344 C47.2295942,93.1186431 47.0510662,93.1186431 46.8735849,93.1344 L46.8735849,93.1344 C46.9226066,92.891713 46.9533533,92.6456891 46.965566,92.3984 C46.9952098,92.2094226 46.9952098,92.0169774 46.965566,91.828 L48.0509434,92.0672 C48.5476415,92.0488 48.6948113,91.6256 48.3636792,91.552 Z" id="Shape" fill="#544B4D"></path>
                <path d="M29.6363208,94.7168 C29.4606728,94.259159 29.6592448,93.7427659 30.0962264,93.5208 C30.4641509,93.3368 31.6231132,93.5208 31.6599057,93.9992 L31.8806604,93.8336 C31.397609,93.6689188 30.8655988,93.8694275 30.6113208,94.312 C30.5391617,94.490002 30.5413604,94.6895083 30.617425,94.8658761 C30.6934896,95.0422438 30.83707,95.1807494 31.0160377,95.2504 C31.2367925,95.2504 31.3471698,94.9744 31.1080189,94.8824 C30.8688679,94.7904 30.9608491,94.312 31.1080189,94.2016 C31.3156324,94.124013 31.5442733,94.124013 31.7518868,94.2016 C31.8035833,94.2123273 31.8573959,94.2003212 31.8996337,94.1686364 C31.9418716,94.1369515 31.9684626,94.0886424 31.9726415,94.036 C31.9726415,93.2264 30.6849057,92.9504 30.1330189,93.1896 C29.8282363,93.3183179 29.5891675,93.5658601 29.4711019,93.8749776 C29.3530363,94.1840951 29.3661994,94.5280154 29.5075472,94.8272 C29.5075472,94.9376 29.7283019,94.8272 29.6915094,94.8272 L29.6363208,94.7168 Z" id="Shape" fill="#544B4D"></path>
                <path d="M38.6136792,101.2488 C39.1155245,102.298615 40.0842263,103.049171 41.2259434,103.2728 C42.4338927,103.696513 43.7622434,103.610153 44.9051887,103.0336 C45.2731132,102.8128 44.9051887,102.2608 44.5740566,102.4632 C43.5936841,102.896921 42.4897641,102.962255 41.4650943,102.6472 C40.4746877,102.446075 39.5953485,101.881607 39,101.0648 C38.9422471,100.995986 38.8432519,100.978951 38.765827,101.024504 C38.6884021,101.070058 38.6551901,101.164877 38.6872642,101.2488 L38.6136792,101.2488 Z" id="Shape" fill="#544B4D"></path>
                <rect id="Rectangle-path" fill="#2D8BEA" x="16.9245283" y="17.768" width="49.0075472" height="49.0176"></rect>
                <path d="M47.8669811,59.1312 C45.8925802,58.3026041 43.6988643,58.1537374 41.6306604,58.708 C40.3613208,59.0024 34.9896226,60.3272 33.8306604,60.7504 C32.8512304,60.9599244 31.9364296,61.4016429 31.1632075,62.0384 C30.0196331,63.499655 29.0675723,65.1011766 28.3301887,66.804 L59.6037736,66.804 C59.5864763,66.3175363 59.5434918,65.8323266 59.475,65.3504 C59.5107962,64.1525116 58.8709069,63.0360312 57.8193396,62.4616 C55.5566038,61.008 50.2216981,60.272 47.8669811,59.1312 Z" id="Shape" fill="#203966"></path>
                <path d="M41.6674528,52.8752 C41.2811321,52.6912 41.6674528,57.9904 41.4834906,59.1128 C40.4619996,59.4499257 39.7770024,60.4106079 39.7910377,61.4864 C39.7910377,62.9768 41.5018868,64.3016 43.6910377,64.3016 C46.5792453,64.3016 48.5476415,62.4616 48.5476415,60.8608 C48.6002225,60.3819451 48.3512243,59.9204713 47.9221698,59.7016 C47.3199381,59.3308641 46.845047,58.7852692 46.5608491,58.1376 C45.659434,56.1504 46.2849057,52.8568 46.5608491,50.06 C45.0707547,49.2872 42.7528302,51.8448 41.6674528,52.8752 Z" id="Shape" fill="#F3E1C4"></path>
                <path d="M42.2561321,55.8008 C43.6162831,55.5976902 44.9265078,55.1421377 46.1193396,54.4576 C46.1193396,53.096 46.4136792,51.6056 46.5608491,50.0416 C45.0523585,49.2872 42.7528302,51.8816 41.6490566,52.8752 C41.4283019,52.7648 41.4650943,54.292 41.5018868,55.8928 L42.2561321,55.8008 Z" id="Shape" fill="#C2B49D"></path>
                <path d="M50.9759434,37.824 C50.9759434,43.8224 46.1009434,54.384 40.1037736,54.384 C34.1066038,54.384 30.4457547,46.0672 30.4457547,37.824 C30.4457547,31.8256 34.125,26.9312 40.1037736,26.9312 C42.9904425,26.9311959 45.758613,28.0794137 47.7980699,30.1227406 C49.8375269,32.1660676 50.9808278,34.9367431 50.9759434,37.824 L50.9759434,37.824 Z" id="Shape" fill="#F3E1C4"></path>
                <ellipse id="Oval" fill="#544B4D" cx="40.6924528" cy="39.7376" rx="0.662264151" ry="0.8464"></ellipse>
                <ellipse id="Oval" fill="#544B4D" cx="33.3523585" cy="39.7376" rx="0.662264151" ry="0.8464"></ellipse>
                <path d="M59.475,28.9184 C59.5031115,26.4408566 58.1464705,24.1547566 55.9585702,22.9928013 C53.7706699,21.830846 51.1173496,21.9873263 49.0811321,23.3984 C47.024755,22.0762766 44.6055015,21.4327261 42.1641509,21.5584 C38.6685628,21.4682167 35.2246076,22.4158188 32.2669811,24.2816 C28.2382075,26.6368 24.9084906,31.7704 26.5273585,33.132 L26.6377358,33.132 C25.8129513,35.1348096 25.5954317,37.3360473 26.0122642,39.4616 L26.0122642,39.4616 C25.870544,37.4220847 26.3175113,35.3847731 27.3,33.592 C28.3694853,34.1891532 29.5933873,34.4519295 30.8136792,34.3464 C31.1380563,33.1057413 31.6598127,31.9253358 32.3589623,30.8504 C33.4627358,29.2864 34.1985849,29.176 36.9396226,29.2496 C37.6018868,28.7712 38.9448113,27.4096 39.6806604,27.2624 C39.3895724,27.9553329 39.149776,28.6687197 38.9632075,29.3968 C43.3599057,29.8752 45.5122642,30.6848 46.9471698,31.844 L46.9471698,31.844 C46.8124429,34.5823747 46.4057238,37.3005555 45.7330189,39.9584 C46.8919811,40.1792 47.7014151,38.6704 47.8485849,37.18 C48.75,37.64 50.9207547,38.836 50.8471698,40.3632 C50.8471698,41.5776 50.1113208,41.8904 48.2716981,42.976 C48.8926445,42.9758178 49.510967,42.8954194 50.1113208,42.7368 C50.1113208,42.9392 49.9641509,43.1968 49.890566,43.4176 C49.4085947,43.8195511 48.8429312,44.1087273 48.2349057,44.264 C48.6598001,44.4929976 49.171332,44.4929976 49.5962264,44.264 C49.1762966,45.4187705 48.6657436,46.538526 48.0693396,47.6128 C48.2438909,48.1351911 48.511927,48.6214959 48.8603774,49.048 C48.9891509,49.2136 49.0995283,49.048 49.0259434,48.9192 C48.839077,48.3948198 48.7699873,47.8357066 48.8235849,47.2816 C48.8375084,47.2068253 48.8959954,47.1483263 48.9707547,47.1344 C49.362857,47.6677575 49.8201881,48.1499081 50.3320755,48.5696 C50.5712264,48.7352 50.6264151,48.5696 50.4608491,48.4224 C50.0575406,47.8847532 49.8036639,47.2499313 49.725,46.5824 C52.2993692,47.0650637 54.9432208,46.2135965 56.7523585,44.3192 C55.4185025,43.1388526 54.5344536,41.5329344 54.2504717,39.7744 C54.2504717,39.7744 54.9495283,42.424 57.0650943,41.872 C55.2851948,40.1070897 54.1732784,37.7787405 53.9193396,35.2848 C57.0598423,34.7731219 59.3926532,32.0998831 59.475,28.9184 L59.475,28.9184 Z" id="Shape" fill="#2B2631"></path>
                <ellipse id="Oval" fill="#F3E1C4" cx="50.3320755" cy="38.744" rx="2.98018868" ry="2.9808"></ellipse>
                <path d="M49.6146226,38.468 C49.8169811,38.468 50.0193396,38.3024 50.2216981,38.468 C50.3939317,38.5943781 50.4615038,38.8196648 50.3872642,39.02 C50.3466243,39.1622686 50.428987,39.3105518 50.5712264,39.3512 C50.7134658,39.3918482 50.8617187,39.3094686 50.9023585,39.1672 C51.0432728,38.7498025 50.8749168,38.2905557 50.4976415,38.0632 C50.1385941,37.8416809 49.6721337,37.9116643 49.3938679,38.2288 C49.3467001,38.2957374 49.3494383,38.3857978 49.4005855,38.4497449 C49.4517326,38.5136919 49.5389773,38.5361332 49.6146226,38.5048 L49.6146226,38.468 Z" id="Shape" fill="#544B4D"></path>
                <path d="M25.9570755,35.4688 C26.5649353,32.2355836 28.3969472,29.3617668 31.0712264,27.4464 C31.3839623,27.244 31.0712264,26.7472 30.7216981,26.9864 C28.0624437,29.0620727 26.3462103,32.1174623 25.9570755,35.4688 L25.9570755,35.4688 Z" id="Shape" fill="#FFFFFF"></path>
                <path d="M36.4429245,44.9448 C36.1669811,45.0736 35.6886792,45.5336 35.6886792,44.9448 C35.7709458,43.6354605 35.9992494,42.3394173 36.3693396,41.0808 C36.6650063,39.8721283 36.861882,38.641403 36.9580189,37.4008 C36.9580189,36.1312 36.7004717,35.5608 35.670283,35.0824 C35.4679245,34.972 34.7136792,35.2664 35.265566,35.432 C36.0897069,35.6325016 36.6194058,36.4352403 36.479717,37.272 C36.479717,38.3576 35.4863208,42.1848 34.8608491,44.9816 C34.8189331,45.1998864 34.8959655,45.4240265 35.0632075,45.5704 C35.2103774,45.6808 36.0198113,45.2944 36.479717,45.5704 C37.2523585,45.9752 37.5834906,45.46 37.5650943,45.2024 C37.5466981,44.9448 37.1971698,44.5584 36.4429245,44.9448 Z" id="Shape" fill="#F3988C"></path>
                <path d="M34.3641509,47.668 C37.3855863,48.5434968 40.6072591,48.4339375 43.5622642,47.3552 C42.4400943,49.4528 40.6188679,51.716 38.7792453,51.716 C37.4363208,51.716 35.4127358,49.5816 34.3641509,47.668 Z" id="Shape" fill="#FFFFFF"></path>
                <path d="M34.290566,47.6312 C35.7226509,48.225635 37.2667324,48.5018688 38.8160377,48.4408 C40.397906,48.4411518 41.9694855,48.1864167 43.470283,47.6864 C43.5718826,47.6559139 43.6295365,47.5488204 43.5990566,47.4472 C43.5685767,47.3455796 43.4615052,47.2879139 43.3599057,47.3184 C41.8798446,47.7996916 40.3354508,48.0540416 38.7792453,48.0728 C37.2941045,48.0912512 35.8138366,47.8992106 34.3825472,47.5024 C34.3825472,47.5024 34.1985849,47.5024 34.2721698,47.6312 L34.290566,47.6312 Z" id="Shape" fill="#F3988C"></path>
                <path d="M41.2811321,35.2664 C42.0749314,35.4420062 42.8061447,35.8299467 43.3966981,36.3888 C43.7278302,36.7568 44.0773585,36.3888 43.8198113,35.9472 C42.6946755,34.5934449 40.866081,34.0491087 39.1839623,34.5672 C38.8746398,34.7898132 38.7799233,35.2082303 38.9632075,35.5424 C39.6977736,35.2466924 40.4976876,35.151445 41.2811321,35.2664 Z" id="Shape" fill="#544B4D"></path>
                <path d="M35.7438679,34.7328 C35.2266009,34.3198312 34.5470345,34.170296 33.9042453,34.328 C32.9498594,34.3670439 32.0390094,34.737966 31.3287736,35.3768 C31.0712264,35.7448 31.3287736,36.1128 31.5863208,35.7816 C32.2485849,34.8984 34.3273585,35.0456 35.265566,35.5056 C35.4495283,35.5056 35.6518868,35.3768 35.670283,35.156 L35.7438679,34.7328 Z" id="Shape" fill="#544B4D"></path>
                <path d="M42.5136792,23.0488 C45.3018336,22.5094391 48.0975051,23.945554 49.2834906,26.5264 C49.3938679,26.784 49.7801887,26.5264 49.6698113,26.3056 C48.4414939,23.5386425 45.3814683,22.0785859 42.4584906,22.8648 C42.4076908,22.8648 42.3665094,22.9059898 42.3665094,22.9568 C42.3665094,23.0076102 42.4076908,23.0488 42.4584906,23.0488 L42.5136792,23.0488 Z" id="Shape" fill="#FFFFFF"></path>
                <path d="M50.9943396,24.0424 C53.782494,23.5030391 56.5781655,24.939154 57.7641509,27.52 C57.8745283,27.7776 58.2608491,27.52 58.1504717,27.2992 C56.9221543,24.5322425 53.8621286,23.0721859 50.9391509,23.8584 C50.8883512,23.8584 50.8471698,23.8995898 50.8471698,23.9504 C50.8471698,24.0012102 50.8883512,24.0424 50.9391509,24.0424 L50.9943396,24.0424 Z" id="Shape" fill="#FFFFFF"></path>
                <path d="M49.5410377,23.4168 L50.0009434,23.748 L50.129717,23.748 C50.129717,23.748 48.4188679,20.2704 47.1679245,17.86 L46.3400943,17.86 C47.3334906,19.5528 49.5410377,23.4168 49.5410377,23.4168 Z" id="Shape" fill="#F454A8"></path>
                <path d="M33.315566,25.7536 C32.9525691,25.8360047 32.6129432,25.9995618 32.3221698,26.232 C32.1198113,26.3976 32.3221698,26.7288 32.5613208,26.5632 C32.8069744,26.3422188 33.0864655,26.1620654 33.3891509,26.0296 C33.5363208,26.0296 33.4811321,25.7168 33.3891509,25.7536 L33.315566,25.7536 Z" id="Shape" fill="#FFFFFF"></path>
            </g>
            <g id="horloge" transform="translate(161.000000, 0.000000)">
                <path d="M26.47,50.36 C16.5345879,50.3599967 7.57785805,44.3739785 3.77761154,35.1940799 C-0.0226349684,26.0141812 2.08228266,15.4489199 9.11054099,8.42638495 C16.1387993,1.40384996 26.7057719,-0.692459835 35.8825716,3.11526395 C45.0593712,6.92298773 51.0380907,15.8845912 51.03,25.82 C51.0024593,39.3694495 40.0194674,50.3434975 26.47,50.36 L26.47,50.36 Z" id="Shape" fill="#FFFFFF"></path>
                <path d="M26.47,2.5 C39.3424555,2.50000118 49.7781576,12.9342127 49.7799976,25.8066681 C49.7818376,38.6791235 39.3491188,49.1163179 26.4766638,49.119999 C13.6042088,49.1236802 3.16552229,38.6924543 3.16,25.82 C3.16,12.9462425 13.5962425,2.51 26.47,2.51 L26.47,2.5 Z M26.47,0 C12.2100078,2.84217094e-14 0.65,11.5600078 0.65,25.82 C0.65,40.0799922 12.2100078,51.64 26.47,51.64 C40.7299922,51.64 52.29,40.0799922 52.29,25.82 C52.2734682,11.5668611 40.7231389,0.0165317842 26.47,2.84217094e-14 L26.47,0 Z" id="Shape" fill="#21DE80"></path>
                <path d="M38.77,33.27 C38.6,33.27 38.6,33.27 38.43,33.16 L26.11,27.3 L26.11,7.37 C26.0533179,6.96027367 26.240143,6.5550017 26.5885062,6.33199593 C26.9368694,6.10899017 27.3831306,6.10899017 27.7314938,6.33199593 C28.079857,6.5550017 28.2666821,6.96027367 28.21,7.37 L28.21,25.82 L39.32,31.04 C39.6054833,31.1761782 39.8250067,31.4204087 39.9300811,31.718745 C40.0351555,32.0170814 40.017135,32.3449751 39.88,32.63 C39.6625792,33.0378023 39.2318591,33.2861454 38.77,33.27 Z" id="Shape" fill="#F454A8"></path>
            </g>
        </g>
    </g>
</svg>