
<svg width="133px" height="29px" viewBox="0 0 133 29" version="1.1" xmlns="http://www.w3.org/2000/svg" xmlns:xlink="http://www.w3.org/1999/xlink">
    <!-- Generator: Sketch 49.2 (51160) - http://www.bohemiancoding.com/sketch -->
    <desc>Created with Sketch.</desc>
    <defs></defs>
    <g id="Symbols" stroke="none" stroke-width="1" fill="none" fill-rule="evenodd">
        <g id="Nav-bar">
            <g id="Group">
                <g id="logo-Q" fill="#21DE80">
                    <path d="M24.2024496,23.92645 C26.9846218,20.9660333 28.2886471,17.9250208 28.2886471,14.04325 C28.2886471,6.3383125 21.9675,0.0698416667 14.1976933,0.0698416667 C6.42788655,0.0698416667 0.106739496,6.3383125 0.106739496,14.04325 C0.106739496,21.7481875 6.42788655,28.0166583 14.1976933,28.0166583 C17.2164958,28.0166583 19.1253782,27.3299625 20.7703361,26.3632958 C21.8365126,27.9341292 23.5728571,28.9007958 25.3396639,28.9007958 C27.167395,28.9007958 28.5991176,27.5716292 28.9037395,25.9403792 C27.3197059,25.7893375 25.0959664,25.1549625 24.2024496,23.92645 L24.2024496,23.92645 Z M20.1411092,19.8328583 C19.3079076,18.4431542 17.9126176,18.10905 17.9126176,18.10905 C16.6739034,19.5725833 13.8072899,20.5567708 10.8637899,19.4993583 C7.78918067,18.3949417 6.11229832,15.7903792 6.11229832,13.0648625 C6.11229832,9.39515417 8.98865966,5.73100417 14.0018824,5.73100417 C18.7559328,5.73100417 22.2314244,9.1781375 22.2314244,13.7330708 C22.2314244,16.197225 21.4586597,17.9871292 20.1411092,19.8328583 L20.1411092,19.8328583 Z" id="Fill-1"></path>
                    <path d="M11.5011807,12.2527417 C11.0822647,12.2527417 10.7414538,12.6168125 10.7414538,13.0643792 C10.7414538,13.5124292 11.0822647,13.8769833 11.5011807,13.8769833 C11.9200966,13.8769833 12.2606639,13.5124292 12.2606639,13.0643792 C12.2606639,12.6168125 11.9200966,12.2527417 11.5011807,12.2527417" id="Fill-2"></path>
                    <path d="M14.1713739,12.2527417 C13.7528235,12.2527417 13.4123782,12.6168125 13.4123782,13.0643792 C13.4123782,13.5124292 13.7528235,13.8769833 14.1713739,13.8769833 C14.5907773,13.8769833 14.9319538,13.5124292 14.9319538,13.0643792 C14.9319538,12.6168125 14.5907773,12.2527417 14.1713739,12.2527417" id="Fill-3"></path>
                    <path d="M16.8418109,12.2527417 C16.4235042,12.2527417 16.0830588,12.6168125 16.0830588,13.0643792 C16.0830588,13.5124292 16.4235042,13.8769833 16.8418109,13.8769833 C17.2610924,13.8769833 17.6022689,13.5124292 17.6022689,13.0643792 C17.6022689,12.6168125 17.2610924,12.2527417 16.8418109,12.2527417" id="Fill-4"></path>
                </g>
                <g id="logo-Qwert" transform="translate(39.000000, 8.000000)">
                    <path d="M6.21380464,0.11747561 C9.72324172,0.11747561 12.4280762,2.85556098 12.4280762,6.41296341 C12.4280762,7.96503659 11.8802616,9.39519512 11.0071821,10.4764146 L12.4451954,11.8715366 L11.4522815,12.9527561 L10.0485066,11.5227561 C9.0042351,12.3771098 7.68605629,12.848122 6.21380464,12.848122 C2.72148675,12.848122 0.0166523179,10.005561 0.0166523179,6.41296341 C0.0166523179,2.85556098 2.72148675,0.11747561 6.21380464,0.11747561 L6.21380464,0.11747561 Z M6.21380464,11.2610122 C7.12112252,11.2610122 8.13115563,10.9298293 8.83304305,10.3543415 L7.41214901,8.94178049 L8.40506291,7.86040244 L9.79171854,9.29056098 C10.3395331,8.5232439 10.6819172,7.49434146 10.6819172,6.41296341 C10.6819172,3.69247561 8.73032781,1.68714634 6.21380464,1.68714634 C3.71440066,1.68714634 1.76265563,3.69247561 1.76265563,6.41296341 C1.76265563,9.1684878 3.71440066,11.2610122 6.21380464,11.2610122 L6.21380464,11.2610122 Z" id="Fill-1" fill="#000000"></path>
                    <path d="M14.5849404,3.81470732 L16.3482185,3.81470732 L18.1457351,10.005561 C18.2826887,10.4589756 18.3511656,10.9472683 18.3682848,10.9472683 L18.4025232,10.9472683 C18.4025232,10.9472683 18.4881192,10.4589756 18.6250728,10.005561 L20.5081854,3.8319878 L22.0317947,3.8319878 L23.8977881,10.005561 C24.0347417,10.4589756 24.137457,10.9472683 24.137457,10.9472683 L24.1716954,10.9472683 C24.1716954,10.9472683 24.2401722,10.4589756 24.3771258,10.005561 L26.1917616,3.81470732 L27.9379205,3.81470732 L25.1474901,12.6388537 L23.3157351,12.6388537 L21.5182185,6.97117073 C21.3812649,6.5177561 21.2785497,6.01202439 21.2785497,6.01202439 L21.2443113,6.01202439 C21.2443113,6.01202439 21.141596,6.5177561 21.0046424,6.97117073 L19.224245,12.6388537 L17.3753709,12.6388537 L14.5849404,3.81470732" id="Fill-2" fill="#000000"></path>
                    <path d="M34.1179536,3.60528049 C36.566,3.60528049 37.8670596,5.45397561 37.8670596,7.7384878 C37.8670596,7.96503659 37.815702,8.47092683 37.815702,8.47092683 L31.4987152,8.47092683 C31.5841556,10.4066585 32.9365728,11.3832439 34.477457,11.3832439 C35.9668278,11.3832439 37.0453377,10.3543415 37.0453377,10.3543415 L37.730106,11.5925122 C37.730106,11.5925122 36.4461656,12.848122 34.3747417,12.848122 C31.6526325,12.848122 29.7867947,10.8426341 29.7867947,8.22678049 C29.7867947,5.41909756 31.6526325,3.60528049 34.1179536,3.60528049 L34.1179536,3.60528049 Z M36.1722583,7.19787805 C36.1209007,5.68052439 35.1963079,4.94808537 34.0837152,4.94808537 C32.8167384,4.94808537 31.7895861,5.75043902 31.5499172,7.19787805 L36.1722583,7.19787805 L36.1722583,7.19787805 Z" id="Fill-3" fill="#000000"></path>
                    <path d="M40.7429305,3.81470732 L42.3521358,3.81470732 L42.3521358,5.34918293 C42.3521358,5.71556098 42.3178974,6.01202439 42.3178974,6.01202439 L42.3521358,6.01202439 C42.7458775,4.72137805 43.7559106,3.71007317 45.0912086,3.71007317 C45.3137583,3.71007317 45.5191887,3.74479268 45.5191887,3.74479268 L45.5191887,5.41909756 C45.5191887,5.41909756 45.2966391,5.36678049 45.039851,5.36678049 C43.9784603,5.36678049 43.0026656,6.13409756 42.6089238,7.44202439 C42.454851,7.9477561 42.4034934,8.48836585 42.4034934,9.02881707 L42.4034934,12.6388537 L40.7429305,12.6388537 L40.7429305,3.81470732" id="Fill-4" fill="#000000"></path>
                    <path d="M48.2925,5.64580488 L47.1626325,5.64580488 L47.1626325,3.88430488 L48.3438576,3.88430488 L48.3438576,1.32076829 L50.4667947,1.32076829 L50.4667947,3.88430488 L52.4524669,3.88430488 L52.4524669,5.64580488 L50.4667947,5.64580488 L50.4667947,9.09873171 C50.4667947,10.5636098 51.5965066,10.7727195 52.1956788,10.7727195 C52.4353477,10.7727195 52.5894205,10.738 52.5894205,10.738 L52.5894205,12.6737317 C52.5894205,12.6737317 52.3327881,12.7260488 51.9217715,12.7260488 C50.7064636,12.7260488 48.2925,12.3598293 48.2925,9.3777561 L48.2925,5.64580488" id="Fill-5" fill="#21DE80"></path>
                    <path d="M59.0435166,3.53568293 C61.5600397,3.53568293 62.9123013,5.40165854 62.9123013,7.75592683 C62.9123013,8.0175122 62.8610993,8.61043902 62.8610993,8.61043902 L56.8351391,8.61043902 C56.9719371,10.1625122 58.1531623,10.9645488 59.4543775,10.9645488 C60.8581523,10.9645488 61.9709007,9.98812195 61.9709007,9.98812195 L62.8097417,11.5750732 C62.8097417,11.5750732 61.4744437,12.848122 59.300149,12.848122 C56.4070033,12.848122 54.6096424,10.720561 54.6096424,8.19190244 C54.6096424,5.45397561 56.4412417,3.53568293 59.0435166,3.53568293 L59.0435166,3.53568293 Z M60.721043,7.09308537 C60.6869603,5.88995122 59.9508344,5.24454878 58.9921589,5.24454878 C57.879255,5.24454878 57.1088907,5.94226829 56.9036159,7.09308537 L60.721043,7.09308537 L60.721043,7.09308537 Z" id="Fill-6" fill="#21DE80"></path>
                    <path d="M69.9994967,7.05836585 L70.2905232,7.05836585 L70.2905232,6.93629268 C70.2905232,5.76787805 69.5715166,5.36678049 68.6128411,5.36678049 C67.3631391,5.36678049 66.2161523,6.22113415 66.2161523,6.22113415 L65.3942748,4.63434146 C65.3942748,4.63434146 66.7468477,3.53568293 68.8184272,3.53568293 C71.112245,3.53568293 72.447543,4.82617073 72.447543,7.07580488 L72.447543,12.6388537 L70.444596,12.6388537 L70.444596,11.9064146 C70.444596,11.5576341 70.4788344,11.2786098 70.4788344,11.2786098 L70.444596,11.2786098 C70.4617152,11.2786098 69.776947,12.848122 67.7911192,12.848122 C66.2332715,12.848122 64.8294967,11.8540976 64.8294967,10.0753171 C64.8294967,7.25019512 68.5786026,7.05836585 69.9994967,7.05836585 L69.9994967,7.05836585 Z M68.3389338,11.1216585 C69.4860762,11.1216585 70.3076424,9.86604878 70.3076424,8.78467073 L70.3076424,8.57556098 L69.9310199,8.57556098 C68.8184272,8.57556098 67.020755,8.73235366 67.020755,9.97068293 C67.020755,10.5636098 67.4487351,11.1216585 68.3389338,11.1216585 L68.3389338,11.1216585 Z" id="Fill-7" fill="#21DE80"></path>
                    <path d="M79.6718477,3.53568293 C81.948702,3.53568293 83.0270563,4.86089024 83.0270563,4.86089024 L82.0683808,6.3782439 C82.0683808,6.3782439 81.1610629,5.41909756 79.7915265,5.41909756 C78.1824768,5.41909756 77.1382053,6.65710976 77.1382053,8.17446341 C77.1382053,9.67421951 78.1994404,10.9645488 79.8601589,10.9645488 C81.3324106,10.9645488 82.4280397,9.83117073 82.4280397,9.83117073 L83.2667252,11.4006829 C83.2667252,11.4006829 82.0170232,12.848122 79.6718477,12.848122 C76.7785464,12.848122 74.9296722,10.7727195 74.9296722,8.19190244 C74.9296722,5.6632439 76.7785464,3.53568293 79.6718477,3.53568293" id="Fill-8" fill="#21DE80"></path>
                    <path d="M85.7491656,0.256987805 L87.923149,0.256987805 L87.923149,4.54714634 C87.923149,4.98312195 87.8890662,5.29686585 87.8890662,5.29686585 L87.923149,5.29686585 C88.3511291,4.4425122 89.4126755,3.53568293 90.9362848,3.53568293 C92.8705993,3.53568293 93.9662285,4.56442683 93.9662285,6.91885366 L93.9662285,12.6388537 L91.8093642,12.6388537 L91.8093642,7.37226829 C91.8093642,6.29104878 91.5353013,5.55860976 90.4227086,5.55860976 C89.2757219,5.55860976 88.3855232,6.32592683 88.0601026,7.40714634 C87.9573874,7.75592683 87.923149,8.13958537 87.923149,8.55812195 L87.923149,12.6388537 L85.7491656,12.6388537 L85.7491656,0.256987805" id="Fill-9" fill="#21DE80"></path>
                </g>
            </g>
        </g>
    </g>
</svg>